G75*
%MOIN*%
%OFA0B0*%
%FSLAX25Y25*%
%IPPOS*%
%LPD*%
%AMOC8*
5,1,8,0,0,1.08239X$1,22.5*
%
%ADD10C,0.01500*%
%ADD11C,0.01100*%
D10*
X0027750Y0001750D02*
X0027750Y0486750D01*
X0001750Y0435750D02*
X0690750Y0435750D01*
X0639750Y0486750D02*
X0639750Y0001750D01*
X0690750Y0027750D02*
X0001750Y0027750D01*
X0129750Y0001750D02*
X0129750Y0486750D01*
X0231750Y0486750D02*
X0231750Y0001750D01*
X0333750Y0001750D02*
X0333750Y0486750D01*
X0435750Y0486750D02*
X0435750Y0001750D01*
X0537750Y0001750D02*
X0537750Y0486750D01*
X0690750Y0333750D02*
X0001750Y0333750D01*
X0001750Y0231750D02*
X0690750Y0231750D01*
X0690750Y0129750D02*
X0001750Y0129750D01*
D11*
X0011852Y0492800D02*
X0013163Y0496733D01*
X0010541Y0496733D02*
X0011852Y0492800D01*
X0015834Y0495094D02*
X0019768Y0495094D01*
X0023136Y0495094D02*
X0024774Y0494439D01*
X0024775Y0494439D02*
X0024827Y0494416D01*
X0024878Y0494389D01*
X0024927Y0494359D01*
X0024974Y0494326D01*
X0025019Y0494290D01*
X0025061Y0494250D01*
X0025100Y0494208D01*
X0025136Y0494164D01*
X0025169Y0494117D01*
X0025199Y0494067D01*
X0025226Y0494016D01*
X0025249Y0493964D01*
X0025268Y0493910D01*
X0025284Y0493854D01*
X0025296Y0493798D01*
X0025304Y0493741D01*
X0025308Y0493684D01*
X0025309Y0493626D01*
X0025305Y0493569D01*
X0025298Y0493512D01*
X0025286Y0493455D01*
X0025271Y0493400D01*
X0025253Y0493345D01*
X0025230Y0493292D01*
X0025204Y0493241D01*
X0025175Y0493192D01*
X0025142Y0493144D01*
X0025106Y0493099D01*
X0025068Y0493057D01*
X0025026Y0493017D01*
X0024982Y0492980D01*
X0024935Y0492946D01*
X0024887Y0492915D01*
X0024836Y0492888D01*
X0024784Y0492864D01*
X0024730Y0492844D01*
X0024675Y0492828D01*
X0024619Y0492815D01*
X0024562Y0492806D01*
X0024504Y0492801D01*
X0024447Y0492800D01*
X0024938Y0496405D02*
X0024831Y0496451D01*
X0024722Y0496494D01*
X0024612Y0496534D01*
X0024500Y0496570D01*
X0024388Y0496602D01*
X0024274Y0496631D01*
X0024160Y0496657D01*
X0024045Y0496678D01*
X0023930Y0496697D01*
X0023813Y0496711D01*
X0023697Y0496722D01*
X0023580Y0496729D01*
X0023463Y0496733D01*
X0023463Y0496734D02*
X0023406Y0496733D01*
X0023348Y0496728D01*
X0023291Y0496719D01*
X0023235Y0496706D01*
X0023180Y0496690D01*
X0023126Y0496670D01*
X0023074Y0496646D01*
X0023023Y0496619D01*
X0022975Y0496588D01*
X0022928Y0496554D01*
X0022884Y0496517D01*
X0022842Y0496477D01*
X0022804Y0496435D01*
X0022768Y0496390D01*
X0022735Y0496342D01*
X0022706Y0496293D01*
X0022680Y0496242D01*
X0022657Y0496189D01*
X0022639Y0496134D01*
X0022624Y0496079D01*
X0022612Y0496022D01*
X0022605Y0495965D01*
X0022601Y0495908D01*
X0022602Y0495850D01*
X0022606Y0495793D01*
X0022614Y0495736D01*
X0022626Y0495680D01*
X0022642Y0495624D01*
X0022661Y0495570D01*
X0022684Y0495518D01*
X0022711Y0495467D01*
X0022741Y0495417D01*
X0022774Y0495370D01*
X0022810Y0495326D01*
X0022849Y0495284D01*
X0022891Y0495244D01*
X0022936Y0495208D01*
X0022983Y0495175D01*
X0023032Y0495145D01*
X0023083Y0495118D01*
X0023135Y0495095D01*
X0022644Y0493128D02*
X0022778Y0493082D01*
X0022913Y0493039D01*
X0023049Y0493000D01*
X0023186Y0492964D01*
X0023323Y0492932D01*
X0023462Y0492903D01*
X0023601Y0492877D01*
X0023741Y0492856D01*
X0023882Y0492837D01*
X0024022Y0492823D01*
X0024164Y0492812D01*
X0024305Y0492804D01*
X0024447Y0492801D01*
X0027988Y0493783D02*
X0027988Y0495750D01*
X0027990Y0495812D01*
X0027996Y0495873D01*
X0028005Y0495934D01*
X0028019Y0495994D01*
X0028036Y0496054D01*
X0028057Y0496112D01*
X0028082Y0496169D01*
X0028110Y0496224D01*
X0028141Y0496277D01*
X0028176Y0496328D01*
X0028214Y0496377D01*
X0028254Y0496423D01*
X0028298Y0496467D01*
X0028344Y0496507D01*
X0028393Y0496545D01*
X0028444Y0496580D01*
X0028497Y0496611D01*
X0028552Y0496639D01*
X0028609Y0496664D01*
X0028667Y0496685D01*
X0028727Y0496702D01*
X0028787Y0496716D01*
X0028848Y0496725D01*
X0028909Y0496731D01*
X0028971Y0496733D01*
X0030282Y0496733D01*
X0032695Y0495422D02*
X0032695Y0494111D01*
X0032696Y0494111D02*
X0032698Y0494040D01*
X0032704Y0493969D01*
X0032713Y0493899D01*
X0032727Y0493829D01*
X0032744Y0493760D01*
X0032765Y0493692D01*
X0032789Y0493626D01*
X0032817Y0493561D01*
X0032849Y0493497D01*
X0032884Y0493435D01*
X0032922Y0493375D01*
X0032963Y0493318D01*
X0033008Y0493262D01*
X0033055Y0493209D01*
X0033105Y0493159D01*
X0033158Y0493112D01*
X0033214Y0493067D01*
X0033271Y0493026D01*
X0033331Y0492988D01*
X0033393Y0492953D01*
X0033457Y0492921D01*
X0033522Y0492893D01*
X0033588Y0492869D01*
X0033656Y0492848D01*
X0033725Y0492831D01*
X0033795Y0492817D01*
X0033865Y0492808D01*
X0033936Y0492802D01*
X0034007Y0492800D01*
X0034078Y0492802D01*
X0034149Y0492808D01*
X0034219Y0492817D01*
X0034289Y0492831D01*
X0034358Y0492848D01*
X0034426Y0492869D01*
X0034492Y0492893D01*
X0034557Y0492921D01*
X0034621Y0492953D01*
X0034683Y0492988D01*
X0034743Y0493026D01*
X0034800Y0493067D01*
X0034856Y0493112D01*
X0034909Y0493159D01*
X0034959Y0493209D01*
X0035006Y0493262D01*
X0035051Y0493318D01*
X0035092Y0493375D01*
X0035130Y0493435D01*
X0035165Y0493497D01*
X0035197Y0493561D01*
X0035225Y0493626D01*
X0035249Y0493692D01*
X0035270Y0493760D01*
X0035287Y0493829D01*
X0035301Y0493899D01*
X0035310Y0493969D01*
X0035316Y0494040D01*
X0035318Y0494111D01*
X0035318Y0495422D01*
X0035316Y0495493D01*
X0035310Y0495564D01*
X0035301Y0495634D01*
X0035287Y0495704D01*
X0035270Y0495773D01*
X0035249Y0495841D01*
X0035225Y0495907D01*
X0035197Y0495972D01*
X0035165Y0496036D01*
X0035130Y0496098D01*
X0035092Y0496158D01*
X0035051Y0496215D01*
X0035006Y0496271D01*
X0034959Y0496324D01*
X0034909Y0496374D01*
X0034856Y0496421D01*
X0034800Y0496466D01*
X0034743Y0496507D01*
X0034683Y0496545D01*
X0034621Y0496580D01*
X0034557Y0496612D01*
X0034492Y0496640D01*
X0034426Y0496664D01*
X0034358Y0496685D01*
X0034289Y0496702D01*
X0034219Y0496716D01*
X0034149Y0496725D01*
X0034078Y0496731D01*
X0034007Y0496733D01*
X0033936Y0496731D01*
X0033865Y0496725D01*
X0033795Y0496716D01*
X0033725Y0496702D01*
X0033656Y0496685D01*
X0033588Y0496664D01*
X0033522Y0496640D01*
X0033457Y0496612D01*
X0033393Y0496580D01*
X0033331Y0496545D01*
X0033271Y0496507D01*
X0033214Y0496466D01*
X0033158Y0496421D01*
X0033105Y0496374D01*
X0033055Y0496324D01*
X0033008Y0496271D01*
X0032963Y0496215D01*
X0032922Y0496158D01*
X0032884Y0496098D01*
X0032849Y0496036D01*
X0032817Y0495972D01*
X0032789Y0495907D01*
X0032765Y0495841D01*
X0032744Y0495773D01*
X0032727Y0495704D01*
X0032713Y0495634D01*
X0032704Y0495564D01*
X0032698Y0495493D01*
X0032696Y0495422D01*
X0030282Y0492800D02*
X0028971Y0492800D01*
X0028909Y0492802D01*
X0028848Y0492808D01*
X0028787Y0492817D01*
X0028727Y0492831D01*
X0028667Y0492848D01*
X0028609Y0492869D01*
X0028552Y0492894D01*
X0028497Y0492922D01*
X0028444Y0492953D01*
X0028393Y0492988D01*
X0028344Y0493026D01*
X0028298Y0493066D01*
X0028254Y0493110D01*
X0028214Y0493156D01*
X0028176Y0493205D01*
X0028141Y0493256D01*
X0028110Y0493309D01*
X0028082Y0493364D01*
X0028057Y0493421D01*
X0028036Y0493479D01*
X0028019Y0493539D01*
X0028005Y0493599D01*
X0027996Y0493660D01*
X0027990Y0493721D01*
X0027988Y0493783D01*
X0038284Y0492800D02*
X0038284Y0496733D01*
X0040251Y0496733D01*
X0040251Y0496078D01*
X0042337Y0495422D02*
X0042337Y0493783D01*
X0042339Y0493721D01*
X0042345Y0493660D01*
X0042354Y0493599D01*
X0042368Y0493539D01*
X0042385Y0493479D01*
X0042406Y0493421D01*
X0042431Y0493364D01*
X0042459Y0493309D01*
X0042490Y0493256D01*
X0042525Y0493205D01*
X0042563Y0493156D01*
X0042603Y0493110D01*
X0042647Y0493066D01*
X0042693Y0493026D01*
X0042742Y0492988D01*
X0042793Y0492953D01*
X0042846Y0492922D01*
X0042901Y0492894D01*
X0042958Y0492869D01*
X0043016Y0492848D01*
X0043076Y0492831D01*
X0043136Y0492817D01*
X0043197Y0492808D01*
X0043258Y0492802D01*
X0043320Y0492800D01*
X0044959Y0492800D01*
X0044959Y0494767D02*
X0042337Y0494767D01*
X0042337Y0495422D02*
X0042339Y0495493D01*
X0042345Y0495564D01*
X0042354Y0495634D01*
X0042368Y0495704D01*
X0042385Y0495773D01*
X0042406Y0495841D01*
X0042430Y0495907D01*
X0042458Y0495972D01*
X0042490Y0496036D01*
X0042525Y0496098D01*
X0042563Y0496158D01*
X0042604Y0496215D01*
X0042649Y0496271D01*
X0042696Y0496324D01*
X0042746Y0496374D01*
X0042799Y0496421D01*
X0042855Y0496466D01*
X0042912Y0496507D01*
X0042972Y0496545D01*
X0043034Y0496580D01*
X0043098Y0496612D01*
X0043163Y0496640D01*
X0043229Y0496664D01*
X0043297Y0496685D01*
X0043366Y0496702D01*
X0043436Y0496716D01*
X0043506Y0496725D01*
X0043577Y0496731D01*
X0043648Y0496733D01*
X0043719Y0496731D01*
X0043790Y0496725D01*
X0043860Y0496716D01*
X0043930Y0496702D01*
X0043999Y0496685D01*
X0044067Y0496664D01*
X0044133Y0496640D01*
X0044198Y0496612D01*
X0044262Y0496580D01*
X0044324Y0496545D01*
X0044384Y0496507D01*
X0044441Y0496466D01*
X0044497Y0496421D01*
X0044550Y0496374D01*
X0044600Y0496324D01*
X0044647Y0496271D01*
X0044692Y0496215D01*
X0044733Y0496158D01*
X0044771Y0496098D01*
X0044806Y0496036D01*
X0044838Y0495972D01*
X0044866Y0495907D01*
X0044890Y0495841D01*
X0044911Y0495773D01*
X0044928Y0495704D01*
X0044942Y0495634D01*
X0044951Y0495564D01*
X0044957Y0495493D01*
X0044959Y0495422D01*
X0044959Y0494767D01*
X0112541Y0496733D02*
X0113852Y0492800D01*
X0115163Y0496733D01*
X0117834Y0495094D02*
X0121768Y0495094D01*
X0125136Y0495094D02*
X0126774Y0494439D01*
X0126775Y0494439D02*
X0126827Y0494416D01*
X0126878Y0494389D01*
X0126927Y0494359D01*
X0126974Y0494326D01*
X0127019Y0494290D01*
X0127061Y0494250D01*
X0127100Y0494208D01*
X0127136Y0494164D01*
X0127169Y0494117D01*
X0127199Y0494067D01*
X0127226Y0494016D01*
X0127249Y0493964D01*
X0127268Y0493910D01*
X0127284Y0493854D01*
X0127296Y0493798D01*
X0127304Y0493741D01*
X0127308Y0493684D01*
X0127309Y0493626D01*
X0127305Y0493569D01*
X0127298Y0493512D01*
X0127286Y0493455D01*
X0127271Y0493400D01*
X0127253Y0493345D01*
X0127230Y0493292D01*
X0127204Y0493241D01*
X0127175Y0493192D01*
X0127142Y0493144D01*
X0127106Y0493099D01*
X0127068Y0493057D01*
X0127026Y0493017D01*
X0126982Y0492980D01*
X0126935Y0492946D01*
X0126887Y0492915D01*
X0126836Y0492888D01*
X0126784Y0492864D01*
X0126730Y0492844D01*
X0126675Y0492828D01*
X0126619Y0492815D01*
X0126562Y0492806D01*
X0126504Y0492801D01*
X0126447Y0492800D01*
X0126938Y0496405D02*
X0126831Y0496451D01*
X0126722Y0496494D01*
X0126612Y0496534D01*
X0126500Y0496570D01*
X0126388Y0496602D01*
X0126274Y0496631D01*
X0126160Y0496657D01*
X0126045Y0496678D01*
X0125930Y0496697D01*
X0125813Y0496711D01*
X0125697Y0496722D01*
X0125580Y0496729D01*
X0125463Y0496733D01*
X0125463Y0496734D02*
X0125406Y0496733D01*
X0125348Y0496728D01*
X0125291Y0496719D01*
X0125235Y0496706D01*
X0125180Y0496690D01*
X0125126Y0496670D01*
X0125074Y0496646D01*
X0125023Y0496619D01*
X0124975Y0496588D01*
X0124928Y0496554D01*
X0124884Y0496517D01*
X0124842Y0496477D01*
X0124804Y0496435D01*
X0124768Y0496390D01*
X0124735Y0496342D01*
X0124706Y0496293D01*
X0124680Y0496242D01*
X0124657Y0496189D01*
X0124639Y0496134D01*
X0124624Y0496079D01*
X0124612Y0496022D01*
X0124605Y0495965D01*
X0124601Y0495908D01*
X0124602Y0495850D01*
X0124606Y0495793D01*
X0124614Y0495736D01*
X0124626Y0495680D01*
X0124642Y0495624D01*
X0124661Y0495570D01*
X0124684Y0495518D01*
X0124711Y0495467D01*
X0124741Y0495417D01*
X0124774Y0495370D01*
X0124810Y0495326D01*
X0124849Y0495284D01*
X0124891Y0495244D01*
X0124936Y0495208D01*
X0124983Y0495175D01*
X0125032Y0495145D01*
X0125083Y0495118D01*
X0125135Y0495095D01*
X0124644Y0493128D02*
X0124778Y0493082D01*
X0124913Y0493039D01*
X0125049Y0493000D01*
X0125186Y0492964D01*
X0125323Y0492932D01*
X0125462Y0492903D01*
X0125601Y0492877D01*
X0125741Y0492856D01*
X0125882Y0492837D01*
X0126022Y0492823D01*
X0126164Y0492812D01*
X0126305Y0492804D01*
X0126447Y0492801D01*
X0129988Y0493783D02*
X0129988Y0495750D01*
X0129990Y0495812D01*
X0129996Y0495873D01*
X0130005Y0495934D01*
X0130019Y0495994D01*
X0130036Y0496054D01*
X0130057Y0496112D01*
X0130082Y0496169D01*
X0130110Y0496224D01*
X0130141Y0496277D01*
X0130176Y0496328D01*
X0130214Y0496377D01*
X0130254Y0496423D01*
X0130298Y0496467D01*
X0130344Y0496507D01*
X0130393Y0496545D01*
X0130444Y0496580D01*
X0130497Y0496611D01*
X0130552Y0496639D01*
X0130609Y0496664D01*
X0130667Y0496685D01*
X0130727Y0496702D01*
X0130787Y0496716D01*
X0130848Y0496725D01*
X0130909Y0496731D01*
X0130971Y0496733D01*
X0132282Y0496733D01*
X0134695Y0495422D02*
X0134695Y0494111D01*
X0134696Y0494111D02*
X0134698Y0494040D01*
X0134704Y0493969D01*
X0134713Y0493899D01*
X0134727Y0493829D01*
X0134744Y0493760D01*
X0134765Y0493692D01*
X0134789Y0493626D01*
X0134817Y0493561D01*
X0134849Y0493497D01*
X0134884Y0493435D01*
X0134922Y0493375D01*
X0134963Y0493318D01*
X0135008Y0493262D01*
X0135055Y0493209D01*
X0135105Y0493159D01*
X0135158Y0493112D01*
X0135214Y0493067D01*
X0135271Y0493026D01*
X0135331Y0492988D01*
X0135393Y0492953D01*
X0135457Y0492921D01*
X0135522Y0492893D01*
X0135588Y0492869D01*
X0135656Y0492848D01*
X0135725Y0492831D01*
X0135795Y0492817D01*
X0135865Y0492808D01*
X0135936Y0492802D01*
X0136007Y0492800D01*
X0136078Y0492802D01*
X0136149Y0492808D01*
X0136219Y0492817D01*
X0136289Y0492831D01*
X0136358Y0492848D01*
X0136426Y0492869D01*
X0136492Y0492893D01*
X0136557Y0492921D01*
X0136621Y0492953D01*
X0136683Y0492988D01*
X0136743Y0493026D01*
X0136800Y0493067D01*
X0136856Y0493112D01*
X0136909Y0493159D01*
X0136959Y0493209D01*
X0137006Y0493262D01*
X0137051Y0493318D01*
X0137092Y0493375D01*
X0137130Y0493435D01*
X0137165Y0493497D01*
X0137197Y0493561D01*
X0137225Y0493626D01*
X0137249Y0493692D01*
X0137270Y0493760D01*
X0137287Y0493829D01*
X0137301Y0493899D01*
X0137310Y0493969D01*
X0137316Y0494040D01*
X0137318Y0494111D01*
X0137318Y0495422D01*
X0137316Y0495493D01*
X0137310Y0495564D01*
X0137301Y0495634D01*
X0137287Y0495704D01*
X0137270Y0495773D01*
X0137249Y0495841D01*
X0137225Y0495907D01*
X0137197Y0495972D01*
X0137165Y0496036D01*
X0137130Y0496098D01*
X0137092Y0496158D01*
X0137051Y0496215D01*
X0137006Y0496271D01*
X0136959Y0496324D01*
X0136909Y0496374D01*
X0136856Y0496421D01*
X0136800Y0496466D01*
X0136743Y0496507D01*
X0136683Y0496545D01*
X0136621Y0496580D01*
X0136557Y0496612D01*
X0136492Y0496640D01*
X0136426Y0496664D01*
X0136358Y0496685D01*
X0136289Y0496702D01*
X0136219Y0496716D01*
X0136149Y0496725D01*
X0136078Y0496731D01*
X0136007Y0496733D01*
X0135936Y0496731D01*
X0135865Y0496725D01*
X0135795Y0496716D01*
X0135725Y0496702D01*
X0135656Y0496685D01*
X0135588Y0496664D01*
X0135522Y0496640D01*
X0135457Y0496612D01*
X0135393Y0496580D01*
X0135331Y0496545D01*
X0135271Y0496507D01*
X0135214Y0496466D01*
X0135158Y0496421D01*
X0135105Y0496374D01*
X0135055Y0496324D01*
X0135008Y0496271D01*
X0134963Y0496215D01*
X0134922Y0496158D01*
X0134884Y0496098D01*
X0134849Y0496036D01*
X0134817Y0495972D01*
X0134789Y0495907D01*
X0134765Y0495841D01*
X0134744Y0495773D01*
X0134727Y0495704D01*
X0134713Y0495634D01*
X0134704Y0495564D01*
X0134698Y0495493D01*
X0134696Y0495422D01*
X0132282Y0492800D02*
X0130971Y0492800D01*
X0130909Y0492802D01*
X0130848Y0492808D01*
X0130787Y0492817D01*
X0130727Y0492831D01*
X0130667Y0492848D01*
X0130609Y0492869D01*
X0130552Y0492894D01*
X0130497Y0492922D01*
X0130444Y0492953D01*
X0130393Y0492988D01*
X0130344Y0493026D01*
X0130298Y0493066D01*
X0130254Y0493110D01*
X0130214Y0493156D01*
X0130176Y0493205D01*
X0130141Y0493256D01*
X0130110Y0493309D01*
X0130082Y0493364D01*
X0130057Y0493421D01*
X0130036Y0493479D01*
X0130019Y0493539D01*
X0130005Y0493599D01*
X0129996Y0493660D01*
X0129990Y0493721D01*
X0129988Y0493783D01*
X0140284Y0492800D02*
X0140284Y0496733D01*
X0142251Y0496733D01*
X0142251Y0496078D01*
X0144337Y0495422D02*
X0144337Y0493783D01*
X0144339Y0493721D01*
X0144345Y0493660D01*
X0144354Y0493599D01*
X0144368Y0493539D01*
X0144385Y0493479D01*
X0144406Y0493421D01*
X0144431Y0493364D01*
X0144459Y0493309D01*
X0144490Y0493256D01*
X0144525Y0493205D01*
X0144563Y0493156D01*
X0144603Y0493110D01*
X0144647Y0493066D01*
X0144693Y0493026D01*
X0144742Y0492988D01*
X0144793Y0492953D01*
X0144846Y0492922D01*
X0144901Y0492894D01*
X0144958Y0492869D01*
X0145016Y0492848D01*
X0145076Y0492831D01*
X0145136Y0492817D01*
X0145197Y0492808D01*
X0145258Y0492802D01*
X0145320Y0492800D01*
X0146959Y0492800D01*
X0146959Y0494767D02*
X0144337Y0494767D01*
X0144337Y0495422D02*
X0144339Y0495493D01*
X0144345Y0495564D01*
X0144354Y0495634D01*
X0144368Y0495704D01*
X0144385Y0495773D01*
X0144406Y0495841D01*
X0144430Y0495907D01*
X0144458Y0495972D01*
X0144490Y0496036D01*
X0144525Y0496098D01*
X0144563Y0496158D01*
X0144604Y0496215D01*
X0144649Y0496271D01*
X0144696Y0496324D01*
X0144746Y0496374D01*
X0144799Y0496421D01*
X0144855Y0496466D01*
X0144912Y0496507D01*
X0144972Y0496545D01*
X0145034Y0496580D01*
X0145098Y0496612D01*
X0145163Y0496640D01*
X0145229Y0496664D01*
X0145297Y0496685D01*
X0145366Y0496702D01*
X0145436Y0496716D01*
X0145506Y0496725D01*
X0145577Y0496731D01*
X0145648Y0496733D01*
X0145719Y0496731D01*
X0145790Y0496725D01*
X0145860Y0496716D01*
X0145930Y0496702D01*
X0145999Y0496685D01*
X0146067Y0496664D01*
X0146133Y0496640D01*
X0146198Y0496612D01*
X0146262Y0496580D01*
X0146324Y0496545D01*
X0146384Y0496507D01*
X0146441Y0496466D01*
X0146497Y0496421D01*
X0146550Y0496374D01*
X0146600Y0496324D01*
X0146647Y0496271D01*
X0146692Y0496215D01*
X0146733Y0496158D01*
X0146771Y0496098D01*
X0146806Y0496036D01*
X0146838Y0495972D01*
X0146866Y0495907D01*
X0146890Y0495841D01*
X0146911Y0495773D01*
X0146928Y0495704D01*
X0146942Y0495634D01*
X0146951Y0495564D01*
X0146957Y0495493D01*
X0146959Y0495422D01*
X0146959Y0494767D01*
X0214541Y0496733D02*
X0215852Y0492800D01*
X0217163Y0496733D01*
X0219834Y0495094D02*
X0223768Y0495094D01*
X0227136Y0495094D02*
X0228774Y0494439D01*
X0228775Y0494439D02*
X0228827Y0494416D01*
X0228878Y0494389D01*
X0228927Y0494359D01*
X0228974Y0494326D01*
X0229019Y0494290D01*
X0229061Y0494250D01*
X0229100Y0494208D01*
X0229136Y0494164D01*
X0229169Y0494117D01*
X0229199Y0494067D01*
X0229226Y0494016D01*
X0229249Y0493964D01*
X0229268Y0493910D01*
X0229284Y0493854D01*
X0229296Y0493798D01*
X0229304Y0493741D01*
X0229308Y0493684D01*
X0229309Y0493626D01*
X0229305Y0493569D01*
X0229298Y0493512D01*
X0229286Y0493455D01*
X0229271Y0493400D01*
X0229253Y0493345D01*
X0229230Y0493292D01*
X0229204Y0493241D01*
X0229175Y0493192D01*
X0229142Y0493144D01*
X0229106Y0493099D01*
X0229068Y0493057D01*
X0229026Y0493017D01*
X0228982Y0492980D01*
X0228935Y0492946D01*
X0228887Y0492915D01*
X0228836Y0492888D01*
X0228784Y0492864D01*
X0228730Y0492844D01*
X0228675Y0492828D01*
X0228619Y0492815D01*
X0228562Y0492806D01*
X0228504Y0492801D01*
X0228447Y0492800D01*
X0228938Y0496405D02*
X0228831Y0496451D01*
X0228722Y0496494D01*
X0228612Y0496534D01*
X0228500Y0496570D01*
X0228388Y0496602D01*
X0228274Y0496631D01*
X0228160Y0496657D01*
X0228045Y0496678D01*
X0227930Y0496697D01*
X0227813Y0496711D01*
X0227697Y0496722D01*
X0227580Y0496729D01*
X0227463Y0496733D01*
X0227463Y0496734D02*
X0227406Y0496733D01*
X0227348Y0496728D01*
X0227291Y0496719D01*
X0227235Y0496706D01*
X0227180Y0496690D01*
X0227126Y0496670D01*
X0227074Y0496646D01*
X0227023Y0496619D01*
X0226975Y0496588D01*
X0226928Y0496554D01*
X0226884Y0496517D01*
X0226842Y0496477D01*
X0226804Y0496435D01*
X0226768Y0496390D01*
X0226735Y0496342D01*
X0226706Y0496293D01*
X0226680Y0496242D01*
X0226657Y0496189D01*
X0226639Y0496134D01*
X0226624Y0496079D01*
X0226612Y0496022D01*
X0226605Y0495965D01*
X0226601Y0495908D01*
X0226602Y0495850D01*
X0226606Y0495793D01*
X0226614Y0495736D01*
X0226626Y0495680D01*
X0226642Y0495624D01*
X0226661Y0495570D01*
X0226684Y0495518D01*
X0226711Y0495467D01*
X0226741Y0495417D01*
X0226774Y0495370D01*
X0226810Y0495326D01*
X0226849Y0495284D01*
X0226891Y0495244D01*
X0226936Y0495208D01*
X0226983Y0495175D01*
X0227032Y0495145D01*
X0227083Y0495118D01*
X0227135Y0495095D01*
X0226644Y0493128D02*
X0226778Y0493082D01*
X0226913Y0493039D01*
X0227049Y0493000D01*
X0227186Y0492964D01*
X0227323Y0492932D01*
X0227462Y0492903D01*
X0227601Y0492877D01*
X0227741Y0492856D01*
X0227882Y0492837D01*
X0228022Y0492823D01*
X0228164Y0492812D01*
X0228305Y0492804D01*
X0228447Y0492801D01*
X0231988Y0493783D02*
X0231988Y0495750D01*
X0231990Y0495812D01*
X0231996Y0495873D01*
X0232005Y0495934D01*
X0232019Y0495994D01*
X0232036Y0496054D01*
X0232057Y0496112D01*
X0232082Y0496169D01*
X0232110Y0496224D01*
X0232141Y0496277D01*
X0232176Y0496328D01*
X0232214Y0496377D01*
X0232254Y0496423D01*
X0232298Y0496467D01*
X0232344Y0496507D01*
X0232393Y0496545D01*
X0232444Y0496580D01*
X0232497Y0496611D01*
X0232552Y0496639D01*
X0232609Y0496664D01*
X0232667Y0496685D01*
X0232727Y0496702D01*
X0232787Y0496716D01*
X0232848Y0496725D01*
X0232909Y0496731D01*
X0232971Y0496733D01*
X0234282Y0496733D01*
X0236695Y0495422D02*
X0236695Y0494111D01*
X0236696Y0494111D02*
X0236698Y0494040D01*
X0236704Y0493969D01*
X0236713Y0493899D01*
X0236727Y0493829D01*
X0236744Y0493760D01*
X0236765Y0493692D01*
X0236789Y0493626D01*
X0236817Y0493561D01*
X0236849Y0493497D01*
X0236884Y0493435D01*
X0236922Y0493375D01*
X0236963Y0493318D01*
X0237008Y0493262D01*
X0237055Y0493209D01*
X0237105Y0493159D01*
X0237158Y0493112D01*
X0237214Y0493067D01*
X0237271Y0493026D01*
X0237331Y0492988D01*
X0237393Y0492953D01*
X0237457Y0492921D01*
X0237522Y0492893D01*
X0237588Y0492869D01*
X0237656Y0492848D01*
X0237725Y0492831D01*
X0237795Y0492817D01*
X0237865Y0492808D01*
X0237936Y0492802D01*
X0238007Y0492800D01*
X0238078Y0492802D01*
X0238149Y0492808D01*
X0238219Y0492817D01*
X0238289Y0492831D01*
X0238358Y0492848D01*
X0238426Y0492869D01*
X0238492Y0492893D01*
X0238557Y0492921D01*
X0238621Y0492953D01*
X0238683Y0492988D01*
X0238743Y0493026D01*
X0238800Y0493067D01*
X0238856Y0493112D01*
X0238909Y0493159D01*
X0238959Y0493209D01*
X0239006Y0493262D01*
X0239051Y0493318D01*
X0239092Y0493375D01*
X0239130Y0493435D01*
X0239165Y0493497D01*
X0239197Y0493561D01*
X0239225Y0493626D01*
X0239249Y0493692D01*
X0239270Y0493760D01*
X0239287Y0493829D01*
X0239301Y0493899D01*
X0239310Y0493969D01*
X0239316Y0494040D01*
X0239318Y0494111D01*
X0239318Y0495422D01*
X0239316Y0495493D01*
X0239310Y0495564D01*
X0239301Y0495634D01*
X0239287Y0495704D01*
X0239270Y0495773D01*
X0239249Y0495841D01*
X0239225Y0495907D01*
X0239197Y0495972D01*
X0239165Y0496036D01*
X0239130Y0496098D01*
X0239092Y0496158D01*
X0239051Y0496215D01*
X0239006Y0496271D01*
X0238959Y0496324D01*
X0238909Y0496374D01*
X0238856Y0496421D01*
X0238800Y0496466D01*
X0238743Y0496507D01*
X0238683Y0496545D01*
X0238621Y0496580D01*
X0238557Y0496612D01*
X0238492Y0496640D01*
X0238426Y0496664D01*
X0238358Y0496685D01*
X0238289Y0496702D01*
X0238219Y0496716D01*
X0238149Y0496725D01*
X0238078Y0496731D01*
X0238007Y0496733D01*
X0237936Y0496731D01*
X0237865Y0496725D01*
X0237795Y0496716D01*
X0237725Y0496702D01*
X0237656Y0496685D01*
X0237588Y0496664D01*
X0237522Y0496640D01*
X0237457Y0496612D01*
X0237393Y0496580D01*
X0237331Y0496545D01*
X0237271Y0496507D01*
X0237214Y0496466D01*
X0237158Y0496421D01*
X0237105Y0496374D01*
X0237055Y0496324D01*
X0237008Y0496271D01*
X0236963Y0496215D01*
X0236922Y0496158D01*
X0236884Y0496098D01*
X0236849Y0496036D01*
X0236817Y0495972D01*
X0236789Y0495907D01*
X0236765Y0495841D01*
X0236744Y0495773D01*
X0236727Y0495704D01*
X0236713Y0495634D01*
X0236704Y0495564D01*
X0236698Y0495493D01*
X0236696Y0495422D01*
X0234282Y0492800D02*
X0232971Y0492800D01*
X0232909Y0492802D01*
X0232848Y0492808D01*
X0232787Y0492817D01*
X0232727Y0492831D01*
X0232667Y0492848D01*
X0232609Y0492869D01*
X0232552Y0492894D01*
X0232497Y0492922D01*
X0232444Y0492953D01*
X0232393Y0492988D01*
X0232344Y0493026D01*
X0232298Y0493066D01*
X0232254Y0493110D01*
X0232214Y0493156D01*
X0232176Y0493205D01*
X0232141Y0493256D01*
X0232110Y0493309D01*
X0232082Y0493364D01*
X0232057Y0493421D01*
X0232036Y0493479D01*
X0232019Y0493539D01*
X0232005Y0493599D01*
X0231996Y0493660D01*
X0231990Y0493721D01*
X0231988Y0493783D01*
X0242284Y0492800D02*
X0242284Y0496733D01*
X0244251Y0496733D01*
X0244251Y0496078D01*
X0246337Y0495422D02*
X0246337Y0493783D01*
X0246339Y0493721D01*
X0246345Y0493660D01*
X0246354Y0493599D01*
X0246368Y0493539D01*
X0246385Y0493479D01*
X0246406Y0493421D01*
X0246431Y0493364D01*
X0246459Y0493309D01*
X0246490Y0493256D01*
X0246525Y0493205D01*
X0246563Y0493156D01*
X0246603Y0493110D01*
X0246647Y0493066D01*
X0246693Y0493026D01*
X0246742Y0492988D01*
X0246793Y0492953D01*
X0246846Y0492922D01*
X0246901Y0492894D01*
X0246958Y0492869D01*
X0247016Y0492848D01*
X0247076Y0492831D01*
X0247136Y0492817D01*
X0247197Y0492808D01*
X0247258Y0492802D01*
X0247320Y0492800D01*
X0248959Y0492800D01*
X0248959Y0494767D02*
X0246337Y0494767D01*
X0246337Y0495422D02*
X0246339Y0495493D01*
X0246345Y0495564D01*
X0246354Y0495634D01*
X0246368Y0495704D01*
X0246385Y0495773D01*
X0246406Y0495841D01*
X0246430Y0495907D01*
X0246458Y0495972D01*
X0246490Y0496036D01*
X0246525Y0496098D01*
X0246563Y0496158D01*
X0246604Y0496215D01*
X0246649Y0496271D01*
X0246696Y0496324D01*
X0246746Y0496374D01*
X0246799Y0496421D01*
X0246855Y0496466D01*
X0246912Y0496507D01*
X0246972Y0496545D01*
X0247034Y0496580D01*
X0247098Y0496612D01*
X0247163Y0496640D01*
X0247229Y0496664D01*
X0247297Y0496685D01*
X0247366Y0496702D01*
X0247436Y0496716D01*
X0247506Y0496725D01*
X0247577Y0496731D01*
X0247648Y0496733D01*
X0247719Y0496731D01*
X0247790Y0496725D01*
X0247860Y0496716D01*
X0247930Y0496702D01*
X0247999Y0496685D01*
X0248067Y0496664D01*
X0248133Y0496640D01*
X0248198Y0496612D01*
X0248262Y0496580D01*
X0248324Y0496545D01*
X0248384Y0496507D01*
X0248441Y0496466D01*
X0248497Y0496421D01*
X0248550Y0496374D01*
X0248600Y0496324D01*
X0248647Y0496271D01*
X0248692Y0496215D01*
X0248733Y0496158D01*
X0248771Y0496098D01*
X0248806Y0496036D01*
X0248838Y0495972D01*
X0248866Y0495907D01*
X0248890Y0495841D01*
X0248911Y0495773D01*
X0248928Y0495704D01*
X0248942Y0495634D01*
X0248951Y0495564D01*
X0248957Y0495493D01*
X0248959Y0495422D01*
X0248959Y0494767D01*
X0316541Y0496733D02*
X0317852Y0492800D01*
X0319163Y0496733D01*
X0321834Y0495094D02*
X0325768Y0495094D01*
X0329136Y0495094D02*
X0330774Y0494439D01*
X0330775Y0494439D02*
X0330827Y0494416D01*
X0330878Y0494389D01*
X0330927Y0494359D01*
X0330974Y0494326D01*
X0331019Y0494290D01*
X0331061Y0494250D01*
X0331100Y0494208D01*
X0331136Y0494164D01*
X0331169Y0494117D01*
X0331199Y0494067D01*
X0331226Y0494016D01*
X0331249Y0493964D01*
X0331268Y0493910D01*
X0331284Y0493854D01*
X0331296Y0493798D01*
X0331304Y0493741D01*
X0331308Y0493684D01*
X0331309Y0493626D01*
X0331305Y0493569D01*
X0331298Y0493512D01*
X0331286Y0493455D01*
X0331271Y0493400D01*
X0331253Y0493345D01*
X0331230Y0493292D01*
X0331204Y0493241D01*
X0331175Y0493192D01*
X0331142Y0493144D01*
X0331106Y0493099D01*
X0331068Y0493057D01*
X0331026Y0493017D01*
X0330982Y0492980D01*
X0330935Y0492946D01*
X0330887Y0492915D01*
X0330836Y0492888D01*
X0330784Y0492864D01*
X0330730Y0492844D01*
X0330675Y0492828D01*
X0330619Y0492815D01*
X0330562Y0492806D01*
X0330504Y0492801D01*
X0330447Y0492800D01*
X0330938Y0496405D02*
X0330831Y0496451D01*
X0330722Y0496494D01*
X0330612Y0496534D01*
X0330500Y0496570D01*
X0330388Y0496602D01*
X0330274Y0496631D01*
X0330160Y0496657D01*
X0330045Y0496678D01*
X0329930Y0496697D01*
X0329813Y0496711D01*
X0329697Y0496722D01*
X0329580Y0496729D01*
X0329463Y0496733D01*
X0329463Y0496734D02*
X0329406Y0496733D01*
X0329348Y0496728D01*
X0329291Y0496719D01*
X0329235Y0496706D01*
X0329180Y0496690D01*
X0329126Y0496670D01*
X0329074Y0496646D01*
X0329023Y0496619D01*
X0328975Y0496588D01*
X0328928Y0496554D01*
X0328884Y0496517D01*
X0328842Y0496477D01*
X0328804Y0496435D01*
X0328768Y0496390D01*
X0328735Y0496342D01*
X0328706Y0496293D01*
X0328680Y0496242D01*
X0328657Y0496189D01*
X0328639Y0496134D01*
X0328624Y0496079D01*
X0328612Y0496022D01*
X0328605Y0495965D01*
X0328601Y0495908D01*
X0328602Y0495850D01*
X0328606Y0495793D01*
X0328614Y0495736D01*
X0328626Y0495680D01*
X0328642Y0495624D01*
X0328661Y0495570D01*
X0328684Y0495518D01*
X0328711Y0495467D01*
X0328741Y0495417D01*
X0328774Y0495370D01*
X0328810Y0495326D01*
X0328849Y0495284D01*
X0328891Y0495244D01*
X0328936Y0495208D01*
X0328983Y0495175D01*
X0329032Y0495145D01*
X0329083Y0495118D01*
X0329135Y0495095D01*
X0328644Y0493128D02*
X0328778Y0493082D01*
X0328913Y0493039D01*
X0329049Y0493000D01*
X0329186Y0492964D01*
X0329323Y0492932D01*
X0329462Y0492903D01*
X0329601Y0492877D01*
X0329741Y0492856D01*
X0329882Y0492837D01*
X0330022Y0492823D01*
X0330164Y0492812D01*
X0330305Y0492804D01*
X0330447Y0492801D01*
X0333988Y0493783D02*
X0333988Y0495750D01*
X0333990Y0495812D01*
X0333996Y0495873D01*
X0334005Y0495934D01*
X0334019Y0495994D01*
X0334036Y0496054D01*
X0334057Y0496112D01*
X0334082Y0496169D01*
X0334110Y0496224D01*
X0334141Y0496277D01*
X0334176Y0496328D01*
X0334214Y0496377D01*
X0334254Y0496423D01*
X0334298Y0496467D01*
X0334344Y0496507D01*
X0334393Y0496545D01*
X0334444Y0496580D01*
X0334497Y0496611D01*
X0334552Y0496639D01*
X0334609Y0496664D01*
X0334667Y0496685D01*
X0334727Y0496702D01*
X0334787Y0496716D01*
X0334848Y0496725D01*
X0334909Y0496731D01*
X0334971Y0496733D01*
X0336282Y0496733D01*
X0338695Y0495422D02*
X0338695Y0494111D01*
X0338696Y0494111D02*
X0338698Y0494040D01*
X0338704Y0493969D01*
X0338713Y0493899D01*
X0338727Y0493829D01*
X0338744Y0493760D01*
X0338765Y0493692D01*
X0338789Y0493626D01*
X0338817Y0493561D01*
X0338849Y0493497D01*
X0338884Y0493435D01*
X0338922Y0493375D01*
X0338963Y0493318D01*
X0339008Y0493262D01*
X0339055Y0493209D01*
X0339105Y0493159D01*
X0339158Y0493112D01*
X0339214Y0493067D01*
X0339271Y0493026D01*
X0339331Y0492988D01*
X0339393Y0492953D01*
X0339457Y0492921D01*
X0339522Y0492893D01*
X0339588Y0492869D01*
X0339656Y0492848D01*
X0339725Y0492831D01*
X0339795Y0492817D01*
X0339865Y0492808D01*
X0339936Y0492802D01*
X0340007Y0492800D01*
X0340078Y0492802D01*
X0340149Y0492808D01*
X0340219Y0492817D01*
X0340289Y0492831D01*
X0340358Y0492848D01*
X0340426Y0492869D01*
X0340492Y0492893D01*
X0340557Y0492921D01*
X0340621Y0492953D01*
X0340683Y0492988D01*
X0340743Y0493026D01*
X0340800Y0493067D01*
X0340856Y0493112D01*
X0340909Y0493159D01*
X0340959Y0493209D01*
X0341006Y0493262D01*
X0341051Y0493318D01*
X0341092Y0493375D01*
X0341130Y0493435D01*
X0341165Y0493497D01*
X0341197Y0493561D01*
X0341225Y0493626D01*
X0341249Y0493692D01*
X0341270Y0493760D01*
X0341287Y0493829D01*
X0341301Y0493899D01*
X0341310Y0493969D01*
X0341316Y0494040D01*
X0341318Y0494111D01*
X0341318Y0495422D01*
X0341316Y0495493D01*
X0341310Y0495564D01*
X0341301Y0495634D01*
X0341287Y0495704D01*
X0341270Y0495773D01*
X0341249Y0495841D01*
X0341225Y0495907D01*
X0341197Y0495972D01*
X0341165Y0496036D01*
X0341130Y0496098D01*
X0341092Y0496158D01*
X0341051Y0496215D01*
X0341006Y0496271D01*
X0340959Y0496324D01*
X0340909Y0496374D01*
X0340856Y0496421D01*
X0340800Y0496466D01*
X0340743Y0496507D01*
X0340683Y0496545D01*
X0340621Y0496580D01*
X0340557Y0496612D01*
X0340492Y0496640D01*
X0340426Y0496664D01*
X0340358Y0496685D01*
X0340289Y0496702D01*
X0340219Y0496716D01*
X0340149Y0496725D01*
X0340078Y0496731D01*
X0340007Y0496733D01*
X0339936Y0496731D01*
X0339865Y0496725D01*
X0339795Y0496716D01*
X0339725Y0496702D01*
X0339656Y0496685D01*
X0339588Y0496664D01*
X0339522Y0496640D01*
X0339457Y0496612D01*
X0339393Y0496580D01*
X0339331Y0496545D01*
X0339271Y0496507D01*
X0339214Y0496466D01*
X0339158Y0496421D01*
X0339105Y0496374D01*
X0339055Y0496324D01*
X0339008Y0496271D01*
X0338963Y0496215D01*
X0338922Y0496158D01*
X0338884Y0496098D01*
X0338849Y0496036D01*
X0338817Y0495972D01*
X0338789Y0495907D01*
X0338765Y0495841D01*
X0338744Y0495773D01*
X0338727Y0495704D01*
X0338713Y0495634D01*
X0338704Y0495564D01*
X0338698Y0495493D01*
X0338696Y0495422D01*
X0336282Y0492800D02*
X0334971Y0492800D01*
X0334909Y0492802D01*
X0334848Y0492808D01*
X0334787Y0492817D01*
X0334727Y0492831D01*
X0334667Y0492848D01*
X0334609Y0492869D01*
X0334552Y0492894D01*
X0334497Y0492922D01*
X0334444Y0492953D01*
X0334393Y0492988D01*
X0334344Y0493026D01*
X0334298Y0493066D01*
X0334254Y0493110D01*
X0334214Y0493156D01*
X0334176Y0493205D01*
X0334141Y0493256D01*
X0334110Y0493309D01*
X0334082Y0493364D01*
X0334057Y0493421D01*
X0334036Y0493479D01*
X0334019Y0493539D01*
X0334005Y0493599D01*
X0333996Y0493660D01*
X0333990Y0493721D01*
X0333988Y0493783D01*
X0344284Y0492800D02*
X0344284Y0496733D01*
X0346251Y0496733D01*
X0346251Y0496078D01*
X0348337Y0495422D02*
X0348337Y0493783D01*
X0348339Y0493721D01*
X0348345Y0493660D01*
X0348354Y0493599D01*
X0348368Y0493539D01*
X0348385Y0493479D01*
X0348406Y0493421D01*
X0348431Y0493364D01*
X0348459Y0493309D01*
X0348490Y0493256D01*
X0348525Y0493205D01*
X0348563Y0493156D01*
X0348603Y0493110D01*
X0348647Y0493066D01*
X0348693Y0493026D01*
X0348742Y0492988D01*
X0348793Y0492953D01*
X0348846Y0492922D01*
X0348901Y0492894D01*
X0348958Y0492869D01*
X0349016Y0492848D01*
X0349076Y0492831D01*
X0349136Y0492817D01*
X0349197Y0492808D01*
X0349258Y0492802D01*
X0349320Y0492800D01*
X0350959Y0492800D01*
X0350959Y0494767D02*
X0348337Y0494767D01*
X0348337Y0495422D02*
X0348339Y0495493D01*
X0348345Y0495564D01*
X0348354Y0495634D01*
X0348368Y0495704D01*
X0348385Y0495773D01*
X0348406Y0495841D01*
X0348430Y0495907D01*
X0348458Y0495972D01*
X0348490Y0496036D01*
X0348525Y0496098D01*
X0348563Y0496158D01*
X0348604Y0496215D01*
X0348649Y0496271D01*
X0348696Y0496324D01*
X0348746Y0496374D01*
X0348799Y0496421D01*
X0348855Y0496466D01*
X0348912Y0496507D01*
X0348972Y0496545D01*
X0349034Y0496580D01*
X0349098Y0496612D01*
X0349163Y0496640D01*
X0349229Y0496664D01*
X0349297Y0496685D01*
X0349366Y0496702D01*
X0349436Y0496716D01*
X0349506Y0496725D01*
X0349577Y0496731D01*
X0349648Y0496733D01*
X0349719Y0496731D01*
X0349790Y0496725D01*
X0349860Y0496716D01*
X0349930Y0496702D01*
X0349999Y0496685D01*
X0350067Y0496664D01*
X0350133Y0496640D01*
X0350198Y0496612D01*
X0350262Y0496580D01*
X0350324Y0496545D01*
X0350384Y0496507D01*
X0350441Y0496466D01*
X0350497Y0496421D01*
X0350550Y0496374D01*
X0350600Y0496324D01*
X0350647Y0496271D01*
X0350692Y0496215D01*
X0350733Y0496158D01*
X0350771Y0496098D01*
X0350806Y0496036D01*
X0350838Y0495972D01*
X0350866Y0495907D01*
X0350890Y0495841D01*
X0350911Y0495773D01*
X0350928Y0495704D01*
X0350942Y0495634D01*
X0350951Y0495564D01*
X0350957Y0495493D01*
X0350959Y0495422D01*
X0350959Y0494767D01*
X0418541Y0496733D02*
X0419852Y0492800D01*
X0421163Y0496733D01*
X0423834Y0495094D02*
X0427768Y0495094D01*
X0431136Y0495094D02*
X0432774Y0494439D01*
X0432775Y0494439D02*
X0432827Y0494416D01*
X0432878Y0494389D01*
X0432927Y0494359D01*
X0432974Y0494326D01*
X0433019Y0494290D01*
X0433061Y0494250D01*
X0433100Y0494208D01*
X0433136Y0494164D01*
X0433169Y0494117D01*
X0433199Y0494067D01*
X0433226Y0494016D01*
X0433249Y0493964D01*
X0433268Y0493910D01*
X0433284Y0493854D01*
X0433296Y0493798D01*
X0433304Y0493741D01*
X0433308Y0493684D01*
X0433309Y0493626D01*
X0433305Y0493569D01*
X0433298Y0493512D01*
X0433286Y0493455D01*
X0433271Y0493400D01*
X0433253Y0493345D01*
X0433230Y0493292D01*
X0433204Y0493241D01*
X0433175Y0493192D01*
X0433142Y0493144D01*
X0433106Y0493099D01*
X0433068Y0493057D01*
X0433026Y0493017D01*
X0432982Y0492980D01*
X0432935Y0492946D01*
X0432887Y0492915D01*
X0432836Y0492888D01*
X0432784Y0492864D01*
X0432730Y0492844D01*
X0432675Y0492828D01*
X0432619Y0492815D01*
X0432562Y0492806D01*
X0432504Y0492801D01*
X0432447Y0492800D01*
X0432938Y0496405D02*
X0432831Y0496451D01*
X0432722Y0496494D01*
X0432612Y0496534D01*
X0432500Y0496570D01*
X0432388Y0496602D01*
X0432274Y0496631D01*
X0432160Y0496657D01*
X0432045Y0496678D01*
X0431930Y0496697D01*
X0431813Y0496711D01*
X0431697Y0496722D01*
X0431580Y0496729D01*
X0431463Y0496733D01*
X0431463Y0496734D02*
X0431406Y0496733D01*
X0431348Y0496728D01*
X0431291Y0496719D01*
X0431235Y0496706D01*
X0431180Y0496690D01*
X0431126Y0496670D01*
X0431074Y0496646D01*
X0431023Y0496619D01*
X0430975Y0496588D01*
X0430928Y0496554D01*
X0430884Y0496517D01*
X0430842Y0496477D01*
X0430804Y0496435D01*
X0430768Y0496390D01*
X0430735Y0496342D01*
X0430706Y0496293D01*
X0430680Y0496242D01*
X0430657Y0496189D01*
X0430639Y0496134D01*
X0430624Y0496079D01*
X0430612Y0496022D01*
X0430605Y0495965D01*
X0430601Y0495908D01*
X0430602Y0495850D01*
X0430606Y0495793D01*
X0430614Y0495736D01*
X0430626Y0495680D01*
X0430642Y0495624D01*
X0430661Y0495570D01*
X0430684Y0495518D01*
X0430711Y0495467D01*
X0430741Y0495417D01*
X0430774Y0495370D01*
X0430810Y0495326D01*
X0430849Y0495284D01*
X0430891Y0495244D01*
X0430936Y0495208D01*
X0430983Y0495175D01*
X0431032Y0495145D01*
X0431083Y0495118D01*
X0431135Y0495095D01*
X0430644Y0493128D02*
X0430778Y0493082D01*
X0430913Y0493039D01*
X0431049Y0493000D01*
X0431186Y0492964D01*
X0431323Y0492932D01*
X0431462Y0492903D01*
X0431601Y0492877D01*
X0431741Y0492856D01*
X0431882Y0492837D01*
X0432022Y0492823D01*
X0432164Y0492812D01*
X0432305Y0492804D01*
X0432447Y0492801D01*
X0435988Y0493783D02*
X0435988Y0495750D01*
X0435990Y0495812D01*
X0435996Y0495873D01*
X0436005Y0495934D01*
X0436019Y0495994D01*
X0436036Y0496054D01*
X0436057Y0496112D01*
X0436082Y0496169D01*
X0436110Y0496224D01*
X0436141Y0496277D01*
X0436176Y0496328D01*
X0436214Y0496377D01*
X0436254Y0496423D01*
X0436298Y0496467D01*
X0436344Y0496507D01*
X0436393Y0496545D01*
X0436444Y0496580D01*
X0436497Y0496611D01*
X0436552Y0496639D01*
X0436609Y0496664D01*
X0436667Y0496685D01*
X0436727Y0496702D01*
X0436787Y0496716D01*
X0436848Y0496725D01*
X0436909Y0496731D01*
X0436971Y0496733D01*
X0438282Y0496733D01*
X0440695Y0495422D02*
X0440695Y0494111D01*
X0440696Y0494111D02*
X0440698Y0494040D01*
X0440704Y0493969D01*
X0440713Y0493899D01*
X0440727Y0493829D01*
X0440744Y0493760D01*
X0440765Y0493692D01*
X0440789Y0493626D01*
X0440817Y0493561D01*
X0440849Y0493497D01*
X0440884Y0493435D01*
X0440922Y0493375D01*
X0440963Y0493318D01*
X0441008Y0493262D01*
X0441055Y0493209D01*
X0441105Y0493159D01*
X0441158Y0493112D01*
X0441214Y0493067D01*
X0441271Y0493026D01*
X0441331Y0492988D01*
X0441393Y0492953D01*
X0441457Y0492921D01*
X0441522Y0492893D01*
X0441588Y0492869D01*
X0441656Y0492848D01*
X0441725Y0492831D01*
X0441795Y0492817D01*
X0441865Y0492808D01*
X0441936Y0492802D01*
X0442007Y0492800D01*
X0442078Y0492802D01*
X0442149Y0492808D01*
X0442219Y0492817D01*
X0442289Y0492831D01*
X0442358Y0492848D01*
X0442426Y0492869D01*
X0442492Y0492893D01*
X0442557Y0492921D01*
X0442621Y0492953D01*
X0442683Y0492988D01*
X0442743Y0493026D01*
X0442800Y0493067D01*
X0442856Y0493112D01*
X0442909Y0493159D01*
X0442959Y0493209D01*
X0443006Y0493262D01*
X0443051Y0493318D01*
X0443092Y0493375D01*
X0443130Y0493435D01*
X0443165Y0493497D01*
X0443197Y0493561D01*
X0443225Y0493626D01*
X0443249Y0493692D01*
X0443270Y0493760D01*
X0443287Y0493829D01*
X0443301Y0493899D01*
X0443310Y0493969D01*
X0443316Y0494040D01*
X0443318Y0494111D01*
X0443318Y0495422D01*
X0443316Y0495493D01*
X0443310Y0495564D01*
X0443301Y0495634D01*
X0443287Y0495704D01*
X0443270Y0495773D01*
X0443249Y0495841D01*
X0443225Y0495907D01*
X0443197Y0495972D01*
X0443165Y0496036D01*
X0443130Y0496098D01*
X0443092Y0496158D01*
X0443051Y0496215D01*
X0443006Y0496271D01*
X0442959Y0496324D01*
X0442909Y0496374D01*
X0442856Y0496421D01*
X0442800Y0496466D01*
X0442743Y0496507D01*
X0442683Y0496545D01*
X0442621Y0496580D01*
X0442557Y0496612D01*
X0442492Y0496640D01*
X0442426Y0496664D01*
X0442358Y0496685D01*
X0442289Y0496702D01*
X0442219Y0496716D01*
X0442149Y0496725D01*
X0442078Y0496731D01*
X0442007Y0496733D01*
X0441936Y0496731D01*
X0441865Y0496725D01*
X0441795Y0496716D01*
X0441725Y0496702D01*
X0441656Y0496685D01*
X0441588Y0496664D01*
X0441522Y0496640D01*
X0441457Y0496612D01*
X0441393Y0496580D01*
X0441331Y0496545D01*
X0441271Y0496507D01*
X0441214Y0496466D01*
X0441158Y0496421D01*
X0441105Y0496374D01*
X0441055Y0496324D01*
X0441008Y0496271D01*
X0440963Y0496215D01*
X0440922Y0496158D01*
X0440884Y0496098D01*
X0440849Y0496036D01*
X0440817Y0495972D01*
X0440789Y0495907D01*
X0440765Y0495841D01*
X0440744Y0495773D01*
X0440727Y0495704D01*
X0440713Y0495634D01*
X0440704Y0495564D01*
X0440698Y0495493D01*
X0440696Y0495422D01*
X0438282Y0492800D02*
X0436971Y0492800D01*
X0436909Y0492802D01*
X0436848Y0492808D01*
X0436787Y0492817D01*
X0436727Y0492831D01*
X0436667Y0492848D01*
X0436609Y0492869D01*
X0436552Y0492894D01*
X0436497Y0492922D01*
X0436444Y0492953D01*
X0436393Y0492988D01*
X0436344Y0493026D01*
X0436298Y0493066D01*
X0436254Y0493110D01*
X0436214Y0493156D01*
X0436176Y0493205D01*
X0436141Y0493256D01*
X0436110Y0493309D01*
X0436082Y0493364D01*
X0436057Y0493421D01*
X0436036Y0493479D01*
X0436019Y0493539D01*
X0436005Y0493599D01*
X0435996Y0493660D01*
X0435990Y0493721D01*
X0435988Y0493783D01*
X0446284Y0492800D02*
X0446284Y0496733D01*
X0448251Y0496733D01*
X0448251Y0496078D01*
X0450337Y0495422D02*
X0450337Y0493783D01*
X0450339Y0493721D01*
X0450345Y0493660D01*
X0450354Y0493599D01*
X0450368Y0493539D01*
X0450385Y0493479D01*
X0450406Y0493421D01*
X0450431Y0493364D01*
X0450459Y0493309D01*
X0450490Y0493256D01*
X0450525Y0493205D01*
X0450563Y0493156D01*
X0450603Y0493110D01*
X0450647Y0493066D01*
X0450693Y0493026D01*
X0450742Y0492988D01*
X0450793Y0492953D01*
X0450846Y0492922D01*
X0450901Y0492894D01*
X0450958Y0492869D01*
X0451016Y0492848D01*
X0451076Y0492831D01*
X0451136Y0492817D01*
X0451197Y0492808D01*
X0451258Y0492802D01*
X0451320Y0492800D01*
X0452959Y0492800D01*
X0452959Y0494767D02*
X0450337Y0494767D01*
X0450337Y0495422D02*
X0450339Y0495493D01*
X0450345Y0495564D01*
X0450354Y0495634D01*
X0450368Y0495704D01*
X0450385Y0495773D01*
X0450406Y0495841D01*
X0450430Y0495907D01*
X0450458Y0495972D01*
X0450490Y0496036D01*
X0450525Y0496098D01*
X0450563Y0496158D01*
X0450604Y0496215D01*
X0450649Y0496271D01*
X0450696Y0496324D01*
X0450746Y0496374D01*
X0450799Y0496421D01*
X0450855Y0496466D01*
X0450912Y0496507D01*
X0450972Y0496545D01*
X0451034Y0496580D01*
X0451098Y0496612D01*
X0451163Y0496640D01*
X0451229Y0496664D01*
X0451297Y0496685D01*
X0451366Y0496702D01*
X0451436Y0496716D01*
X0451506Y0496725D01*
X0451577Y0496731D01*
X0451648Y0496733D01*
X0451719Y0496731D01*
X0451790Y0496725D01*
X0451860Y0496716D01*
X0451930Y0496702D01*
X0451999Y0496685D01*
X0452067Y0496664D01*
X0452133Y0496640D01*
X0452198Y0496612D01*
X0452262Y0496580D01*
X0452324Y0496545D01*
X0452384Y0496507D01*
X0452441Y0496466D01*
X0452497Y0496421D01*
X0452550Y0496374D01*
X0452600Y0496324D01*
X0452647Y0496271D01*
X0452692Y0496215D01*
X0452733Y0496158D01*
X0452771Y0496098D01*
X0452806Y0496036D01*
X0452838Y0495972D01*
X0452866Y0495907D01*
X0452890Y0495841D01*
X0452911Y0495773D01*
X0452928Y0495704D01*
X0452942Y0495634D01*
X0452951Y0495564D01*
X0452957Y0495493D01*
X0452959Y0495422D01*
X0452959Y0494767D01*
X0520541Y0496733D02*
X0521852Y0492800D01*
X0523163Y0496733D01*
X0525834Y0495094D02*
X0529768Y0495094D01*
X0533136Y0495094D02*
X0534774Y0494439D01*
X0534775Y0494439D02*
X0534827Y0494416D01*
X0534878Y0494389D01*
X0534927Y0494359D01*
X0534974Y0494326D01*
X0535019Y0494290D01*
X0535061Y0494250D01*
X0535100Y0494208D01*
X0535136Y0494164D01*
X0535169Y0494117D01*
X0535199Y0494067D01*
X0535226Y0494016D01*
X0535249Y0493964D01*
X0535268Y0493910D01*
X0535284Y0493854D01*
X0535296Y0493798D01*
X0535304Y0493741D01*
X0535308Y0493684D01*
X0535309Y0493626D01*
X0535305Y0493569D01*
X0535298Y0493512D01*
X0535286Y0493455D01*
X0535271Y0493400D01*
X0535253Y0493345D01*
X0535230Y0493292D01*
X0535204Y0493241D01*
X0535175Y0493192D01*
X0535142Y0493144D01*
X0535106Y0493099D01*
X0535068Y0493057D01*
X0535026Y0493017D01*
X0534982Y0492980D01*
X0534935Y0492946D01*
X0534887Y0492915D01*
X0534836Y0492888D01*
X0534784Y0492864D01*
X0534730Y0492844D01*
X0534675Y0492828D01*
X0534619Y0492815D01*
X0534562Y0492806D01*
X0534504Y0492801D01*
X0534447Y0492800D01*
X0534938Y0496405D02*
X0534831Y0496451D01*
X0534722Y0496494D01*
X0534612Y0496534D01*
X0534500Y0496570D01*
X0534388Y0496602D01*
X0534274Y0496631D01*
X0534160Y0496657D01*
X0534045Y0496678D01*
X0533930Y0496697D01*
X0533813Y0496711D01*
X0533697Y0496722D01*
X0533580Y0496729D01*
X0533463Y0496733D01*
X0533463Y0496734D02*
X0533406Y0496733D01*
X0533348Y0496728D01*
X0533291Y0496719D01*
X0533235Y0496706D01*
X0533180Y0496690D01*
X0533126Y0496670D01*
X0533074Y0496646D01*
X0533023Y0496619D01*
X0532975Y0496588D01*
X0532928Y0496554D01*
X0532884Y0496517D01*
X0532842Y0496477D01*
X0532804Y0496435D01*
X0532768Y0496390D01*
X0532735Y0496342D01*
X0532706Y0496293D01*
X0532680Y0496242D01*
X0532657Y0496189D01*
X0532639Y0496134D01*
X0532624Y0496079D01*
X0532612Y0496022D01*
X0532605Y0495965D01*
X0532601Y0495908D01*
X0532602Y0495850D01*
X0532606Y0495793D01*
X0532614Y0495736D01*
X0532626Y0495680D01*
X0532642Y0495624D01*
X0532661Y0495570D01*
X0532684Y0495518D01*
X0532711Y0495467D01*
X0532741Y0495417D01*
X0532774Y0495370D01*
X0532810Y0495326D01*
X0532849Y0495284D01*
X0532891Y0495244D01*
X0532936Y0495208D01*
X0532983Y0495175D01*
X0533032Y0495145D01*
X0533083Y0495118D01*
X0533135Y0495095D01*
X0532644Y0493128D02*
X0532778Y0493082D01*
X0532913Y0493039D01*
X0533049Y0493000D01*
X0533186Y0492964D01*
X0533323Y0492932D01*
X0533462Y0492903D01*
X0533601Y0492877D01*
X0533741Y0492856D01*
X0533882Y0492837D01*
X0534022Y0492823D01*
X0534164Y0492812D01*
X0534305Y0492804D01*
X0534447Y0492801D01*
X0537988Y0493783D02*
X0537988Y0495750D01*
X0537990Y0495812D01*
X0537996Y0495873D01*
X0538005Y0495934D01*
X0538019Y0495994D01*
X0538036Y0496054D01*
X0538057Y0496112D01*
X0538082Y0496169D01*
X0538110Y0496224D01*
X0538141Y0496277D01*
X0538176Y0496328D01*
X0538214Y0496377D01*
X0538254Y0496423D01*
X0538298Y0496467D01*
X0538344Y0496507D01*
X0538393Y0496545D01*
X0538444Y0496580D01*
X0538497Y0496611D01*
X0538552Y0496639D01*
X0538609Y0496664D01*
X0538667Y0496685D01*
X0538727Y0496702D01*
X0538787Y0496716D01*
X0538848Y0496725D01*
X0538909Y0496731D01*
X0538971Y0496733D01*
X0540282Y0496733D01*
X0542695Y0495422D02*
X0542695Y0494111D01*
X0542696Y0494111D02*
X0542698Y0494040D01*
X0542704Y0493969D01*
X0542713Y0493899D01*
X0542727Y0493829D01*
X0542744Y0493760D01*
X0542765Y0493692D01*
X0542789Y0493626D01*
X0542817Y0493561D01*
X0542849Y0493497D01*
X0542884Y0493435D01*
X0542922Y0493375D01*
X0542963Y0493318D01*
X0543008Y0493262D01*
X0543055Y0493209D01*
X0543105Y0493159D01*
X0543158Y0493112D01*
X0543214Y0493067D01*
X0543271Y0493026D01*
X0543331Y0492988D01*
X0543393Y0492953D01*
X0543457Y0492921D01*
X0543522Y0492893D01*
X0543588Y0492869D01*
X0543656Y0492848D01*
X0543725Y0492831D01*
X0543795Y0492817D01*
X0543865Y0492808D01*
X0543936Y0492802D01*
X0544007Y0492800D01*
X0544078Y0492802D01*
X0544149Y0492808D01*
X0544219Y0492817D01*
X0544289Y0492831D01*
X0544358Y0492848D01*
X0544426Y0492869D01*
X0544492Y0492893D01*
X0544557Y0492921D01*
X0544621Y0492953D01*
X0544683Y0492988D01*
X0544743Y0493026D01*
X0544800Y0493067D01*
X0544856Y0493112D01*
X0544909Y0493159D01*
X0544959Y0493209D01*
X0545006Y0493262D01*
X0545051Y0493318D01*
X0545092Y0493375D01*
X0545130Y0493435D01*
X0545165Y0493497D01*
X0545197Y0493561D01*
X0545225Y0493626D01*
X0545249Y0493692D01*
X0545270Y0493760D01*
X0545287Y0493829D01*
X0545301Y0493899D01*
X0545310Y0493969D01*
X0545316Y0494040D01*
X0545318Y0494111D01*
X0545318Y0495422D01*
X0545316Y0495493D01*
X0545310Y0495564D01*
X0545301Y0495634D01*
X0545287Y0495704D01*
X0545270Y0495773D01*
X0545249Y0495841D01*
X0545225Y0495907D01*
X0545197Y0495972D01*
X0545165Y0496036D01*
X0545130Y0496098D01*
X0545092Y0496158D01*
X0545051Y0496215D01*
X0545006Y0496271D01*
X0544959Y0496324D01*
X0544909Y0496374D01*
X0544856Y0496421D01*
X0544800Y0496466D01*
X0544743Y0496507D01*
X0544683Y0496545D01*
X0544621Y0496580D01*
X0544557Y0496612D01*
X0544492Y0496640D01*
X0544426Y0496664D01*
X0544358Y0496685D01*
X0544289Y0496702D01*
X0544219Y0496716D01*
X0544149Y0496725D01*
X0544078Y0496731D01*
X0544007Y0496733D01*
X0543936Y0496731D01*
X0543865Y0496725D01*
X0543795Y0496716D01*
X0543725Y0496702D01*
X0543656Y0496685D01*
X0543588Y0496664D01*
X0543522Y0496640D01*
X0543457Y0496612D01*
X0543393Y0496580D01*
X0543331Y0496545D01*
X0543271Y0496507D01*
X0543214Y0496466D01*
X0543158Y0496421D01*
X0543105Y0496374D01*
X0543055Y0496324D01*
X0543008Y0496271D01*
X0542963Y0496215D01*
X0542922Y0496158D01*
X0542884Y0496098D01*
X0542849Y0496036D01*
X0542817Y0495972D01*
X0542789Y0495907D01*
X0542765Y0495841D01*
X0542744Y0495773D01*
X0542727Y0495704D01*
X0542713Y0495634D01*
X0542704Y0495564D01*
X0542698Y0495493D01*
X0542696Y0495422D01*
X0540282Y0492800D02*
X0538971Y0492800D01*
X0538909Y0492802D01*
X0538848Y0492808D01*
X0538787Y0492817D01*
X0538727Y0492831D01*
X0538667Y0492848D01*
X0538609Y0492869D01*
X0538552Y0492894D01*
X0538497Y0492922D01*
X0538444Y0492953D01*
X0538393Y0492988D01*
X0538344Y0493026D01*
X0538298Y0493066D01*
X0538254Y0493110D01*
X0538214Y0493156D01*
X0538176Y0493205D01*
X0538141Y0493256D01*
X0538110Y0493309D01*
X0538082Y0493364D01*
X0538057Y0493421D01*
X0538036Y0493479D01*
X0538019Y0493539D01*
X0538005Y0493599D01*
X0537996Y0493660D01*
X0537990Y0493721D01*
X0537988Y0493783D01*
X0548284Y0492800D02*
X0548284Y0496733D01*
X0550251Y0496733D01*
X0550251Y0496078D01*
X0552337Y0495422D02*
X0552337Y0493783D01*
X0552339Y0493721D01*
X0552345Y0493660D01*
X0552354Y0493599D01*
X0552368Y0493539D01*
X0552385Y0493479D01*
X0552406Y0493421D01*
X0552431Y0493364D01*
X0552459Y0493309D01*
X0552490Y0493256D01*
X0552525Y0493205D01*
X0552563Y0493156D01*
X0552603Y0493110D01*
X0552647Y0493066D01*
X0552693Y0493026D01*
X0552742Y0492988D01*
X0552793Y0492953D01*
X0552846Y0492922D01*
X0552901Y0492894D01*
X0552958Y0492869D01*
X0553016Y0492848D01*
X0553076Y0492831D01*
X0553136Y0492817D01*
X0553197Y0492808D01*
X0553258Y0492802D01*
X0553320Y0492800D01*
X0554959Y0492800D01*
X0554959Y0494767D02*
X0552337Y0494767D01*
X0552337Y0495422D02*
X0552339Y0495493D01*
X0552345Y0495564D01*
X0552354Y0495634D01*
X0552368Y0495704D01*
X0552385Y0495773D01*
X0552406Y0495841D01*
X0552430Y0495907D01*
X0552458Y0495972D01*
X0552490Y0496036D01*
X0552525Y0496098D01*
X0552563Y0496158D01*
X0552604Y0496215D01*
X0552649Y0496271D01*
X0552696Y0496324D01*
X0552746Y0496374D01*
X0552799Y0496421D01*
X0552855Y0496466D01*
X0552912Y0496507D01*
X0552972Y0496545D01*
X0553034Y0496580D01*
X0553098Y0496612D01*
X0553163Y0496640D01*
X0553229Y0496664D01*
X0553297Y0496685D01*
X0553366Y0496702D01*
X0553436Y0496716D01*
X0553506Y0496725D01*
X0553577Y0496731D01*
X0553648Y0496733D01*
X0553719Y0496731D01*
X0553790Y0496725D01*
X0553860Y0496716D01*
X0553930Y0496702D01*
X0553999Y0496685D01*
X0554067Y0496664D01*
X0554133Y0496640D01*
X0554198Y0496612D01*
X0554262Y0496580D01*
X0554324Y0496545D01*
X0554384Y0496507D01*
X0554441Y0496466D01*
X0554497Y0496421D01*
X0554550Y0496374D01*
X0554600Y0496324D01*
X0554647Y0496271D01*
X0554692Y0496215D01*
X0554733Y0496158D01*
X0554771Y0496098D01*
X0554806Y0496036D01*
X0554838Y0495972D01*
X0554866Y0495907D01*
X0554890Y0495841D01*
X0554911Y0495773D01*
X0554928Y0495704D01*
X0554942Y0495634D01*
X0554951Y0495564D01*
X0554957Y0495493D01*
X0554959Y0495422D01*
X0554959Y0494767D01*
X0622541Y0496733D02*
X0623852Y0492800D01*
X0625163Y0496733D01*
X0627834Y0495094D02*
X0631768Y0495094D01*
X0635136Y0495094D02*
X0636774Y0494439D01*
X0636775Y0494439D02*
X0636827Y0494416D01*
X0636878Y0494389D01*
X0636927Y0494359D01*
X0636974Y0494326D01*
X0637019Y0494290D01*
X0637061Y0494250D01*
X0637100Y0494208D01*
X0637136Y0494164D01*
X0637169Y0494117D01*
X0637199Y0494067D01*
X0637226Y0494016D01*
X0637249Y0493964D01*
X0637268Y0493910D01*
X0637284Y0493854D01*
X0637296Y0493798D01*
X0637304Y0493741D01*
X0637308Y0493684D01*
X0637309Y0493626D01*
X0637305Y0493569D01*
X0637298Y0493512D01*
X0637286Y0493455D01*
X0637271Y0493400D01*
X0637253Y0493345D01*
X0637230Y0493292D01*
X0637204Y0493241D01*
X0637175Y0493192D01*
X0637142Y0493144D01*
X0637106Y0493099D01*
X0637068Y0493057D01*
X0637026Y0493017D01*
X0636982Y0492980D01*
X0636935Y0492946D01*
X0636887Y0492915D01*
X0636836Y0492888D01*
X0636784Y0492864D01*
X0636730Y0492844D01*
X0636675Y0492828D01*
X0636619Y0492815D01*
X0636562Y0492806D01*
X0636504Y0492801D01*
X0636447Y0492800D01*
X0636938Y0496405D02*
X0636831Y0496451D01*
X0636722Y0496494D01*
X0636612Y0496534D01*
X0636500Y0496570D01*
X0636388Y0496602D01*
X0636274Y0496631D01*
X0636160Y0496657D01*
X0636045Y0496678D01*
X0635930Y0496697D01*
X0635813Y0496711D01*
X0635697Y0496722D01*
X0635580Y0496729D01*
X0635463Y0496733D01*
X0635463Y0496734D02*
X0635406Y0496733D01*
X0635348Y0496728D01*
X0635291Y0496719D01*
X0635235Y0496706D01*
X0635180Y0496690D01*
X0635126Y0496670D01*
X0635074Y0496646D01*
X0635023Y0496619D01*
X0634975Y0496588D01*
X0634928Y0496554D01*
X0634884Y0496517D01*
X0634842Y0496477D01*
X0634804Y0496435D01*
X0634768Y0496390D01*
X0634735Y0496342D01*
X0634706Y0496293D01*
X0634680Y0496242D01*
X0634657Y0496189D01*
X0634639Y0496134D01*
X0634624Y0496079D01*
X0634612Y0496022D01*
X0634605Y0495965D01*
X0634601Y0495908D01*
X0634602Y0495850D01*
X0634606Y0495793D01*
X0634614Y0495736D01*
X0634626Y0495680D01*
X0634642Y0495624D01*
X0634661Y0495570D01*
X0634684Y0495518D01*
X0634711Y0495467D01*
X0634741Y0495417D01*
X0634774Y0495370D01*
X0634810Y0495326D01*
X0634849Y0495284D01*
X0634891Y0495244D01*
X0634936Y0495208D01*
X0634983Y0495175D01*
X0635032Y0495145D01*
X0635083Y0495118D01*
X0635135Y0495095D01*
X0634644Y0493128D02*
X0634778Y0493082D01*
X0634913Y0493039D01*
X0635049Y0493000D01*
X0635186Y0492964D01*
X0635323Y0492932D01*
X0635462Y0492903D01*
X0635601Y0492877D01*
X0635741Y0492856D01*
X0635882Y0492837D01*
X0636022Y0492823D01*
X0636164Y0492812D01*
X0636305Y0492804D01*
X0636447Y0492801D01*
X0639988Y0493783D02*
X0639988Y0495750D01*
X0639990Y0495812D01*
X0639996Y0495873D01*
X0640005Y0495934D01*
X0640019Y0495994D01*
X0640036Y0496054D01*
X0640057Y0496112D01*
X0640082Y0496169D01*
X0640110Y0496224D01*
X0640141Y0496277D01*
X0640176Y0496328D01*
X0640214Y0496377D01*
X0640254Y0496423D01*
X0640298Y0496467D01*
X0640344Y0496507D01*
X0640393Y0496545D01*
X0640444Y0496580D01*
X0640497Y0496611D01*
X0640552Y0496639D01*
X0640609Y0496664D01*
X0640667Y0496685D01*
X0640727Y0496702D01*
X0640787Y0496716D01*
X0640848Y0496725D01*
X0640909Y0496731D01*
X0640971Y0496733D01*
X0642282Y0496733D01*
X0644695Y0495422D02*
X0644695Y0494111D01*
X0644696Y0494111D02*
X0644698Y0494040D01*
X0644704Y0493969D01*
X0644713Y0493899D01*
X0644727Y0493829D01*
X0644744Y0493760D01*
X0644765Y0493692D01*
X0644789Y0493626D01*
X0644817Y0493561D01*
X0644849Y0493497D01*
X0644884Y0493435D01*
X0644922Y0493375D01*
X0644963Y0493318D01*
X0645008Y0493262D01*
X0645055Y0493209D01*
X0645105Y0493159D01*
X0645158Y0493112D01*
X0645214Y0493067D01*
X0645271Y0493026D01*
X0645331Y0492988D01*
X0645393Y0492953D01*
X0645457Y0492921D01*
X0645522Y0492893D01*
X0645588Y0492869D01*
X0645656Y0492848D01*
X0645725Y0492831D01*
X0645795Y0492817D01*
X0645865Y0492808D01*
X0645936Y0492802D01*
X0646007Y0492800D01*
X0646078Y0492802D01*
X0646149Y0492808D01*
X0646219Y0492817D01*
X0646289Y0492831D01*
X0646358Y0492848D01*
X0646426Y0492869D01*
X0646492Y0492893D01*
X0646557Y0492921D01*
X0646621Y0492953D01*
X0646683Y0492988D01*
X0646743Y0493026D01*
X0646800Y0493067D01*
X0646856Y0493112D01*
X0646909Y0493159D01*
X0646959Y0493209D01*
X0647006Y0493262D01*
X0647051Y0493318D01*
X0647092Y0493375D01*
X0647130Y0493435D01*
X0647165Y0493497D01*
X0647197Y0493561D01*
X0647225Y0493626D01*
X0647249Y0493692D01*
X0647270Y0493760D01*
X0647287Y0493829D01*
X0647301Y0493899D01*
X0647310Y0493969D01*
X0647316Y0494040D01*
X0647318Y0494111D01*
X0647318Y0495422D01*
X0647316Y0495493D01*
X0647310Y0495564D01*
X0647301Y0495634D01*
X0647287Y0495704D01*
X0647270Y0495773D01*
X0647249Y0495841D01*
X0647225Y0495907D01*
X0647197Y0495972D01*
X0647165Y0496036D01*
X0647130Y0496098D01*
X0647092Y0496158D01*
X0647051Y0496215D01*
X0647006Y0496271D01*
X0646959Y0496324D01*
X0646909Y0496374D01*
X0646856Y0496421D01*
X0646800Y0496466D01*
X0646743Y0496507D01*
X0646683Y0496545D01*
X0646621Y0496580D01*
X0646557Y0496612D01*
X0646492Y0496640D01*
X0646426Y0496664D01*
X0646358Y0496685D01*
X0646289Y0496702D01*
X0646219Y0496716D01*
X0646149Y0496725D01*
X0646078Y0496731D01*
X0646007Y0496733D01*
X0645936Y0496731D01*
X0645865Y0496725D01*
X0645795Y0496716D01*
X0645725Y0496702D01*
X0645656Y0496685D01*
X0645588Y0496664D01*
X0645522Y0496640D01*
X0645457Y0496612D01*
X0645393Y0496580D01*
X0645331Y0496545D01*
X0645271Y0496507D01*
X0645214Y0496466D01*
X0645158Y0496421D01*
X0645105Y0496374D01*
X0645055Y0496324D01*
X0645008Y0496271D01*
X0644963Y0496215D01*
X0644922Y0496158D01*
X0644884Y0496098D01*
X0644849Y0496036D01*
X0644817Y0495972D01*
X0644789Y0495907D01*
X0644765Y0495841D01*
X0644744Y0495773D01*
X0644727Y0495704D01*
X0644713Y0495634D01*
X0644704Y0495564D01*
X0644698Y0495493D01*
X0644696Y0495422D01*
X0642282Y0492800D02*
X0640971Y0492800D01*
X0640909Y0492802D01*
X0640848Y0492808D01*
X0640787Y0492817D01*
X0640727Y0492831D01*
X0640667Y0492848D01*
X0640609Y0492869D01*
X0640552Y0492894D01*
X0640497Y0492922D01*
X0640444Y0492953D01*
X0640393Y0492988D01*
X0640344Y0493026D01*
X0640298Y0493066D01*
X0640254Y0493110D01*
X0640214Y0493156D01*
X0640176Y0493205D01*
X0640141Y0493256D01*
X0640110Y0493309D01*
X0640082Y0493364D01*
X0640057Y0493421D01*
X0640036Y0493479D01*
X0640019Y0493539D01*
X0640005Y0493599D01*
X0639996Y0493660D01*
X0639990Y0493721D01*
X0639988Y0493783D01*
X0650284Y0492800D02*
X0650284Y0496733D01*
X0652251Y0496733D01*
X0652251Y0496078D01*
X0654337Y0495422D02*
X0654337Y0493783D01*
X0654339Y0493721D01*
X0654345Y0493660D01*
X0654354Y0493599D01*
X0654368Y0493539D01*
X0654385Y0493479D01*
X0654406Y0493421D01*
X0654431Y0493364D01*
X0654459Y0493309D01*
X0654490Y0493256D01*
X0654525Y0493205D01*
X0654563Y0493156D01*
X0654603Y0493110D01*
X0654647Y0493066D01*
X0654693Y0493026D01*
X0654742Y0492988D01*
X0654793Y0492953D01*
X0654846Y0492922D01*
X0654901Y0492894D01*
X0654958Y0492869D01*
X0655016Y0492848D01*
X0655076Y0492831D01*
X0655136Y0492817D01*
X0655197Y0492808D01*
X0655258Y0492802D01*
X0655320Y0492800D01*
X0656959Y0492800D01*
X0656959Y0494767D02*
X0654337Y0494767D01*
X0654337Y0495422D02*
X0654339Y0495493D01*
X0654345Y0495564D01*
X0654354Y0495634D01*
X0654368Y0495704D01*
X0654385Y0495773D01*
X0654406Y0495841D01*
X0654430Y0495907D01*
X0654458Y0495972D01*
X0654490Y0496036D01*
X0654525Y0496098D01*
X0654563Y0496158D01*
X0654604Y0496215D01*
X0654649Y0496271D01*
X0654696Y0496324D01*
X0654746Y0496374D01*
X0654799Y0496421D01*
X0654855Y0496466D01*
X0654912Y0496507D01*
X0654972Y0496545D01*
X0655034Y0496580D01*
X0655098Y0496612D01*
X0655163Y0496640D01*
X0655229Y0496664D01*
X0655297Y0496685D01*
X0655366Y0496702D01*
X0655436Y0496716D01*
X0655506Y0496725D01*
X0655577Y0496731D01*
X0655648Y0496733D01*
X0655719Y0496731D01*
X0655790Y0496725D01*
X0655860Y0496716D01*
X0655930Y0496702D01*
X0655999Y0496685D01*
X0656067Y0496664D01*
X0656133Y0496640D01*
X0656198Y0496612D01*
X0656262Y0496580D01*
X0656324Y0496545D01*
X0656384Y0496507D01*
X0656441Y0496466D01*
X0656497Y0496421D01*
X0656550Y0496374D01*
X0656600Y0496324D01*
X0656647Y0496271D01*
X0656692Y0496215D01*
X0656733Y0496158D01*
X0656771Y0496098D01*
X0656806Y0496036D01*
X0656838Y0495972D01*
X0656866Y0495907D01*
X0656890Y0495841D01*
X0656911Y0495773D01*
X0656928Y0495704D01*
X0656942Y0495634D01*
X0656951Y0495564D01*
X0656957Y0495493D01*
X0656959Y0495422D01*
X0656959Y0494767D01*
X0715644Y0433128D02*
X0715778Y0433082D01*
X0715913Y0433039D01*
X0716049Y0433000D01*
X0716186Y0432964D01*
X0716323Y0432932D01*
X0716462Y0432903D01*
X0716601Y0432877D01*
X0716741Y0432856D01*
X0716882Y0432837D01*
X0717022Y0432823D01*
X0717164Y0432812D01*
X0717305Y0432804D01*
X0717447Y0432801D01*
X0717447Y0432800D02*
X0717504Y0432801D01*
X0717562Y0432806D01*
X0717619Y0432815D01*
X0717675Y0432828D01*
X0717730Y0432844D01*
X0717784Y0432864D01*
X0717836Y0432888D01*
X0717887Y0432915D01*
X0717935Y0432946D01*
X0717982Y0432980D01*
X0718026Y0433017D01*
X0718068Y0433057D01*
X0718106Y0433099D01*
X0718142Y0433144D01*
X0718175Y0433192D01*
X0718204Y0433241D01*
X0718230Y0433292D01*
X0718253Y0433345D01*
X0718271Y0433400D01*
X0718286Y0433455D01*
X0718298Y0433512D01*
X0718305Y0433569D01*
X0718309Y0433626D01*
X0718308Y0433684D01*
X0718304Y0433741D01*
X0718296Y0433798D01*
X0718284Y0433854D01*
X0718268Y0433910D01*
X0718249Y0433964D01*
X0718226Y0434016D01*
X0718199Y0434067D01*
X0718169Y0434117D01*
X0718136Y0434164D01*
X0718100Y0434208D01*
X0718061Y0434250D01*
X0718019Y0434290D01*
X0717974Y0434326D01*
X0717927Y0434359D01*
X0717878Y0434389D01*
X0717827Y0434416D01*
X0717775Y0434439D01*
X0717774Y0434439D02*
X0716136Y0435094D01*
X0716135Y0435095D02*
X0716083Y0435118D01*
X0716032Y0435145D01*
X0715983Y0435175D01*
X0715936Y0435208D01*
X0715891Y0435244D01*
X0715849Y0435284D01*
X0715810Y0435326D01*
X0715774Y0435370D01*
X0715741Y0435417D01*
X0715711Y0435467D01*
X0715684Y0435518D01*
X0715661Y0435570D01*
X0715642Y0435624D01*
X0715626Y0435680D01*
X0715614Y0435736D01*
X0715606Y0435793D01*
X0715602Y0435850D01*
X0715601Y0435908D01*
X0715605Y0435965D01*
X0715612Y0436022D01*
X0715624Y0436079D01*
X0715639Y0436134D01*
X0715657Y0436189D01*
X0715680Y0436242D01*
X0715706Y0436293D01*
X0715735Y0436342D01*
X0715768Y0436390D01*
X0715804Y0436435D01*
X0715842Y0436477D01*
X0715884Y0436517D01*
X0715928Y0436554D01*
X0715975Y0436588D01*
X0716023Y0436619D01*
X0716074Y0436646D01*
X0716126Y0436670D01*
X0716180Y0436690D01*
X0716235Y0436706D01*
X0716291Y0436719D01*
X0716348Y0436728D01*
X0716406Y0436733D01*
X0716463Y0436734D01*
X0716463Y0436733D02*
X0716580Y0436729D01*
X0716697Y0436722D01*
X0716813Y0436711D01*
X0716930Y0436697D01*
X0717045Y0436678D01*
X0717160Y0436657D01*
X0717274Y0436631D01*
X0717388Y0436602D01*
X0717500Y0436570D01*
X0717612Y0436534D01*
X0717722Y0436494D01*
X0717831Y0436451D01*
X0717938Y0436405D01*
X0720988Y0435750D02*
X0720988Y0433783D01*
X0720990Y0433721D01*
X0720996Y0433660D01*
X0721005Y0433599D01*
X0721019Y0433539D01*
X0721036Y0433479D01*
X0721057Y0433421D01*
X0721082Y0433364D01*
X0721110Y0433309D01*
X0721141Y0433256D01*
X0721176Y0433205D01*
X0721214Y0433156D01*
X0721254Y0433110D01*
X0721298Y0433066D01*
X0721344Y0433026D01*
X0721393Y0432988D01*
X0721444Y0432953D01*
X0721497Y0432922D01*
X0721552Y0432894D01*
X0721609Y0432869D01*
X0721667Y0432848D01*
X0721727Y0432831D01*
X0721787Y0432817D01*
X0721848Y0432808D01*
X0721909Y0432802D01*
X0721971Y0432800D01*
X0723282Y0432800D01*
X0725695Y0434111D02*
X0725695Y0435422D01*
X0725696Y0435422D02*
X0725698Y0435493D01*
X0725704Y0435564D01*
X0725713Y0435634D01*
X0725727Y0435704D01*
X0725744Y0435773D01*
X0725765Y0435841D01*
X0725789Y0435907D01*
X0725817Y0435972D01*
X0725849Y0436036D01*
X0725884Y0436098D01*
X0725922Y0436158D01*
X0725963Y0436215D01*
X0726008Y0436271D01*
X0726055Y0436324D01*
X0726105Y0436374D01*
X0726158Y0436421D01*
X0726214Y0436466D01*
X0726271Y0436507D01*
X0726331Y0436545D01*
X0726393Y0436580D01*
X0726457Y0436612D01*
X0726522Y0436640D01*
X0726588Y0436664D01*
X0726656Y0436685D01*
X0726725Y0436702D01*
X0726795Y0436716D01*
X0726865Y0436725D01*
X0726936Y0436731D01*
X0727007Y0436733D01*
X0727078Y0436731D01*
X0727149Y0436725D01*
X0727219Y0436716D01*
X0727289Y0436702D01*
X0727358Y0436685D01*
X0727426Y0436664D01*
X0727492Y0436640D01*
X0727557Y0436612D01*
X0727621Y0436580D01*
X0727683Y0436545D01*
X0727743Y0436507D01*
X0727800Y0436466D01*
X0727856Y0436421D01*
X0727909Y0436374D01*
X0727959Y0436324D01*
X0728006Y0436271D01*
X0728051Y0436215D01*
X0728092Y0436158D01*
X0728130Y0436098D01*
X0728165Y0436036D01*
X0728197Y0435972D01*
X0728225Y0435907D01*
X0728249Y0435841D01*
X0728270Y0435773D01*
X0728287Y0435704D01*
X0728301Y0435634D01*
X0728310Y0435564D01*
X0728316Y0435493D01*
X0728318Y0435422D01*
X0728318Y0434111D01*
X0728316Y0434040D01*
X0728310Y0433969D01*
X0728301Y0433899D01*
X0728287Y0433829D01*
X0728270Y0433760D01*
X0728249Y0433692D01*
X0728225Y0433626D01*
X0728197Y0433561D01*
X0728165Y0433497D01*
X0728130Y0433435D01*
X0728092Y0433375D01*
X0728051Y0433318D01*
X0728006Y0433262D01*
X0727959Y0433209D01*
X0727909Y0433159D01*
X0727856Y0433112D01*
X0727800Y0433067D01*
X0727743Y0433026D01*
X0727683Y0432988D01*
X0727621Y0432953D01*
X0727557Y0432921D01*
X0727492Y0432893D01*
X0727426Y0432869D01*
X0727358Y0432848D01*
X0727289Y0432831D01*
X0727219Y0432817D01*
X0727149Y0432808D01*
X0727078Y0432802D01*
X0727007Y0432800D01*
X0726936Y0432802D01*
X0726865Y0432808D01*
X0726795Y0432817D01*
X0726725Y0432831D01*
X0726656Y0432848D01*
X0726588Y0432869D01*
X0726522Y0432893D01*
X0726457Y0432921D01*
X0726393Y0432953D01*
X0726331Y0432988D01*
X0726271Y0433026D01*
X0726214Y0433067D01*
X0726158Y0433112D01*
X0726105Y0433159D01*
X0726055Y0433209D01*
X0726008Y0433262D01*
X0725963Y0433318D01*
X0725922Y0433375D01*
X0725884Y0433435D01*
X0725849Y0433497D01*
X0725817Y0433561D01*
X0725789Y0433626D01*
X0725765Y0433692D01*
X0725744Y0433760D01*
X0725727Y0433829D01*
X0725713Y0433899D01*
X0725704Y0433969D01*
X0725698Y0434040D01*
X0725696Y0434111D01*
X0723282Y0436733D02*
X0721971Y0436733D01*
X0721909Y0436731D01*
X0721848Y0436725D01*
X0721787Y0436716D01*
X0721727Y0436702D01*
X0721667Y0436685D01*
X0721609Y0436664D01*
X0721552Y0436639D01*
X0721497Y0436611D01*
X0721444Y0436580D01*
X0721393Y0436545D01*
X0721344Y0436507D01*
X0721298Y0436467D01*
X0721254Y0436423D01*
X0721214Y0436377D01*
X0721176Y0436328D01*
X0721141Y0436277D01*
X0721110Y0436224D01*
X0721082Y0436169D01*
X0721057Y0436112D01*
X0721036Y0436054D01*
X0721019Y0435994D01*
X0721005Y0435934D01*
X0720996Y0435873D01*
X0720990Y0435812D01*
X0720988Y0435750D01*
X0712768Y0435094D02*
X0708834Y0435094D01*
X0706163Y0436733D02*
X0704852Y0432800D01*
X0703541Y0436733D01*
X0731284Y0436733D02*
X0731284Y0432800D01*
X0733251Y0436078D02*
X0733251Y0436733D01*
X0731284Y0436733D01*
X0735337Y0435422D02*
X0735337Y0433783D01*
X0735339Y0433721D01*
X0735345Y0433660D01*
X0735354Y0433599D01*
X0735368Y0433539D01*
X0735385Y0433479D01*
X0735406Y0433421D01*
X0735431Y0433364D01*
X0735459Y0433309D01*
X0735490Y0433256D01*
X0735525Y0433205D01*
X0735563Y0433156D01*
X0735603Y0433110D01*
X0735647Y0433066D01*
X0735693Y0433026D01*
X0735742Y0432988D01*
X0735793Y0432953D01*
X0735846Y0432922D01*
X0735901Y0432894D01*
X0735958Y0432869D01*
X0736016Y0432848D01*
X0736076Y0432831D01*
X0736136Y0432817D01*
X0736197Y0432808D01*
X0736258Y0432802D01*
X0736320Y0432800D01*
X0737959Y0432800D01*
X0737959Y0434767D02*
X0735337Y0434767D01*
X0735337Y0435422D02*
X0735339Y0435493D01*
X0735345Y0435564D01*
X0735354Y0435634D01*
X0735368Y0435704D01*
X0735385Y0435773D01*
X0735406Y0435841D01*
X0735430Y0435907D01*
X0735458Y0435972D01*
X0735490Y0436036D01*
X0735525Y0436098D01*
X0735563Y0436158D01*
X0735604Y0436215D01*
X0735649Y0436271D01*
X0735696Y0436324D01*
X0735746Y0436374D01*
X0735799Y0436421D01*
X0735855Y0436466D01*
X0735912Y0436507D01*
X0735972Y0436545D01*
X0736034Y0436580D01*
X0736098Y0436612D01*
X0736163Y0436640D01*
X0736229Y0436664D01*
X0736297Y0436685D01*
X0736366Y0436702D01*
X0736436Y0436716D01*
X0736506Y0436725D01*
X0736577Y0436731D01*
X0736648Y0436733D01*
X0736719Y0436731D01*
X0736790Y0436725D01*
X0736860Y0436716D01*
X0736930Y0436702D01*
X0736999Y0436685D01*
X0737067Y0436664D01*
X0737133Y0436640D01*
X0737198Y0436612D01*
X0737262Y0436580D01*
X0737324Y0436545D01*
X0737384Y0436507D01*
X0737441Y0436466D01*
X0737497Y0436421D01*
X0737550Y0436374D01*
X0737600Y0436324D01*
X0737647Y0436271D01*
X0737692Y0436215D01*
X0737733Y0436158D01*
X0737771Y0436098D01*
X0737806Y0436036D01*
X0737838Y0435972D01*
X0737866Y0435907D01*
X0737890Y0435841D01*
X0737911Y0435773D01*
X0737928Y0435704D01*
X0737942Y0435634D01*
X0737951Y0435564D01*
X0737957Y0435493D01*
X0737959Y0435422D01*
X0737959Y0434767D01*
X0733251Y0334733D02*
X0733251Y0334078D01*
X0733251Y0334733D02*
X0731284Y0334733D01*
X0731284Y0330800D01*
X0728318Y0332111D02*
X0728318Y0333422D01*
X0728316Y0333493D01*
X0728310Y0333564D01*
X0728301Y0333634D01*
X0728287Y0333704D01*
X0728270Y0333773D01*
X0728249Y0333841D01*
X0728225Y0333907D01*
X0728197Y0333972D01*
X0728165Y0334036D01*
X0728130Y0334098D01*
X0728092Y0334158D01*
X0728051Y0334215D01*
X0728006Y0334271D01*
X0727959Y0334324D01*
X0727909Y0334374D01*
X0727856Y0334421D01*
X0727800Y0334466D01*
X0727743Y0334507D01*
X0727683Y0334545D01*
X0727621Y0334580D01*
X0727557Y0334612D01*
X0727492Y0334640D01*
X0727426Y0334664D01*
X0727358Y0334685D01*
X0727289Y0334702D01*
X0727219Y0334716D01*
X0727149Y0334725D01*
X0727078Y0334731D01*
X0727007Y0334733D01*
X0726936Y0334731D01*
X0726865Y0334725D01*
X0726795Y0334716D01*
X0726725Y0334702D01*
X0726656Y0334685D01*
X0726588Y0334664D01*
X0726522Y0334640D01*
X0726457Y0334612D01*
X0726393Y0334580D01*
X0726331Y0334545D01*
X0726271Y0334507D01*
X0726214Y0334466D01*
X0726158Y0334421D01*
X0726105Y0334374D01*
X0726055Y0334324D01*
X0726008Y0334271D01*
X0725963Y0334215D01*
X0725922Y0334158D01*
X0725884Y0334098D01*
X0725849Y0334036D01*
X0725817Y0333972D01*
X0725789Y0333907D01*
X0725765Y0333841D01*
X0725744Y0333773D01*
X0725727Y0333704D01*
X0725713Y0333634D01*
X0725704Y0333564D01*
X0725698Y0333493D01*
X0725696Y0333422D01*
X0725695Y0333422D02*
X0725695Y0332111D01*
X0725696Y0332111D02*
X0725698Y0332040D01*
X0725704Y0331969D01*
X0725713Y0331899D01*
X0725727Y0331829D01*
X0725744Y0331760D01*
X0725765Y0331692D01*
X0725789Y0331626D01*
X0725817Y0331561D01*
X0725849Y0331497D01*
X0725884Y0331435D01*
X0725922Y0331375D01*
X0725963Y0331318D01*
X0726008Y0331262D01*
X0726055Y0331209D01*
X0726105Y0331159D01*
X0726158Y0331112D01*
X0726214Y0331067D01*
X0726271Y0331026D01*
X0726331Y0330988D01*
X0726393Y0330953D01*
X0726457Y0330921D01*
X0726522Y0330893D01*
X0726588Y0330869D01*
X0726656Y0330848D01*
X0726725Y0330831D01*
X0726795Y0330817D01*
X0726865Y0330808D01*
X0726936Y0330802D01*
X0727007Y0330800D01*
X0727078Y0330802D01*
X0727149Y0330808D01*
X0727219Y0330817D01*
X0727289Y0330831D01*
X0727358Y0330848D01*
X0727426Y0330869D01*
X0727492Y0330893D01*
X0727557Y0330921D01*
X0727621Y0330953D01*
X0727683Y0330988D01*
X0727743Y0331026D01*
X0727800Y0331067D01*
X0727856Y0331112D01*
X0727909Y0331159D01*
X0727959Y0331209D01*
X0728006Y0331262D01*
X0728051Y0331318D01*
X0728092Y0331375D01*
X0728130Y0331435D01*
X0728165Y0331497D01*
X0728197Y0331561D01*
X0728225Y0331626D01*
X0728249Y0331692D01*
X0728270Y0331760D01*
X0728287Y0331829D01*
X0728301Y0331899D01*
X0728310Y0331969D01*
X0728316Y0332040D01*
X0728318Y0332111D01*
X0723282Y0330800D02*
X0721971Y0330800D01*
X0721909Y0330802D01*
X0721848Y0330808D01*
X0721787Y0330817D01*
X0721727Y0330831D01*
X0721667Y0330848D01*
X0721609Y0330869D01*
X0721552Y0330894D01*
X0721497Y0330922D01*
X0721444Y0330953D01*
X0721393Y0330988D01*
X0721344Y0331026D01*
X0721298Y0331066D01*
X0721254Y0331110D01*
X0721214Y0331156D01*
X0721176Y0331205D01*
X0721141Y0331256D01*
X0721110Y0331309D01*
X0721082Y0331364D01*
X0721057Y0331421D01*
X0721036Y0331479D01*
X0721019Y0331539D01*
X0721005Y0331599D01*
X0720996Y0331660D01*
X0720990Y0331721D01*
X0720988Y0331783D01*
X0720988Y0333750D01*
X0720990Y0333812D01*
X0720996Y0333873D01*
X0721005Y0333934D01*
X0721019Y0333994D01*
X0721036Y0334054D01*
X0721057Y0334112D01*
X0721082Y0334169D01*
X0721110Y0334224D01*
X0721141Y0334277D01*
X0721176Y0334328D01*
X0721214Y0334377D01*
X0721254Y0334423D01*
X0721298Y0334467D01*
X0721344Y0334507D01*
X0721393Y0334545D01*
X0721444Y0334580D01*
X0721497Y0334611D01*
X0721552Y0334639D01*
X0721609Y0334664D01*
X0721667Y0334685D01*
X0721727Y0334702D01*
X0721787Y0334716D01*
X0721848Y0334725D01*
X0721909Y0334731D01*
X0721971Y0334733D01*
X0723282Y0334733D01*
X0717774Y0332439D02*
X0716136Y0333094D01*
X0716135Y0333095D02*
X0716083Y0333118D01*
X0716032Y0333145D01*
X0715983Y0333175D01*
X0715936Y0333208D01*
X0715891Y0333244D01*
X0715849Y0333284D01*
X0715810Y0333326D01*
X0715774Y0333370D01*
X0715741Y0333417D01*
X0715711Y0333467D01*
X0715684Y0333518D01*
X0715661Y0333570D01*
X0715642Y0333624D01*
X0715626Y0333680D01*
X0715614Y0333736D01*
X0715606Y0333793D01*
X0715602Y0333850D01*
X0715601Y0333908D01*
X0715605Y0333965D01*
X0715612Y0334022D01*
X0715624Y0334079D01*
X0715639Y0334134D01*
X0715657Y0334189D01*
X0715680Y0334242D01*
X0715706Y0334293D01*
X0715735Y0334342D01*
X0715768Y0334390D01*
X0715804Y0334435D01*
X0715842Y0334477D01*
X0715884Y0334517D01*
X0715928Y0334554D01*
X0715975Y0334588D01*
X0716023Y0334619D01*
X0716074Y0334646D01*
X0716126Y0334670D01*
X0716180Y0334690D01*
X0716235Y0334706D01*
X0716291Y0334719D01*
X0716348Y0334728D01*
X0716406Y0334733D01*
X0716463Y0334734D01*
X0715644Y0331128D02*
X0715778Y0331082D01*
X0715913Y0331039D01*
X0716049Y0331000D01*
X0716186Y0330964D01*
X0716323Y0330932D01*
X0716462Y0330903D01*
X0716601Y0330877D01*
X0716741Y0330856D01*
X0716882Y0330837D01*
X0717022Y0330823D01*
X0717164Y0330812D01*
X0717305Y0330804D01*
X0717447Y0330801D01*
X0717447Y0330800D02*
X0717504Y0330801D01*
X0717562Y0330806D01*
X0717619Y0330815D01*
X0717675Y0330828D01*
X0717730Y0330844D01*
X0717784Y0330864D01*
X0717836Y0330888D01*
X0717887Y0330915D01*
X0717935Y0330946D01*
X0717982Y0330980D01*
X0718026Y0331017D01*
X0718068Y0331057D01*
X0718106Y0331099D01*
X0718142Y0331144D01*
X0718175Y0331192D01*
X0718204Y0331241D01*
X0718230Y0331292D01*
X0718253Y0331345D01*
X0718271Y0331400D01*
X0718286Y0331455D01*
X0718298Y0331512D01*
X0718305Y0331569D01*
X0718309Y0331626D01*
X0718308Y0331684D01*
X0718304Y0331741D01*
X0718296Y0331798D01*
X0718284Y0331854D01*
X0718268Y0331910D01*
X0718249Y0331964D01*
X0718226Y0332016D01*
X0718199Y0332067D01*
X0718169Y0332117D01*
X0718136Y0332164D01*
X0718100Y0332208D01*
X0718061Y0332250D01*
X0718019Y0332290D01*
X0717974Y0332326D01*
X0717927Y0332359D01*
X0717878Y0332389D01*
X0717827Y0332416D01*
X0717775Y0332439D01*
X0717938Y0334405D02*
X0717831Y0334451D01*
X0717722Y0334494D01*
X0717612Y0334534D01*
X0717500Y0334570D01*
X0717388Y0334602D01*
X0717274Y0334631D01*
X0717160Y0334657D01*
X0717045Y0334678D01*
X0716930Y0334697D01*
X0716813Y0334711D01*
X0716697Y0334722D01*
X0716580Y0334729D01*
X0716463Y0334733D01*
X0712768Y0333094D02*
X0708834Y0333094D01*
X0706163Y0334733D02*
X0704852Y0330800D01*
X0703541Y0334733D01*
X0735337Y0333422D02*
X0735337Y0331783D01*
X0735339Y0331721D01*
X0735345Y0331660D01*
X0735354Y0331599D01*
X0735368Y0331539D01*
X0735385Y0331479D01*
X0735406Y0331421D01*
X0735431Y0331364D01*
X0735459Y0331309D01*
X0735490Y0331256D01*
X0735525Y0331205D01*
X0735563Y0331156D01*
X0735603Y0331110D01*
X0735647Y0331066D01*
X0735693Y0331026D01*
X0735742Y0330988D01*
X0735793Y0330953D01*
X0735846Y0330922D01*
X0735901Y0330894D01*
X0735958Y0330869D01*
X0736016Y0330848D01*
X0736076Y0330831D01*
X0736136Y0330817D01*
X0736197Y0330808D01*
X0736258Y0330802D01*
X0736320Y0330800D01*
X0737959Y0330800D01*
X0737959Y0332767D02*
X0735337Y0332767D01*
X0735337Y0333422D02*
X0735339Y0333493D01*
X0735345Y0333564D01*
X0735354Y0333634D01*
X0735368Y0333704D01*
X0735385Y0333773D01*
X0735406Y0333841D01*
X0735430Y0333907D01*
X0735458Y0333972D01*
X0735490Y0334036D01*
X0735525Y0334098D01*
X0735563Y0334158D01*
X0735604Y0334215D01*
X0735649Y0334271D01*
X0735696Y0334324D01*
X0735746Y0334374D01*
X0735799Y0334421D01*
X0735855Y0334466D01*
X0735912Y0334507D01*
X0735972Y0334545D01*
X0736034Y0334580D01*
X0736098Y0334612D01*
X0736163Y0334640D01*
X0736229Y0334664D01*
X0736297Y0334685D01*
X0736366Y0334702D01*
X0736436Y0334716D01*
X0736506Y0334725D01*
X0736577Y0334731D01*
X0736648Y0334733D01*
X0736719Y0334731D01*
X0736790Y0334725D01*
X0736860Y0334716D01*
X0736930Y0334702D01*
X0736999Y0334685D01*
X0737067Y0334664D01*
X0737133Y0334640D01*
X0737198Y0334612D01*
X0737262Y0334580D01*
X0737324Y0334545D01*
X0737384Y0334507D01*
X0737441Y0334466D01*
X0737497Y0334421D01*
X0737550Y0334374D01*
X0737600Y0334324D01*
X0737647Y0334271D01*
X0737692Y0334215D01*
X0737733Y0334158D01*
X0737771Y0334098D01*
X0737806Y0334036D01*
X0737838Y0333972D01*
X0737866Y0333907D01*
X0737890Y0333841D01*
X0737911Y0333773D01*
X0737928Y0333704D01*
X0737942Y0333634D01*
X0737951Y0333564D01*
X0737957Y0333493D01*
X0737959Y0333422D01*
X0737959Y0332767D01*
X0733251Y0232733D02*
X0733251Y0232078D01*
X0733251Y0232733D02*
X0731284Y0232733D01*
X0731284Y0228800D01*
X0728318Y0230111D02*
X0728318Y0231422D01*
X0728316Y0231493D01*
X0728310Y0231564D01*
X0728301Y0231634D01*
X0728287Y0231704D01*
X0728270Y0231773D01*
X0728249Y0231841D01*
X0728225Y0231907D01*
X0728197Y0231972D01*
X0728165Y0232036D01*
X0728130Y0232098D01*
X0728092Y0232158D01*
X0728051Y0232215D01*
X0728006Y0232271D01*
X0727959Y0232324D01*
X0727909Y0232374D01*
X0727856Y0232421D01*
X0727800Y0232466D01*
X0727743Y0232507D01*
X0727683Y0232545D01*
X0727621Y0232580D01*
X0727557Y0232612D01*
X0727492Y0232640D01*
X0727426Y0232664D01*
X0727358Y0232685D01*
X0727289Y0232702D01*
X0727219Y0232716D01*
X0727149Y0232725D01*
X0727078Y0232731D01*
X0727007Y0232733D01*
X0726936Y0232731D01*
X0726865Y0232725D01*
X0726795Y0232716D01*
X0726725Y0232702D01*
X0726656Y0232685D01*
X0726588Y0232664D01*
X0726522Y0232640D01*
X0726457Y0232612D01*
X0726393Y0232580D01*
X0726331Y0232545D01*
X0726271Y0232507D01*
X0726214Y0232466D01*
X0726158Y0232421D01*
X0726105Y0232374D01*
X0726055Y0232324D01*
X0726008Y0232271D01*
X0725963Y0232215D01*
X0725922Y0232158D01*
X0725884Y0232098D01*
X0725849Y0232036D01*
X0725817Y0231972D01*
X0725789Y0231907D01*
X0725765Y0231841D01*
X0725744Y0231773D01*
X0725727Y0231704D01*
X0725713Y0231634D01*
X0725704Y0231564D01*
X0725698Y0231493D01*
X0725696Y0231422D01*
X0725695Y0231422D02*
X0725695Y0230111D01*
X0725696Y0230111D02*
X0725698Y0230040D01*
X0725704Y0229969D01*
X0725713Y0229899D01*
X0725727Y0229829D01*
X0725744Y0229760D01*
X0725765Y0229692D01*
X0725789Y0229626D01*
X0725817Y0229561D01*
X0725849Y0229497D01*
X0725884Y0229435D01*
X0725922Y0229375D01*
X0725963Y0229318D01*
X0726008Y0229262D01*
X0726055Y0229209D01*
X0726105Y0229159D01*
X0726158Y0229112D01*
X0726214Y0229067D01*
X0726271Y0229026D01*
X0726331Y0228988D01*
X0726393Y0228953D01*
X0726457Y0228921D01*
X0726522Y0228893D01*
X0726588Y0228869D01*
X0726656Y0228848D01*
X0726725Y0228831D01*
X0726795Y0228817D01*
X0726865Y0228808D01*
X0726936Y0228802D01*
X0727007Y0228800D01*
X0727078Y0228802D01*
X0727149Y0228808D01*
X0727219Y0228817D01*
X0727289Y0228831D01*
X0727358Y0228848D01*
X0727426Y0228869D01*
X0727492Y0228893D01*
X0727557Y0228921D01*
X0727621Y0228953D01*
X0727683Y0228988D01*
X0727743Y0229026D01*
X0727800Y0229067D01*
X0727856Y0229112D01*
X0727909Y0229159D01*
X0727959Y0229209D01*
X0728006Y0229262D01*
X0728051Y0229318D01*
X0728092Y0229375D01*
X0728130Y0229435D01*
X0728165Y0229497D01*
X0728197Y0229561D01*
X0728225Y0229626D01*
X0728249Y0229692D01*
X0728270Y0229760D01*
X0728287Y0229829D01*
X0728301Y0229899D01*
X0728310Y0229969D01*
X0728316Y0230040D01*
X0728318Y0230111D01*
X0723282Y0228800D02*
X0721971Y0228800D01*
X0721909Y0228802D01*
X0721848Y0228808D01*
X0721787Y0228817D01*
X0721727Y0228831D01*
X0721667Y0228848D01*
X0721609Y0228869D01*
X0721552Y0228894D01*
X0721497Y0228922D01*
X0721444Y0228953D01*
X0721393Y0228988D01*
X0721344Y0229026D01*
X0721298Y0229066D01*
X0721254Y0229110D01*
X0721214Y0229156D01*
X0721176Y0229205D01*
X0721141Y0229256D01*
X0721110Y0229309D01*
X0721082Y0229364D01*
X0721057Y0229421D01*
X0721036Y0229479D01*
X0721019Y0229539D01*
X0721005Y0229599D01*
X0720996Y0229660D01*
X0720990Y0229721D01*
X0720988Y0229783D01*
X0720988Y0231750D01*
X0720990Y0231812D01*
X0720996Y0231873D01*
X0721005Y0231934D01*
X0721019Y0231994D01*
X0721036Y0232054D01*
X0721057Y0232112D01*
X0721082Y0232169D01*
X0721110Y0232224D01*
X0721141Y0232277D01*
X0721176Y0232328D01*
X0721214Y0232377D01*
X0721254Y0232423D01*
X0721298Y0232467D01*
X0721344Y0232507D01*
X0721393Y0232545D01*
X0721444Y0232580D01*
X0721497Y0232611D01*
X0721552Y0232639D01*
X0721609Y0232664D01*
X0721667Y0232685D01*
X0721727Y0232702D01*
X0721787Y0232716D01*
X0721848Y0232725D01*
X0721909Y0232731D01*
X0721971Y0232733D01*
X0723282Y0232733D01*
X0717774Y0230439D02*
X0716136Y0231094D01*
X0716135Y0231095D02*
X0716083Y0231118D01*
X0716032Y0231145D01*
X0715983Y0231175D01*
X0715936Y0231208D01*
X0715891Y0231244D01*
X0715849Y0231284D01*
X0715810Y0231326D01*
X0715774Y0231370D01*
X0715741Y0231417D01*
X0715711Y0231467D01*
X0715684Y0231518D01*
X0715661Y0231570D01*
X0715642Y0231624D01*
X0715626Y0231680D01*
X0715614Y0231736D01*
X0715606Y0231793D01*
X0715602Y0231850D01*
X0715601Y0231908D01*
X0715605Y0231965D01*
X0715612Y0232022D01*
X0715624Y0232079D01*
X0715639Y0232134D01*
X0715657Y0232189D01*
X0715680Y0232242D01*
X0715706Y0232293D01*
X0715735Y0232342D01*
X0715768Y0232390D01*
X0715804Y0232435D01*
X0715842Y0232477D01*
X0715884Y0232517D01*
X0715928Y0232554D01*
X0715975Y0232588D01*
X0716023Y0232619D01*
X0716074Y0232646D01*
X0716126Y0232670D01*
X0716180Y0232690D01*
X0716235Y0232706D01*
X0716291Y0232719D01*
X0716348Y0232728D01*
X0716406Y0232733D01*
X0716463Y0232734D01*
X0715644Y0229128D02*
X0715778Y0229082D01*
X0715913Y0229039D01*
X0716049Y0229000D01*
X0716186Y0228964D01*
X0716323Y0228932D01*
X0716462Y0228903D01*
X0716601Y0228877D01*
X0716741Y0228856D01*
X0716882Y0228837D01*
X0717022Y0228823D01*
X0717164Y0228812D01*
X0717305Y0228804D01*
X0717447Y0228801D01*
X0717447Y0228800D02*
X0717504Y0228801D01*
X0717562Y0228806D01*
X0717619Y0228815D01*
X0717675Y0228828D01*
X0717730Y0228844D01*
X0717784Y0228864D01*
X0717836Y0228888D01*
X0717887Y0228915D01*
X0717935Y0228946D01*
X0717982Y0228980D01*
X0718026Y0229017D01*
X0718068Y0229057D01*
X0718106Y0229099D01*
X0718142Y0229144D01*
X0718175Y0229192D01*
X0718204Y0229241D01*
X0718230Y0229292D01*
X0718253Y0229345D01*
X0718271Y0229400D01*
X0718286Y0229455D01*
X0718298Y0229512D01*
X0718305Y0229569D01*
X0718309Y0229626D01*
X0718308Y0229684D01*
X0718304Y0229741D01*
X0718296Y0229798D01*
X0718284Y0229854D01*
X0718268Y0229910D01*
X0718249Y0229964D01*
X0718226Y0230016D01*
X0718199Y0230067D01*
X0718169Y0230117D01*
X0718136Y0230164D01*
X0718100Y0230208D01*
X0718061Y0230250D01*
X0718019Y0230290D01*
X0717974Y0230326D01*
X0717927Y0230359D01*
X0717878Y0230389D01*
X0717827Y0230416D01*
X0717775Y0230439D01*
X0717938Y0232405D02*
X0717831Y0232451D01*
X0717722Y0232494D01*
X0717612Y0232534D01*
X0717500Y0232570D01*
X0717388Y0232602D01*
X0717274Y0232631D01*
X0717160Y0232657D01*
X0717045Y0232678D01*
X0716930Y0232697D01*
X0716813Y0232711D01*
X0716697Y0232722D01*
X0716580Y0232729D01*
X0716463Y0232733D01*
X0712768Y0231094D02*
X0708834Y0231094D01*
X0706163Y0232733D02*
X0704852Y0228800D01*
X0703541Y0232733D01*
X0735337Y0231422D02*
X0735337Y0229783D01*
X0735339Y0229721D01*
X0735345Y0229660D01*
X0735354Y0229599D01*
X0735368Y0229539D01*
X0735385Y0229479D01*
X0735406Y0229421D01*
X0735431Y0229364D01*
X0735459Y0229309D01*
X0735490Y0229256D01*
X0735525Y0229205D01*
X0735563Y0229156D01*
X0735603Y0229110D01*
X0735647Y0229066D01*
X0735693Y0229026D01*
X0735742Y0228988D01*
X0735793Y0228953D01*
X0735846Y0228922D01*
X0735901Y0228894D01*
X0735958Y0228869D01*
X0736016Y0228848D01*
X0736076Y0228831D01*
X0736136Y0228817D01*
X0736197Y0228808D01*
X0736258Y0228802D01*
X0736320Y0228800D01*
X0737959Y0228800D01*
X0737959Y0230767D02*
X0735337Y0230767D01*
X0735337Y0231422D02*
X0735339Y0231493D01*
X0735345Y0231564D01*
X0735354Y0231634D01*
X0735368Y0231704D01*
X0735385Y0231773D01*
X0735406Y0231841D01*
X0735430Y0231907D01*
X0735458Y0231972D01*
X0735490Y0232036D01*
X0735525Y0232098D01*
X0735563Y0232158D01*
X0735604Y0232215D01*
X0735649Y0232271D01*
X0735696Y0232324D01*
X0735746Y0232374D01*
X0735799Y0232421D01*
X0735855Y0232466D01*
X0735912Y0232507D01*
X0735972Y0232545D01*
X0736034Y0232580D01*
X0736098Y0232612D01*
X0736163Y0232640D01*
X0736229Y0232664D01*
X0736297Y0232685D01*
X0736366Y0232702D01*
X0736436Y0232716D01*
X0736506Y0232725D01*
X0736577Y0232731D01*
X0736648Y0232733D01*
X0736719Y0232731D01*
X0736790Y0232725D01*
X0736860Y0232716D01*
X0736930Y0232702D01*
X0736999Y0232685D01*
X0737067Y0232664D01*
X0737133Y0232640D01*
X0737198Y0232612D01*
X0737262Y0232580D01*
X0737324Y0232545D01*
X0737384Y0232507D01*
X0737441Y0232466D01*
X0737497Y0232421D01*
X0737550Y0232374D01*
X0737600Y0232324D01*
X0737647Y0232271D01*
X0737692Y0232215D01*
X0737733Y0232158D01*
X0737771Y0232098D01*
X0737806Y0232036D01*
X0737838Y0231972D01*
X0737866Y0231907D01*
X0737890Y0231841D01*
X0737911Y0231773D01*
X0737928Y0231704D01*
X0737942Y0231634D01*
X0737951Y0231564D01*
X0737957Y0231493D01*
X0737959Y0231422D01*
X0737959Y0230767D01*
X0717447Y0126801D02*
X0717305Y0126804D01*
X0717164Y0126812D01*
X0717022Y0126823D01*
X0716882Y0126837D01*
X0716741Y0126856D01*
X0716601Y0126877D01*
X0716462Y0126903D01*
X0716323Y0126932D01*
X0716186Y0126964D01*
X0716049Y0127000D01*
X0715913Y0127039D01*
X0715778Y0127082D01*
X0715644Y0127128D01*
X0716463Y0130733D02*
X0716580Y0130729D01*
X0716697Y0130722D01*
X0716813Y0130711D01*
X0716930Y0130697D01*
X0717045Y0130678D01*
X0717160Y0130657D01*
X0717274Y0130631D01*
X0717388Y0130602D01*
X0717500Y0130570D01*
X0717612Y0130534D01*
X0717722Y0130494D01*
X0717831Y0130451D01*
X0717938Y0130405D01*
X0716463Y0130734D02*
X0716406Y0130733D01*
X0716348Y0130728D01*
X0716291Y0130719D01*
X0716235Y0130706D01*
X0716180Y0130690D01*
X0716126Y0130670D01*
X0716074Y0130646D01*
X0716023Y0130619D01*
X0715975Y0130588D01*
X0715928Y0130554D01*
X0715884Y0130517D01*
X0715842Y0130477D01*
X0715804Y0130435D01*
X0715768Y0130390D01*
X0715735Y0130342D01*
X0715706Y0130293D01*
X0715680Y0130242D01*
X0715657Y0130189D01*
X0715639Y0130134D01*
X0715624Y0130079D01*
X0715612Y0130022D01*
X0715605Y0129965D01*
X0715601Y0129908D01*
X0715602Y0129850D01*
X0715606Y0129793D01*
X0715614Y0129736D01*
X0715626Y0129680D01*
X0715642Y0129624D01*
X0715661Y0129570D01*
X0715684Y0129518D01*
X0715711Y0129467D01*
X0715741Y0129417D01*
X0715774Y0129370D01*
X0715810Y0129326D01*
X0715849Y0129284D01*
X0715891Y0129244D01*
X0715936Y0129208D01*
X0715983Y0129175D01*
X0716032Y0129145D01*
X0716083Y0129118D01*
X0716135Y0129095D01*
X0716136Y0129094D02*
X0717774Y0128439D01*
X0717775Y0128439D02*
X0717827Y0128416D01*
X0717878Y0128389D01*
X0717927Y0128359D01*
X0717974Y0128326D01*
X0718019Y0128290D01*
X0718061Y0128250D01*
X0718100Y0128208D01*
X0718136Y0128164D01*
X0718169Y0128117D01*
X0718199Y0128067D01*
X0718226Y0128016D01*
X0718249Y0127964D01*
X0718268Y0127910D01*
X0718284Y0127854D01*
X0718296Y0127798D01*
X0718304Y0127741D01*
X0718308Y0127684D01*
X0718309Y0127626D01*
X0718305Y0127569D01*
X0718298Y0127512D01*
X0718286Y0127455D01*
X0718271Y0127400D01*
X0718253Y0127345D01*
X0718230Y0127292D01*
X0718204Y0127241D01*
X0718175Y0127192D01*
X0718142Y0127144D01*
X0718106Y0127099D01*
X0718068Y0127057D01*
X0718026Y0127017D01*
X0717982Y0126980D01*
X0717935Y0126946D01*
X0717887Y0126915D01*
X0717836Y0126888D01*
X0717784Y0126864D01*
X0717730Y0126844D01*
X0717675Y0126828D01*
X0717619Y0126815D01*
X0717562Y0126806D01*
X0717504Y0126801D01*
X0717447Y0126800D01*
X0720988Y0127783D02*
X0720988Y0129750D01*
X0720990Y0129812D01*
X0720996Y0129873D01*
X0721005Y0129934D01*
X0721019Y0129994D01*
X0721036Y0130054D01*
X0721057Y0130112D01*
X0721082Y0130169D01*
X0721110Y0130224D01*
X0721141Y0130277D01*
X0721176Y0130328D01*
X0721214Y0130377D01*
X0721254Y0130423D01*
X0721298Y0130467D01*
X0721344Y0130507D01*
X0721393Y0130545D01*
X0721444Y0130580D01*
X0721497Y0130611D01*
X0721552Y0130639D01*
X0721609Y0130664D01*
X0721667Y0130685D01*
X0721727Y0130702D01*
X0721787Y0130716D01*
X0721848Y0130725D01*
X0721909Y0130731D01*
X0721971Y0130733D01*
X0723282Y0130733D01*
X0725695Y0129422D02*
X0725695Y0128111D01*
X0725696Y0128111D02*
X0725698Y0128040D01*
X0725704Y0127969D01*
X0725713Y0127899D01*
X0725727Y0127829D01*
X0725744Y0127760D01*
X0725765Y0127692D01*
X0725789Y0127626D01*
X0725817Y0127561D01*
X0725849Y0127497D01*
X0725884Y0127435D01*
X0725922Y0127375D01*
X0725963Y0127318D01*
X0726008Y0127262D01*
X0726055Y0127209D01*
X0726105Y0127159D01*
X0726158Y0127112D01*
X0726214Y0127067D01*
X0726271Y0127026D01*
X0726331Y0126988D01*
X0726393Y0126953D01*
X0726457Y0126921D01*
X0726522Y0126893D01*
X0726588Y0126869D01*
X0726656Y0126848D01*
X0726725Y0126831D01*
X0726795Y0126817D01*
X0726865Y0126808D01*
X0726936Y0126802D01*
X0727007Y0126800D01*
X0727078Y0126802D01*
X0727149Y0126808D01*
X0727219Y0126817D01*
X0727289Y0126831D01*
X0727358Y0126848D01*
X0727426Y0126869D01*
X0727492Y0126893D01*
X0727557Y0126921D01*
X0727621Y0126953D01*
X0727683Y0126988D01*
X0727743Y0127026D01*
X0727800Y0127067D01*
X0727856Y0127112D01*
X0727909Y0127159D01*
X0727959Y0127209D01*
X0728006Y0127262D01*
X0728051Y0127318D01*
X0728092Y0127375D01*
X0728130Y0127435D01*
X0728165Y0127497D01*
X0728197Y0127561D01*
X0728225Y0127626D01*
X0728249Y0127692D01*
X0728270Y0127760D01*
X0728287Y0127829D01*
X0728301Y0127899D01*
X0728310Y0127969D01*
X0728316Y0128040D01*
X0728318Y0128111D01*
X0728318Y0129422D01*
X0728316Y0129493D01*
X0728310Y0129564D01*
X0728301Y0129634D01*
X0728287Y0129704D01*
X0728270Y0129773D01*
X0728249Y0129841D01*
X0728225Y0129907D01*
X0728197Y0129972D01*
X0728165Y0130036D01*
X0728130Y0130098D01*
X0728092Y0130158D01*
X0728051Y0130215D01*
X0728006Y0130271D01*
X0727959Y0130324D01*
X0727909Y0130374D01*
X0727856Y0130421D01*
X0727800Y0130466D01*
X0727743Y0130507D01*
X0727683Y0130545D01*
X0727621Y0130580D01*
X0727557Y0130612D01*
X0727492Y0130640D01*
X0727426Y0130664D01*
X0727358Y0130685D01*
X0727289Y0130702D01*
X0727219Y0130716D01*
X0727149Y0130725D01*
X0727078Y0130731D01*
X0727007Y0130733D01*
X0726936Y0130731D01*
X0726865Y0130725D01*
X0726795Y0130716D01*
X0726725Y0130702D01*
X0726656Y0130685D01*
X0726588Y0130664D01*
X0726522Y0130640D01*
X0726457Y0130612D01*
X0726393Y0130580D01*
X0726331Y0130545D01*
X0726271Y0130507D01*
X0726214Y0130466D01*
X0726158Y0130421D01*
X0726105Y0130374D01*
X0726055Y0130324D01*
X0726008Y0130271D01*
X0725963Y0130215D01*
X0725922Y0130158D01*
X0725884Y0130098D01*
X0725849Y0130036D01*
X0725817Y0129972D01*
X0725789Y0129907D01*
X0725765Y0129841D01*
X0725744Y0129773D01*
X0725727Y0129704D01*
X0725713Y0129634D01*
X0725704Y0129564D01*
X0725698Y0129493D01*
X0725696Y0129422D01*
X0723282Y0126800D02*
X0721971Y0126800D01*
X0721909Y0126802D01*
X0721848Y0126808D01*
X0721787Y0126817D01*
X0721727Y0126831D01*
X0721667Y0126848D01*
X0721609Y0126869D01*
X0721552Y0126894D01*
X0721497Y0126922D01*
X0721444Y0126953D01*
X0721393Y0126988D01*
X0721344Y0127026D01*
X0721298Y0127066D01*
X0721254Y0127110D01*
X0721214Y0127156D01*
X0721176Y0127205D01*
X0721141Y0127256D01*
X0721110Y0127309D01*
X0721082Y0127364D01*
X0721057Y0127421D01*
X0721036Y0127479D01*
X0721019Y0127539D01*
X0721005Y0127599D01*
X0720996Y0127660D01*
X0720990Y0127721D01*
X0720988Y0127783D01*
X0712768Y0129094D02*
X0708834Y0129094D01*
X0706163Y0130733D02*
X0704852Y0126800D01*
X0703541Y0130733D01*
X0731284Y0130733D02*
X0733251Y0130733D01*
X0733251Y0130078D01*
X0731284Y0130733D02*
X0731284Y0126800D01*
X0735337Y0127783D02*
X0735337Y0129422D01*
X0735337Y0128767D02*
X0737959Y0128767D01*
X0737959Y0129422D01*
X0737957Y0129493D01*
X0737951Y0129564D01*
X0737942Y0129634D01*
X0737928Y0129704D01*
X0737911Y0129773D01*
X0737890Y0129841D01*
X0737866Y0129907D01*
X0737838Y0129972D01*
X0737806Y0130036D01*
X0737771Y0130098D01*
X0737733Y0130158D01*
X0737692Y0130215D01*
X0737647Y0130271D01*
X0737600Y0130324D01*
X0737550Y0130374D01*
X0737497Y0130421D01*
X0737441Y0130466D01*
X0737384Y0130507D01*
X0737324Y0130545D01*
X0737262Y0130580D01*
X0737198Y0130612D01*
X0737133Y0130640D01*
X0737067Y0130664D01*
X0736999Y0130685D01*
X0736930Y0130702D01*
X0736860Y0130716D01*
X0736790Y0130725D01*
X0736719Y0130731D01*
X0736648Y0130733D01*
X0736577Y0130731D01*
X0736506Y0130725D01*
X0736436Y0130716D01*
X0736366Y0130702D01*
X0736297Y0130685D01*
X0736229Y0130664D01*
X0736163Y0130640D01*
X0736098Y0130612D01*
X0736034Y0130580D01*
X0735972Y0130545D01*
X0735912Y0130507D01*
X0735855Y0130466D01*
X0735799Y0130421D01*
X0735746Y0130374D01*
X0735696Y0130324D01*
X0735649Y0130271D01*
X0735604Y0130215D01*
X0735563Y0130158D01*
X0735525Y0130098D01*
X0735490Y0130036D01*
X0735458Y0129972D01*
X0735430Y0129907D01*
X0735406Y0129841D01*
X0735385Y0129773D01*
X0735368Y0129704D01*
X0735354Y0129634D01*
X0735345Y0129564D01*
X0735339Y0129493D01*
X0735337Y0129422D01*
X0735337Y0127783D02*
X0735339Y0127721D01*
X0735345Y0127660D01*
X0735354Y0127599D01*
X0735368Y0127539D01*
X0735385Y0127479D01*
X0735406Y0127421D01*
X0735431Y0127364D01*
X0735459Y0127309D01*
X0735490Y0127256D01*
X0735525Y0127205D01*
X0735563Y0127156D01*
X0735603Y0127110D01*
X0735647Y0127066D01*
X0735693Y0127026D01*
X0735742Y0126988D01*
X0735793Y0126953D01*
X0735846Y0126922D01*
X0735901Y0126894D01*
X0735958Y0126869D01*
X0736016Y0126848D01*
X0736076Y0126831D01*
X0736136Y0126817D01*
X0736197Y0126808D01*
X0736258Y0126802D01*
X0736320Y0126800D01*
X0737959Y0126800D01*
X0717447Y0024801D02*
X0717305Y0024804D01*
X0717164Y0024812D01*
X0717022Y0024823D01*
X0716882Y0024837D01*
X0716741Y0024856D01*
X0716601Y0024877D01*
X0716462Y0024903D01*
X0716323Y0024932D01*
X0716186Y0024964D01*
X0716049Y0025000D01*
X0715913Y0025039D01*
X0715778Y0025082D01*
X0715644Y0025128D01*
X0716463Y0028733D02*
X0716580Y0028729D01*
X0716697Y0028722D01*
X0716813Y0028711D01*
X0716930Y0028697D01*
X0717045Y0028678D01*
X0717160Y0028657D01*
X0717274Y0028631D01*
X0717388Y0028602D01*
X0717500Y0028570D01*
X0717612Y0028534D01*
X0717722Y0028494D01*
X0717831Y0028451D01*
X0717938Y0028405D01*
X0716463Y0028734D02*
X0716406Y0028733D01*
X0716348Y0028728D01*
X0716291Y0028719D01*
X0716235Y0028706D01*
X0716180Y0028690D01*
X0716126Y0028670D01*
X0716074Y0028646D01*
X0716023Y0028619D01*
X0715975Y0028588D01*
X0715928Y0028554D01*
X0715884Y0028517D01*
X0715842Y0028477D01*
X0715804Y0028435D01*
X0715768Y0028390D01*
X0715735Y0028342D01*
X0715706Y0028293D01*
X0715680Y0028242D01*
X0715657Y0028189D01*
X0715639Y0028134D01*
X0715624Y0028079D01*
X0715612Y0028022D01*
X0715605Y0027965D01*
X0715601Y0027908D01*
X0715602Y0027850D01*
X0715606Y0027793D01*
X0715614Y0027736D01*
X0715626Y0027680D01*
X0715642Y0027624D01*
X0715661Y0027570D01*
X0715684Y0027518D01*
X0715711Y0027467D01*
X0715741Y0027417D01*
X0715774Y0027370D01*
X0715810Y0027326D01*
X0715849Y0027284D01*
X0715891Y0027244D01*
X0715936Y0027208D01*
X0715983Y0027175D01*
X0716032Y0027145D01*
X0716083Y0027118D01*
X0716135Y0027095D01*
X0716136Y0027094D02*
X0717774Y0026439D01*
X0717775Y0026439D02*
X0717827Y0026416D01*
X0717878Y0026389D01*
X0717927Y0026359D01*
X0717974Y0026326D01*
X0718019Y0026290D01*
X0718061Y0026250D01*
X0718100Y0026208D01*
X0718136Y0026164D01*
X0718169Y0026117D01*
X0718199Y0026067D01*
X0718226Y0026016D01*
X0718249Y0025964D01*
X0718268Y0025910D01*
X0718284Y0025854D01*
X0718296Y0025798D01*
X0718304Y0025741D01*
X0718308Y0025684D01*
X0718309Y0025626D01*
X0718305Y0025569D01*
X0718298Y0025512D01*
X0718286Y0025455D01*
X0718271Y0025400D01*
X0718253Y0025345D01*
X0718230Y0025292D01*
X0718204Y0025241D01*
X0718175Y0025192D01*
X0718142Y0025144D01*
X0718106Y0025099D01*
X0718068Y0025057D01*
X0718026Y0025017D01*
X0717982Y0024980D01*
X0717935Y0024946D01*
X0717887Y0024915D01*
X0717836Y0024888D01*
X0717784Y0024864D01*
X0717730Y0024844D01*
X0717675Y0024828D01*
X0717619Y0024815D01*
X0717562Y0024806D01*
X0717504Y0024801D01*
X0717447Y0024800D01*
X0720988Y0025783D02*
X0720988Y0027750D01*
X0720990Y0027812D01*
X0720996Y0027873D01*
X0721005Y0027934D01*
X0721019Y0027994D01*
X0721036Y0028054D01*
X0721057Y0028112D01*
X0721082Y0028169D01*
X0721110Y0028224D01*
X0721141Y0028277D01*
X0721176Y0028328D01*
X0721214Y0028377D01*
X0721254Y0028423D01*
X0721298Y0028467D01*
X0721344Y0028507D01*
X0721393Y0028545D01*
X0721444Y0028580D01*
X0721497Y0028611D01*
X0721552Y0028639D01*
X0721609Y0028664D01*
X0721667Y0028685D01*
X0721727Y0028702D01*
X0721787Y0028716D01*
X0721848Y0028725D01*
X0721909Y0028731D01*
X0721971Y0028733D01*
X0723282Y0028733D01*
X0725695Y0027422D02*
X0725695Y0026111D01*
X0725696Y0026111D02*
X0725698Y0026040D01*
X0725704Y0025969D01*
X0725713Y0025899D01*
X0725727Y0025829D01*
X0725744Y0025760D01*
X0725765Y0025692D01*
X0725789Y0025626D01*
X0725817Y0025561D01*
X0725849Y0025497D01*
X0725884Y0025435D01*
X0725922Y0025375D01*
X0725963Y0025318D01*
X0726008Y0025262D01*
X0726055Y0025209D01*
X0726105Y0025159D01*
X0726158Y0025112D01*
X0726214Y0025067D01*
X0726271Y0025026D01*
X0726331Y0024988D01*
X0726393Y0024953D01*
X0726457Y0024921D01*
X0726522Y0024893D01*
X0726588Y0024869D01*
X0726656Y0024848D01*
X0726725Y0024831D01*
X0726795Y0024817D01*
X0726865Y0024808D01*
X0726936Y0024802D01*
X0727007Y0024800D01*
X0727078Y0024802D01*
X0727149Y0024808D01*
X0727219Y0024817D01*
X0727289Y0024831D01*
X0727358Y0024848D01*
X0727426Y0024869D01*
X0727492Y0024893D01*
X0727557Y0024921D01*
X0727621Y0024953D01*
X0727683Y0024988D01*
X0727743Y0025026D01*
X0727800Y0025067D01*
X0727856Y0025112D01*
X0727909Y0025159D01*
X0727959Y0025209D01*
X0728006Y0025262D01*
X0728051Y0025318D01*
X0728092Y0025375D01*
X0728130Y0025435D01*
X0728165Y0025497D01*
X0728197Y0025561D01*
X0728225Y0025626D01*
X0728249Y0025692D01*
X0728270Y0025760D01*
X0728287Y0025829D01*
X0728301Y0025899D01*
X0728310Y0025969D01*
X0728316Y0026040D01*
X0728318Y0026111D01*
X0728318Y0027422D01*
X0728316Y0027493D01*
X0728310Y0027564D01*
X0728301Y0027634D01*
X0728287Y0027704D01*
X0728270Y0027773D01*
X0728249Y0027841D01*
X0728225Y0027907D01*
X0728197Y0027972D01*
X0728165Y0028036D01*
X0728130Y0028098D01*
X0728092Y0028158D01*
X0728051Y0028215D01*
X0728006Y0028271D01*
X0727959Y0028324D01*
X0727909Y0028374D01*
X0727856Y0028421D01*
X0727800Y0028466D01*
X0727743Y0028507D01*
X0727683Y0028545D01*
X0727621Y0028580D01*
X0727557Y0028612D01*
X0727492Y0028640D01*
X0727426Y0028664D01*
X0727358Y0028685D01*
X0727289Y0028702D01*
X0727219Y0028716D01*
X0727149Y0028725D01*
X0727078Y0028731D01*
X0727007Y0028733D01*
X0726936Y0028731D01*
X0726865Y0028725D01*
X0726795Y0028716D01*
X0726725Y0028702D01*
X0726656Y0028685D01*
X0726588Y0028664D01*
X0726522Y0028640D01*
X0726457Y0028612D01*
X0726393Y0028580D01*
X0726331Y0028545D01*
X0726271Y0028507D01*
X0726214Y0028466D01*
X0726158Y0028421D01*
X0726105Y0028374D01*
X0726055Y0028324D01*
X0726008Y0028271D01*
X0725963Y0028215D01*
X0725922Y0028158D01*
X0725884Y0028098D01*
X0725849Y0028036D01*
X0725817Y0027972D01*
X0725789Y0027907D01*
X0725765Y0027841D01*
X0725744Y0027773D01*
X0725727Y0027704D01*
X0725713Y0027634D01*
X0725704Y0027564D01*
X0725698Y0027493D01*
X0725696Y0027422D01*
X0723282Y0024800D02*
X0721971Y0024800D01*
X0721909Y0024802D01*
X0721848Y0024808D01*
X0721787Y0024817D01*
X0721727Y0024831D01*
X0721667Y0024848D01*
X0721609Y0024869D01*
X0721552Y0024894D01*
X0721497Y0024922D01*
X0721444Y0024953D01*
X0721393Y0024988D01*
X0721344Y0025026D01*
X0721298Y0025066D01*
X0721254Y0025110D01*
X0721214Y0025156D01*
X0721176Y0025205D01*
X0721141Y0025256D01*
X0721110Y0025309D01*
X0721082Y0025364D01*
X0721057Y0025421D01*
X0721036Y0025479D01*
X0721019Y0025539D01*
X0721005Y0025599D01*
X0720996Y0025660D01*
X0720990Y0025721D01*
X0720988Y0025783D01*
X0712768Y0027094D02*
X0708834Y0027094D01*
X0706163Y0028733D02*
X0704852Y0024800D01*
X0703541Y0028733D01*
X0731284Y0028733D02*
X0731284Y0024800D01*
X0733251Y0028078D02*
X0733251Y0028733D01*
X0731284Y0028733D01*
X0735337Y0027422D02*
X0735337Y0025783D01*
X0735339Y0025721D01*
X0735345Y0025660D01*
X0735354Y0025599D01*
X0735368Y0025539D01*
X0735385Y0025479D01*
X0735406Y0025421D01*
X0735431Y0025364D01*
X0735459Y0025309D01*
X0735490Y0025256D01*
X0735525Y0025205D01*
X0735563Y0025156D01*
X0735603Y0025110D01*
X0735647Y0025066D01*
X0735693Y0025026D01*
X0735742Y0024988D01*
X0735793Y0024953D01*
X0735846Y0024922D01*
X0735901Y0024894D01*
X0735958Y0024869D01*
X0736016Y0024848D01*
X0736076Y0024831D01*
X0736136Y0024817D01*
X0736197Y0024808D01*
X0736258Y0024802D01*
X0736320Y0024800D01*
X0737959Y0024800D01*
X0737959Y0026767D02*
X0735337Y0026767D01*
X0735337Y0027422D02*
X0735339Y0027493D01*
X0735345Y0027564D01*
X0735354Y0027634D01*
X0735368Y0027704D01*
X0735385Y0027773D01*
X0735406Y0027841D01*
X0735430Y0027907D01*
X0735458Y0027972D01*
X0735490Y0028036D01*
X0735525Y0028098D01*
X0735563Y0028158D01*
X0735604Y0028215D01*
X0735649Y0028271D01*
X0735696Y0028324D01*
X0735746Y0028374D01*
X0735799Y0028421D01*
X0735855Y0028466D01*
X0735912Y0028507D01*
X0735972Y0028545D01*
X0736034Y0028580D01*
X0736098Y0028612D01*
X0736163Y0028640D01*
X0736229Y0028664D01*
X0736297Y0028685D01*
X0736366Y0028702D01*
X0736436Y0028716D01*
X0736506Y0028725D01*
X0736577Y0028731D01*
X0736648Y0028733D01*
X0736719Y0028731D01*
X0736790Y0028725D01*
X0736860Y0028716D01*
X0736930Y0028702D01*
X0736999Y0028685D01*
X0737067Y0028664D01*
X0737133Y0028640D01*
X0737198Y0028612D01*
X0737262Y0028580D01*
X0737324Y0028545D01*
X0737384Y0028507D01*
X0737441Y0028466D01*
X0737497Y0028421D01*
X0737550Y0028374D01*
X0737600Y0028324D01*
X0737647Y0028271D01*
X0737692Y0028215D01*
X0737733Y0028158D01*
X0737771Y0028098D01*
X0737806Y0028036D01*
X0737838Y0027972D01*
X0737866Y0027907D01*
X0737890Y0027841D01*
X0737911Y0027773D01*
X0737928Y0027704D01*
X0737942Y0027634D01*
X0737951Y0027564D01*
X0737957Y0027493D01*
X0737959Y0027422D01*
X0737959Y0026767D01*
M02*
