%
M48
M72
T01C0.0150
T02C0.0400
T03C0.1300
%
T01
X4875Y3875
X7425Y6975
X6875Y7737
X7145Y8285
X8672Y8122
X9675Y7375
X10355Y7275
X10375Y7678
X8275Y9925
X7475Y9925
X5415Y8465
X5375Y8072
X4875Y14075
X7425Y17175
X6875Y17937
X7145Y18485
X8672Y18322
X9675Y17575
X10355Y17475
X10375Y17878
X8275Y20125
X7475Y20125
X5415Y18665
X5375Y18272
X4875Y24275
X7425Y27375
X6875Y28137
X7145Y28685
X8672Y28522
X9675Y27775
X10355Y27675
X10375Y28078
X8275Y30325
X7475Y30325
X5415Y28865
X5375Y28472
X4875Y34475
X7425Y37575
X6875Y38337
X7145Y38885
X8672Y38722
X9675Y37975
X10355Y37875
X10375Y38278
X8275Y40525
X7475Y40525
X5415Y39065
X5375Y38672
X15575Y38672
X15615Y39065
X17075Y38337
X17345Y38885
X18872Y38722
X19875Y37975
X20555Y37875
X20575Y38278
X17625Y37575
X17675Y40525
X18475Y40525
X25815Y39065
X25775Y38672
X27275Y38337
X27545Y38885
X29072Y38722
X30075Y37975
X30755Y37875
X30775Y38278
X27825Y37575
X27875Y40525
X28675Y40525
X36015Y39065
X35975Y38672
X37475Y38337
X37745Y38885
X39272Y38722
X40275Y37975
X40955Y37875
X40975Y38278
X38025Y37575
X38075Y40525
X38875Y40525
X46215Y39065
X46175Y38672
X47675Y38337
X47945Y38885
X49472Y38722
X50475Y37975
X51155Y37875
X51175Y38278
X48225Y37575
X48275Y40525
X49075Y40525
X56375Y38672
X56415Y39065
X57875Y38337
X58145Y38885
X59672Y38722
X60675Y37975
X61355Y37875
X61375Y38278
X58425Y37575
X58475Y40525
X59275Y40525
X55875Y34475
X58475Y30325
X59275Y30325
X56415Y28865
X56375Y28472
X57875Y28137
X58145Y28685
X58425Y27375
X59672Y28522
X60675Y27775
X61355Y27675
X61375Y28078
X55875Y24275
X51155Y27675
X51175Y28078
X50475Y27775
X49472Y28522
X47945Y28685
X47675Y28137
X48225Y27375
X46175Y28472
X46215Y28865
X48275Y30325
X49075Y30325
X45675Y34475
X38875Y30325
X38075Y30325
X36015Y28865
X35975Y28472
X37475Y28137
X37745Y28685
X38025Y27375
X39272Y28522
X40275Y27775
X40955Y27675
X40975Y28078
X45675Y24275
X48275Y20125
X49075Y20125
X49472Y18322
X50475Y17575
X51155Y17475
X51175Y17878
X48225Y17175
X47675Y17937
X47945Y18485
X46215Y18665
X46175Y18272
X40975Y17878
X40955Y17475
X40275Y17575
X39272Y18322
X37745Y18485
X37475Y17937
X38025Y17175
X35975Y18272
X36015Y18665
X38075Y20125
X38875Y20125
X35475Y24275
X30755Y27675
X30775Y28078
X30075Y27775
X29072Y28522
X27545Y28685
X27275Y28137
X27825Y27375
X25775Y28472
X25815Y28865
X27875Y30325
X28675Y30325
X25275Y34475
X18475Y30325
X17675Y30325
X15615Y28865
X15575Y28472
X17075Y28137
X17345Y28685
X17625Y27375
X18872Y28522
X19875Y27775
X20555Y27675
X20575Y28078
X25275Y24275
X27875Y20125
X28675Y20125
X29072Y18322
X30075Y17575
X30755Y17475
X30775Y17878
X27825Y17175
X27275Y17937
X27545Y18485
X25815Y18665
X25775Y18272
X20575Y17878
X20555Y17475
X19875Y17575
X18872Y18322
X17345Y18485
X17075Y17937
X17625Y17175
X15575Y18272
X15615Y18665
X17675Y20125
X18475Y20125
X15075Y24275
X15075Y34475
X35475Y34475
X56415Y18665
X56375Y18272
X57875Y17937
X58145Y18485
X58425Y17175
X59672Y18322
X60675Y17575
X61355Y17475
X61375Y17878
X59275Y20125
X58475Y20125
X55875Y14075
X58475Y9925
X59275Y9925
X59672Y8122
X60675Y7375
X61355Y7275
X61375Y7678
X58425Y6975
X57875Y7737
X58145Y8285
X56415Y8465
X56375Y8072
X51175Y7678
X51155Y7275
X50475Y7375
X49472Y8122
X47945Y8285
X47675Y7737
X48225Y6975
X46175Y8072
X46215Y8465
X48275Y9925
X49075Y9925
X45675Y14075
X38875Y9925
X38075Y9925
X37745Y8285
X37475Y7737
X38025Y6975
X39272Y8122
X40275Y7375
X40955Y7275
X40975Y7678
X35975Y8072
X36015Y8465
X30775Y7678
X30755Y7275
X30075Y7375
X29072Y8122
X27545Y8285
X27275Y7737
X27825Y6975
X25775Y8072
X25815Y8465
X27875Y9925
X28675Y9925
X25275Y14075
X18475Y9925
X17675Y9925
X17345Y8285
X17075Y7737
X17625Y6975
X18872Y8122
X19875Y7375
X20555Y7275
X20575Y7678
X15615Y8465
X15575Y8072
X15075Y3875
X25275Y3875
X35475Y3875
X45675Y3875
X55875Y3875
X35475Y14075
X15075Y14075
T02
X16575Y13575
X17575Y13575
X18575Y13575
X19575Y13575
X26775Y13575
X27775Y13575
X28775Y13575
X29775Y13575
X36975Y13575
X37975Y13575
X38975Y13575
X39975Y13575
X47175Y13575
X48175Y13575
X49175Y13575
X50175Y13575
X57375Y13575
X58375Y13575
X59375Y13575
X60375Y13575
X60375Y3375
X59375Y3375
X58375Y3375
X57375Y3375
X50175Y3375
X49175Y3375
X48175Y3375
X47175Y3375
X39975Y3375
X38975Y3375
X37975Y3375
X36975Y3375
X29775Y3375
X28775Y3375
X27775Y3375
X26775Y3375
X19575Y3375
X18575Y3375
X17575Y3375
X16575Y3375
X9375Y3375
X8375Y3375
X7375Y3375
X6375Y3375
X6375Y13575
X7375Y13575
X8375Y13575
X9375Y13575
X9375Y23775
X8375Y23775
X7375Y23775
X6375Y23775
X16575Y23775
X17575Y23775
X18575Y23775
X19575Y23775
X26775Y23775
X27775Y23775
X28775Y23775
X29775Y23775
X36975Y23775
X37975Y23775
X38975Y23775
X39975Y23775
X47175Y23775
X48175Y23775
X49175Y23775
X50175Y23775
X57375Y23775
X58375Y23775
X59375Y23775
X60375Y23775
X60375Y33975
X59375Y33975
X58375Y33975
X57375Y33975
X50175Y33975
X49175Y33975
X48175Y33975
X47175Y33975
X39975Y33975
X38975Y33975
X37975Y33975
X36975Y33975
X29775Y33975
X28775Y33975
X27775Y33975
X26775Y33975
X19575Y33975
X18575Y33975
X17575Y33975
X16575Y33975
X9375Y33975
X8375Y33975
X7375Y33975
X6375Y33975
T03
X3875Y32275
X11875Y32275
X14075Y32275
X22075Y32275
X24275Y32275
X32275Y32275
X34475Y32275
X42475Y32275
X44675Y32275
X52675Y32275
X54875Y32275
X62875Y32275
X62875Y42475
X54875Y42475
X52675Y42475
X44675Y42475
X42475Y42475
X34475Y42475
X32275Y42475
X24275Y42475
X22075Y42475
X14075Y42475
X11875Y42475
X3875Y42475
X3875Y22075
X11875Y22075
X14075Y22075
X22075Y22075
X24275Y22075
X32275Y22075
X34475Y22075
X42475Y22075
X44675Y22075
X52675Y22075
X54875Y22075
X62875Y22075
X62875Y11875
X54875Y11875
X52675Y11875
X44675Y11875
X42475Y11875
X34475Y11875
X32275Y11875
X24275Y11875
X22075Y11875
X14075Y11875
X11875Y11875
X3875Y11875
M30
