G75*
%MOIN*%
%OFA0B0*%
%FSLAX25Y25*%
%IPPOS*%
%LPD*%
%AMOC8*
5,1,8,0,0,1.08239X$1,22.5*
%
%ADD10R,0.03543X0.01378*%
%ADD11R,0.03937X0.01378*%
%ADD12R,0.04331X0.03937*%
%ADD13C,0.01181*%
%ADD14R,0.03937X0.04331*%
%ADD15R,0.07874X0.04724*%
%ADD16R,0.05315X0.02362*%
D10*
X0075010Y0077372D03*
X0075010Y0080128D03*
X0082490Y0080128D03*
X0177010Y0080128D03*
X0177010Y0077372D03*
X0184490Y0080128D03*
X0279010Y0080128D03*
X0279010Y0077372D03*
X0286490Y0080128D03*
X0381010Y0080128D03*
X0381010Y0077372D03*
X0388490Y0080128D03*
X0483010Y0080128D03*
X0483010Y0077372D03*
X0490490Y0080128D03*
X0585010Y0080128D03*
X0585010Y0077372D03*
X0592490Y0080128D03*
X0585010Y0179372D03*
X0585010Y0182128D03*
X0592490Y0182128D03*
X0490490Y0182128D03*
X0483010Y0182128D03*
X0483010Y0179372D03*
X0388490Y0182128D03*
X0381010Y0182128D03*
X0381010Y0179372D03*
X0286490Y0182128D03*
X0279010Y0182128D03*
X0279010Y0179372D03*
X0184490Y0182128D03*
X0177010Y0182128D03*
X0177010Y0179372D03*
X0082490Y0182128D03*
X0075010Y0182128D03*
X0075010Y0179372D03*
X0075010Y0281372D03*
X0075010Y0284128D03*
X0082490Y0284128D03*
X0177010Y0284128D03*
X0177010Y0281372D03*
X0184490Y0284128D03*
X0279010Y0284128D03*
X0279010Y0281372D03*
X0286490Y0284128D03*
X0381010Y0284128D03*
X0381010Y0281372D03*
X0388490Y0284128D03*
X0483010Y0284128D03*
X0483010Y0281372D03*
X0490490Y0284128D03*
X0585010Y0284128D03*
X0585010Y0281372D03*
X0592490Y0284128D03*
X0585010Y0383372D03*
X0585010Y0386128D03*
X0592490Y0386128D03*
X0490490Y0386128D03*
X0483010Y0386128D03*
X0483010Y0383372D03*
X0388490Y0386128D03*
X0381010Y0386128D03*
X0381010Y0383372D03*
X0286490Y0386128D03*
X0279010Y0386128D03*
X0279010Y0383372D03*
X0184490Y0386128D03*
X0177010Y0386128D03*
X0177010Y0383372D03*
X0082490Y0386128D03*
X0075010Y0386128D03*
X0075010Y0383372D03*
D11*
X0082293Y0383372D03*
X0184293Y0383372D03*
X0286293Y0383372D03*
X0388293Y0383372D03*
X0490293Y0383372D03*
X0592293Y0383372D03*
X0592293Y0281372D03*
X0490293Y0281372D03*
X0388293Y0281372D03*
X0286293Y0281372D03*
X0184293Y0281372D03*
X0082293Y0281372D03*
X0082293Y0179372D03*
X0184293Y0179372D03*
X0286293Y0179372D03*
X0388293Y0179372D03*
X0490293Y0179372D03*
X0592293Y0179372D03*
X0592293Y0077372D03*
X0490293Y0077372D03*
X0388293Y0077372D03*
X0286293Y0077372D03*
X0184293Y0077372D03*
X0082293Y0077372D03*
D12*
X0035404Y0038750D03*
X0042096Y0038750D03*
X0075404Y0086250D03*
X0082096Y0086250D03*
X0042096Y0140750D03*
X0035404Y0140750D03*
X0075404Y0188250D03*
X0082096Y0188250D03*
X0137404Y0140750D03*
X0144096Y0140750D03*
X0177404Y0188250D03*
X0184096Y0188250D03*
X0239404Y0140750D03*
X0246096Y0140750D03*
X0279404Y0188250D03*
X0286096Y0188250D03*
X0341404Y0140750D03*
X0348096Y0140750D03*
X0381404Y0188250D03*
X0388096Y0188250D03*
X0443404Y0140750D03*
X0450096Y0140750D03*
X0483404Y0188250D03*
X0490096Y0188250D03*
X0545404Y0140750D03*
X0552096Y0140750D03*
X0585404Y0188250D03*
X0592096Y0188250D03*
X0552096Y0242750D03*
X0545404Y0242750D03*
X0585404Y0290250D03*
X0592096Y0290250D03*
X0552096Y0344750D03*
X0545404Y0344750D03*
X0585404Y0392250D03*
X0592096Y0392250D03*
X0490096Y0392250D03*
X0483404Y0392250D03*
X0450096Y0344750D03*
X0443404Y0344750D03*
X0388096Y0392250D03*
X0381404Y0392250D03*
X0348096Y0344750D03*
X0341404Y0344750D03*
X0286096Y0392250D03*
X0279404Y0392250D03*
X0246096Y0344750D03*
X0239404Y0344750D03*
X0184096Y0392250D03*
X0177404Y0392250D03*
X0144096Y0344750D03*
X0137404Y0344750D03*
X0082096Y0392250D03*
X0075404Y0392250D03*
X0042096Y0344750D03*
X0035404Y0344750D03*
X0075404Y0290250D03*
X0082096Y0290250D03*
X0042096Y0242750D03*
X0035404Y0242750D03*
X0137404Y0242750D03*
X0144096Y0242750D03*
X0177404Y0290250D03*
X0184096Y0290250D03*
X0239404Y0242750D03*
X0246096Y0242750D03*
X0279404Y0290250D03*
X0286096Y0290250D03*
X0341404Y0242750D03*
X0348096Y0242750D03*
X0381404Y0290250D03*
X0388096Y0290250D03*
X0443404Y0242750D03*
X0450096Y0242750D03*
X0483404Y0290250D03*
X0490096Y0290250D03*
X0490096Y0086250D03*
X0483404Y0086250D03*
X0450096Y0038750D03*
X0443404Y0038750D03*
X0388096Y0086250D03*
X0381404Y0086250D03*
X0348096Y0038750D03*
X0341404Y0038750D03*
X0286096Y0086250D03*
X0279404Y0086250D03*
X0246096Y0038750D03*
X0239404Y0038750D03*
X0184096Y0086250D03*
X0177404Y0086250D03*
X0144096Y0038750D03*
X0137404Y0038750D03*
X0545404Y0038750D03*
X0552096Y0038750D03*
X0585404Y0086250D03*
X0592096Y0086250D03*
D13*
X0550825Y0045128D02*
X0550825Y0042372D01*
X0550825Y0045128D02*
X0553581Y0045128D01*
X0553581Y0042372D01*
X0550825Y0042372D01*
X0550825Y0043494D02*
X0553581Y0043494D01*
X0553581Y0044616D02*
X0550825Y0044616D01*
X0543919Y0045128D02*
X0543919Y0042372D01*
X0543919Y0045128D02*
X0546675Y0045128D01*
X0546675Y0042372D01*
X0543919Y0042372D01*
X0543919Y0043494D02*
X0546675Y0043494D01*
X0546675Y0044616D02*
X0543919Y0044616D01*
X0448825Y0045128D02*
X0448825Y0042372D01*
X0448825Y0045128D02*
X0451581Y0045128D01*
X0451581Y0042372D01*
X0448825Y0042372D01*
X0448825Y0043494D02*
X0451581Y0043494D01*
X0451581Y0044616D02*
X0448825Y0044616D01*
X0441919Y0045128D02*
X0441919Y0042372D01*
X0441919Y0045128D02*
X0444675Y0045128D01*
X0444675Y0042372D01*
X0441919Y0042372D01*
X0441919Y0043494D02*
X0444675Y0043494D01*
X0444675Y0044616D02*
X0441919Y0044616D01*
X0346825Y0045128D02*
X0346825Y0042372D01*
X0346825Y0045128D02*
X0349581Y0045128D01*
X0349581Y0042372D01*
X0346825Y0042372D01*
X0346825Y0043494D02*
X0349581Y0043494D01*
X0349581Y0044616D02*
X0346825Y0044616D01*
X0339919Y0045128D02*
X0339919Y0042372D01*
X0339919Y0045128D02*
X0342675Y0045128D01*
X0342675Y0042372D01*
X0339919Y0042372D01*
X0339919Y0043494D02*
X0342675Y0043494D01*
X0342675Y0044616D02*
X0339919Y0044616D01*
X0244825Y0045128D02*
X0244825Y0042372D01*
X0244825Y0045128D02*
X0247581Y0045128D01*
X0247581Y0042372D01*
X0244825Y0042372D01*
X0244825Y0043494D02*
X0247581Y0043494D01*
X0247581Y0044616D02*
X0244825Y0044616D01*
X0237919Y0045128D02*
X0237919Y0042372D01*
X0237919Y0045128D02*
X0240675Y0045128D01*
X0240675Y0042372D01*
X0237919Y0042372D01*
X0237919Y0043494D02*
X0240675Y0043494D01*
X0240675Y0044616D02*
X0237919Y0044616D01*
X0142825Y0045128D02*
X0142825Y0042372D01*
X0142825Y0045128D02*
X0145581Y0045128D01*
X0145581Y0042372D01*
X0142825Y0042372D01*
X0142825Y0043494D02*
X0145581Y0043494D01*
X0145581Y0044616D02*
X0142825Y0044616D01*
X0135919Y0045128D02*
X0135919Y0042372D01*
X0135919Y0045128D02*
X0138675Y0045128D01*
X0138675Y0042372D01*
X0135919Y0042372D01*
X0135919Y0043494D02*
X0138675Y0043494D01*
X0138675Y0044616D02*
X0135919Y0044616D01*
X0040825Y0045128D02*
X0040825Y0042372D01*
X0040825Y0045128D02*
X0043581Y0045128D01*
X0043581Y0042372D01*
X0040825Y0042372D01*
X0040825Y0043494D02*
X0043581Y0043494D01*
X0043581Y0044616D02*
X0040825Y0044616D01*
X0033919Y0045128D02*
X0033919Y0042372D01*
X0033919Y0045128D02*
X0036675Y0045128D01*
X0036675Y0042372D01*
X0033919Y0042372D01*
X0033919Y0043494D02*
X0036675Y0043494D01*
X0036675Y0044616D02*
X0033919Y0044616D01*
X0033919Y0144372D02*
X0033919Y0147128D01*
X0036675Y0147128D01*
X0036675Y0144372D01*
X0033919Y0144372D01*
X0033919Y0145494D02*
X0036675Y0145494D01*
X0036675Y0146616D02*
X0033919Y0146616D01*
X0040825Y0147128D02*
X0040825Y0144372D01*
X0040825Y0147128D02*
X0043581Y0147128D01*
X0043581Y0144372D01*
X0040825Y0144372D01*
X0040825Y0145494D02*
X0043581Y0145494D01*
X0043581Y0146616D02*
X0040825Y0146616D01*
X0135919Y0147128D02*
X0135919Y0144372D01*
X0135919Y0147128D02*
X0138675Y0147128D01*
X0138675Y0144372D01*
X0135919Y0144372D01*
X0135919Y0145494D02*
X0138675Y0145494D01*
X0138675Y0146616D02*
X0135919Y0146616D01*
X0142825Y0147128D02*
X0142825Y0144372D01*
X0142825Y0147128D02*
X0145581Y0147128D01*
X0145581Y0144372D01*
X0142825Y0144372D01*
X0142825Y0145494D02*
X0145581Y0145494D01*
X0145581Y0146616D02*
X0142825Y0146616D01*
X0237919Y0147128D02*
X0237919Y0144372D01*
X0237919Y0147128D02*
X0240675Y0147128D01*
X0240675Y0144372D01*
X0237919Y0144372D01*
X0237919Y0145494D02*
X0240675Y0145494D01*
X0240675Y0146616D02*
X0237919Y0146616D01*
X0244825Y0147128D02*
X0244825Y0144372D01*
X0244825Y0147128D02*
X0247581Y0147128D01*
X0247581Y0144372D01*
X0244825Y0144372D01*
X0244825Y0145494D02*
X0247581Y0145494D01*
X0247581Y0146616D02*
X0244825Y0146616D01*
X0339919Y0147128D02*
X0339919Y0144372D01*
X0339919Y0147128D02*
X0342675Y0147128D01*
X0342675Y0144372D01*
X0339919Y0144372D01*
X0339919Y0145494D02*
X0342675Y0145494D01*
X0342675Y0146616D02*
X0339919Y0146616D01*
X0346825Y0147128D02*
X0346825Y0144372D01*
X0346825Y0147128D02*
X0349581Y0147128D01*
X0349581Y0144372D01*
X0346825Y0144372D01*
X0346825Y0145494D02*
X0349581Y0145494D01*
X0349581Y0146616D02*
X0346825Y0146616D01*
X0441919Y0147128D02*
X0441919Y0144372D01*
X0441919Y0147128D02*
X0444675Y0147128D01*
X0444675Y0144372D01*
X0441919Y0144372D01*
X0441919Y0145494D02*
X0444675Y0145494D01*
X0444675Y0146616D02*
X0441919Y0146616D01*
X0448825Y0147128D02*
X0448825Y0144372D01*
X0448825Y0147128D02*
X0451581Y0147128D01*
X0451581Y0144372D01*
X0448825Y0144372D01*
X0448825Y0145494D02*
X0451581Y0145494D01*
X0451581Y0146616D02*
X0448825Y0146616D01*
X0543919Y0147128D02*
X0543919Y0144372D01*
X0543919Y0147128D02*
X0546675Y0147128D01*
X0546675Y0144372D01*
X0543919Y0144372D01*
X0543919Y0145494D02*
X0546675Y0145494D01*
X0546675Y0146616D02*
X0543919Y0146616D01*
X0550825Y0147128D02*
X0550825Y0144372D01*
X0550825Y0147128D02*
X0553581Y0147128D01*
X0553581Y0144372D01*
X0550825Y0144372D01*
X0550825Y0145494D02*
X0553581Y0145494D01*
X0553581Y0146616D02*
X0550825Y0146616D01*
X0550825Y0246372D02*
X0550825Y0249128D01*
X0553581Y0249128D01*
X0553581Y0246372D01*
X0550825Y0246372D01*
X0550825Y0247494D02*
X0553581Y0247494D01*
X0553581Y0248616D02*
X0550825Y0248616D01*
X0543919Y0249128D02*
X0543919Y0246372D01*
X0543919Y0249128D02*
X0546675Y0249128D01*
X0546675Y0246372D01*
X0543919Y0246372D01*
X0543919Y0247494D02*
X0546675Y0247494D01*
X0546675Y0248616D02*
X0543919Y0248616D01*
X0448825Y0249128D02*
X0448825Y0246372D01*
X0448825Y0249128D02*
X0451581Y0249128D01*
X0451581Y0246372D01*
X0448825Y0246372D01*
X0448825Y0247494D02*
X0451581Y0247494D01*
X0451581Y0248616D02*
X0448825Y0248616D01*
X0441919Y0249128D02*
X0441919Y0246372D01*
X0441919Y0249128D02*
X0444675Y0249128D01*
X0444675Y0246372D01*
X0441919Y0246372D01*
X0441919Y0247494D02*
X0444675Y0247494D01*
X0444675Y0248616D02*
X0441919Y0248616D01*
X0346825Y0249128D02*
X0346825Y0246372D01*
X0346825Y0249128D02*
X0349581Y0249128D01*
X0349581Y0246372D01*
X0346825Y0246372D01*
X0346825Y0247494D02*
X0349581Y0247494D01*
X0349581Y0248616D02*
X0346825Y0248616D01*
X0339919Y0249128D02*
X0339919Y0246372D01*
X0339919Y0249128D02*
X0342675Y0249128D01*
X0342675Y0246372D01*
X0339919Y0246372D01*
X0339919Y0247494D02*
X0342675Y0247494D01*
X0342675Y0248616D02*
X0339919Y0248616D01*
X0244825Y0249128D02*
X0244825Y0246372D01*
X0244825Y0249128D02*
X0247581Y0249128D01*
X0247581Y0246372D01*
X0244825Y0246372D01*
X0244825Y0247494D02*
X0247581Y0247494D01*
X0247581Y0248616D02*
X0244825Y0248616D01*
X0237919Y0249128D02*
X0237919Y0246372D01*
X0237919Y0249128D02*
X0240675Y0249128D01*
X0240675Y0246372D01*
X0237919Y0246372D01*
X0237919Y0247494D02*
X0240675Y0247494D01*
X0240675Y0248616D02*
X0237919Y0248616D01*
X0142825Y0249128D02*
X0142825Y0246372D01*
X0142825Y0249128D02*
X0145581Y0249128D01*
X0145581Y0246372D01*
X0142825Y0246372D01*
X0142825Y0247494D02*
X0145581Y0247494D01*
X0145581Y0248616D02*
X0142825Y0248616D01*
X0135919Y0249128D02*
X0135919Y0246372D01*
X0135919Y0249128D02*
X0138675Y0249128D01*
X0138675Y0246372D01*
X0135919Y0246372D01*
X0135919Y0247494D02*
X0138675Y0247494D01*
X0138675Y0248616D02*
X0135919Y0248616D01*
X0040825Y0249128D02*
X0040825Y0246372D01*
X0040825Y0249128D02*
X0043581Y0249128D01*
X0043581Y0246372D01*
X0040825Y0246372D01*
X0040825Y0247494D02*
X0043581Y0247494D01*
X0043581Y0248616D02*
X0040825Y0248616D01*
X0033919Y0249128D02*
X0033919Y0246372D01*
X0033919Y0249128D02*
X0036675Y0249128D01*
X0036675Y0246372D01*
X0033919Y0246372D01*
X0033919Y0247494D02*
X0036675Y0247494D01*
X0036675Y0248616D02*
X0033919Y0248616D01*
X0033919Y0348372D02*
X0033919Y0351128D01*
X0036675Y0351128D01*
X0036675Y0348372D01*
X0033919Y0348372D01*
X0033919Y0349494D02*
X0036675Y0349494D01*
X0036675Y0350616D02*
X0033919Y0350616D01*
X0040825Y0351128D02*
X0040825Y0348372D01*
X0040825Y0351128D02*
X0043581Y0351128D01*
X0043581Y0348372D01*
X0040825Y0348372D01*
X0040825Y0349494D02*
X0043581Y0349494D01*
X0043581Y0350616D02*
X0040825Y0350616D01*
X0135919Y0351128D02*
X0135919Y0348372D01*
X0135919Y0351128D02*
X0138675Y0351128D01*
X0138675Y0348372D01*
X0135919Y0348372D01*
X0135919Y0349494D02*
X0138675Y0349494D01*
X0138675Y0350616D02*
X0135919Y0350616D01*
X0142825Y0351128D02*
X0142825Y0348372D01*
X0142825Y0351128D02*
X0145581Y0351128D01*
X0145581Y0348372D01*
X0142825Y0348372D01*
X0142825Y0349494D02*
X0145581Y0349494D01*
X0145581Y0350616D02*
X0142825Y0350616D01*
X0237919Y0351128D02*
X0237919Y0348372D01*
X0237919Y0351128D02*
X0240675Y0351128D01*
X0240675Y0348372D01*
X0237919Y0348372D01*
X0237919Y0349494D02*
X0240675Y0349494D01*
X0240675Y0350616D02*
X0237919Y0350616D01*
X0244825Y0351128D02*
X0244825Y0348372D01*
X0244825Y0351128D02*
X0247581Y0351128D01*
X0247581Y0348372D01*
X0244825Y0348372D01*
X0244825Y0349494D02*
X0247581Y0349494D01*
X0247581Y0350616D02*
X0244825Y0350616D01*
X0339919Y0351128D02*
X0339919Y0348372D01*
X0339919Y0351128D02*
X0342675Y0351128D01*
X0342675Y0348372D01*
X0339919Y0348372D01*
X0339919Y0349494D02*
X0342675Y0349494D01*
X0342675Y0350616D02*
X0339919Y0350616D01*
X0346825Y0351128D02*
X0346825Y0348372D01*
X0346825Y0351128D02*
X0349581Y0351128D01*
X0349581Y0348372D01*
X0346825Y0348372D01*
X0346825Y0349494D02*
X0349581Y0349494D01*
X0349581Y0350616D02*
X0346825Y0350616D01*
X0441919Y0351128D02*
X0441919Y0348372D01*
X0441919Y0351128D02*
X0444675Y0351128D01*
X0444675Y0348372D01*
X0441919Y0348372D01*
X0441919Y0349494D02*
X0444675Y0349494D01*
X0444675Y0350616D02*
X0441919Y0350616D01*
X0448825Y0351128D02*
X0448825Y0348372D01*
X0448825Y0351128D02*
X0451581Y0351128D01*
X0451581Y0348372D01*
X0448825Y0348372D01*
X0448825Y0349494D02*
X0451581Y0349494D01*
X0451581Y0350616D02*
X0448825Y0350616D01*
X0543919Y0351128D02*
X0543919Y0348372D01*
X0543919Y0351128D02*
X0546675Y0351128D01*
X0546675Y0348372D01*
X0543919Y0348372D01*
X0543919Y0349494D02*
X0546675Y0349494D01*
X0546675Y0350616D02*
X0543919Y0350616D01*
X0550825Y0351128D02*
X0550825Y0348372D01*
X0550825Y0351128D02*
X0553581Y0351128D01*
X0553581Y0348372D01*
X0550825Y0348372D01*
X0550825Y0349494D02*
X0553581Y0349494D01*
X0553581Y0350616D02*
X0550825Y0350616D01*
D14*
X0578750Y0396404D03*
X0578750Y0403096D03*
X0598750Y0403096D03*
X0598750Y0396404D03*
X0496750Y0396404D03*
X0496750Y0403096D03*
X0476750Y0403096D03*
X0476750Y0396404D03*
X0394750Y0396404D03*
X0394750Y0403096D03*
X0374750Y0403096D03*
X0374750Y0396404D03*
X0292750Y0396404D03*
X0292750Y0403096D03*
X0272750Y0403096D03*
X0272750Y0396404D03*
X0190750Y0396404D03*
X0190750Y0403096D03*
X0170750Y0403096D03*
X0170750Y0396404D03*
X0088750Y0396404D03*
X0088750Y0403096D03*
X0068750Y0403096D03*
X0068750Y0396404D03*
X0068750Y0301096D03*
X0068750Y0294404D03*
X0088750Y0294404D03*
X0088750Y0301096D03*
X0170750Y0301096D03*
X0170750Y0294404D03*
X0190750Y0294404D03*
X0190750Y0301096D03*
X0272750Y0301096D03*
X0272750Y0294404D03*
X0292750Y0294404D03*
X0292750Y0301096D03*
X0374750Y0301096D03*
X0374750Y0294404D03*
X0394750Y0294404D03*
X0394750Y0301096D03*
X0476750Y0301096D03*
X0476750Y0294404D03*
X0496750Y0294404D03*
X0496750Y0301096D03*
X0578750Y0301096D03*
X0578750Y0294404D03*
X0598750Y0294404D03*
X0598750Y0301096D03*
X0598750Y0199096D03*
X0598750Y0192404D03*
X0578750Y0192404D03*
X0578750Y0199096D03*
X0496750Y0199096D03*
X0496750Y0192404D03*
X0476750Y0192404D03*
X0476750Y0199096D03*
X0394750Y0199096D03*
X0394750Y0192404D03*
X0374750Y0192404D03*
X0374750Y0199096D03*
X0292750Y0199096D03*
X0292750Y0192404D03*
X0272750Y0192404D03*
X0272750Y0199096D03*
X0190750Y0199096D03*
X0190750Y0192404D03*
X0170750Y0192404D03*
X0170750Y0199096D03*
X0088750Y0199096D03*
X0088750Y0192404D03*
X0068750Y0192404D03*
X0068750Y0199096D03*
X0068750Y0097096D03*
X0068750Y0090404D03*
X0088750Y0090404D03*
X0088750Y0097096D03*
X0170750Y0097096D03*
X0170750Y0090404D03*
X0190750Y0090404D03*
X0190750Y0097096D03*
X0272750Y0097096D03*
X0272750Y0090404D03*
X0292750Y0090404D03*
X0292750Y0097096D03*
X0374750Y0097096D03*
X0374750Y0090404D03*
X0394750Y0090404D03*
X0394750Y0097096D03*
X0476750Y0097096D03*
X0476750Y0090404D03*
X0496750Y0090404D03*
X0496750Y0097096D03*
X0578750Y0097096D03*
X0578750Y0090404D03*
X0598750Y0090404D03*
X0598750Y0097096D03*
D15*
X0633219Y0089774D03*
X0633219Y0067726D03*
X0544281Y0067726D03*
X0531219Y0067726D03*
X0531219Y0089774D03*
X0544281Y0089774D03*
X0442281Y0089774D03*
X0429219Y0089774D03*
X0429219Y0067726D03*
X0442281Y0067726D03*
X0340281Y0067726D03*
X0327219Y0067726D03*
X0327219Y0089774D03*
X0340281Y0089774D03*
X0238281Y0089774D03*
X0225219Y0089774D03*
X0225219Y0067726D03*
X0238281Y0067726D03*
X0136281Y0067726D03*
X0123219Y0067726D03*
X0123219Y0089774D03*
X0136281Y0089774D03*
X0034281Y0089774D03*
X0034281Y0067726D03*
X0034281Y0169726D03*
X0034281Y0191774D03*
X0123219Y0191774D03*
X0136281Y0191774D03*
X0136281Y0169726D03*
X0123219Y0169726D03*
X0225219Y0169726D03*
X0238281Y0169726D03*
X0238281Y0191774D03*
X0225219Y0191774D03*
X0327219Y0191774D03*
X0340281Y0191774D03*
X0340281Y0169726D03*
X0327219Y0169726D03*
X0429219Y0169726D03*
X0442281Y0169726D03*
X0442281Y0191774D03*
X0429219Y0191774D03*
X0531219Y0191774D03*
X0544281Y0191774D03*
X0544281Y0169726D03*
X0531219Y0169726D03*
X0633219Y0169726D03*
X0633219Y0191774D03*
X0633219Y0271726D03*
X0633219Y0293774D03*
X0544281Y0293774D03*
X0531219Y0293774D03*
X0531219Y0271726D03*
X0544281Y0271726D03*
X0442281Y0271726D03*
X0429219Y0271726D03*
X0429219Y0293774D03*
X0442281Y0293774D03*
X0340281Y0293774D03*
X0327219Y0293774D03*
X0327219Y0271726D03*
X0340281Y0271726D03*
X0238281Y0271726D03*
X0225219Y0271726D03*
X0225219Y0293774D03*
X0238281Y0293774D03*
X0136281Y0293774D03*
X0123219Y0293774D03*
X0123219Y0271726D03*
X0136281Y0271726D03*
X0034281Y0271726D03*
X0034281Y0293774D03*
X0034281Y0373726D03*
X0034281Y0395774D03*
X0123219Y0395774D03*
X0136281Y0395774D03*
X0136281Y0373726D03*
X0123219Y0373726D03*
X0225219Y0373726D03*
X0238281Y0373726D03*
X0238281Y0395774D03*
X0225219Y0395774D03*
X0327219Y0395774D03*
X0340281Y0395774D03*
X0340281Y0373726D03*
X0327219Y0373726D03*
X0429219Y0373726D03*
X0442281Y0373726D03*
X0442281Y0395774D03*
X0429219Y0395774D03*
X0531219Y0395774D03*
X0544281Y0395774D03*
X0544281Y0373726D03*
X0531219Y0373726D03*
X0633219Y0373726D03*
X0633219Y0395774D03*
D16*
X0618750Y0390656D03*
X0618750Y0386719D03*
X0618750Y0382781D03*
X0618750Y0378844D03*
X0558750Y0378844D03*
X0558750Y0382781D03*
X0558750Y0386719D03*
X0558750Y0390656D03*
X0516750Y0390656D03*
X0516750Y0386719D03*
X0516750Y0382781D03*
X0516750Y0378844D03*
X0456750Y0378844D03*
X0456750Y0382781D03*
X0456750Y0386719D03*
X0456750Y0390656D03*
X0414750Y0390656D03*
X0414750Y0386719D03*
X0414750Y0382781D03*
X0414750Y0378844D03*
X0354750Y0378844D03*
X0354750Y0382781D03*
X0354750Y0386719D03*
X0354750Y0390656D03*
X0312750Y0390656D03*
X0312750Y0386719D03*
X0312750Y0382781D03*
X0312750Y0378844D03*
X0252750Y0378844D03*
X0252750Y0382781D03*
X0252750Y0386719D03*
X0252750Y0390656D03*
X0210750Y0390656D03*
X0210750Y0386719D03*
X0210750Y0382781D03*
X0210750Y0378844D03*
X0150750Y0378844D03*
X0150750Y0382781D03*
X0150750Y0386719D03*
X0150750Y0390656D03*
X0108750Y0390656D03*
X0108750Y0386719D03*
X0108750Y0382781D03*
X0108750Y0378844D03*
X0048750Y0378844D03*
X0048750Y0382781D03*
X0048750Y0386719D03*
X0048750Y0390656D03*
X0048750Y0288656D03*
X0048750Y0284719D03*
X0048750Y0280781D03*
X0048750Y0276844D03*
X0108750Y0276844D03*
X0108750Y0280781D03*
X0108750Y0284719D03*
X0108750Y0288656D03*
X0150750Y0288656D03*
X0150750Y0284719D03*
X0150750Y0280781D03*
X0150750Y0276844D03*
X0210750Y0276844D03*
X0210750Y0280781D03*
X0210750Y0284719D03*
X0210750Y0288656D03*
X0252750Y0288656D03*
X0252750Y0284719D03*
X0252750Y0280781D03*
X0252750Y0276844D03*
X0312750Y0276844D03*
X0312750Y0280781D03*
X0312750Y0284719D03*
X0312750Y0288656D03*
X0354750Y0288656D03*
X0354750Y0284719D03*
X0354750Y0280781D03*
X0354750Y0276844D03*
X0414750Y0276844D03*
X0414750Y0280781D03*
X0414750Y0284719D03*
X0414750Y0288656D03*
X0456750Y0288656D03*
X0456750Y0284719D03*
X0456750Y0280781D03*
X0456750Y0276844D03*
X0516750Y0276844D03*
X0516750Y0280781D03*
X0516750Y0284719D03*
X0516750Y0288656D03*
X0558750Y0288656D03*
X0558750Y0284719D03*
X0558750Y0280781D03*
X0558750Y0276844D03*
X0618750Y0276844D03*
X0618750Y0280781D03*
X0618750Y0284719D03*
X0618750Y0288656D03*
X0618750Y0186656D03*
X0618750Y0182719D03*
X0618750Y0178781D03*
X0618750Y0174844D03*
X0558750Y0174844D03*
X0558750Y0178781D03*
X0558750Y0182719D03*
X0558750Y0186656D03*
X0516750Y0186656D03*
X0516750Y0182719D03*
X0516750Y0178781D03*
X0516750Y0174844D03*
X0456750Y0174844D03*
X0456750Y0178781D03*
X0456750Y0182719D03*
X0456750Y0186656D03*
X0414750Y0186656D03*
X0414750Y0182719D03*
X0414750Y0178781D03*
X0414750Y0174844D03*
X0354750Y0174844D03*
X0354750Y0178781D03*
X0354750Y0182719D03*
X0354750Y0186656D03*
X0312750Y0186656D03*
X0312750Y0182719D03*
X0312750Y0178781D03*
X0312750Y0174844D03*
X0252750Y0174844D03*
X0252750Y0178781D03*
X0252750Y0182719D03*
X0252750Y0186656D03*
X0210750Y0186656D03*
X0210750Y0182719D03*
X0210750Y0178781D03*
X0210750Y0174844D03*
X0150750Y0174844D03*
X0150750Y0178781D03*
X0150750Y0182719D03*
X0150750Y0186656D03*
X0108750Y0186656D03*
X0108750Y0182719D03*
X0108750Y0178781D03*
X0108750Y0174844D03*
X0048750Y0174844D03*
X0048750Y0178781D03*
X0048750Y0182719D03*
X0048750Y0186656D03*
X0048750Y0084656D03*
X0048750Y0080719D03*
X0048750Y0076781D03*
X0048750Y0072844D03*
X0108750Y0072844D03*
X0108750Y0076781D03*
X0108750Y0080719D03*
X0108750Y0084656D03*
X0150750Y0084656D03*
X0150750Y0080719D03*
X0150750Y0076781D03*
X0150750Y0072844D03*
X0210750Y0072844D03*
X0210750Y0076781D03*
X0210750Y0080719D03*
X0210750Y0084656D03*
X0252750Y0084656D03*
X0252750Y0080719D03*
X0252750Y0076781D03*
X0252750Y0072844D03*
X0312750Y0072844D03*
X0312750Y0076781D03*
X0312750Y0080719D03*
X0312750Y0084656D03*
X0354750Y0084656D03*
X0354750Y0080719D03*
X0354750Y0076781D03*
X0354750Y0072844D03*
X0414750Y0072844D03*
X0414750Y0076781D03*
X0414750Y0080719D03*
X0414750Y0084656D03*
X0456750Y0084656D03*
X0456750Y0080719D03*
X0456750Y0076781D03*
X0456750Y0072844D03*
X0516750Y0072844D03*
X0516750Y0076781D03*
X0516750Y0080719D03*
X0516750Y0084656D03*
X0558750Y0084656D03*
X0558750Y0080719D03*
X0558750Y0076781D03*
X0558750Y0072844D03*
X0618750Y0072844D03*
X0618750Y0076781D03*
X0618750Y0080719D03*
X0618750Y0084656D03*
M02*
