%
M48
M72
T01C0.0150
T02C0.0400
T03C0.1300
%
T01
X13833Y6000
X16383Y9100
X15833Y9862
X14333Y10197
X16433Y12050
X17233Y12050
X17739Y10138
X18833Y9500
X19333Y9803
X24533Y10197
X26033Y9862
X26583Y9100
X27939Y10138
X29033Y9500
X29533Y9803
X27433Y12050
X26633Y12050
X24033Y16200
X26583Y19300
X26033Y20062
X24533Y20397
X26633Y22250
X27433Y22250
X27939Y20338
X29033Y19700
X29533Y20003
X34733Y20397
X36233Y20062
X36783Y19300
X38139Y20338
X39233Y19700
X39733Y20003
X37633Y22250
X36833Y22250
X34233Y26400
X36783Y29500
X36233Y30262
X34733Y30597
X36833Y32450
X37633Y32450
X38139Y30538
X39233Y29900
X39733Y30203
X29533Y30203
X29033Y29900
X27939Y30538
X26583Y29500
X26033Y30262
X24533Y30597
X26633Y32450
X27433Y32450
X24033Y26400
X19333Y30203
X18833Y29900
X17739Y30538
X16383Y29500
X15833Y30262
X14333Y30597
X16433Y32450
X17233Y32450
X13833Y26400
X16433Y22250
X17233Y22250
X17739Y20338
X18833Y19700
X19333Y20003
X16383Y19300
X15833Y20062
X14333Y20397
X13833Y16200
X24033Y6000
X34233Y6000
X36783Y9100
X36233Y9862
X34733Y10197
X36833Y12050
X37633Y12050
X38139Y10138
X39233Y9500
X39733Y9803
X34233Y16200
T02
X35733Y15700
X36733Y15700
X37733Y15700
X38733Y15700
X28533Y15700
X27533Y15700
X26533Y15700
X25533Y15700
X18333Y15700
X17333Y15700
X16333Y15700
X15333Y15700
X15333Y5500
X16333Y5500
X17333Y5500
X18333Y5500
X25533Y5500
X26533Y5500
X27533Y5500
X28533Y5500
X35733Y5500
X36733Y5500
X37733Y5500
X38733Y5500
X38733Y25900
X37733Y25900
X36733Y25900
X35733Y25900
X28533Y25900
X27533Y25900
X26533Y25900
X25533Y25900
X18333Y25900
X17333Y25900
X16333Y25900
X15333Y25900
T03
X12833Y24200
X20833Y24200
X23033Y24200
X31033Y24200
X33233Y24200
X41233Y24200
X41233Y14000
X33233Y14000
X31033Y14000
X23033Y14000
X20833Y14000
X12833Y14000
X12833Y34400
X20833Y34400
X23033Y34400
X31033Y34400
X33233Y34400
X41233Y34400
M30
