G75*
%MOIN*%
%OFA0B0*%
%FSLAX25Y25*%
%IPPOS*%
%LPD*%
%AMOC8*
5,1,8,0,0,1.08239X$1,22.5*
%
%ADD10R,0.03300X0.05800*%
%ADD11C,0.00500*%
%ADD12C,0.08200*%
%ADD13C,0.13800*%
%ADD14C,0.03300*%
D10*
X0164333Y0115000D03*
X0168333Y0115000D03*
X0172333Y0115000D03*
X0266333Y0115000D03*
X0270333Y0115000D03*
X0274333Y0115000D03*
X0368333Y0115000D03*
X0372333Y0115000D03*
X0376333Y0115000D03*
X0376333Y0217000D03*
X0372333Y0217000D03*
X0368333Y0217000D03*
X0274333Y0217000D03*
X0270333Y0217000D03*
X0266333Y0217000D03*
X0172333Y0217000D03*
X0168333Y0217000D03*
X0164333Y0217000D03*
X0164333Y0319000D03*
X0168333Y0319000D03*
X0172333Y0319000D03*
X0266333Y0319000D03*
X0270333Y0319000D03*
X0274333Y0319000D03*
X0368333Y0319000D03*
X0372333Y0319000D03*
X0376333Y0319000D03*
D11*
X0375083Y0319196D02*
X0369583Y0319196D01*
X0369583Y0319500D02*
X0369583Y0318500D01*
X0375083Y0318500D01*
X0375083Y0319500D01*
X0369583Y0319500D01*
X0369583Y0318698D02*
X0375083Y0318698D01*
X0273083Y0318698D02*
X0267583Y0318698D01*
X0267583Y0318500D02*
X0273083Y0318500D01*
X0273083Y0319500D01*
X0267583Y0319500D01*
X0267583Y0318500D01*
X0267583Y0319196D02*
X0273083Y0319196D01*
X0171083Y0319196D02*
X0165583Y0319196D01*
X0165583Y0319500D02*
X0165583Y0318500D01*
X0171083Y0318500D01*
X0171083Y0319500D01*
X0165583Y0319500D01*
X0165583Y0318698D02*
X0171083Y0318698D01*
X0171083Y0217500D02*
X0165583Y0217500D01*
X0165583Y0216500D01*
X0171083Y0216500D01*
X0171083Y0217500D01*
X0165583Y0217500D01*
X0165583Y0217001D02*
X0171083Y0217001D01*
X0171083Y0216503D02*
X0165583Y0216503D01*
X0267583Y0216503D02*
X0273083Y0216503D01*
X0273083Y0216500D02*
X0273083Y0217500D01*
X0267583Y0217500D01*
X0267583Y0216500D01*
X0273083Y0216500D01*
X0273083Y0217001D02*
X0267583Y0217001D01*
X0267583Y0217500D02*
X0273083Y0217500D01*
X0369583Y0217500D02*
X0375083Y0217500D01*
X0375083Y0216500D01*
X0369583Y0216500D01*
X0369583Y0217500D01*
X0375083Y0217500D01*
X0375083Y0217001D02*
X0369583Y0217001D01*
X0369583Y0216503D02*
X0375083Y0216503D01*
X0375083Y0115500D02*
X0369583Y0115500D01*
X0369583Y0114500D01*
X0375083Y0114500D01*
X0375083Y0115500D01*
X0375083Y0115305D02*
X0369583Y0115305D01*
X0369583Y0114806D02*
X0375083Y0114806D01*
X0273083Y0114806D02*
X0267583Y0114806D01*
X0267583Y0114500D02*
X0273083Y0114500D01*
X0273083Y0115500D01*
X0267583Y0115500D01*
X0267583Y0114500D01*
X0267583Y0115305D02*
X0273083Y0115305D01*
X0171083Y0115305D02*
X0165583Y0115305D01*
X0165583Y0115500D02*
X0165583Y0114500D01*
X0171083Y0114500D01*
X0171083Y0115500D01*
X0165583Y0115500D01*
X0165583Y0114806D02*
X0171083Y0114806D01*
D12*
X0153333Y0055000D03*
X0163333Y0055000D03*
X0173333Y0055000D03*
X0183333Y0055000D03*
X0255333Y0055000D03*
X0265333Y0055000D03*
X0275333Y0055000D03*
X0285333Y0055000D03*
X0357333Y0055000D03*
X0367333Y0055000D03*
X0377333Y0055000D03*
X0387333Y0055000D03*
X0387333Y0157000D03*
X0377333Y0157000D03*
X0367333Y0157000D03*
X0357333Y0157000D03*
X0285333Y0157000D03*
X0275333Y0157000D03*
X0265333Y0157000D03*
X0255333Y0157000D03*
X0183333Y0157000D03*
X0173333Y0157000D03*
X0163333Y0157000D03*
X0153333Y0157000D03*
X0153333Y0259000D03*
X0163333Y0259000D03*
X0173333Y0259000D03*
X0183333Y0259000D03*
X0255333Y0259000D03*
X0265333Y0259000D03*
X0275333Y0259000D03*
X0285333Y0259000D03*
X0357333Y0259000D03*
X0367333Y0259000D03*
X0377333Y0259000D03*
X0387333Y0259000D03*
D13*
X0412333Y0242000D03*
X0332333Y0242000D03*
X0310333Y0242000D03*
X0230333Y0242000D03*
X0208333Y0242000D03*
X0128333Y0242000D03*
X0128333Y0140000D03*
X0208333Y0140000D03*
X0230333Y0140000D03*
X0310333Y0140000D03*
X0332333Y0140000D03*
X0412333Y0140000D03*
X0412333Y0344000D03*
X0332333Y0344000D03*
X0310333Y0344000D03*
X0230333Y0344000D03*
X0208333Y0344000D03*
X0128333Y0344000D03*
D14*
X0120833Y0351500D03*
X0222833Y0351500D03*
X0324833Y0351500D03*
X0317833Y0256500D03*
X0324833Y0249500D03*
X0419833Y0256500D03*
X0419833Y0154500D03*
X0324833Y0147500D03*
X0317833Y0154500D03*
X0222833Y0147500D03*
X0215833Y0154500D03*
X0120833Y0147500D03*
X0215833Y0052500D03*
X0317833Y0052500D03*
X0419833Y0052500D03*
X0222833Y0249500D03*
X0215833Y0256500D03*
X0120833Y0249500D03*
M02*
