G75*
%MOIN*%
%OFA0B0*%
%FSLAX25Y25*%
%IPPOS*%
%LPD*%
%AMOC8*
5,1,8,0,0,1.08239X$1,22.5*
%
%ADD10C,0.00800*%
%ADD11C,0.01500*%
%ADD12C,0.01100*%
%ADD13C,0.01000*%
%ADD14C,0.00000*%
D10*
X0118333Y0050000D02*
X0118333Y0150000D01*
X0218333Y0150000D01*
X0218333Y0050000D01*
X0118333Y0050000D01*
X0220333Y0050000D02*
X0220333Y0150000D01*
X0320333Y0150000D01*
X0320333Y0050000D01*
X0220333Y0050000D01*
X0322333Y0050000D02*
X0322333Y0150000D01*
X0422333Y0150000D01*
X0422333Y0050000D01*
X0322333Y0050000D01*
X0322333Y0152000D02*
X0322333Y0252000D01*
X0422333Y0252000D01*
X0422333Y0152000D01*
X0322333Y0152000D01*
X0320333Y0152000D02*
X0320333Y0252000D01*
X0220333Y0252000D01*
X0220333Y0152000D01*
X0320333Y0152000D01*
X0218333Y0152000D02*
X0218333Y0252000D01*
X0118333Y0252000D01*
X0118333Y0152000D01*
X0218333Y0152000D01*
X0218333Y0254000D02*
X0118333Y0254000D01*
X0118333Y0354000D01*
X0218333Y0354000D01*
X0218333Y0254000D01*
X0220333Y0254000D02*
X0220333Y0354000D01*
X0320333Y0354000D01*
X0320333Y0254000D01*
X0220333Y0254000D01*
X0322333Y0254000D02*
X0322333Y0354000D01*
X0422333Y0354000D01*
X0422333Y0254000D01*
X0322333Y0254000D01*
D11*
X0474333Y0253000D02*
X0091333Y0253000D01*
X0091333Y0151000D02*
X0474333Y0151000D01*
X0474333Y0049000D02*
X0091333Y0049000D01*
X0117333Y0023000D02*
X0117333Y0406000D01*
X0091333Y0355000D02*
X0474333Y0355000D01*
X0423333Y0406000D02*
X0423333Y0023000D01*
X0321333Y0023000D02*
X0321333Y0406000D01*
X0219333Y0406000D02*
X0219333Y0023000D01*
D12*
X0487124Y0049983D02*
X0488435Y0046050D01*
X0489747Y0049983D01*
X0492418Y0048344D02*
X0496351Y0048344D01*
X0499719Y0048344D02*
X0501358Y0047689D01*
X0501410Y0047666D01*
X0501461Y0047639D01*
X0501510Y0047609D01*
X0501557Y0047576D01*
X0501602Y0047540D01*
X0501644Y0047500D01*
X0501683Y0047458D01*
X0501719Y0047414D01*
X0501752Y0047367D01*
X0501782Y0047317D01*
X0501809Y0047266D01*
X0501832Y0047214D01*
X0501851Y0047160D01*
X0501867Y0047104D01*
X0501879Y0047048D01*
X0501887Y0046991D01*
X0501891Y0046934D01*
X0501892Y0046876D01*
X0501888Y0046819D01*
X0501881Y0046762D01*
X0501869Y0046705D01*
X0501854Y0046650D01*
X0501836Y0046595D01*
X0501813Y0046542D01*
X0501787Y0046491D01*
X0501758Y0046442D01*
X0501725Y0046394D01*
X0501689Y0046349D01*
X0501651Y0046307D01*
X0501609Y0046267D01*
X0501565Y0046230D01*
X0501518Y0046196D01*
X0501470Y0046165D01*
X0501419Y0046138D01*
X0501367Y0046114D01*
X0501313Y0046094D01*
X0501258Y0046078D01*
X0501202Y0046065D01*
X0501145Y0046056D01*
X0501087Y0046051D01*
X0501030Y0046050D01*
X0501521Y0049655D02*
X0501414Y0049701D01*
X0501305Y0049744D01*
X0501195Y0049784D01*
X0501083Y0049820D01*
X0500971Y0049852D01*
X0500857Y0049881D01*
X0500743Y0049907D01*
X0500628Y0049928D01*
X0500513Y0049947D01*
X0500396Y0049961D01*
X0500280Y0049972D01*
X0500163Y0049979D01*
X0500046Y0049983D01*
X0500047Y0049984D02*
X0499990Y0049983D01*
X0499932Y0049978D01*
X0499875Y0049969D01*
X0499819Y0049956D01*
X0499764Y0049940D01*
X0499710Y0049920D01*
X0499658Y0049896D01*
X0499607Y0049869D01*
X0499559Y0049838D01*
X0499512Y0049804D01*
X0499468Y0049767D01*
X0499426Y0049727D01*
X0499388Y0049685D01*
X0499352Y0049640D01*
X0499319Y0049592D01*
X0499290Y0049543D01*
X0499264Y0049492D01*
X0499241Y0049439D01*
X0499223Y0049384D01*
X0499208Y0049329D01*
X0499196Y0049272D01*
X0499189Y0049215D01*
X0499185Y0049158D01*
X0499186Y0049100D01*
X0499190Y0049043D01*
X0499198Y0048986D01*
X0499210Y0048930D01*
X0499226Y0048874D01*
X0499245Y0048820D01*
X0499268Y0048768D01*
X0499295Y0048717D01*
X0499325Y0048667D01*
X0499358Y0048620D01*
X0499394Y0048576D01*
X0499433Y0048534D01*
X0499475Y0048494D01*
X0499520Y0048458D01*
X0499567Y0048425D01*
X0499616Y0048395D01*
X0499667Y0048368D01*
X0499719Y0048345D01*
X0499227Y0046378D02*
X0499361Y0046332D01*
X0499496Y0046289D01*
X0499632Y0046250D01*
X0499769Y0046214D01*
X0499906Y0046182D01*
X0500045Y0046153D01*
X0500184Y0046127D01*
X0500324Y0046106D01*
X0500465Y0046087D01*
X0500605Y0046073D01*
X0500747Y0046062D01*
X0500888Y0046054D01*
X0501030Y0046051D01*
X0504571Y0047033D02*
X0504571Y0049000D01*
X0504573Y0049062D01*
X0504579Y0049123D01*
X0504588Y0049184D01*
X0504602Y0049244D01*
X0504619Y0049304D01*
X0504640Y0049362D01*
X0504665Y0049419D01*
X0504693Y0049474D01*
X0504724Y0049527D01*
X0504759Y0049578D01*
X0504797Y0049627D01*
X0504837Y0049673D01*
X0504881Y0049717D01*
X0504927Y0049757D01*
X0504976Y0049795D01*
X0505027Y0049830D01*
X0505080Y0049861D01*
X0505135Y0049889D01*
X0505192Y0049914D01*
X0505250Y0049935D01*
X0505310Y0049952D01*
X0505370Y0049966D01*
X0505431Y0049975D01*
X0505492Y0049981D01*
X0505554Y0049983D01*
X0506866Y0049983D01*
X0509279Y0048672D02*
X0509279Y0047361D01*
X0509281Y0047290D01*
X0509287Y0047219D01*
X0509296Y0047149D01*
X0509310Y0047079D01*
X0509327Y0047010D01*
X0509348Y0046942D01*
X0509372Y0046876D01*
X0509400Y0046811D01*
X0509432Y0046747D01*
X0509467Y0046685D01*
X0509505Y0046625D01*
X0509546Y0046568D01*
X0509591Y0046512D01*
X0509638Y0046459D01*
X0509688Y0046409D01*
X0509741Y0046362D01*
X0509797Y0046317D01*
X0509854Y0046276D01*
X0509914Y0046238D01*
X0509976Y0046203D01*
X0510040Y0046171D01*
X0510105Y0046143D01*
X0510171Y0046119D01*
X0510239Y0046098D01*
X0510308Y0046081D01*
X0510378Y0046067D01*
X0510448Y0046058D01*
X0510519Y0046052D01*
X0510590Y0046050D01*
X0510661Y0046052D01*
X0510732Y0046058D01*
X0510802Y0046067D01*
X0510872Y0046081D01*
X0510941Y0046098D01*
X0511009Y0046119D01*
X0511075Y0046143D01*
X0511140Y0046171D01*
X0511204Y0046203D01*
X0511266Y0046238D01*
X0511326Y0046276D01*
X0511383Y0046317D01*
X0511439Y0046362D01*
X0511492Y0046409D01*
X0511542Y0046459D01*
X0511589Y0046512D01*
X0511634Y0046568D01*
X0511675Y0046625D01*
X0511713Y0046685D01*
X0511748Y0046747D01*
X0511780Y0046811D01*
X0511808Y0046876D01*
X0511832Y0046942D01*
X0511853Y0047010D01*
X0511870Y0047079D01*
X0511884Y0047149D01*
X0511893Y0047219D01*
X0511899Y0047290D01*
X0511901Y0047361D01*
X0511901Y0048672D01*
X0511899Y0048743D01*
X0511893Y0048814D01*
X0511884Y0048884D01*
X0511870Y0048954D01*
X0511853Y0049023D01*
X0511832Y0049091D01*
X0511808Y0049157D01*
X0511780Y0049222D01*
X0511748Y0049286D01*
X0511713Y0049348D01*
X0511675Y0049408D01*
X0511634Y0049465D01*
X0511589Y0049521D01*
X0511542Y0049574D01*
X0511492Y0049624D01*
X0511439Y0049671D01*
X0511383Y0049716D01*
X0511326Y0049757D01*
X0511266Y0049795D01*
X0511204Y0049830D01*
X0511140Y0049862D01*
X0511075Y0049890D01*
X0511009Y0049914D01*
X0510941Y0049935D01*
X0510872Y0049952D01*
X0510802Y0049966D01*
X0510732Y0049975D01*
X0510661Y0049981D01*
X0510590Y0049983D01*
X0510519Y0049981D01*
X0510448Y0049975D01*
X0510378Y0049966D01*
X0510308Y0049952D01*
X0510239Y0049935D01*
X0510171Y0049914D01*
X0510105Y0049890D01*
X0510040Y0049862D01*
X0509976Y0049830D01*
X0509914Y0049795D01*
X0509854Y0049757D01*
X0509797Y0049716D01*
X0509741Y0049671D01*
X0509688Y0049624D01*
X0509638Y0049574D01*
X0509591Y0049521D01*
X0509546Y0049465D01*
X0509505Y0049408D01*
X0509467Y0049348D01*
X0509432Y0049286D01*
X0509400Y0049222D01*
X0509372Y0049157D01*
X0509348Y0049091D01*
X0509327Y0049023D01*
X0509310Y0048954D01*
X0509296Y0048884D01*
X0509287Y0048814D01*
X0509281Y0048743D01*
X0509279Y0048672D01*
X0506866Y0046050D02*
X0505554Y0046050D01*
X0505492Y0046052D01*
X0505431Y0046058D01*
X0505370Y0046067D01*
X0505310Y0046081D01*
X0505250Y0046098D01*
X0505192Y0046119D01*
X0505135Y0046144D01*
X0505080Y0046172D01*
X0505027Y0046203D01*
X0504976Y0046238D01*
X0504927Y0046276D01*
X0504881Y0046316D01*
X0504837Y0046360D01*
X0504797Y0046406D01*
X0504759Y0046455D01*
X0504724Y0046506D01*
X0504693Y0046559D01*
X0504665Y0046614D01*
X0504640Y0046671D01*
X0504619Y0046729D01*
X0504602Y0046789D01*
X0504588Y0046849D01*
X0504579Y0046910D01*
X0504573Y0046971D01*
X0504571Y0047033D01*
X0514868Y0046050D02*
X0514868Y0049983D01*
X0516834Y0049983D01*
X0516834Y0049328D01*
X0518920Y0048672D02*
X0518920Y0047033D01*
X0518922Y0046971D01*
X0518928Y0046910D01*
X0518937Y0046849D01*
X0518951Y0046789D01*
X0518968Y0046729D01*
X0518989Y0046671D01*
X0519014Y0046614D01*
X0519042Y0046559D01*
X0519073Y0046506D01*
X0519108Y0046455D01*
X0519146Y0046406D01*
X0519186Y0046360D01*
X0519230Y0046316D01*
X0519276Y0046276D01*
X0519325Y0046238D01*
X0519376Y0046203D01*
X0519429Y0046172D01*
X0519484Y0046144D01*
X0519541Y0046119D01*
X0519599Y0046098D01*
X0519659Y0046081D01*
X0519719Y0046067D01*
X0519780Y0046058D01*
X0519841Y0046052D01*
X0519903Y0046050D01*
X0521542Y0046050D01*
X0521542Y0048017D02*
X0518920Y0048017D01*
X0518920Y0048672D02*
X0518922Y0048743D01*
X0518928Y0048814D01*
X0518937Y0048884D01*
X0518951Y0048954D01*
X0518968Y0049023D01*
X0518989Y0049091D01*
X0519013Y0049157D01*
X0519041Y0049222D01*
X0519073Y0049286D01*
X0519108Y0049348D01*
X0519146Y0049408D01*
X0519187Y0049465D01*
X0519232Y0049521D01*
X0519279Y0049574D01*
X0519329Y0049624D01*
X0519382Y0049671D01*
X0519438Y0049716D01*
X0519495Y0049757D01*
X0519555Y0049795D01*
X0519617Y0049830D01*
X0519681Y0049862D01*
X0519746Y0049890D01*
X0519812Y0049914D01*
X0519880Y0049935D01*
X0519949Y0049952D01*
X0520019Y0049966D01*
X0520089Y0049975D01*
X0520160Y0049981D01*
X0520231Y0049983D01*
X0520302Y0049981D01*
X0520373Y0049975D01*
X0520443Y0049966D01*
X0520513Y0049952D01*
X0520582Y0049935D01*
X0520650Y0049914D01*
X0520716Y0049890D01*
X0520781Y0049862D01*
X0520845Y0049830D01*
X0520907Y0049795D01*
X0520967Y0049757D01*
X0521024Y0049716D01*
X0521080Y0049671D01*
X0521133Y0049624D01*
X0521183Y0049574D01*
X0521230Y0049521D01*
X0521275Y0049465D01*
X0521316Y0049408D01*
X0521354Y0049348D01*
X0521389Y0049286D01*
X0521421Y0049222D01*
X0521449Y0049157D01*
X0521473Y0049091D01*
X0521494Y0049023D01*
X0521511Y0048954D01*
X0521525Y0048884D01*
X0521534Y0048814D01*
X0521540Y0048743D01*
X0521542Y0048672D01*
X0521542Y0048017D01*
X0521542Y0148050D02*
X0519903Y0148050D01*
X0519841Y0148052D01*
X0519780Y0148058D01*
X0519719Y0148067D01*
X0519659Y0148081D01*
X0519599Y0148098D01*
X0519541Y0148119D01*
X0519484Y0148144D01*
X0519429Y0148172D01*
X0519376Y0148203D01*
X0519325Y0148238D01*
X0519276Y0148276D01*
X0519230Y0148316D01*
X0519186Y0148360D01*
X0519146Y0148406D01*
X0519108Y0148455D01*
X0519073Y0148506D01*
X0519042Y0148559D01*
X0519014Y0148614D01*
X0518989Y0148671D01*
X0518968Y0148729D01*
X0518951Y0148789D01*
X0518937Y0148849D01*
X0518928Y0148910D01*
X0518922Y0148971D01*
X0518920Y0149033D01*
X0518920Y0150672D01*
X0518920Y0150017D02*
X0521542Y0150017D01*
X0521542Y0150672D01*
X0521540Y0150743D01*
X0521534Y0150814D01*
X0521525Y0150884D01*
X0521511Y0150954D01*
X0521494Y0151023D01*
X0521473Y0151091D01*
X0521449Y0151157D01*
X0521421Y0151222D01*
X0521389Y0151286D01*
X0521354Y0151348D01*
X0521316Y0151408D01*
X0521275Y0151465D01*
X0521230Y0151521D01*
X0521183Y0151574D01*
X0521133Y0151624D01*
X0521080Y0151671D01*
X0521024Y0151716D01*
X0520967Y0151757D01*
X0520907Y0151795D01*
X0520845Y0151830D01*
X0520781Y0151862D01*
X0520716Y0151890D01*
X0520650Y0151914D01*
X0520582Y0151935D01*
X0520513Y0151952D01*
X0520443Y0151966D01*
X0520373Y0151975D01*
X0520302Y0151981D01*
X0520231Y0151983D01*
X0520160Y0151981D01*
X0520089Y0151975D01*
X0520019Y0151966D01*
X0519949Y0151952D01*
X0519880Y0151935D01*
X0519812Y0151914D01*
X0519746Y0151890D01*
X0519681Y0151862D01*
X0519617Y0151830D01*
X0519555Y0151795D01*
X0519495Y0151757D01*
X0519438Y0151716D01*
X0519382Y0151671D01*
X0519329Y0151624D01*
X0519279Y0151574D01*
X0519232Y0151521D01*
X0519187Y0151465D01*
X0519146Y0151408D01*
X0519108Y0151348D01*
X0519073Y0151286D01*
X0519041Y0151222D01*
X0519013Y0151157D01*
X0518989Y0151091D01*
X0518968Y0151023D01*
X0518951Y0150954D01*
X0518937Y0150884D01*
X0518928Y0150814D01*
X0518922Y0150743D01*
X0518920Y0150672D01*
X0516834Y0151328D02*
X0516834Y0151983D01*
X0514868Y0151983D01*
X0514868Y0148050D01*
X0511901Y0149361D02*
X0511901Y0150672D01*
X0511899Y0150743D01*
X0511893Y0150814D01*
X0511884Y0150884D01*
X0511870Y0150954D01*
X0511853Y0151023D01*
X0511832Y0151091D01*
X0511808Y0151157D01*
X0511780Y0151222D01*
X0511748Y0151286D01*
X0511713Y0151348D01*
X0511675Y0151408D01*
X0511634Y0151465D01*
X0511589Y0151521D01*
X0511542Y0151574D01*
X0511492Y0151624D01*
X0511439Y0151671D01*
X0511383Y0151716D01*
X0511326Y0151757D01*
X0511266Y0151795D01*
X0511204Y0151830D01*
X0511140Y0151862D01*
X0511075Y0151890D01*
X0511009Y0151914D01*
X0510941Y0151935D01*
X0510872Y0151952D01*
X0510802Y0151966D01*
X0510732Y0151975D01*
X0510661Y0151981D01*
X0510590Y0151983D01*
X0510519Y0151981D01*
X0510448Y0151975D01*
X0510378Y0151966D01*
X0510308Y0151952D01*
X0510239Y0151935D01*
X0510171Y0151914D01*
X0510105Y0151890D01*
X0510040Y0151862D01*
X0509976Y0151830D01*
X0509914Y0151795D01*
X0509854Y0151757D01*
X0509797Y0151716D01*
X0509741Y0151671D01*
X0509688Y0151624D01*
X0509638Y0151574D01*
X0509591Y0151521D01*
X0509546Y0151465D01*
X0509505Y0151408D01*
X0509467Y0151348D01*
X0509432Y0151286D01*
X0509400Y0151222D01*
X0509372Y0151157D01*
X0509348Y0151091D01*
X0509327Y0151023D01*
X0509310Y0150954D01*
X0509296Y0150884D01*
X0509287Y0150814D01*
X0509281Y0150743D01*
X0509279Y0150672D01*
X0509279Y0149361D01*
X0509281Y0149290D01*
X0509287Y0149219D01*
X0509296Y0149149D01*
X0509310Y0149079D01*
X0509327Y0149010D01*
X0509348Y0148942D01*
X0509372Y0148876D01*
X0509400Y0148811D01*
X0509432Y0148747D01*
X0509467Y0148685D01*
X0509505Y0148625D01*
X0509546Y0148568D01*
X0509591Y0148512D01*
X0509638Y0148459D01*
X0509688Y0148409D01*
X0509741Y0148362D01*
X0509797Y0148317D01*
X0509854Y0148276D01*
X0509914Y0148238D01*
X0509976Y0148203D01*
X0510040Y0148171D01*
X0510105Y0148143D01*
X0510171Y0148119D01*
X0510239Y0148098D01*
X0510308Y0148081D01*
X0510378Y0148067D01*
X0510448Y0148058D01*
X0510519Y0148052D01*
X0510590Y0148050D01*
X0510661Y0148052D01*
X0510732Y0148058D01*
X0510802Y0148067D01*
X0510872Y0148081D01*
X0510941Y0148098D01*
X0511009Y0148119D01*
X0511075Y0148143D01*
X0511140Y0148171D01*
X0511204Y0148203D01*
X0511266Y0148238D01*
X0511326Y0148276D01*
X0511383Y0148317D01*
X0511439Y0148362D01*
X0511492Y0148409D01*
X0511542Y0148459D01*
X0511589Y0148512D01*
X0511634Y0148568D01*
X0511675Y0148625D01*
X0511713Y0148685D01*
X0511748Y0148747D01*
X0511780Y0148811D01*
X0511808Y0148876D01*
X0511832Y0148942D01*
X0511853Y0149010D01*
X0511870Y0149079D01*
X0511884Y0149149D01*
X0511893Y0149219D01*
X0511899Y0149290D01*
X0511901Y0149361D01*
X0506866Y0148050D02*
X0505554Y0148050D01*
X0505492Y0148052D01*
X0505431Y0148058D01*
X0505370Y0148067D01*
X0505310Y0148081D01*
X0505250Y0148098D01*
X0505192Y0148119D01*
X0505135Y0148144D01*
X0505080Y0148172D01*
X0505027Y0148203D01*
X0504976Y0148238D01*
X0504927Y0148276D01*
X0504881Y0148316D01*
X0504837Y0148360D01*
X0504797Y0148406D01*
X0504759Y0148455D01*
X0504724Y0148506D01*
X0504693Y0148559D01*
X0504665Y0148614D01*
X0504640Y0148671D01*
X0504619Y0148729D01*
X0504602Y0148789D01*
X0504588Y0148849D01*
X0504579Y0148910D01*
X0504573Y0148971D01*
X0504571Y0149033D01*
X0504571Y0151000D01*
X0504573Y0151062D01*
X0504579Y0151123D01*
X0504588Y0151184D01*
X0504602Y0151244D01*
X0504619Y0151304D01*
X0504640Y0151362D01*
X0504665Y0151419D01*
X0504693Y0151474D01*
X0504724Y0151527D01*
X0504759Y0151578D01*
X0504797Y0151627D01*
X0504837Y0151673D01*
X0504881Y0151717D01*
X0504927Y0151757D01*
X0504976Y0151795D01*
X0505027Y0151830D01*
X0505080Y0151861D01*
X0505135Y0151889D01*
X0505192Y0151914D01*
X0505250Y0151935D01*
X0505310Y0151952D01*
X0505370Y0151966D01*
X0505431Y0151975D01*
X0505492Y0151981D01*
X0505554Y0151983D01*
X0506866Y0151983D01*
X0501358Y0149689D02*
X0499719Y0150344D01*
X0499719Y0150345D02*
X0499667Y0150368D01*
X0499616Y0150395D01*
X0499567Y0150425D01*
X0499520Y0150458D01*
X0499475Y0150494D01*
X0499433Y0150534D01*
X0499394Y0150576D01*
X0499358Y0150620D01*
X0499325Y0150667D01*
X0499295Y0150717D01*
X0499268Y0150768D01*
X0499245Y0150820D01*
X0499226Y0150874D01*
X0499210Y0150930D01*
X0499198Y0150986D01*
X0499190Y0151043D01*
X0499186Y0151100D01*
X0499185Y0151158D01*
X0499189Y0151215D01*
X0499196Y0151272D01*
X0499208Y0151329D01*
X0499223Y0151384D01*
X0499241Y0151439D01*
X0499264Y0151492D01*
X0499290Y0151543D01*
X0499319Y0151592D01*
X0499352Y0151640D01*
X0499388Y0151685D01*
X0499426Y0151727D01*
X0499468Y0151767D01*
X0499512Y0151804D01*
X0499559Y0151838D01*
X0499607Y0151869D01*
X0499658Y0151896D01*
X0499710Y0151920D01*
X0499764Y0151940D01*
X0499819Y0151956D01*
X0499875Y0151969D01*
X0499932Y0151978D01*
X0499990Y0151983D01*
X0500047Y0151984D01*
X0499227Y0148378D02*
X0499361Y0148332D01*
X0499496Y0148289D01*
X0499632Y0148250D01*
X0499769Y0148214D01*
X0499906Y0148182D01*
X0500045Y0148153D01*
X0500184Y0148127D01*
X0500324Y0148106D01*
X0500465Y0148087D01*
X0500605Y0148073D01*
X0500747Y0148062D01*
X0500888Y0148054D01*
X0501030Y0148051D01*
X0501030Y0148050D02*
X0501087Y0148051D01*
X0501145Y0148056D01*
X0501202Y0148065D01*
X0501258Y0148078D01*
X0501313Y0148094D01*
X0501367Y0148114D01*
X0501419Y0148138D01*
X0501470Y0148165D01*
X0501518Y0148196D01*
X0501565Y0148230D01*
X0501609Y0148267D01*
X0501651Y0148307D01*
X0501689Y0148349D01*
X0501725Y0148394D01*
X0501758Y0148442D01*
X0501787Y0148491D01*
X0501813Y0148542D01*
X0501836Y0148595D01*
X0501854Y0148650D01*
X0501869Y0148705D01*
X0501881Y0148762D01*
X0501888Y0148819D01*
X0501892Y0148876D01*
X0501891Y0148934D01*
X0501887Y0148991D01*
X0501879Y0149048D01*
X0501867Y0149104D01*
X0501851Y0149160D01*
X0501832Y0149214D01*
X0501809Y0149266D01*
X0501782Y0149317D01*
X0501752Y0149367D01*
X0501719Y0149414D01*
X0501683Y0149458D01*
X0501644Y0149500D01*
X0501602Y0149540D01*
X0501557Y0149576D01*
X0501510Y0149609D01*
X0501461Y0149639D01*
X0501410Y0149666D01*
X0501358Y0149689D01*
X0501521Y0151655D02*
X0501414Y0151701D01*
X0501305Y0151744D01*
X0501195Y0151784D01*
X0501083Y0151820D01*
X0500971Y0151852D01*
X0500857Y0151881D01*
X0500743Y0151907D01*
X0500628Y0151928D01*
X0500513Y0151947D01*
X0500396Y0151961D01*
X0500280Y0151972D01*
X0500163Y0151979D01*
X0500046Y0151983D01*
X0496351Y0150344D02*
X0492418Y0150344D01*
X0489747Y0151983D02*
X0488435Y0148050D01*
X0487124Y0151983D01*
X0488435Y0250050D02*
X0489747Y0253983D01*
X0487124Y0253983D02*
X0488435Y0250050D01*
X0492418Y0252344D02*
X0496351Y0252344D01*
X0499719Y0252344D02*
X0501358Y0251689D01*
X0501410Y0251666D01*
X0501461Y0251639D01*
X0501510Y0251609D01*
X0501557Y0251576D01*
X0501602Y0251540D01*
X0501644Y0251500D01*
X0501683Y0251458D01*
X0501719Y0251414D01*
X0501752Y0251367D01*
X0501782Y0251317D01*
X0501809Y0251266D01*
X0501832Y0251214D01*
X0501851Y0251160D01*
X0501867Y0251104D01*
X0501879Y0251048D01*
X0501887Y0250991D01*
X0501891Y0250934D01*
X0501892Y0250876D01*
X0501888Y0250819D01*
X0501881Y0250762D01*
X0501869Y0250705D01*
X0501854Y0250650D01*
X0501836Y0250595D01*
X0501813Y0250542D01*
X0501787Y0250491D01*
X0501758Y0250442D01*
X0501725Y0250394D01*
X0501689Y0250349D01*
X0501651Y0250307D01*
X0501609Y0250267D01*
X0501565Y0250230D01*
X0501518Y0250196D01*
X0501470Y0250165D01*
X0501419Y0250138D01*
X0501367Y0250114D01*
X0501313Y0250094D01*
X0501258Y0250078D01*
X0501202Y0250065D01*
X0501145Y0250056D01*
X0501087Y0250051D01*
X0501030Y0250050D01*
X0501521Y0253655D02*
X0501414Y0253701D01*
X0501305Y0253744D01*
X0501195Y0253784D01*
X0501083Y0253820D01*
X0500971Y0253852D01*
X0500857Y0253881D01*
X0500743Y0253907D01*
X0500628Y0253928D01*
X0500513Y0253947D01*
X0500396Y0253961D01*
X0500280Y0253972D01*
X0500163Y0253979D01*
X0500046Y0253983D01*
X0500047Y0253984D02*
X0499990Y0253983D01*
X0499932Y0253978D01*
X0499875Y0253969D01*
X0499819Y0253956D01*
X0499764Y0253940D01*
X0499710Y0253920D01*
X0499658Y0253896D01*
X0499607Y0253869D01*
X0499559Y0253838D01*
X0499512Y0253804D01*
X0499468Y0253767D01*
X0499426Y0253727D01*
X0499388Y0253685D01*
X0499352Y0253640D01*
X0499319Y0253592D01*
X0499290Y0253543D01*
X0499264Y0253492D01*
X0499241Y0253439D01*
X0499223Y0253384D01*
X0499208Y0253329D01*
X0499196Y0253272D01*
X0499189Y0253215D01*
X0499185Y0253158D01*
X0499186Y0253100D01*
X0499190Y0253043D01*
X0499198Y0252986D01*
X0499210Y0252930D01*
X0499226Y0252874D01*
X0499245Y0252820D01*
X0499268Y0252768D01*
X0499295Y0252717D01*
X0499325Y0252667D01*
X0499358Y0252620D01*
X0499394Y0252576D01*
X0499433Y0252534D01*
X0499475Y0252494D01*
X0499520Y0252458D01*
X0499567Y0252425D01*
X0499616Y0252395D01*
X0499667Y0252368D01*
X0499719Y0252345D01*
X0499227Y0250378D02*
X0499361Y0250332D01*
X0499496Y0250289D01*
X0499632Y0250250D01*
X0499769Y0250214D01*
X0499906Y0250182D01*
X0500045Y0250153D01*
X0500184Y0250127D01*
X0500324Y0250106D01*
X0500465Y0250087D01*
X0500605Y0250073D01*
X0500747Y0250062D01*
X0500888Y0250054D01*
X0501030Y0250051D01*
X0504571Y0251033D02*
X0504571Y0253000D01*
X0504573Y0253062D01*
X0504579Y0253123D01*
X0504588Y0253184D01*
X0504602Y0253244D01*
X0504619Y0253304D01*
X0504640Y0253362D01*
X0504665Y0253419D01*
X0504693Y0253474D01*
X0504724Y0253527D01*
X0504759Y0253578D01*
X0504797Y0253627D01*
X0504837Y0253673D01*
X0504881Y0253717D01*
X0504927Y0253757D01*
X0504976Y0253795D01*
X0505027Y0253830D01*
X0505080Y0253861D01*
X0505135Y0253889D01*
X0505192Y0253914D01*
X0505250Y0253935D01*
X0505310Y0253952D01*
X0505370Y0253966D01*
X0505431Y0253975D01*
X0505492Y0253981D01*
X0505554Y0253983D01*
X0506866Y0253983D01*
X0509279Y0252672D02*
X0509279Y0251361D01*
X0509281Y0251290D01*
X0509287Y0251219D01*
X0509296Y0251149D01*
X0509310Y0251079D01*
X0509327Y0251010D01*
X0509348Y0250942D01*
X0509372Y0250876D01*
X0509400Y0250811D01*
X0509432Y0250747D01*
X0509467Y0250685D01*
X0509505Y0250625D01*
X0509546Y0250568D01*
X0509591Y0250512D01*
X0509638Y0250459D01*
X0509688Y0250409D01*
X0509741Y0250362D01*
X0509797Y0250317D01*
X0509854Y0250276D01*
X0509914Y0250238D01*
X0509976Y0250203D01*
X0510040Y0250171D01*
X0510105Y0250143D01*
X0510171Y0250119D01*
X0510239Y0250098D01*
X0510308Y0250081D01*
X0510378Y0250067D01*
X0510448Y0250058D01*
X0510519Y0250052D01*
X0510590Y0250050D01*
X0510661Y0250052D01*
X0510732Y0250058D01*
X0510802Y0250067D01*
X0510872Y0250081D01*
X0510941Y0250098D01*
X0511009Y0250119D01*
X0511075Y0250143D01*
X0511140Y0250171D01*
X0511204Y0250203D01*
X0511266Y0250238D01*
X0511326Y0250276D01*
X0511383Y0250317D01*
X0511439Y0250362D01*
X0511492Y0250409D01*
X0511542Y0250459D01*
X0511589Y0250512D01*
X0511634Y0250568D01*
X0511675Y0250625D01*
X0511713Y0250685D01*
X0511748Y0250747D01*
X0511780Y0250811D01*
X0511808Y0250876D01*
X0511832Y0250942D01*
X0511853Y0251010D01*
X0511870Y0251079D01*
X0511884Y0251149D01*
X0511893Y0251219D01*
X0511899Y0251290D01*
X0511901Y0251361D01*
X0511901Y0252672D01*
X0511899Y0252743D01*
X0511893Y0252814D01*
X0511884Y0252884D01*
X0511870Y0252954D01*
X0511853Y0253023D01*
X0511832Y0253091D01*
X0511808Y0253157D01*
X0511780Y0253222D01*
X0511748Y0253286D01*
X0511713Y0253348D01*
X0511675Y0253408D01*
X0511634Y0253465D01*
X0511589Y0253521D01*
X0511542Y0253574D01*
X0511492Y0253624D01*
X0511439Y0253671D01*
X0511383Y0253716D01*
X0511326Y0253757D01*
X0511266Y0253795D01*
X0511204Y0253830D01*
X0511140Y0253862D01*
X0511075Y0253890D01*
X0511009Y0253914D01*
X0510941Y0253935D01*
X0510872Y0253952D01*
X0510802Y0253966D01*
X0510732Y0253975D01*
X0510661Y0253981D01*
X0510590Y0253983D01*
X0510519Y0253981D01*
X0510448Y0253975D01*
X0510378Y0253966D01*
X0510308Y0253952D01*
X0510239Y0253935D01*
X0510171Y0253914D01*
X0510105Y0253890D01*
X0510040Y0253862D01*
X0509976Y0253830D01*
X0509914Y0253795D01*
X0509854Y0253757D01*
X0509797Y0253716D01*
X0509741Y0253671D01*
X0509688Y0253624D01*
X0509638Y0253574D01*
X0509591Y0253521D01*
X0509546Y0253465D01*
X0509505Y0253408D01*
X0509467Y0253348D01*
X0509432Y0253286D01*
X0509400Y0253222D01*
X0509372Y0253157D01*
X0509348Y0253091D01*
X0509327Y0253023D01*
X0509310Y0252954D01*
X0509296Y0252884D01*
X0509287Y0252814D01*
X0509281Y0252743D01*
X0509279Y0252672D01*
X0506866Y0250050D02*
X0505554Y0250050D01*
X0505492Y0250052D01*
X0505431Y0250058D01*
X0505370Y0250067D01*
X0505310Y0250081D01*
X0505250Y0250098D01*
X0505192Y0250119D01*
X0505135Y0250144D01*
X0505080Y0250172D01*
X0505027Y0250203D01*
X0504976Y0250238D01*
X0504927Y0250276D01*
X0504881Y0250316D01*
X0504837Y0250360D01*
X0504797Y0250406D01*
X0504759Y0250455D01*
X0504724Y0250506D01*
X0504693Y0250559D01*
X0504665Y0250614D01*
X0504640Y0250671D01*
X0504619Y0250729D01*
X0504602Y0250789D01*
X0504588Y0250849D01*
X0504579Y0250910D01*
X0504573Y0250971D01*
X0504571Y0251033D01*
X0514868Y0250050D02*
X0514868Y0253983D01*
X0516834Y0253983D01*
X0516834Y0253328D01*
X0518920Y0252672D02*
X0518920Y0251033D01*
X0518922Y0250971D01*
X0518928Y0250910D01*
X0518937Y0250849D01*
X0518951Y0250789D01*
X0518968Y0250729D01*
X0518989Y0250671D01*
X0519014Y0250614D01*
X0519042Y0250559D01*
X0519073Y0250506D01*
X0519108Y0250455D01*
X0519146Y0250406D01*
X0519186Y0250360D01*
X0519230Y0250316D01*
X0519276Y0250276D01*
X0519325Y0250238D01*
X0519376Y0250203D01*
X0519429Y0250172D01*
X0519484Y0250144D01*
X0519541Y0250119D01*
X0519599Y0250098D01*
X0519659Y0250081D01*
X0519719Y0250067D01*
X0519780Y0250058D01*
X0519841Y0250052D01*
X0519903Y0250050D01*
X0521542Y0250050D01*
X0521542Y0252017D02*
X0518920Y0252017D01*
X0518920Y0252672D02*
X0518922Y0252743D01*
X0518928Y0252814D01*
X0518937Y0252884D01*
X0518951Y0252954D01*
X0518968Y0253023D01*
X0518989Y0253091D01*
X0519013Y0253157D01*
X0519041Y0253222D01*
X0519073Y0253286D01*
X0519108Y0253348D01*
X0519146Y0253408D01*
X0519187Y0253465D01*
X0519232Y0253521D01*
X0519279Y0253574D01*
X0519329Y0253624D01*
X0519382Y0253671D01*
X0519438Y0253716D01*
X0519495Y0253757D01*
X0519555Y0253795D01*
X0519617Y0253830D01*
X0519681Y0253862D01*
X0519746Y0253890D01*
X0519812Y0253914D01*
X0519880Y0253935D01*
X0519949Y0253952D01*
X0520019Y0253966D01*
X0520089Y0253975D01*
X0520160Y0253981D01*
X0520231Y0253983D01*
X0520302Y0253981D01*
X0520373Y0253975D01*
X0520443Y0253966D01*
X0520513Y0253952D01*
X0520582Y0253935D01*
X0520650Y0253914D01*
X0520716Y0253890D01*
X0520781Y0253862D01*
X0520845Y0253830D01*
X0520907Y0253795D01*
X0520967Y0253757D01*
X0521024Y0253716D01*
X0521080Y0253671D01*
X0521133Y0253624D01*
X0521183Y0253574D01*
X0521230Y0253521D01*
X0521275Y0253465D01*
X0521316Y0253408D01*
X0521354Y0253348D01*
X0521389Y0253286D01*
X0521421Y0253222D01*
X0521449Y0253157D01*
X0521473Y0253091D01*
X0521494Y0253023D01*
X0521511Y0252954D01*
X0521525Y0252884D01*
X0521534Y0252814D01*
X0521540Y0252743D01*
X0521542Y0252672D01*
X0521542Y0252017D01*
X0521542Y0352050D02*
X0519903Y0352050D01*
X0519841Y0352052D01*
X0519780Y0352058D01*
X0519719Y0352067D01*
X0519659Y0352081D01*
X0519599Y0352098D01*
X0519541Y0352119D01*
X0519484Y0352144D01*
X0519429Y0352172D01*
X0519376Y0352203D01*
X0519325Y0352238D01*
X0519276Y0352276D01*
X0519230Y0352316D01*
X0519186Y0352360D01*
X0519146Y0352406D01*
X0519108Y0352455D01*
X0519073Y0352506D01*
X0519042Y0352559D01*
X0519014Y0352614D01*
X0518989Y0352671D01*
X0518968Y0352729D01*
X0518951Y0352789D01*
X0518937Y0352849D01*
X0518928Y0352910D01*
X0518922Y0352971D01*
X0518920Y0353033D01*
X0518920Y0354672D01*
X0518920Y0354017D02*
X0521542Y0354017D01*
X0521542Y0354672D01*
X0521540Y0354743D01*
X0521534Y0354814D01*
X0521525Y0354884D01*
X0521511Y0354954D01*
X0521494Y0355023D01*
X0521473Y0355091D01*
X0521449Y0355157D01*
X0521421Y0355222D01*
X0521389Y0355286D01*
X0521354Y0355348D01*
X0521316Y0355408D01*
X0521275Y0355465D01*
X0521230Y0355521D01*
X0521183Y0355574D01*
X0521133Y0355624D01*
X0521080Y0355671D01*
X0521024Y0355716D01*
X0520967Y0355757D01*
X0520907Y0355795D01*
X0520845Y0355830D01*
X0520781Y0355862D01*
X0520716Y0355890D01*
X0520650Y0355914D01*
X0520582Y0355935D01*
X0520513Y0355952D01*
X0520443Y0355966D01*
X0520373Y0355975D01*
X0520302Y0355981D01*
X0520231Y0355983D01*
X0520160Y0355981D01*
X0520089Y0355975D01*
X0520019Y0355966D01*
X0519949Y0355952D01*
X0519880Y0355935D01*
X0519812Y0355914D01*
X0519746Y0355890D01*
X0519681Y0355862D01*
X0519617Y0355830D01*
X0519555Y0355795D01*
X0519495Y0355757D01*
X0519438Y0355716D01*
X0519382Y0355671D01*
X0519329Y0355624D01*
X0519279Y0355574D01*
X0519232Y0355521D01*
X0519187Y0355465D01*
X0519146Y0355408D01*
X0519108Y0355348D01*
X0519073Y0355286D01*
X0519041Y0355222D01*
X0519013Y0355157D01*
X0518989Y0355091D01*
X0518968Y0355023D01*
X0518951Y0354954D01*
X0518937Y0354884D01*
X0518928Y0354814D01*
X0518922Y0354743D01*
X0518920Y0354672D01*
X0516834Y0355328D02*
X0516834Y0355983D01*
X0514868Y0355983D01*
X0514868Y0352050D01*
X0511901Y0353361D02*
X0511901Y0354672D01*
X0511899Y0354743D01*
X0511893Y0354814D01*
X0511884Y0354884D01*
X0511870Y0354954D01*
X0511853Y0355023D01*
X0511832Y0355091D01*
X0511808Y0355157D01*
X0511780Y0355222D01*
X0511748Y0355286D01*
X0511713Y0355348D01*
X0511675Y0355408D01*
X0511634Y0355465D01*
X0511589Y0355521D01*
X0511542Y0355574D01*
X0511492Y0355624D01*
X0511439Y0355671D01*
X0511383Y0355716D01*
X0511326Y0355757D01*
X0511266Y0355795D01*
X0511204Y0355830D01*
X0511140Y0355862D01*
X0511075Y0355890D01*
X0511009Y0355914D01*
X0510941Y0355935D01*
X0510872Y0355952D01*
X0510802Y0355966D01*
X0510732Y0355975D01*
X0510661Y0355981D01*
X0510590Y0355983D01*
X0510519Y0355981D01*
X0510448Y0355975D01*
X0510378Y0355966D01*
X0510308Y0355952D01*
X0510239Y0355935D01*
X0510171Y0355914D01*
X0510105Y0355890D01*
X0510040Y0355862D01*
X0509976Y0355830D01*
X0509914Y0355795D01*
X0509854Y0355757D01*
X0509797Y0355716D01*
X0509741Y0355671D01*
X0509688Y0355624D01*
X0509638Y0355574D01*
X0509591Y0355521D01*
X0509546Y0355465D01*
X0509505Y0355408D01*
X0509467Y0355348D01*
X0509432Y0355286D01*
X0509400Y0355222D01*
X0509372Y0355157D01*
X0509348Y0355091D01*
X0509327Y0355023D01*
X0509310Y0354954D01*
X0509296Y0354884D01*
X0509287Y0354814D01*
X0509281Y0354743D01*
X0509279Y0354672D01*
X0509279Y0353361D01*
X0509281Y0353290D01*
X0509287Y0353219D01*
X0509296Y0353149D01*
X0509310Y0353079D01*
X0509327Y0353010D01*
X0509348Y0352942D01*
X0509372Y0352876D01*
X0509400Y0352811D01*
X0509432Y0352747D01*
X0509467Y0352685D01*
X0509505Y0352625D01*
X0509546Y0352568D01*
X0509591Y0352512D01*
X0509638Y0352459D01*
X0509688Y0352409D01*
X0509741Y0352362D01*
X0509797Y0352317D01*
X0509854Y0352276D01*
X0509914Y0352238D01*
X0509976Y0352203D01*
X0510040Y0352171D01*
X0510105Y0352143D01*
X0510171Y0352119D01*
X0510239Y0352098D01*
X0510308Y0352081D01*
X0510378Y0352067D01*
X0510448Y0352058D01*
X0510519Y0352052D01*
X0510590Y0352050D01*
X0510661Y0352052D01*
X0510732Y0352058D01*
X0510802Y0352067D01*
X0510872Y0352081D01*
X0510941Y0352098D01*
X0511009Y0352119D01*
X0511075Y0352143D01*
X0511140Y0352171D01*
X0511204Y0352203D01*
X0511266Y0352238D01*
X0511326Y0352276D01*
X0511383Y0352317D01*
X0511439Y0352362D01*
X0511492Y0352409D01*
X0511542Y0352459D01*
X0511589Y0352512D01*
X0511634Y0352568D01*
X0511675Y0352625D01*
X0511713Y0352685D01*
X0511748Y0352747D01*
X0511780Y0352811D01*
X0511808Y0352876D01*
X0511832Y0352942D01*
X0511853Y0353010D01*
X0511870Y0353079D01*
X0511884Y0353149D01*
X0511893Y0353219D01*
X0511899Y0353290D01*
X0511901Y0353361D01*
X0506866Y0352050D02*
X0505554Y0352050D01*
X0505492Y0352052D01*
X0505431Y0352058D01*
X0505370Y0352067D01*
X0505310Y0352081D01*
X0505250Y0352098D01*
X0505192Y0352119D01*
X0505135Y0352144D01*
X0505080Y0352172D01*
X0505027Y0352203D01*
X0504976Y0352238D01*
X0504927Y0352276D01*
X0504881Y0352316D01*
X0504837Y0352360D01*
X0504797Y0352406D01*
X0504759Y0352455D01*
X0504724Y0352506D01*
X0504693Y0352559D01*
X0504665Y0352614D01*
X0504640Y0352671D01*
X0504619Y0352729D01*
X0504602Y0352789D01*
X0504588Y0352849D01*
X0504579Y0352910D01*
X0504573Y0352971D01*
X0504571Y0353033D01*
X0504571Y0355000D01*
X0504573Y0355062D01*
X0504579Y0355123D01*
X0504588Y0355184D01*
X0504602Y0355244D01*
X0504619Y0355304D01*
X0504640Y0355362D01*
X0504665Y0355419D01*
X0504693Y0355474D01*
X0504724Y0355527D01*
X0504759Y0355578D01*
X0504797Y0355627D01*
X0504837Y0355673D01*
X0504881Y0355717D01*
X0504927Y0355757D01*
X0504976Y0355795D01*
X0505027Y0355830D01*
X0505080Y0355861D01*
X0505135Y0355889D01*
X0505192Y0355914D01*
X0505250Y0355935D01*
X0505310Y0355952D01*
X0505370Y0355966D01*
X0505431Y0355975D01*
X0505492Y0355981D01*
X0505554Y0355983D01*
X0506866Y0355983D01*
X0501358Y0353689D02*
X0499719Y0354344D01*
X0499719Y0354345D02*
X0499667Y0354368D01*
X0499616Y0354395D01*
X0499567Y0354425D01*
X0499520Y0354458D01*
X0499475Y0354494D01*
X0499433Y0354534D01*
X0499394Y0354576D01*
X0499358Y0354620D01*
X0499325Y0354667D01*
X0499295Y0354717D01*
X0499268Y0354768D01*
X0499245Y0354820D01*
X0499226Y0354874D01*
X0499210Y0354930D01*
X0499198Y0354986D01*
X0499190Y0355043D01*
X0499186Y0355100D01*
X0499185Y0355158D01*
X0499189Y0355215D01*
X0499196Y0355272D01*
X0499208Y0355329D01*
X0499223Y0355384D01*
X0499241Y0355439D01*
X0499264Y0355492D01*
X0499290Y0355543D01*
X0499319Y0355592D01*
X0499352Y0355640D01*
X0499388Y0355685D01*
X0499426Y0355727D01*
X0499468Y0355767D01*
X0499512Y0355804D01*
X0499559Y0355838D01*
X0499607Y0355869D01*
X0499658Y0355896D01*
X0499710Y0355920D01*
X0499764Y0355940D01*
X0499819Y0355956D01*
X0499875Y0355969D01*
X0499932Y0355978D01*
X0499990Y0355983D01*
X0500047Y0355984D01*
X0499227Y0352378D02*
X0499361Y0352332D01*
X0499496Y0352289D01*
X0499632Y0352250D01*
X0499769Y0352214D01*
X0499906Y0352182D01*
X0500045Y0352153D01*
X0500184Y0352127D01*
X0500324Y0352106D01*
X0500465Y0352087D01*
X0500605Y0352073D01*
X0500747Y0352062D01*
X0500888Y0352054D01*
X0501030Y0352051D01*
X0501030Y0352050D02*
X0501087Y0352051D01*
X0501145Y0352056D01*
X0501202Y0352065D01*
X0501258Y0352078D01*
X0501313Y0352094D01*
X0501367Y0352114D01*
X0501419Y0352138D01*
X0501470Y0352165D01*
X0501518Y0352196D01*
X0501565Y0352230D01*
X0501609Y0352267D01*
X0501651Y0352307D01*
X0501689Y0352349D01*
X0501725Y0352394D01*
X0501758Y0352442D01*
X0501787Y0352491D01*
X0501813Y0352542D01*
X0501836Y0352595D01*
X0501854Y0352650D01*
X0501869Y0352705D01*
X0501881Y0352762D01*
X0501888Y0352819D01*
X0501892Y0352876D01*
X0501891Y0352934D01*
X0501887Y0352991D01*
X0501879Y0353048D01*
X0501867Y0353104D01*
X0501851Y0353160D01*
X0501832Y0353214D01*
X0501809Y0353266D01*
X0501782Y0353317D01*
X0501752Y0353367D01*
X0501719Y0353414D01*
X0501683Y0353458D01*
X0501644Y0353500D01*
X0501602Y0353540D01*
X0501557Y0353576D01*
X0501510Y0353609D01*
X0501461Y0353639D01*
X0501410Y0353666D01*
X0501358Y0353689D01*
X0501521Y0355655D02*
X0501414Y0355701D01*
X0501305Y0355744D01*
X0501195Y0355784D01*
X0501083Y0355820D01*
X0500971Y0355852D01*
X0500857Y0355881D01*
X0500743Y0355907D01*
X0500628Y0355928D01*
X0500513Y0355947D01*
X0500396Y0355961D01*
X0500280Y0355972D01*
X0500163Y0355979D01*
X0500046Y0355983D01*
X0496351Y0354344D02*
X0492418Y0354344D01*
X0489747Y0355983D02*
X0488435Y0352050D01*
X0487124Y0355983D01*
X0440542Y0412050D02*
X0438903Y0412050D01*
X0438841Y0412052D01*
X0438780Y0412058D01*
X0438719Y0412067D01*
X0438659Y0412081D01*
X0438599Y0412098D01*
X0438541Y0412119D01*
X0438484Y0412144D01*
X0438429Y0412172D01*
X0438376Y0412203D01*
X0438325Y0412238D01*
X0438276Y0412276D01*
X0438230Y0412316D01*
X0438186Y0412360D01*
X0438146Y0412406D01*
X0438108Y0412455D01*
X0438073Y0412506D01*
X0438042Y0412559D01*
X0438014Y0412614D01*
X0437989Y0412671D01*
X0437968Y0412729D01*
X0437951Y0412789D01*
X0437937Y0412849D01*
X0437928Y0412910D01*
X0437922Y0412971D01*
X0437920Y0413033D01*
X0437920Y0414672D01*
X0437920Y0414017D02*
X0440542Y0414017D01*
X0440542Y0414672D01*
X0440540Y0414743D01*
X0440534Y0414814D01*
X0440525Y0414884D01*
X0440511Y0414954D01*
X0440494Y0415023D01*
X0440473Y0415091D01*
X0440449Y0415157D01*
X0440421Y0415222D01*
X0440389Y0415286D01*
X0440354Y0415348D01*
X0440316Y0415408D01*
X0440275Y0415465D01*
X0440230Y0415521D01*
X0440183Y0415574D01*
X0440133Y0415624D01*
X0440080Y0415671D01*
X0440024Y0415716D01*
X0439967Y0415757D01*
X0439907Y0415795D01*
X0439845Y0415830D01*
X0439781Y0415862D01*
X0439716Y0415890D01*
X0439650Y0415914D01*
X0439582Y0415935D01*
X0439513Y0415952D01*
X0439443Y0415966D01*
X0439373Y0415975D01*
X0439302Y0415981D01*
X0439231Y0415983D01*
X0439160Y0415981D01*
X0439089Y0415975D01*
X0439019Y0415966D01*
X0438949Y0415952D01*
X0438880Y0415935D01*
X0438812Y0415914D01*
X0438746Y0415890D01*
X0438681Y0415862D01*
X0438617Y0415830D01*
X0438555Y0415795D01*
X0438495Y0415757D01*
X0438438Y0415716D01*
X0438382Y0415671D01*
X0438329Y0415624D01*
X0438279Y0415574D01*
X0438232Y0415521D01*
X0438187Y0415465D01*
X0438146Y0415408D01*
X0438108Y0415348D01*
X0438073Y0415286D01*
X0438041Y0415222D01*
X0438013Y0415157D01*
X0437989Y0415091D01*
X0437968Y0415023D01*
X0437951Y0414954D01*
X0437937Y0414884D01*
X0437928Y0414814D01*
X0437922Y0414743D01*
X0437920Y0414672D01*
X0435834Y0415328D02*
X0435834Y0415983D01*
X0433868Y0415983D01*
X0433868Y0412050D01*
X0430901Y0413361D02*
X0430901Y0414672D01*
X0430899Y0414743D01*
X0430893Y0414814D01*
X0430884Y0414884D01*
X0430870Y0414954D01*
X0430853Y0415023D01*
X0430832Y0415091D01*
X0430808Y0415157D01*
X0430780Y0415222D01*
X0430748Y0415286D01*
X0430713Y0415348D01*
X0430675Y0415408D01*
X0430634Y0415465D01*
X0430589Y0415521D01*
X0430542Y0415574D01*
X0430492Y0415624D01*
X0430439Y0415671D01*
X0430383Y0415716D01*
X0430326Y0415757D01*
X0430266Y0415795D01*
X0430204Y0415830D01*
X0430140Y0415862D01*
X0430075Y0415890D01*
X0430009Y0415914D01*
X0429941Y0415935D01*
X0429872Y0415952D01*
X0429802Y0415966D01*
X0429732Y0415975D01*
X0429661Y0415981D01*
X0429590Y0415983D01*
X0429519Y0415981D01*
X0429448Y0415975D01*
X0429378Y0415966D01*
X0429308Y0415952D01*
X0429239Y0415935D01*
X0429171Y0415914D01*
X0429105Y0415890D01*
X0429040Y0415862D01*
X0428976Y0415830D01*
X0428914Y0415795D01*
X0428854Y0415757D01*
X0428797Y0415716D01*
X0428741Y0415671D01*
X0428688Y0415624D01*
X0428638Y0415574D01*
X0428591Y0415521D01*
X0428546Y0415465D01*
X0428505Y0415408D01*
X0428467Y0415348D01*
X0428432Y0415286D01*
X0428400Y0415222D01*
X0428372Y0415157D01*
X0428348Y0415091D01*
X0428327Y0415023D01*
X0428310Y0414954D01*
X0428296Y0414884D01*
X0428287Y0414814D01*
X0428281Y0414743D01*
X0428279Y0414672D01*
X0428279Y0413361D01*
X0428281Y0413290D01*
X0428287Y0413219D01*
X0428296Y0413149D01*
X0428310Y0413079D01*
X0428327Y0413010D01*
X0428348Y0412942D01*
X0428372Y0412876D01*
X0428400Y0412811D01*
X0428432Y0412747D01*
X0428467Y0412685D01*
X0428505Y0412625D01*
X0428546Y0412568D01*
X0428591Y0412512D01*
X0428638Y0412459D01*
X0428688Y0412409D01*
X0428741Y0412362D01*
X0428797Y0412317D01*
X0428854Y0412276D01*
X0428914Y0412238D01*
X0428976Y0412203D01*
X0429040Y0412171D01*
X0429105Y0412143D01*
X0429171Y0412119D01*
X0429239Y0412098D01*
X0429308Y0412081D01*
X0429378Y0412067D01*
X0429448Y0412058D01*
X0429519Y0412052D01*
X0429590Y0412050D01*
X0429661Y0412052D01*
X0429732Y0412058D01*
X0429802Y0412067D01*
X0429872Y0412081D01*
X0429941Y0412098D01*
X0430009Y0412119D01*
X0430075Y0412143D01*
X0430140Y0412171D01*
X0430204Y0412203D01*
X0430266Y0412238D01*
X0430326Y0412276D01*
X0430383Y0412317D01*
X0430439Y0412362D01*
X0430492Y0412409D01*
X0430542Y0412459D01*
X0430589Y0412512D01*
X0430634Y0412568D01*
X0430675Y0412625D01*
X0430713Y0412685D01*
X0430748Y0412747D01*
X0430780Y0412811D01*
X0430808Y0412876D01*
X0430832Y0412942D01*
X0430853Y0413010D01*
X0430870Y0413079D01*
X0430884Y0413149D01*
X0430893Y0413219D01*
X0430899Y0413290D01*
X0430901Y0413361D01*
X0425866Y0412050D02*
X0424554Y0412050D01*
X0424492Y0412052D01*
X0424431Y0412058D01*
X0424370Y0412067D01*
X0424310Y0412081D01*
X0424250Y0412098D01*
X0424192Y0412119D01*
X0424135Y0412144D01*
X0424080Y0412172D01*
X0424027Y0412203D01*
X0423976Y0412238D01*
X0423927Y0412276D01*
X0423881Y0412316D01*
X0423837Y0412360D01*
X0423797Y0412406D01*
X0423759Y0412455D01*
X0423724Y0412506D01*
X0423693Y0412559D01*
X0423665Y0412614D01*
X0423640Y0412671D01*
X0423619Y0412729D01*
X0423602Y0412789D01*
X0423588Y0412849D01*
X0423579Y0412910D01*
X0423573Y0412971D01*
X0423571Y0413033D01*
X0423571Y0415000D01*
X0423573Y0415062D01*
X0423579Y0415123D01*
X0423588Y0415184D01*
X0423602Y0415244D01*
X0423619Y0415304D01*
X0423640Y0415362D01*
X0423665Y0415419D01*
X0423693Y0415474D01*
X0423724Y0415527D01*
X0423759Y0415578D01*
X0423797Y0415627D01*
X0423837Y0415673D01*
X0423881Y0415717D01*
X0423927Y0415757D01*
X0423976Y0415795D01*
X0424027Y0415830D01*
X0424080Y0415861D01*
X0424135Y0415889D01*
X0424192Y0415914D01*
X0424250Y0415935D01*
X0424310Y0415952D01*
X0424370Y0415966D01*
X0424431Y0415975D01*
X0424492Y0415981D01*
X0424554Y0415983D01*
X0425866Y0415983D01*
X0420358Y0413689D02*
X0418719Y0414344D01*
X0418719Y0414345D02*
X0418667Y0414368D01*
X0418616Y0414395D01*
X0418567Y0414425D01*
X0418520Y0414458D01*
X0418475Y0414494D01*
X0418433Y0414534D01*
X0418394Y0414576D01*
X0418358Y0414620D01*
X0418325Y0414667D01*
X0418295Y0414717D01*
X0418268Y0414768D01*
X0418245Y0414820D01*
X0418226Y0414874D01*
X0418210Y0414930D01*
X0418198Y0414986D01*
X0418190Y0415043D01*
X0418186Y0415100D01*
X0418185Y0415158D01*
X0418189Y0415215D01*
X0418196Y0415272D01*
X0418208Y0415329D01*
X0418223Y0415384D01*
X0418241Y0415439D01*
X0418264Y0415492D01*
X0418290Y0415543D01*
X0418319Y0415592D01*
X0418352Y0415640D01*
X0418388Y0415685D01*
X0418426Y0415727D01*
X0418468Y0415767D01*
X0418512Y0415804D01*
X0418559Y0415838D01*
X0418607Y0415869D01*
X0418658Y0415896D01*
X0418710Y0415920D01*
X0418764Y0415940D01*
X0418819Y0415956D01*
X0418875Y0415969D01*
X0418932Y0415978D01*
X0418990Y0415983D01*
X0419047Y0415984D01*
X0418227Y0412378D02*
X0418361Y0412332D01*
X0418496Y0412289D01*
X0418632Y0412250D01*
X0418769Y0412214D01*
X0418906Y0412182D01*
X0419045Y0412153D01*
X0419184Y0412127D01*
X0419324Y0412106D01*
X0419465Y0412087D01*
X0419605Y0412073D01*
X0419747Y0412062D01*
X0419888Y0412054D01*
X0420030Y0412051D01*
X0420030Y0412050D02*
X0420087Y0412051D01*
X0420145Y0412056D01*
X0420202Y0412065D01*
X0420258Y0412078D01*
X0420313Y0412094D01*
X0420367Y0412114D01*
X0420419Y0412138D01*
X0420470Y0412165D01*
X0420518Y0412196D01*
X0420565Y0412230D01*
X0420609Y0412267D01*
X0420651Y0412307D01*
X0420689Y0412349D01*
X0420725Y0412394D01*
X0420758Y0412442D01*
X0420787Y0412491D01*
X0420813Y0412542D01*
X0420836Y0412595D01*
X0420854Y0412650D01*
X0420869Y0412705D01*
X0420881Y0412762D01*
X0420888Y0412819D01*
X0420892Y0412876D01*
X0420891Y0412934D01*
X0420887Y0412991D01*
X0420879Y0413048D01*
X0420867Y0413104D01*
X0420851Y0413160D01*
X0420832Y0413214D01*
X0420809Y0413266D01*
X0420782Y0413317D01*
X0420752Y0413367D01*
X0420719Y0413414D01*
X0420683Y0413458D01*
X0420644Y0413500D01*
X0420602Y0413540D01*
X0420557Y0413576D01*
X0420510Y0413609D01*
X0420461Y0413639D01*
X0420410Y0413666D01*
X0420358Y0413689D01*
X0420521Y0415655D02*
X0420414Y0415701D01*
X0420305Y0415744D01*
X0420195Y0415784D01*
X0420083Y0415820D01*
X0419971Y0415852D01*
X0419857Y0415881D01*
X0419743Y0415907D01*
X0419628Y0415928D01*
X0419513Y0415947D01*
X0419396Y0415961D01*
X0419280Y0415972D01*
X0419163Y0415979D01*
X0419046Y0415983D01*
X0415351Y0414344D02*
X0411418Y0414344D01*
X0408747Y0415983D02*
X0407435Y0412050D01*
X0406124Y0415983D01*
X0338542Y0414672D02*
X0338542Y0414017D01*
X0335920Y0414017D01*
X0335920Y0414672D02*
X0335920Y0413033D01*
X0335922Y0412971D01*
X0335928Y0412910D01*
X0335937Y0412849D01*
X0335951Y0412789D01*
X0335968Y0412729D01*
X0335989Y0412671D01*
X0336014Y0412614D01*
X0336042Y0412559D01*
X0336073Y0412506D01*
X0336108Y0412455D01*
X0336146Y0412406D01*
X0336186Y0412360D01*
X0336230Y0412316D01*
X0336276Y0412276D01*
X0336325Y0412238D01*
X0336376Y0412203D01*
X0336429Y0412172D01*
X0336484Y0412144D01*
X0336541Y0412119D01*
X0336599Y0412098D01*
X0336659Y0412081D01*
X0336719Y0412067D01*
X0336780Y0412058D01*
X0336841Y0412052D01*
X0336903Y0412050D01*
X0338542Y0412050D01*
X0338542Y0414672D02*
X0338540Y0414743D01*
X0338534Y0414814D01*
X0338525Y0414884D01*
X0338511Y0414954D01*
X0338494Y0415023D01*
X0338473Y0415091D01*
X0338449Y0415157D01*
X0338421Y0415222D01*
X0338389Y0415286D01*
X0338354Y0415348D01*
X0338316Y0415408D01*
X0338275Y0415465D01*
X0338230Y0415521D01*
X0338183Y0415574D01*
X0338133Y0415624D01*
X0338080Y0415671D01*
X0338024Y0415716D01*
X0337967Y0415757D01*
X0337907Y0415795D01*
X0337845Y0415830D01*
X0337781Y0415862D01*
X0337716Y0415890D01*
X0337650Y0415914D01*
X0337582Y0415935D01*
X0337513Y0415952D01*
X0337443Y0415966D01*
X0337373Y0415975D01*
X0337302Y0415981D01*
X0337231Y0415983D01*
X0337160Y0415981D01*
X0337089Y0415975D01*
X0337019Y0415966D01*
X0336949Y0415952D01*
X0336880Y0415935D01*
X0336812Y0415914D01*
X0336746Y0415890D01*
X0336681Y0415862D01*
X0336617Y0415830D01*
X0336555Y0415795D01*
X0336495Y0415757D01*
X0336438Y0415716D01*
X0336382Y0415671D01*
X0336329Y0415624D01*
X0336279Y0415574D01*
X0336232Y0415521D01*
X0336187Y0415465D01*
X0336146Y0415408D01*
X0336108Y0415348D01*
X0336073Y0415286D01*
X0336041Y0415222D01*
X0336013Y0415157D01*
X0335989Y0415091D01*
X0335968Y0415023D01*
X0335951Y0414954D01*
X0335937Y0414884D01*
X0335928Y0414814D01*
X0335922Y0414743D01*
X0335920Y0414672D01*
X0333834Y0415328D02*
X0333834Y0415983D01*
X0331868Y0415983D01*
X0331868Y0412050D01*
X0328901Y0413361D02*
X0328901Y0414672D01*
X0328899Y0414743D01*
X0328893Y0414814D01*
X0328884Y0414884D01*
X0328870Y0414954D01*
X0328853Y0415023D01*
X0328832Y0415091D01*
X0328808Y0415157D01*
X0328780Y0415222D01*
X0328748Y0415286D01*
X0328713Y0415348D01*
X0328675Y0415408D01*
X0328634Y0415465D01*
X0328589Y0415521D01*
X0328542Y0415574D01*
X0328492Y0415624D01*
X0328439Y0415671D01*
X0328383Y0415716D01*
X0328326Y0415757D01*
X0328266Y0415795D01*
X0328204Y0415830D01*
X0328140Y0415862D01*
X0328075Y0415890D01*
X0328009Y0415914D01*
X0327941Y0415935D01*
X0327872Y0415952D01*
X0327802Y0415966D01*
X0327732Y0415975D01*
X0327661Y0415981D01*
X0327590Y0415983D01*
X0327519Y0415981D01*
X0327448Y0415975D01*
X0327378Y0415966D01*
X0327308Y0415952D01*
X0327239Y0415935D01*
X0327171Y0415914D01*
X0327105Y0415890D01*
X0327040Y0415862D01*
X0326976Y0415830D01*
X0326914Y0415795D01*
X0326854Y0415757D01*
X0326797Y0415716D01*
X0326741Y0415671D01*
X0326688Y0415624D01*
X0326638Y0415574D01*
X0326591Y0415521D01*
X0326546Y0415465D01*
X0326505Y0415408D01*
X0326467Y0415348D01*
X0326432Y0415286D01*
X0326400Y0415222D01*
X0326372Y0415157D01*
X0326348Y0415091D01*
X0326327Y0415023D01*
X0326310Y0414954D01*
X0326296Y0414884D01*
X0326287Y0414814D01*
X0326281Y0414743D01*
X0326279Y0414672D01*
X0326279Y0413361D01*
X0326281Y0413290D01*
X0326287Y0413219D01*
X0326296Y0413149D01*
X0326310Y0413079D01*
X0326327Y0413010D01*
X0326348Y0412942D01*
X0326372Y0412876D01*
X0326400Y0412811D01*
X0326432Y0412747D01*
X0326467Y0412685D01*
X0326505Y0412625D01*
X0326546Y0412568D01*
X0326591Y0412512D01*
X0326638Y0412459D01*
X0326688Y0412409D01*
X0326741Y0412362D01*
X0326797Y0412317D01*
X0326854Y0412276D01*
X0326914Y0412238D01*
X0326976Y0412203D01*
X0327040Y0412171D01*
X0327105Y0412143D01*
X0327171Y0412119D01*
X0327239Y0412098D01*
X0327308Y0412081D01*
X0327378Y0412067D01*
X0327448Y0412058D01*
X0327519Y0412052D01*
X0327590Y0412050D01*
X0327661Y0412052D01*
X0327732Y0412058D01*
X0327802Y0412067D01*
X0327872Y0412081D01*
X0327941Y0412098D01*
X0328009Y0412119D01*
X0328075Y0412143D01*
X0328140Y0412171D01*
X0328204Y0412203D01*
X0328266Y0412238D01*
X0328326Y0412276D01*
X0328383Y0412317D01*
X0328439Y0412362D01*
X0328492Y0412409D01*
X0328542Y0412459D01*
X0328589Y0412512D01*
X0328634Y0412568D01*
X0328675Y0412625D01*
X0328713Y0412685D01*
X0328748Y0412747D01*
X0328780Y0412811D01*
X0328808Y0412876D01*
X0328832Y0412942D01*
X0328853Y0413010D01*
X0328870Y0413079D01*
X0328884Y0413149D01*
X0328893Y0413219D01*
X0328899Y0413290D01*
X0328901Y0413361D01*
X0323866Y0412050D02*
X0322554Y0412050D01*
X0322492Y0412052D01*
X0322431Y0412058D01*
X0322370Y0412067D01*
X0322310Y0412081D01*
X0322250Y0412098D01*
X0322192Y0412119D01*
X0322135Y0412144D01*
X0322080Y0412172D01*
X0322027Y0412203D01*
X0321976Y0412238D01*
X0321927Y0412276D01*
X0321881Y0412316D01*
X0321837Y0412360D01*
X0321797Y0412406D01*
X0321759Y0412455D01*
X0321724Y0412506D01*
X0321693Y0412559D01*
X0321665Y0412614D01*
X0321640Y0412671D01*
X0321619Y0412729D01*
X0321602Y0412789D01*
X0321588Y0412849D01*
X0321579Y0412910D01*
X0321573Y0412971D01*
X0321571Y0413033D01*
X0321571Y0415000D01*
X0321573Y0415062D01*
X0321579Y0415123D01*
X0321588Y0415184D01*
X0321602Y0415244D01*
X0321619Y0415304D01*
X0321640Y0415362D01*
X0321665Y0415419D01*
X0321693Y0415474D01*
X0321724Y0415527D01*
X0321759Y0415578D01*
X0321797Y0415627D01*
X0321837Y0415673D01*
X0321881Y0415717D01*
X0321927Y0415757D01*
X0321976Y0415795D01*
X0322027Y0415830D01*
X0322080Y0415861D01*
X0322135Y0415889D01*
X0322192Y0415914D01*
X0322250Y0415935D01*
X0322310Y0415952D01*
X0322370Y0415966D01*
X0322431Y0415975D01*
X0322492Y0415981D01*
X0322554Y0415983D01*
X0323866Y0415983D01*
X0318358Y0413689D02*
X0316719Y0414344D01*
X0316719Y0414345D02*
X0316667Y0414368D01*
X0316616Y0414395D01*
X0316567Y0414425D01*
X0316520Y0414458D01*
X0316475Y0414494D01*
X0316433Y0414534D01*
X0316394Y0414576D01*
X0316358Y0414620D01*
X0316325Y0414667D01*
X0316295Y0414717D01*
X0316268Y0414768D01*
X0316245Y0414820D01*
X0316226Y0414874D01*
X0316210Y0414930D01*
X0316198Y0414986D01*
X0316190Y0415043D01*
X0316186Y0415100D01*
X0316185Y0415158D01*
X0316189Y0415215D01*
X0316196Y0415272D01*
X0316208Y0415329D01*
X0316223Y0415384D01*
X0316241Y0415439D01*
X0316264Y0415492D01*
X0316290Y0415543D01*
X0316319Y0415592D01*
X0316352Y0415640D01*
X0316388Y0415685D01*
X0316426Y0415727D01*
X0316468Y0415767D01*
X0316512Y0415804D01*
X0316559Y0415838D01*
X0316607Y0415869D01*
X0316658Y0415896D01*
X0316710Y0415920D01*
X0316764Y0415940D01*
X0316819Y0415956D01*
X0316875Y0415969D01*
X0316932Y0415978D01*
X0316990Y0415983D01*
X0317047Y0415984D01*
X0316227Y0412378D02*
X0316361Y0412332D01*
X0316496Y0412289D01*
X0316632Y0412250D01*
X0316769Y0412214D01*
X0316906Y0412182D01*
X0317045Y0412153D01*
X0317184Y0412127D01*
X0317324Y0412106D01*
X0317465Y0412087D01*
X0317605Y0412073D01*
X0317747Y0412062D01*
X0317888Y0412054D01*
X0318030Y0412051D01*
X0318030Y0412050D02*
X0318087Y0412051D01*
X0318145Y0412056D01*
X0318202Y0412065D01*
X0318258Y0412078D01*
X0318313Y0412094D01*
X0318367Y0412114D01*
X0318419Y0412138D01*
X0318470Y0412165D01*
X0318518Y0412196D01*
X0318565Y0412230D01*
X0318609Y0412267D01*
X0318651Y0412307D01*
X0318689Y0412349D01*
X0318725Y0412394D01*
X0318758Y0412442D01*
X0318787Y0412491D01*
X0318813Y0412542D01*
X0318836Y0412595D01*
X0318854Y0412650D01*
X0318869Y0412705D01*
X0318881Y0412762D01*
X0318888Y0412819D01*
X0318892Y0412876D01*
X0318891Y0412934D01*
X0318887Y0412991D01*
X0318879Y0413048D01*
X0318867Y0413104D01*
X0318851Y0413160D01*
X0318832Y0413214D01*
X0318809Y0413266D01*
X0318782Y0413317D01*
X0318752Y0413367D01*
X0318719Y0413414D01*
X0318683Y0413458D01*
X0318644Y0413500D01*
X0318602Y0413540D01*
X0318557Y0413576D01*
X0318510Y0413609D01*
X0318461Y0413639D01*
X0318410Y0413666D01*
X0318358Y0413689D01*
X0318521Y0415655D02*
X0318414Y0415701D01*
X0318305Y0415744D01*
X0318195Y0415784D01*
X0318083Y0415820D01*
X0317971Y0415852D01*
X0317857Y0415881D01*
X0317743Y0415907D01*
X0317628Y0415928D01*
X0317513Y0415947D01*
X0317396Y0415961D01*
X0317280Y0415972D01*
X0317163Y0415979D01*
X0317046Y0415983D01*
X0313351Y0414344D02*
X0309418Y0414344D01*
X0306747Y0415983D02*
X0305435Y0412050D01*
X0304124Y0415983D01*
X0236542Y0414672D02*
X0236542Y0414017D01*
X0233920Y0414017D01*
X0233920Y0414672D02*
X0233920Y0413033D01*
X0233922Y0412971D01*
X0233928Y0412910D01*
X0233937Y0412849D01*
X0233951Y0412789D01*
X0233968Y0412729D01*
X0233989Y0412671D01*
X0234014Y0412614D01*
X0234042Y0412559D01*
X0234073Y0412506D01*
X0234108Y0412455D01*
X0234146Y0412406D01*
X0234186Y0412360D01*
X0234230Y0412316D01*
X0234276Y0412276D01*
X0234325Y0412238D01*
X0234376Y0412203D01*
X0234429Y0412172D01*
X0234484Y0412144D01*
X0234541Y0412119D01*
X0234599Y0412098D01*
X0234659Y0412081D01*
X0234719Y0412067D01*
X0234780Y0412058D01*
X0234841Y0412052D01*
X0234903Y0412050D01*
X0236542Y0412050D01*
X0236542Y0414672D02*
X0236540Y0414743D01*
X0236534Y0414814D01*
X0236525Y0414884D01*
X0236511Y0414954D01*
X0236494Y0415023D01*
X0236473Y0415091D01*
X0236449Y0415157D01*
X0236421Y0415222D01*
X0236389Y0415286D01*
X0236354Y0415348D01*
X0236316Y0415408D01*
X0236275Y0415465D01*
X0236230Y0415521D01*
X0236183Y0415574D01*
X0236133Y0415624D01*
X0236080Y0415671D01*
X0236024Y0415716D01*
X0235967Y0415757D01*
X0235907Y0415795D01*
X0235845Y0415830D01*
X0235781Y0415862D01*
X0235716Y0415890D01*
X0235650Y0415914D01*
X0235582Y0415935D01*
X0235513Y0415952D01*
X0235443Y0415966D01*
X0235373Y0415975D01*
X0235302Y0415981D01*
X0235231Y0415983D01*
X0235160Y0415981D01*
X0235089Y0415975D01*
X0235019Y0415966D01*
X0234949Y0415952D01*
X0234880Y0415935D01*
X0234812Y0415914D01*
X0234746Y0415890D01*
X0234681Y0415862D01*
X0234617Y0415830D01*
X0234555Y0415795D01*
X0234495Y0415757D01*
X0234438Y0415716D01*
X0234382Y0415671D01*
X0234329Y0415624D01*
X0234279Y0415574D01*
X0234232Y0415521D01*
X0234187Y0415465D01*
X0234146Y0415408D01*
X0234108Y0415348D01*
X0234073Y0415286D01*
X0234041Y0415222D01*
X0234013Y0415157D01*
X0233989Y0415091D01*
X0233968Y0415023D01*
X0233951Y0414954D01*
X0233937Y0414884D01*
X0233928Y0414814D01*
X0233922Y0414743D01*
X0233920Y0414672D01*
X0231834Y0415328D02*
X0231834Y0415983D01*
X0229868Y0415983D01*
X0229868Y0412050D01*
X0226901Y0413361D02*
X0226901Y0414672D01*
X0226899Y0414743D01*
X0226893Y0414814D01*
X0226884Y0414884D01*
X0226870Y0414954D01*
X0226853Y0415023D01*
X0226832Y0415091D01*
X0226808Y0415157D01*
X0226780Y0415222D01*
X0226748Y0415286D01*
X0226713Y0415348D01*
X0226675Y0415408D01*
X0226634Y0415465D01*
X0226589Y0415521D01*
X0226542Y0415574D01*
X0226492Y0415624D01*
X0226439Y0415671D01*
X0226383Y0415716D01*
X0226326Y0415757D01*
X0226266Y0415795D01*
X0226204Y0415830D01*
X0226140Y0415862D01*
X0226075Y0415890D01*
X0226009Y0415914D01*
X0225941Y0415935D01*
X0225872Y0415952D01*
X0225802Y0415966D01*
X0225732Y0415975D01*
X0225661Y0415981D01*
X0225590Y0415983D01*
X0225519Y0415981D01*
X0225448Y0415975D01*
X0225378Y0415966D01*
X0225308Y0415952D01*
X0225239Y0415935D01*
X0225171Y0415914D01*
X0225105Y0415890D01*
X0225040Y0415862D01*
X0224976Y0415830D01*
X0224914Y0415795D01*
X0224854Y0415757D01*
X0224797Y0415716D01*
X0224741Y0415671D01*
X0224688Y0415624D01*
X0224638Y0415574D01*
X0224591Y0415521D01*
X0224546Y0415465D01*
X0224505Y0415408D01*
X0224467Y0415348D01*
X0224432Y0415286D01*
X0224400Y0415222D01*
X0224372Y0415157D01*
X0224348Y0415091D01*
X0224327Y0415023D01*
X0224310Y0414954D01*
X0224296Y0414884D01*
X0224287Y0414814D01*
X0224281Y0414743D01*
X0224279Y0414672D01*
X0224279Y0413361D01*
X0224281Y0413290D01*
X0224287Y0413219D01*
X0224296Y0413149D01*
X0224310Y0413079D01*
X0224327Y0413010D01*
X0224348Y0412942D01*
X0224372Y0412876D01*
X0224400Y0412811D01*
X0224432Y0412747D01*
X0224467Y0412685D01*
X0224505Y0412625D01*
X0224546Y0412568D01*
X0224591Y0412512D01*
X0224638Y0412459D01*
X0224688Y0412409D01*
X0224741Y0412362D01*
X0224797Y0412317D01*
X0224854Y0412276D01*
X0224914Y0412238D01*
X0224976Y0412203D01*
X0225040Y0412171D01*
X0225105Y0412143D01*
X0225171Y0412119D01*
X0225239Y0412098D01*
X0225308Y0412081D01*
X0225378Y0412067D01*
X0225448Y0412058D01*
X0225519Y0412052D01*
X0225590Y0412050D01*
X0225661Y0412052D01*
X0225732Y0412058D01*
X0225802Y0412067D01*
X0225872Y0412081D01*
X0225941Y0412098D01*
X0226009Y0412119D01*
X0226075Y0412143D01*
X0226140Y0412171D01*
X0226204Y0412203D01*
X0226266Y0412238D01*
X0226326Y0412276D01*
X0226383Y0412317D01*
X0226439Y0412362D01*
X0226492Y0412409D01*
X0226542Y0412459D01*
X0226589Y0412512D01*
X0226634Y0412568D01*
X0226675Y0412625D01*
X0226713Y0412685D01*
X0226748Y0412747D01*
X0226780Y0412811D01*
X0226808Y0412876D01*
X0226832Y0412942D01*
X0226853Y0413010D01*
X0226870Y0413079D01*
X0226884Y0413149D01*
X0226893Y0413219D01*
X0226899Y0413290D01*
X0226901Y0413361D01*
X0221866Y0412050D02*
X0220554Y0412050D01*
X0220492Y0412052D01*
X0220431Y0412058D01*
X0220370Y0412067D01*
X0220310Y0412081D01*
X0220250Y0412098D01*
X0220192Y0412119D01*
X0220135Y0412144D01*
X0220080Y0412172D01*
X0220027Y0412203D01*
X0219976Y0412238D01*
X0219927Y0412276D01*
X0219881Y0412316D01*
X0219837Y0412360D01*
X0219797Y0412406D01*
X0219759Y0412455D01*
X0219724Y0412506D01*
X0219693Y0412559D01*
X0219665Y0412614D01*
X0219640Y0412671D01*
X0219619Y0412729D01*
X0219602Y0412789D01*
X0219588Y0412849D01*
X0219579Y0412910D01*
X0219573Y0412971D01*
X0219571Y0413033D01*
X0219571Y0415000D01*
X0219573Y0415062D01*
X0219579Y0415123D01*
X0219588Y0415184D01*
X0219602Y0415244D01*
X0219619Y0415304D01*
X0219640Y0415362D01*
X0219665Y0415419D01*
X0219693Y0415474D01*
X0219724Y0415527D01*
X0219759Y0415578D01*
X0219797Y0415627D01*
X0219837Y0415673D01*
X0219881Y0415717D01*
X0219927Y0415757D01*
X0219976Y0415795D01*
X0220027Y0415830D01*
X0220080Y0415861D01*
X0220135Y0415889D01*
X0220192Y0415914D01*
X0220250Y0415935D01*
X0220310Y0415952D01*
X0220370Y0415966D01*
X0220431Y0415975D01*
X0220492Y0415981D01*
X0220554Y0415983D01*
X0221866Y0415983D01*
X0216358Y0413689D02*
X0214719Y0414344D01*
X0214719Y0414345D02*
X0214667Y0414368D01*
X0214616Y0414395D01*
X0214567Y0414425D01*
X0214520Y0414458D01*
X0214475Y0414494D01*
X0214433Y0414534D01*
X0214394Y0414576D01*
X0214358Y0414620D01*
X0214325Y0414667D01*
X0214295Y0414717D01*
X0214268Y0414768D01*
X0214245Y0414820D01*
X0214226Y0414874D01*
X0214210Y0414930D01*
X0214198Y0414986D01*
X0214190Y0415043D01*
X0214186Y0415100D01*
X0214185Y0415158D01*
X0214189Y0415215D01*
X0214196Y0415272D01*
X0214208Y0415329D01*
X0214223Y0415384D01*
X0214241Y0415439D01*
X0214264Y0415492D01*
X0214290Y0415543D01*
X0214319Y0415592D01*
X0214352Y0415640D01*
X0214388Y0415685D01*
X0214426Y0415727D01*
X0214468Y0415767D01*
X0214512Y0415804D01*
X0214559Y0415838D01*
X0214607Y0415869D01*
X0214658Y0415896D01*
X0214710Y0415920D01*
X0214764Y0415940D01*
X0214819Y0415956D01*
X0214875Y0415969D01*
X0214932Y0415978D01*
X0214990Y0415983D01*
X0215047Y0415984D01*
X0214227Y0412378D02*
X0214361Y0412332D01*
X0214496Y0412289D01*
X0214632Y0412250D01*
X0214769Y0412214D01*
X0214906Y0412182D01*
X0215045Y0412153D01*
X0215184Y0412127D01*
X0215324Y0412106D01*
X0215465Y0412087D01*
X0215605Y0412073D01*
X0215747Y0412062D01*
X0215888Y0412054D01*
X0216030Y0412051D01*
X0216030Y0412050D02*
X0216087Y0412051D01*
X0216145Y0412056D01*
X0216202Y0412065D01*
X0216258Y0412078D01*
X0216313Y0412094D01*
X0216367Y0412114D01*
X0216419Y0412138D01*
X0216470Y0412165D01*
X0216518Y0412196D01*
X0216565Y0412230D01*
X0216609Y0412267D01*
X0216651Y0412307D01*
X0216689Y0412349D01*
X0216725Y0412394D01*
X0216758Y0412442D01*
X0216787Y0412491D01*
X0216813Y0412542D01*
X0216836Y0412595D01*
X0216854Y0412650D01*
X0216869Y0412705D01*
X0216881Y0412762D01*
X0216888Y0412819D01*
X0216892Y0412876D01*
X0216891Y0412934D01*
X0216887Y0412991D01*
X0216879Y0413048D01*
X0216867Y0413104D01*
X0216851Y0413160D01*
X0216832Y0413214D01*
X0216809Y0413266D01*
X0216782Y0413317D01*
X0216752Y0413367D01*
X0216719Y0413414D01*
X0216683Y0413458D01*
X0216644Y0413500D01*
X0216602Y0413540D01*
X0216557Y0413576D01*
X0216510Y0413609D01*
X0216461Y0413639D01*
X0216410Y0413666D01*
X0216358Y0413689D01*
X0216521Y0415655D02*
X0216414Y0415701D01*
X0216305Y0415744D01*
X0216195Y0415784D01*
X0216083Y0415820D01*
X0215971Y0415852D01*
X0215857Y0415881D01*
X0215743Y0415907D01*
X0215628Y0415928D01*
X0215513Y0415947D01*
X0215396Y0415961D01*
X0215280Y0415972D01*
X0215163Y0415979D01*
X0215046Y0415983D01*
X0211351Y0414344D02*
X0207418Y0414344D01*
X0204747Y0415983D02*
X0203435Y0412050D01*
X0202124Y0415983D01*
X0134542Y0414672D02*
X0134542Y0414017D01*
X0131920Y0414017D01*
X0131920Y0414672D02*
X0131920Y0413033D01*
X0131922Y0412971D01*
X0131928Y0412910D01*
X0131937Y0412849D01*
X0131951Y0412789D01*
X0131968Y0412729D01*
X0131989Y0412671D01*
X0132014Y0412614D01*
X0132042Y0412559D01*
X0132073Y0412506D01*
X0132108Y0412455D01*
X0132146Y0412406D01*
X0132186Y0412360D01*
X0132230Y0412316D01*
X0132276Y0412276D01*
X0132325Y0412238D01*
X0132376Y0412203D01*
X0132429Y0412172D01*
X0132484Y0412144D01*
X0132541Y0412119D01*
X0132599Y0412098D01*
X0132659Y0412081D01*
X0132719Y0412067D01*
X0132780Y0412058D01*
X0132841Y0412052D01*
X0132903Y0412050D01*
X0134542Y0412050D01*
X0134542Y0414672D02*
X0134540Y0414743D01*
X0134534Y0414814D01*
X0134525Y0414884D01*
X0134511Y0414954D01*
X0134494Y0415023D01*
X0134473Y0415091D01*
X0134449Y0415157D01*
X0134421Y0415222D01*
X0134389Y0415286D01*
X0134354Y0415348D01*
X0134316Y0415408D01*
X0134275Y0415465D01*
X0134230Y0415521D01*
X0134183Y0415574D01*
X0134133Y0415624D01*
X0134080Y0415671D01*
X0134024Y0415716D01*
X0133967Y0415757D01*
X0133907Y0415795D01*
X0133845Y0415830D01*
X0133781Y0415862D01*
X0133716Y0415890D01*
X0133650Y0415914D01*
X0133582Y0415935D01*
X0133513Y0415952D01*
X0133443Y0415966D01*
X0133373Y0415975D01*
X0133302Y0415981D01*
X0133231Y0415983D01*
X0133160Y0415981D01*
X0133089Y0415975D01*
X0133019Y0415966D01*
X0132949Y0415952D01*
X0132880Y0415935D01*
X0132812Y0415914D01*
X0132746Y0415890D01*
X0132681Y0415862D01*
X0132617Y0415830D01*
X0132555Y0415795D01*
X0132495Y0415757D01*
X0132438Y0415716D01*
X0132382Y0415671D01*
X0132329Y0415624D01*
X0132279Y0415574D01*
X0132232Y0415521D01*
X0132187Y0415465D01*
X0132146Y0415408D01*
X0132108Y0415348D01*
X0132073Y0415286D01*
X0132041Y0415222D01*
X0132013Y0415157D01*
X0131989Y0415091D01*
X0131968Y0415023D01*
X0131951Y0414954D01*
X0131937Y0414884D01*
X0131928Y0414814D01*
X0131922Y0414743D01*
X0131920Y0414672D01*
X0129834Y0415328D02*
X0129834Y0415983D01*
X0127868Y0415983D01*
X0127868Y0412050D01*
X0124901Y0413361D02*
X0124901Y0414672D01*
X0124899Y0414743D01*
X0124893Y0414814D01*
X0124884Y0414884D01*
X0124870Y0414954D01*
X0124853Y0415023D01*
X0124832Y0415091D01*
X0124808Y0415157D01*
X0124780Y0415222D01*
X0124748Y0415286D01*
X0124713Y0415348D01*
X0124675Y0415408D01*
X0124634Y0415465D01*
X0124589Y0415521D01*
X0124542Y0415574D01*
X0124492Y0415624D01*
X0124439Y0415671D01*
X0124383Y0415716D01*
X0124326Y0415757D01*
X0124266Y0415795D01*
X0124204Y0415830D01*
X0124140Y0415862D01*
X0124075Y0415890D01*
X0124009Y0415914D01*
X0123941Y0415935D01*
X0123872Y0415952D01*
X0123802Y0415966D01*
X0123732Y0415975D01*
X0123661Y0415981D01*
X0123590Y0415983D01*
X0123519Y0415981D01*
X0123448Y0415975D01*
X0123378Y0415966D01*
X0123308Y0415952D01*
X0123239Y0415935D01*
X0123171Y0415914D01*
X0123105Y0415890D01*
X0123040Y0415862D01*
X0122976Y0415830D01*
X0122914Y0415795D01*
X0122854Y0415757D01*
X0122797Y0415716D01*
X0122741Y0415671D01*
X0122688Y0415624D01*
X0122638Y0415574D01*
X0122591Y0415521D01*
X0122546Y0415465D01*
X0122505Y0415408D01*
X0122467Y0415348D01*
X0122432Y0415286D01*
X0122400Y0415222D01*
X0122372Y0415157D01*
X0122348Y0415091D01*
X0122327Y0415023D01*
X0122310Y0414954D01*
X0122296Y0414884D01*
X0122287Y0414814D01*
X0122281Y0414743D01*
X0122279Y0414672D01*
X0122279Y0413361D01*
X0122281Y0413290D01*
X0122287Y0413219D01*
X0122296Y0413149D01*
X0122310Y0413079D01*
X0122327Y0413010D01*
X0122348Y0412942D01*
X0122372Y0412876D01*
X0122400Y0412811D01*
X0122432Y0412747D01*
X0122467Y0412685D01*
X0122505Y0412625D01*
X0122546Y0412568D01*
X0122591Y0412512D01*
X0122638Y0412459D01*
X0122688Y0412409D01*
X0122741Y0412362D01*
X0122797Y0412317D01*
X0122854Y0412276D01*
X0122914Y0412238D01*
X0122976Y0412203D01*
X0123040Y0412171D01*
X0123105Y0412143D01*
X0123171Y0412119D01*
X0123239Y0412098D01*
X0123308Y0412081D01*
X0123378Y0412067D01*
X0123448Y0412058D01*
X0123519Y0412052D01*
X0123590Y0412050D01*
X0123661Y0412052D01*
X0123732Y0412058D01*
X0123802Y0412067D01*
X0123872Y0412081D01*
X0123941Y0412098D01*
X0124009Y0412119D01*
X0124075Y0412143D01*
X0124140Y0412171D01*
X0124204Y0412203D01*
X0124266Y0412238D01*
X0124326Y0412276D01*
X0124383Y0412317D01*
X0124439Y0412362D01*
X0124492Y0412409D01*
X0124542Y0412459D01*
X0124589Y0412512D01*
X0124634Y0412568D01*
X0124675Y0412625D01*
X0124713Y0412685D01*
X0124748Y0412747D01*
X0124780Y0412811D01*
X0124808Y0412876D01*
X0124832Y0412942D01*
X0124853Y0413010D01*
X0124870Y0413079D01*
X0124884Y0413149D01*
X0124893Y0413219D01*
X0124899Y0413290D01*
X0124901Y0413361D01*
X0119866Y0412050D02*
X0118554Y0412050D01*
X0118492Y0412052D01*
X0118431Y0412058D01*
X0118370Y0412067D01*
X0118310Y0412081D01*
X0118250Y0412098D01*
X0118192Y0412119D01*
X0118135Y0412144D01*
X0118080Y0412172D01*
X0118027Y0412203D01*
X0117976Y0412238D01*
X0117927Y0412276D01*
X0117881Y0412316D01*
X0117837Y0412360D01*
X0117797Y0412406D01*
X0117759Y0412455D01*
X0117724Y0412506D01*
X0117693Y0412559D01*
X0117665Y0412614D01*
X0117640Y0412671D01*
X0117619Y0412729D01*
X0117602Y0412789D01*
X0117588Y0412849D01*
X0117579Y0412910D01*
X0117573Y0412971D01*
X0117571Y0413033D01*
X0117571Y0415000D01*
X0117573Y0415062D01*
X0117579Y0415123D01*
X0117588Y0415184D01*
X0117602Y0415244D01*
X0117619Y0415304D01*
X0117640Y0415362D01*
X0117665Y0415419D01*
X0117693Y0415474D01*
X0117724Y0415527D01*
X0117759Y0415578D01*
X0117797Y0415627D01*
X0117837Y0415673D01*
X0117881Y0415717D01*
X0117927Y0415757D01*
X0117976Y0415795D01*
X0118027Y0415830D01*
X0118080Y0415861D01*
X0118135Y0415889D01*
X0118192Y0415914D01*
X0118250Y0415935D01*
X0118310Y0415952D01*
X0118370Y0415966D01*
X0118431Y0415975D01*
X0118492Y0415981D01*
X0118554Y0415983D01*
X0119866Y0415983D01*
X0114358Y0413689D02*
X0112719Y0414344D01*
X0112719Y0414345D02*
X0112667Y0414368D01*
X0112616Y0414395D01*
X0112567Y0414425D01*
X0112520Y0414458D01*
X0112475Y0414494D01*
X0112433Y0414534D01*
X0112394Y0414576D01*
X0112358Y0414620D01*
X0112325Y0414667D01*
X0112295Y0414717D01*
X0112268Y0414768D01*
X0112245Y0414820D01*
X0112226Y0414874D01*
X0112210Y0414930D01*
X0112198Y0414986D01*
X0112190Y0415043D01*
X0112186Y0415100D01*
X0112185Y0415158D01*
X0112189Y0415215D01*
X0112196Y0415272D01*
X0112208Y0415329D01*
X0112223Y0415384D01*
X0112241Y0415439D01*
X0112264Y0415492D01*
X0112290Y0415543D01*
X0112319Y0415592D01*
X0112352Y0415640D01*
X0112388Y0415685D01*
X0112426Y0415727D01*
X0112468Y0415767D01*
X0112512Y0415804D01*
X0112559Y0415838D01*
X0112607Y0415869D01*
X0112658Y0415896D01*
X0112710Y0415920D01*
X0112764Y0415940D01*
X0112819Y0415956D01*
X0112875Y0415969D01*
X0112932Y0415978D01*
X0112990Y0415983D01*
X0113047Y0415984D01*
X0112227Y0412378D02*
X0112361Y0412332D01*
X0112496Y0412289D01*
X0112632Y0412250D01*
X0112769Y0412214D01*
X0112906Y0412182D01*
X0113045Y0412153D01*
X0113184Y0412127D01*
X0113324Y0412106D01*
X0113465Y0412087D01*
X0113605Y0412073D01*
X0113747Y0412062D01*
X0113888Y0412054D01*
X0114030Y0412051D01*
X0114030Y0412050D02*
X0114087Y0412051D01*
X0114145Y0412056D01*
X0114202Y0412065D01*
X0114258Y0412078D01*
X0114313Y0412094D01*
X0114367Y0412114D01*
X0114419Y0412138D01*
X0114470Y0412165D01*
X0114518Y0412196D01*
X0114565Y0412230D01*
X0114609Y0412267D01*
X0114651Y0412307D01*
X0114689Y0412349D01*
X0114725Y0412394D01*
X0114758Y0412442D01*
X0114787Y0412491D01*
X0114813Y0412542D01*
X0114836Y0412595D01*
X0114854Y0412650D01*
X0114869Y0412705D01*
X0114881Y0412762D01*
X0114888Y0412819D01*
X0114892Y0412876D01*
X0114891Y0412934D01*
X0114887Y0412991D01*
X0114879Y0413048D01*
X0114867Y0413104D01*
X0114851Y0413160D01*
X0114832Y0413214D01*
X0114809Y0413266D01*
X0114782Y0413317D01*
X0114752Y0413367D01*
X0114719Y0413414D01*
X0114683Y0413458D01*
X0114644Y0413500D01*
X0114602Y0413540D01*
X0114557Y0413576D01*
X0114510Y0413609D01*
X0114461Y0413639D01*
X0114410Y0413666D01*
X0114358Y0413689D01*
X0114521Y0415655D02*
X0114414Y0415701D01*
X0114305Y0415744D01*
X0114195Y0415784D01*
X0114083Y0415820D01*
X0113971Y0415852D01*
X0113857Y0415881D01*
X0113743Y0415907D01*
X0113628Y0415928D01*
X0113513Y0415947D01*
X0113396Y0415961D01*
X0113280Y0415972D01*
X0113163Y0415979D01*
X0113046Y0415983D01*
X0109351Y0414344D02*
X0105418Y0414344D01*
X0102747Y0415983D02*
X0101435Y0412050D01*
X0100124Y0415983D01*
D13*
X0091333Y0048000D02*
X0091333Y0023000D01*
X0449333Y0023000D01*
X0449333Y0048000D01*
X0091333Y0048000D01*
X0091333Y0050000D02*
X0091333Y0354000D01*
X0116333Y0354000D01*
X0116333Y0050000D01*
X0091333Y0050000D01*
X0424333Y0050000D02*
X0424333Y0354000D01*
X0449333Y0354000D01*
X0449333Y0050000D01*
X0424333Y0050000D01*
X0449333Y0356000D02*
X0091333Y0356000D01*
X0091333Y0381000D01*
X0449333Y0381000D01*
X0449333Y0356000D01*
D14*
X0405833Y0344000D02*
X0405835Y0344161D01*
X0405841Y0344321D01*
X0405851Y0344482D01*
X0405865Y0344642D01*
X0405883Y0344802D01*
X0405904Y0344961D01*
X0405930Y0345120D01*
X0405960Y0345278D01*
X0405993Y0345435D01*
X0406031Y0345592D01*
X0406072Y0345747D01*
X0406117Y0345901D01*
X0406166Y0346054D01*
X0406219Y0346206D01*
X0406275Y0346357D01*
X0406336Y0346506D01*
X0406399Y0346654D01*
X0406467Y0346800D01*
X0406538Y0346944D01*
X0406612Y0347086D01*
X0406690Y0347227D01*
X0406772Y0347365D01*
X0406857Y0347502D01*
X0406945Y0347636D01*
X0407037Y0347768D01*
X0407132Y0347898D01*
X0407230Y0348026D01*
X0407331Y0348151D01*
X0407435Y0348273D01*
X0407542Y0348393D01*
X0407652Y0348510D01*
X0407765Y0348625D01*
X0407881Y0348736D01*
X0408000Y0348845D01*
X0408121Y0348950D01*
X0408245Y0349053D01*
X0408371Y0349153D01*
X0408499Y0349249D01*
X0408630Y0349342D01*
X0408764Y0349432D01*
X0408899Y0349519D01*
X0409037Y0349602D01*
X0409176Y0349682D01*
X0409318Y0349758D01*
X0409461Y0349831D01*
X0409606Y0349900D01*
X0409753Y0349966D01*
X0409901Y0350028D01*
X0410051Y0350086D01*
X0410202Y0350141D01*
X0410355Y0350192D01*
X0410509Y0350239D01*
X0410664Y0350282D01*
X0410820Y0350321D01*
X0410976Y0350357D01*
X0411134Y0350388D01*
X0411292Y0350416D01*
X0411451Y0350440D01*
X0411611Y0350460D01*
X0411771Y0350476D01*
X0411931Y0350488D01*
X0412092Y0350496D01*
X0412253Y0350500D01*
X0412413Y0350500D01*
X0412574Y0350496D01*
X0412735Y0350488D01*
X0412895Y0350476D01*
X0413055Y0350460D01*
X0413215Y0350440D01*
X0413374Y0350416D01*
X0413532Y0350388D01*
X0413690Y0350357D01*
X0413846Y0350321D01*
X0414002Y0350282D01*
X0414157Y0350239D01*
X0414311Y0350192D01*
X0414464Y0350141D01*
X0414615Y0350086D01*
X0414765Y0350028D01*
X0414913Y0349966D01*
X0415060Y0349900D01*
X0415205Y0349831D01*
X0415348Y0349758D01*
X0415490Y0349682D01*
X0415629Y0349602D01*
X0415767Y0349519D01*
X0415902Y0349432D01*
X0416036Y0349342D01*
X0416167Y0349249D01*
X0416295Y0349153D01*
X0416421Y0349053D01*
X0416545Y0348950D01*
X0416666Y0348845D01*
X0416785Y0348736D01*
X0416901Y0348625D01*
X0417014Y0348510D01*
X0417124Y0348393D01*
X0417231Y0348273D01*
X0417335Y0348151D01*
X0417436Y0348026D01*
X0417534Y0347898D01*
X0417629Y0347768D01*
X0417721Y0347636D01*
X0417809Y0347502D01*
X0417894Y0347365D01*
X0417976Y0347227D01*
X0418054Y0347086D01*
X0418128Y0346944D01*
X0418199Y0346800D01*
X0418267Y0346654D01*
X0418330Y0346506D01*
X0418391Y0346357D01*
X0418447Y0346206D01*
X0418500Y0346054D01*
X0418549Y0345901D01*
X0418594Y0345747D01*
X0418635Y0345592D01*
X0418673Y0345435D01*
X0418706Y0345278D01*
X0418736Y0345120D01*
X0418762Y0344961D01*
X0418783Y0344802D01*
X0418801Y0344642D01*
X0418815Y0344482D01*
X0418825Y0344321D01*
X0418831Y0344161D01*
X0418833Y0344000D01*
X0418831Y0343839D01*
X0418825Y0343679D01*
X0418815Y0343518D01*
X0418801Y0343358D01*
X0418783Y0343198D01*
X0418762Y0343039D01*
X0418736Y0342880D01*
X0418706Y0342722D01*
X0418673Y0342565D01*
X0418635Y0342408D01*
X0418594Y0342253D01*
X0418549Y0342099D01*
X0418500Y0341946D01*
X0418447Y0341794D01*
X0418391Y0341643D01*
X0418330Y0341494D01*
X0418267Y0341346D01*
X0418199Y0341200D01*
X0418128Y0341056D01*
X0418054Y0340914D01*
X0417976Y0340773D01*
X0417894Y0340635D01*
X0417809Y0340498D01*
X0417721Y0340364D01*
X0417629Y0340232D01*
X0417534Y0340102D01*
X0417436Y0339974D01*
X0417335Y0339849D01*
X0417231Y0339727D01*
X0417124Y0339607D01*
X0417014Y0339490D01*
X0416901Y0339375D01*
X0416785Y0339264D01*
X0416666Y0339155D01*
X0416545Y0339050D01*
X0416421Y0338947D01*
X0416295Y0338847D01*
X0416167Y0338751D01*
X0416036Y0338658D01*
X0415902Y0338568D01*
X0415767Y0338481D01*
X0415629Y0338398D01*
X0415490Y0338318D01*
X0415348Y0338242D01*
X0415205Y0338169D01*
X0415060Y0338100D01*
X0414913Y0338034D01*
X0414765Y0337972D01*
X0414615Y0337914D01*
X0414464Y0337859D01*
X0414311Y0337808D01*
X0414157Y0337761D01*
X0414002Y0337718D01*
X0413846Y0337679D01*
X0413690Y0337643D01*
X0413532Y0337612D01*
X0413374Y0337584D01*
X0413215Y0337560D01*
X0413055Y0337540D01*
X0412895Y0337524D01*
X0412735Y0337512D01*
X0412574Y0337504D01*
X0412413Y0337500D01*
X0412253Y0337500D01*
X0412092Y0337504D01*
X0411931Y0337512D01*
X0411771Y0337524D01*
X0411611Y0337540D01*
X0411451Y0337560D01*
X0411292Y0337584D01*
X0411134Y0337612D01*
X0410976Y0337643D01*
X0410820Y0337679D01*
X0410664Y0337718D01*
X0410509Y0337761D01*
X0410355Y0337808D01*
X0410202Y0337859D01*
X0410051Y0337914D01*
X0409901Y0337972D01*
X0409753Y0338034D01*
X0409606Y0338100D01*
X0409461Y0338169D01*
X0409318Y0338242D01*
X0409176Y0338318D01*
X0409037Y0338398D01*
X0408899Y0338481D01*
X0408764Y0338568D01*
X0408630Y0338658D01*
X0408499Y0338751D01*
X0408371Y0338847D01*
X0408245Y0338947D01*
X0408121Y0339050D01*
X0408000Y0339155D01*
X0407881Y0339264D01*
X0407765Y0339375D01*
X0407652Y0339490D01*
X0407542Y0339607D01*
X0407435Y0339727D01*
X0407331Y0339849D01*
X0407230Y0339974D01*
X0407132Y0340102D01*
X0407037Y0340232D01*
X0406945Y0340364D01*
X0406857Y0340498D01*
X0406772Y0340635D01*
X0406690Y0340773D01*
X0406612Y0340914D01*
X0406538Y0341056D01*
X0406467Y0341200D01*
X0406399Y0341346D01*
X0406336Y0341494D01*
X0406275Y0341643D01*
X0406219Y0341794D01*
X0406166Y0341946D01*
X0406117Y0342099D01*
X0406072Y0342253D01*
X0406031Y0342408D01*
X0405993Y0342565D01*
X0405960Y0342722D01*
X0405930Y0342880D01*
X0405904Y0343039D01*
X0405883Y0343198D01*
X0405865Y0343358D01*
X0405851Y0343518D01*
X0405841Y0343679D01*
X0405835Y0343839D01*
X0405833Y0344000D01*
X0325833Y0344000D02*
X0325835Y0344161D01*
X0325841Y0344321D01*
X0325851Y0344482D01*
X0325865Y0344642D01*
X0325883Y0344802D01*
X0325904Y0344961D01*
X0325930Y0345120D01*
X0325960Y0345278D01*
X0325993Y0345435D01*
X0326031Y0345592D01*
X0326072Y0345747D01*
X0326117Y0345901D01*
X0326166Y0346054D01*
X0326219Y0346206D01*
X0326275Y0346357D01*
X0326336Y0346506D01*
X0326399Y0346654D01*
X0326467Y0346800D01*
X0326538Y0346944D01*
X0326612Y0347086D01*
X0326690Y0347227D01*
X0326772Y0347365D01*
X0326857Y0347502D01*
X0326945Y0347636D01*
X0327037Y0347768D01*
X0327132Y0347898D01*
X0327230Y0348026D01*
X0327331Y0348151D01*
X0327435Y0348273D01*
X0327542Y0348393D01*
X0327652Y0348510D01*
X0327765Y0348625D01*
X0327881Y0348736D01*
X0328000Y0348845D01*
X0328121Y0348950D01*
X0328245Y0349053D01*
X0328371Y0349153D01*
X0328499Y0349249D01*
X0328630Y0349342D01*
X0328764Y0349432D01*
X0328899Y0349519D01*
X0329037Y0349602D01*
X0329176Y0349682D01*
X0329318Y0349758D01*
X0329461Y0349831D01*
X0329606Y0349900D01*
X0329753Y0349966D01*
X0329901Y0350028D01*
X0330051Y0350086D01*
X0330202Y0350141D01*
X0330355Y0350192D01*
X0330509Y0350239D01*
X0330664Y0350282D01*
X0330820Y0350321D01*
X0330976Y0350357D01*
X0331134Y0350388D01*
X0331292Y0350416D01*
X0331451Y0350440D01*
X0331611Y0350460D01*
X0331771Y0350476D01*
X0331931Y0350488D01*
X0332092Y0350496D01*
X0332253Y0350500D01*
X0332413Y0350500D01*
X0332574Y0350496D01*
X0332735Y0350488D01*
X0332895Y0350476D01*
X0333055Y0350460D01*
X0333215Y0350440D01*
X0333374Y0350416D01*
X0333532Y0350388D01*
X0333690Y0350357D01*
X0333846Y0350321D01*
X0334002Y0350282D01*
X0334157Y0350239D01*
X0334311Y0350192D01*
X0334464Y0350141D01*
X0334615Y0350086D01*
X0334765Y0350028D01*
X0334913Y0349966D01*
X0335060Y0349900D01*
X0335205Y0349831D01*
X0335348Y0349758D01*
X0335490Y0349682D01*
X0335629Y0349602D01*
X0335767Y0349519D01*
X0335902Y0349432D01*
X0336036Y0349342D01*
X0336167Y0349249D01*
X0336295Y0349153D01*
X0336421Y0349053D01*
X0336545Y0348950D01*
X0336666Y0348845D01*
X0336785Y0348736D01*
X0336901Y0348625D01*
X0337014Y0348510D01*
X0337124Y0348393D01*
X0337231Y0348273D01*
X0337335Y0348151D01*
X0337436Y0348026D01*
X0337534Y0347898D01*
X0337629Y0347768D01*
X0337721Y0347636D01*
X0337809Y0347502D01*
X0337894Y0347365D01*
X0337976Y0347227D01*
X0338054Y0347086D01*
X0338128Y0346944D01*
X0338199Y0346800D01*
X0338267Y0346654D01*
X0338330Y0346506D01*
X0338391Y0346357D01*
X0338447Y0346206D01*
X0338500Y0346054D01*
X0338549Y0345901D01*
X0338594Y0345747D01*
X0338635Y0345592D01*
X0338673Y0345435D01*
X0338706Y0345278D01*
X0338736Y0345120D01*
X0338762Y0344961D01*
X0338783Y0344802D01*
X0338801Y0344642D01*
X0338815Y0344482D01*
X0338825Y0344321D01*
X0338831Y0344161D01*
X0338833Y0344000D01*
X0338831Y0343839D01*
X0338825Y0343679D01*
X0338815Y0343518D01*
X0338801Y0343358D01*
X0338783Y0343198D01*
X0338762Y0343039D01*
X0338736Y0342880D01*
X0338706Y0342722D01*
X0338673Y0342565D01*
X0338635Y0342408D01*
X0338594Y0342253D01*
X0338549Y0342099D01*
X0338500Y0341946D01*
X0338447Y0341794D01*
X0338391Y0341643D01*
X0338330Y0341494D01*
X0338267Y0341346D01*
X0338199Y0341200D01*
X0338128Y0341056D01*
X0338054Y0340914D01*
X0337976Y0340773D01*
X0337894Y0340635D01*
X0337809Y0340498D01*
X0337721Y0340364D01*
X0337629Y0340232D01*
X0337534Y0340102D01*
X0337436Y0339974D01*
X0337335Y0339849D01*
X0337231Y0339727D01*
X0337124Y0339607D01*
X0337014Y0339490D01*
X0336901Y0339375D01*
X0336785Y0339264D01*
X0336666Y0339155D01*
X0336545Y0339050D01*
X0336421Y0338947D01*
X0336295Y0338847D01*
X0336167Y0338751D01*
X0336036Y0338658D01*
X0335902Y0338568D01*
X0335767Y0338481D01*
X0335629Y0338398D01*
X0335490Y0338318D01*
X0335348Y0338242D01*
X0335205Y0338169D01*
X0335060Y0338100D01*
X0334913Y0338034D01*
X0334765Y0337972D01*
X0334615Y0337914D01*
X0334464Y0337859D01*
X0334311Y0337808D01*
X0334157Y0337761D01*
X0334002Y0337718D01*
X0333846Y0337679D01*
X0333690Y0337643D01*
X0333532Y0337612D01*
X0333374Y0337584D01*
X0333215Y0337560D01*
X0333055Y0337540D01*
X0332895Y0337524D01*
X0332735Y0337512D01*
X0332574Y0337504D01*
X0332413Y0337500D01*
X0332253Y0337500D01*
X0332092Y0337504D01*
X0331931Y0337512D01*
X0331771Y0337524D01*
X0331611Y0337540D01*
X0331451Y0337560D01*
X0331292Y0337584D01*
X0331134Y0337612D01*
X0330976Y0337643D01*
X0330820Y0337679D01*
X0330664Y0337718D01*
X0330509Y0337761D01*
X0330355Y0337808D01*
X0330202Y0337859D01*
X0330051Y0337914D01*
X0329901Y0337972D01*
X0329753Y0338034D01*
X0329606Y0338100D01*
X0329461Y0338169D01*
X0329318Y0338242D01*
X0329176Y0338318D01*
X0329037Y0338398D01*
X0328899Y0338481D01*
X0328764Y0338568D01*
X0328630Y0338658D01*
X0328499Y0338751D01*
X0328371Y0338847D01*
X0328245Y0338947D01*
X0328121Y0339050D01*
X0328000Y0339155D01*
X0327881Y0339264D01*
X0327765Y0339375D01*
X0327652Y0339490D01*
X0327542Y0339607D01*
X0327435Y0339727D01*
X0327331Y0339849D01*
X0327230Y0339974D01*
X0327132Y0340102D01*
X0327037Y0340232D01*
X0326945Y0340364D01*
X0326857Y0340498D01*
X0326772Y0340635D01*
X0326690Y0340773D01*
X0326612Y0340914D01*
X0326538Y0341056D01*
X0326467Y0341200D01*
X0326399Y0341346D01*
X0326336Y0341494D01*
X0326275Y0341643D01*
X0326219Y0341794D01*
X0326166Y0341946D01*
X0326117Y0342099D01*
X0326072Y0342253D01*
X0326031Y0342408D01*
X0325993Y0342565D01*
X0325960Y0342722D01*
X0325930Y0342880D01*
X0325904Y0343039D01*
X0325883Y0343198D01*
X0325865Y0343358D01*
X0325851Y0343518D01*
X0325841Y0343679D01*
X0325835Y0343839D01*
X0325833Y0344000D01*
X0303833Y0344000D02*
X0303835Y0344161D01*
X0303841Y0344321D01*
X0303851Y0344482D01*
X0303865Y0344642D01*
X0303883Y0344802D01*
X0303904Y0344961D01*
X0303930Y0345120D01*
X0303960Y0345278D01*
X0303993Y0345435D01*
X0304031Y0345592D01*
X0304072Y0345747D01*
X0304117Y0345901D01*
X0304166Y0346054D01*
X0304219Y0346206D01*
X0304275Y0346357D01*
X0304336Y0346506D01*
X0304399Y0346654D01*
X0304467Y0346800D01*
X0304538Y0346944D01*
X0304612Y0347086D01*
X0304690Y0347227D01*
X0304772Y0347365D01*
X0304857Y0347502D01*
X0304945Y0347636D01*
X0305037Y0347768D01*
X0305132Y0347898D01*
X0305230Y0348026D01*
X0305331Y0348151D01*
X0305435Y0348273D01*
X0305542Y0348393D01*
X0305652Y0348510D01*
X0305765Y0348625D01*
X0305881Y0348736D01*
X0306000Y0348845D01*
X0306121Y0348950D01*
X0306245Y0349053D01*
X0306371Y0349153D01*
X0306499Y0349249D01*
X0306630Y0349342D01*
X0306764Y0349432D01*
X0306899Y0349519D01*
X0307037Y0349602D01*
X0307176Y0349682D01*
X0307318Y0349758D01*
X0307461Y0349831D01*
X0307606Y0349900D01*
X0307753Y0349966D01*
X0307901Y0350028D01*
X0308051Y0350086D01*
X0308202Y0350141D01*
X0308355Y0350192D01*
X0308509Y0350239D01*
X0308664Y0350282D01*
X0308820Y0350321D01*
X0308976Y0350357D01*
X0309134Y0350388D01*
X0309292Y0350416D01*
X0309451Y0350440D01*
X0309611Y0350460D01*
X0309771Y0350476D01*
X0309931Y0350488D01*
X0310092Y0350496D01*
X0310253Y0350500D01*
X0310413Y0350500D01*
X0310574Y0350496D01*
X0310735Y0350488D01*
X0310895Y0350476D01*
X0311055Y0350460D01*
X0311215Y0350440D01*
X0311374Y0350416D01*
X0311532Y0350388D01*
X0311690Y0350357D01*
X0311846Y0350321D01*
X0312002Y0350282D01*
X0312157Y0350239D01*
X0312311Y0350192D01*
X0312464Y0350141D01*
X0312615Y0350086D01*
X0312765Y0350028D01*
X0312913Y0349966D01*
X0313060Y0349900D01*
X0313205Y0349831D01*
X0313348Y0349758D01*
X0313490Y0349682D01*
X0313629Y0349602D01*
X0313767Y0349519D01*
X0313902Y0349432D01*
X0314036Y0349342D01*
X0314167Y0349249D01*
X0314295Y0349153D01*
X0314421Y0349053D01*
X0314545Y0348950D01*
X0314666Y0348845D01*
X0314785Y0348736D01*
X0314901Y0348625D01*
X0315014Y0348510D01*
X0315124Y0348393D01*
X0315231Y0348273D01*
X0315335Y0348151D01*
X0315436Y0348026D01*
X0315534Y0347898D01*
X0315629Y0347768D01*
X0315721Y0347636D01*
X0315809Y0347502D01*
X0315894Y0347365D01*
X0315976Y0347227D01*
X0316054Y0347086D01*
X0316128Y0346944D01*
X0316199Y0346800D01*
X0316267Y0346654D01*
X0316330Y0346506D01*
X0316391Y0346357D01*
X0316447Y0346206D01*
X0316500Y0346054D01*
X0316549Y0345901D01*
X0316594Y0345747D01*
X0316635Y0345592D01*
X0316673Y0345435D01*
X0316706Y0345278D01*
X0316736Y0345120D01*
X0316762Y0344961D01*
X0316783Y0344802D01*
X0316801Y0344642D01*
X0316815Y0344482D01*
X0316825Y0344321D01*
X0316831Y0344161D01*
X0316833Y0344000D01*
X0316831Y0343839D01*
X0316825Y0343679D01*
X0316815Y0343518D01*
X0316801Y0343358D01*
X0316783Y0343198D01*
X0316762Y0343039D01*
X0316736Y0342880D01*
X0316706Y0342722D01*
X0316673Y0342565D01*
X0316635Y0342408D01*
X0316594Y0342253D01*
X0316549Y0342099D01*
X0316500Y0341946D01*
X0316447Y0341794D01*
X0316391Y0341643D01*
X0316330Y0341494D01*
X0316267Y0341346D01*
X0316199Y0341200D01*
X0316128Y0341056D01*
X0316054Y0340914D01*
X0315976Y0340773D01*
X0315894Y0340635D01*
X0315809Y0340498D01*
X0315721Y0340364D01*
X0315629Y0340232D01*
X0315534Y0340102D01*
X0315436Y0339974D01*
X0315335Y0339849D01*
X0315231Y0339727D01*
X0315124Y0339607D01*
X0315014Y0339490D01*
X0314901Y0339375D01*
X0314785Y0339264D01*
X0314666Y0339155D01*
X0314545Y0339050D01*
X0314421Y0338947D01*
X0314295Y0338847D01*
X0314167Y0338751D01*
X0314036Y0338658D01*
X0313902Y0338568D01*
X0313767Y0338481D01*
X0313629Y0338398D01*
X0313490Y0338318D01*
X0313348Y0338242D01*
X0313205Y0338169D01*
X0313060Y0338100D01*
X0312913Y0338034D01*
X0312765Y0337972D01*
X0312615Y0337914D01*
X0312464Y0337859D01*
X0312311Y0337808D01*
X0312157Y0337761D01*
X0312002Y0337718D01*
X0311846Y0337679D01*
X0311690Y0337643D01*
X0311532Y0337612D01*
X0311374Y0337584D01*
X0311215Y0337560D01*
X0311055Y0337540D01*
X0310895Y0337524D01*
X0310735Y0337512D01*
X0310574Y0337504D01*
X0310413Y0337500D01*
X0310253Y0337500D01*
X0310092Y0337504D01*
X0309931Y0337512D01*
X0309771Y0337524D01*
X0309611Y0337540D01*
X0309451Y0337560D01*
X0309292Y0337584D01*
X0309134Y0337612D01*
X0308976Y0337643D01*
X0308820Y0337679D01*
X0308664Y0337718D01*
X0308509Y0337761D01*
X0308355Y0337808D01*
X0308202Y0337859D01*
X0308051Y0337914D01*
X0307901Y0337972D01*
X0307753Y0338034D01*
X0307606Y0338100D01*
X0307461Y0338169D01*
X0307318Y0338242D01*
X0307176Y0338318D01*
X0307037Y0338398D01*
X0306899Y0338481D01*
X0306764Y0338568D01*
X0306630Y0338658D01*
X0306499Y0338751D01*
X0306371Y0338847D01*
X0306245Y0338947D01*
X0306121Y0339050D01*
X0306000Y0339155D01*
X0305881Y0339264D01*
X0305765Y0339375D01*
X0305652Y0339490D01*
X0305542Y0339607D01*
X0305435Y0339727D01*
X0305331Y0339849D01*
X0305230Y0339974D01*
X0305132Y0340102D01*
X0305037Y0340232D01*
X0304945Y0340364D01*
X0304857Y0340498D01*
X0304772Y0340635D01*
X0304690Y0340773D01*
X0304612Y0340914D01*
X0304538Y0341056D01*
X0304467Y0341200D01*
X0304399Y0341346D01*
X0304336Y0341494D01*
X0304275Y0341643D01*
X0304219Y0341794D01*
X0304166Y0341946D01*
X0304117Y0342099D01*
X0304072Y0342253D01*
X0304031Y0342408D01*
X0303993Y0342565D01*
X0303960Y0342722D01*
X0303930Y0342880D01*
X0303904Y0343039D01*
X0303883Y0343198D01*
X0303865Y0343358D01*
X0303851Y0343518D01*
X0303841Y0343679D01*
X0303835Y0343839D01*
X0303833Y0344000D01*
X0223833Y0344000D02*
X0223835Y0344161D01*
X0223841Y0344321D01*
X0223851Y0344482D01*
X0223865Y0344642D01*
X0223883Y0344802D01*
X0223904Y0344961D01*
X0223930Y0345120D01*
X0223960Y0345278D01*
X0223993Y0345435D01*
X0224031Y0345592D01*
X0224072Y0345747D01*
X0224117Y0345901D01*
X0224166Y0346054D01*
X0224219Y0346206D01*
X0224275Y0346357D01*
X0224336Y0346506D01*
X0224399Y0346654D01*
X0224467Y0346800D01*
X0224538Y0346944D01*
X0224612Y0347086D01*
X0224690Y0347227D01*
X0224772Y0347365D01*
X0224857Y0347502D01*
X0224945Y0347636D01*
X0225037Y0347768D01*
X0225132Y0347898D01*
X0225230Y0348026D01*
X0225331Y0348151D01*
X0225435Y0348273D01*
X0225542Y0348393D01*
X0225652Y0348510D01*
X0225765Y0348625D01*
X0225881Y0348736D01*
X0226000Y0348845D01*
X0226121Y0348950D01*
X0226245Y0349053D01*
X0226371Y0349153D01*
X0226499Y0349249D01*
X0226630Y0349342D01*
X0226764Y0349432D01*
X0226899Y0349519D01*
X0227037Y0349602D01*
X0227176Y0349682D01*
X0227318Y0349758D01*
X0227461Y0349831D01*
X0227606Y0349900D01*
X0227753Y0349966D01*
X0227901Y0350028D01*
X0228051Y0350086D01*
X0228202Y0350141D01*
X0228355Y0350192D01*
X0228509Y0350239D01*
X0228664Y0350282D01*
X0228820Y0350321D01*
X0228976Y0350357D01*
X0229134Y0350388D01*
X0229292Y0350416D01*
X0229451Y0350440D01*
X0229611Y0350460D01*
X0229771Y0350476D01*
X0229931Y0350488D01*
X0230092Y0350496D01*
X0230253Y0350500D01*
X0230413Y0350500D01*
X0230574Y0350496D01*
X0230735Y0350488D01*
X0230895Y0350476D01*
X0231055Y0350460D01*
X0231215Y0350440D01*
X0231374Y0350416D01*
X0231532Y0350388D01*
X0231690Y0350357D01*
X0231846Y0350321D01*
X0232002Y0350282D01*
X0232157Y0350239D01*
X0232311Y0350192D01*
X0232464Y0350141D01*
X0232615Y0350086D01*
X0232765Y0350028D01*
X0232913Y0349966D01*
X0233060Y0349900D01*
X0233205Y0349831D01*
X0233348Y0349758D01*
X0233490Y0349682D01*
X0233629Y0349602D01*
X0233767Y0349519D01*
X0233902Y0349432D01*
X0234036Y0349342D01*
X0234167Y0349249D01*
X0234295Y0349153D01*
X0234421Y0349053D01*
X0234545Y0348950D01*
X0234666Y0348845D01*
X0234785Y0348736D01*
X0234901Y0348625D01*
X0235014Y0348510D01*
X0235124Y0348393D01*
X0235231Y0348273D01*
X0235335Y0348151D01*
X0235436Y0348026D01*
X0235534Y0347898D01*
X0235629Y0347768D01*
X0235721Y0347636D01*
X0235809Y0347502D01*
X0235894Y0347365D01*
X0235976Y0347227D01*
X0236054Y0347086D01*
X0236128Y0346944D01*
X0236199Y0346800D01*
X0236267Y0346654D01*
X0236330Y0346506D01*
X0236391Y0346357D01*
X0236447Y0346206D01*
X0236500Y0346054D01*
X0236549Y0345901D01*
X0236594Y0345747D01*
X0236635Y0345592D01*
X0236673Y0345435D01*
X0236706Y0345278D01*
X0236736Y0345120D01*
X0236762Y0344961D01*
X0236783Y0344802D01*
X0236801Y0344642D01*
X0236815Y0344482D01*
X0236825Y0344321D01*
X0236831Y0344161D01*
X0236833Y0344000D01*
X0236831Y0343839D01*
X0236825Y0343679D01*
X0236815Y0343518D01*
X0236801Y0343358D01*
X0236783Y0343198D01*
X0236762Y0343039D01*
X0236736Y0342880D01*
X0236706Y0342722D01*
X0236673Y0342565D01*
X0236635Y0342408D01*
X0236594Y0342253D01*
X0236549Y0342099D01*
X0236500Y0341946D01*
X0236447Y0341794D01*
X0236391Y0341643D01*
X0236330Y0341494D01*
X0236267Y0341346D01*
X0236199Y0341200D01*
X0236128Y0341056D01*
X0236054Y0340914D01*
X0235976Y0340773D01*
X0235894Y0340635D01*
X0235809Y0340498D01*
X0235721Y0340364D01*
X0235629Y0340232D01*
X0235534Y0340102D01*
X0235436Y0339974D01*
X0235335Y0339849D01*
X0235231Y0339727D01*
X0235124Y0339607D01*
X0235014Y0339490D01*
X0234901Y0339375D01*
X0234785Y0339264D01*
X0234666Y0339155D01*
X0234545Y0339050D01*
X0234421Y0338947D01*
X0234295Y0338847D01*
X0234167Y0338751D01*
X0234036Y0338658D01*
X0233902Y0338568D01*
X0233767Y0338481D01*
X0233629Y0338398D01*
X0233490Y0338318D01*
X0233348Y0338242D01*
X0233205Y0338169D01*
X0233060Y0338100D01*
X0232913Y0338034D01*
X0232765Y0337972D01*
X0232615Y0337914D01*
X0232464Y0337859D01*
X0232311Y0337808D01*
X0232157Y0337761D01*
X0232002Y0337718D01*
X0231846Y0337679D01*
X0231690Y0337643D01*
X0231532Y0337612D01*
X0231374Y0337584D01*
X0231215Y0337560D01*
X0231055Y0337540D01*
X0230895Y0337524D01*
X0230735Y0337512D01*
X0230574Y0337504D01*
X0230413Y0337500D01*
X0230253Y0337500D01*
X0230092Y0337504D01*
X0229931Y0337512D01*
X0229771Y0337524D01*
X0229611Y0337540D01*
X0229451Y0337560D01*
X0229292Y0337584D01*
X0229134Y0337612D01*
X0228976Y0337643D01*
X0228820Y0337679D01*
X0228664Y0337718D01*
X0228509Y0337761D01*
X0228355Y0337808D01*
X0228202Y0337859D01*
X0228051Y0337914D01*
X0227901Y0337972D01*
X0227753Y0338034D01*
X0227606Y0338100D01*
X0227461Y0338169D01*
X0227318Y0338242D01*
X0227176Y0338318D01*
X0227037Y0338398D01*
X0226899Y0338481D01*
X0226764Y0338568D01*
X0226630Y0338658D01*
X0226499Y0338751D01*
X0226371Y0338847D01*
X0226245Y0338947D01*
X0226121Y0339050D01*
X0226000Y0339155D01*
X0225881Y0339264D01*
X0225765Y0339375D01*
X0225652Y0339490D01*
X0225542Y0339607D01*
X0225435Y0339727D01*
X0225331Y0339849D01*
X0225230Y0339974D01*
X0225132Y0340102D01*
X0225037Y0340232D01*
X0224945Y0340364D01*
X0224857Y0340498D01*
X0224772Y0340635D01*
X0224690Y0340773D01*
X0224612Y0340914D01*
X0224538Y0341056D01*
X0224467Y0341200D01*
X0224399Y0341346D01*
X0224336Y0341494D01*
X0224275Y0341643D01*
X0224219Y0341794D01*
X0224166Y0341946D01*
X0224117Y0342099D01*
X0224072Y0342253D01*
X0224031Y0342408D01*
X0223993Y0342565D01*
X0223960Y0342722D01*
X0223930Y0342880D01*
X0223904Y0343039D01*
X0223883Y0343198D01*
X0223865Y0343358D01*
X0223851Y0343518D01*
X0223841Y0343679D01*
X0223835Y0343839D01*
X0223833Y0344000D01*
X0201833Y0344000D02*
X0201835Y0344161D01*
X0201841Y0344321D01*
X0201851Y0344482D01*
X0201865Y0344642D01*
X0201883Y0344802D01*
X0201904Y0344961D01*
X0201930Y0345120D01*
X0201960Y0345278D01*
X0201993Y0345435D01*
X0202031Y0345592D01*
X0202072Y0345747D01*
X0202117Y0345901D01*
X0202166Y0346054D01*
X0202219Y0346206D01*
X0202275Y0346357D01*
X0202336Y0346506D01*
X0202399Y0346654D01*
X0202467Y0346800D01*
X0202538Y0346944D01*
X0202612Y0347086D01*
X0202690Y0347227D01*
X0202772Y0347365D01*
X0202857Y0347502D01*
X0202945Y0347636D01*
X0203037Y0347768D01*
X0203132Y0347898D01*
X0203230Y0348026D01*
X0203331Y0348151D01*
X0203435Y0348273D01*
X0203542Y0348393D01*
X0203652Y0348510D01*
X0203765Y0348625D01*
X0203881Y0348736D01*
X0204000Y0348845D01*
X0204121Y0348950D01*
X0204245Y0349053D01*
X0204371Y0349153D01*
X0204499Y0349249D01*
X0204630Y0349342D01*
X0204764Y0349432D01*
X0204899Y0349519D01*
X0205037Y0349602D01*
X0205176Y0349682D01*
X0205318Y0349758D01*
X0205461Y0349831D01*
X0205606Y0349900D01*
X0205753Y0349966D01*
X0205901Y0350028D01*
X0206051Y0350086D01*
X0206202Y0350141D01*
X0206355Y0350192D01*
X0206509Y0350239D01*
X0206664Y0350282D01*
X0206820Y0350321D01*
X0206976Y0350357D01*
X0207134Y0350388D01*
X0207292Y0350416D01*
X0207451Y0350440D01*
X0207611Y0350460D01*
X0207771Y0350476D01*
X0207931Y0350488D01*
X0208092Y0350496D01*
X0208253Y0350500D01*
X0208413Y0350500D01*
X0208574Y0350496D01*
X0208735Y0350488D01*
X0208895Y0350476D01*
X0209055Y0350460D01*
X0209215Y0350440D01*
X0209374Y0350416D01*
X0209532Y0350388D01*
X0209690Y0350357D01*
X0209846Y0350321D01*
X0210002Y0350282D01*
X0210157Y0350239D01*
X0210311Y0350192D01*
X0210464Y0350141D01*
X0210615Y0350086D01*
X0210765Y0350028D01*
X0210913Y0349966D01*
X0211060Y0349900D01*
X0211205Y0349831D01*
X0211348Y0349758D01*
X0211490Y0349682D01*
X0211629Y0349602D01*
X0211767Y0349519D01*
X0211902Y0349432D01*
X0212036Y0349342D01*
X0212167Y0349249D01*
X0212295Y0349153D01*
X0212421Y0349053D01*
X0212545Y0348950D01*
X0212666Y0348845D01*
X0212785Y0348736D01*
X0212901Y0348625D01*
X0213014Y0348510D01*
X0213124Y0348393D01*
X0213231Y0348273D01*
X0213335Y0348151D01*
X0213436Y0348026D01*
X0213534Y0347898D01*
X0213629Y0347768D01*
X0213721Y0347636D01*
X0213809Y0347502D01*
X0213894Y0347365D01*
X0213976Y0347227D01*
X0214054Y0347086D01*
X0214128Y0346944D01*
X0214199Y0346800D01*
X0214267Y0346654D01*
X0214330Y0346506D01*
X0214391Y0346357D01*
X0214447Y0346206D01*
X0214500Y0346054D01*
X0214549Y0345901D01*
X0214594Y0345747D01*
X0214635Y0345592D01*
X0214673Y0345435D01*
X0214706Y0345278D01*
X0214736Y0345120D01*
X0214762Y0344961D01*
X0214783Y0344802D01*
X0214801Y0344642D01*
X0214815Y0344482D01*
X0214825Y0344321D01*
X0214831Y0344161D01*
X0214833Y0344000D01*
X0214831Y0343839D01*
X0214825Y0343679D01*
X0214815Y0343518D01*
X0214801Y0343358D01*
X0214783Y0343198D01*
X0214762Y0343039D01*
X0214736Y0342880D01*
X0214706Y0342722D01*
X0214673Y0342565D01*
X0214635Y0342408D01*
X0214594Y0342253D01*
X0214549Y0342099D01*
X0214500Y0341946D01*
X0214447Y0341794D01*
X0214391Y0341643D01*
X0214330Y0341494D01*
X0214267Y0341346D01*
X0214199Y0341200D01*
X0214128Y0341056D01*
X0214054Y0340914D01*
X0213976Y0340773D01*
X0213894Y0340635D01*
X0213809Y0340498D01*
X0213721Y0340364D01*
X0213629Y0340232D01*
X0213534Y0340102D01*
X0213436Y0339974D01*
X0213335Y0339849D01*
X0213231Y0339727D01*
X0213124Y0339607D01*
X0213014Y0339490D01*
X0212901Y0339375D01*
X0212785Y0339264D01*
X0212666Y0339155D01*
X0212545Y0339050D01*
X0212421Y0338947D01*
X0212295Y0338847D01*
X0212167Y0338751D01*
X0212036Y0338658D01*
X0211902Y0338568D01*
X0211767Y0338481D01*
X0211629Y0338398D01*
X0211490Y0338318D01*
X0211348Y0338242D01*
X0211205Y0338169D01*
X0211060Y0338100D01*
X0210913Y0338034D01*
X0210765Y0337972D01*
X0210615Y0337914D01*
X0210464Y0337859D01*
X0210311Y0337808D01*
X0210157Y0337761D01*
X0210002Y0337718D01*
X0209846Y0337679D01*
X0209690Y0337643D01*
X0209532Y0337612D01*
X0209374Y0337584D01*
X0209215Y0337560D01*
X0209055Y0337540D01*
X0208895Y0337524D01*
X0208735Y0337512D01*
X0208574Y0337504D01*
X0208413Y0337500D01*
X0208253Y0337500D01*
X0208092Y0337504D01*
X0207931Y0337512D01*
X0207771Y0337524D01*
X0207611Y0337540D01*
X0207451Y0337560D01*
X0207292Y0337584D01*
X0207134Y0337612D01*
X0206976Y0337643D01*
X0206820Y0337679D01*
X0206664Y0337718D01*
X0206509Y0337761D01*
X0206355Y0337808D01*
X0206202Y0337859D01*
X0206051Y0337914D01*
X0205901Y0337972D01*
X0205753Y0338034D01*
X0205606Y0338100D01*
X0205461Y0338169D01*
X0205318Y0338242D01*
X0205176Y0338318D01*
X0205037Y0338398D01*
X0204899Y0338481D01*
X0204764Y0338568D01*
X0204630Y0338658D01*
X0204499Y0338751D01*
X0204371Y0338847D01*
X0204245Y0338947D01*
X0204121Y0339050D01*
X0204000Y0339155D01*
X0203881Y0339264D01*
X0203765Y0339375D01*
X0203652Y0339490D01*
X0203542Y0339607D01*
X0203435Y0339727D01*
X0203331Y0339849D01*
X0203230Y0339974D01*
X0203132Y0340102D01*
X0203037Y0340232D01*
X0202945Y0340364D01*
X0202857Y0340498D01*
X0202772Y0340635D01*
X0202690Y0340773D01*
X0202612Y0340914D01*
X0202538Y0341056D01*
X0202467Y0341200D01*
X0202399Y0341346D01*
X0202336Y0341494D01*
X0202275Y0341643D01*
X0202219Y0341794D01*
X0202166Y0341946D01*
X0202117Y0342099D01*
X0202072Y0342253D01*
X0202031Y0342408D01*
X0201993Y0342565D01*
X0201960Y0342722D01*
X0201930Y0342880D01*
X0201904Y0343039D01*
X0201883Y0343198D01*
X0201865Y0343358D01*
X0201851Y0343518D01*
X0201841Y0343679D01*
X0201835Y0343839D01*
X0201833Y0344000D01*
X0121833Y0344000D02*
X0121835Y0344161D01*
X0121841Y0344321D01*
X0121851Y0344482D01*
X0121865Y0344642D01*
X0121883Y0344802D01*
X0121904Y0344961D01*
X0121930Y0345120D01*
X0121960Y0345278D01*
X0121993Y0345435D01*
X0122031Y0345592D01*
X0122072Y0345747D01*
X0122117Y0345901D01*
X0122166Y0346054D01*
X0122219Y0346206D01*
X0122275Y0346357D01*
X0122336Y0346506D01*
X0122399Y0346654D01*
X0122467Y0346800D01*
X0122538Y0346944D01*
X0122612Y0347086D01*
X0122690Y0347227D01*
X0122772Y0347365D01*
X0122857Y0347502D01*
X0122945Y0347636D01*
X0123037Y0347768D01*
X0123132Y0347898D01*
X0123230Y0348026D01*
X0123331Y0348151D01*
X0123435Y0348273D01*
X0123542Y0348393D01*
X0123652Y0348510D01*
X0123765Y0348625D01*
X0123881Y0348736D01*
X0124000Y0348845D01*
X0124121Y0348950D01*
X0124245Y0349053D01*
X0124371Y0349153D01*
X0124499Y0349249D01*
X0124630Y0349342D01*
X0124764Y0349432D01*
X0124899Y0349519D01*
X0125037Y0349602D01*
X0125176Y0349682D01*
X0125318Y0349758D01*
X0125461Y0349831D01*
X0125606Y0349900D01*
X0125753Y0349966D01*
X0125901Y0350028D01*
X0126051Y0350086D01*
X0126202Y0350141D01*
X0126355Y0350192D01*
X0126509Y0350239D01*
X0126664Y0350282D01*
X0126820Y0350321D01*
X0126976Y0350357D01*
X0127134Y0350388D01*
X0127292Y0350416D01*
X0127451Y0350440D01*
X0127611Y0350460D01*
X0127771Y0350476D01*
X0127931Y0350488D01*
X0128092Y0350496D01*
X0128253Y0350500D01*
X0128413Y0350500D01*
X0128574Y0350496D01*
X0128735Y0350488D01*
X0128895Y0350476D01*
X0129055Y0350460D01*
X0129215Y0350440D01*
X0129374Y0350416D01*
X0129532Y0350388D01*
X0129690Y0350357D01*
X0129846Y0350321D01*
X0130002Y0350282D01*
X0130157Y0350239D01*
X0130311Y0350192D01*
X0130464Y0350141D01*
X0130615Y0350086D01*
X0130765Y0350028D01*
X0130913Y0349966D01*
X0131060Y0349900D01*
X0131205Y0349831D01*
X0131348Y0349758D01*
X0131490Y0349682D01*
X0131629Y0349602D01*
X0131767Y0349519D01*
X0131902Y0349432D01*
X0132036Y0349342D01*
X0132167Y0349249D01*
X0132295Y0349153D01*
X0132421Y0349053D01*
X0132545Y0348950D01*
X0132666Y0348845D01*
X0132785Y0348736D01*
X0132901Y0348625D01*
X0133014Y0348510D01*
X0133124Y0348393D01*
X0133231Y0348273D01*
X0133335Y0348151D01*
X0133436Y0348026D01*
X0133534Y0347898D01*
X0133629Y0347768D01*
X0133721Y0347636D01*
X0133809Y0347502D01*
X0133894Y0347365D01*
X0133976Y0347227D01*
X0134054Y0347086D01*
X0134128Y0346944D01*
X0134199Y0346800D01*
X0134267Y0346654D01*
X0134330Y0346506D01*
X0134391Y0346357D01*
X0134447Y0346206D01*
X0134500Y0346054D01*
X0134549Y0345901D01*
X0134594Y0345747D01*
X0134635Y0345592D01*
X0134673Y0345435D01*
X0134706Y0345278D01*
X0134736Y0345120D01*
X0134762Y0344961D01*
X0134783Y0344802D01*
X0134801Y0344642D01*
X0134815Y0344482D01*
X0134825Y0344321D01*
X0134831Y0344161D01*
X0134833Y0344000D01*
X0134831Y0343839D01*
X0134825Y0343679D01*
X0134815Y0343518D01*
X0134801Y0343358D01*
X0134783Y0343198D01*
X0134762Y0343039D01*
X0134736Y0342880D01*
X0134706Y0342722D01*
X0134673Y0342565D01*
X0134635Y0342408D01*
X0134594Y0342253D01*
X0134549Y0342099D01*
X0134500Y0341946D01*
X0134447Y0341794D01*
X0134391Y0341643D01*
X0134330Y0341494D01*
X0134267Y0341346D01*
X0134199Y0341200D01*
X0134128Y0341056D01*
X0134054Y0340914D01*
X0133976Y0340773D01*
X0133894Y0340635D01*
X0133809Y0340498D01*
X0133721Y0340364D01*
X0133629Y0340232D01*
X0133534Y0340102D01*
X0133436Y0339974D01*
X0133335Y0339849D01*
X0133231Y0339727D01*
X0133124Y0339607D01*
X0133014Y0339490D01*
X0132901Y0339375D01*
X0132785Y0339264D01*
X0132666Y0339155D01*
X0132545Y0339050D01*
X0132421Y0338947D01*
X0132295Y0338847D01*
X0132167Y0338751D01*
X0132036Y0338658D01*
X0131902Y0338568D01*
X0131767Y0338481D01*
X0131629Y0338398D01*
X0131490Y0338318D01*
X0131348Y0338242D01*
X0131205Y0338169D01*
X0131060Y0338100D01*
X0130913Y0338034D01*
X0130765Y0337972D01*
X0130615Y0337914D01*
X0130464Y0337859D01*
X0130311Y0337808D01*
X0130157Y0337761D01*
X0130002Y0337718D01*
X0129846Y0337679D01*
X0129690Y0337643D01*
X0129532Y0337612D01*
X0129374Y0337584D01*
X0129215Y0337560D01*
X0129055Y0337540D01*
X0128895Y0337524D01*
X0128735Y0337512D01*
X0128574Y0337504D01*
X0128413Y0337500D01*
X0128253Y0337500D01*
X0128092Y0337504D01*
X0127931Y0337512D01*
X0127771Y0337524D01*
X0127611Y0337540D01*
X0127451Y0337560D01*
X0127292Y0337584D01*
X0127134Y0337612D01*
X0126976Y0337643D01*
X0126820Y0337679D01*
X0126664Y0337718D01*
X0126509Y0337761D01*
X0126355Y0337808D01*
X0126202Y0337859D01*
X0126051Y0337914D01*
X0125901Y0337972D01*
X0125753Y0338034D01*
X0125606Y0338100D01*
X0125461Y0338169D01*
X0125318Y0338242D01*
X0125176Y0338318D01*
X0125037Y0338398D01*
X0124899Y0338481D01*
X0124764Y0338568D01*
X0124630Y0338658D01*
X0124499Y0338751D01*
X0124371Y0338847D01*
X0124245Y0338947D01*
X0124121Y0339050D01*
X0124000Y0339155D01*
X0123881Y0339264D01*
X0123765Y0339375D01*
X0123652Y0339490D01*
X0123542Y0339607D01*
X0123435Y0339727D01*
X0123331Y0339849D01*
X0123230Y0339974D01*
X0123132Y0340102D01*
X0123037Y0340232D01*
X0122945Y0340364D01*
X0122857Y0340498D01*
X0122772Y0340635D01*
X0122690Y0340773D01*
X0122612Y0340914D01*
X0122538Y0341056D01*
X0122467Y0341200D01*
X0122399Y0341346D01*
X0122336Y0341494D01*
X0122275Y0341643D01*
X0122219Y0341794D01*
X0122166Y0341946D01*
X0122117Y0342099D01*
X0122072Y0342253D01*
X0122031Y0342408D01*
X0121993Y0342565D01*
X0121960Y0342722D01*
X0121930Y0342880D01*
X0121904Y0343039D01*
X0121883Y0343198D01*
X0121865Y0343358D01*
X0121851Y0343518D01*
X0121841Y0343679D01*
X0121835Y0343839D01*
X0121833Y0344000D01*
X0121833Y0242000D02*
X0121835Y0242161D01*
X0121841Y0242321D01*
X0121851Y0242482D01*
X0121865Y0242642D01*
X0121883Y0242802D01*
X0121904Y0242961D01*
X0121930Y0243120D01*
X0121960Y0243278D01*
X0121993Y0243435D01*
X0122031Y0243592D01*
X0122072Y0243747D01*
X0122117Y0243901D01*
X0122166Y0244054D01*
X0122219Y0244206D01*
X0122275Y0244357D01*
X0122336Y0244506D01*
X0122399Y0244654D01*
X0122467Y0244800D01*
X0122538Y0244944D01*
X0122612Y0245086D01*
X0122690Y0245227D01*
X0122772Y0245365D01*
X0122857Y0245502D01*
X0122945Y0245636D01*
X0123037Y0245768D01*
X0123132Y0245898D01*
X0123230Y0246026D01*
X0123331Y0246151D01*
X0123435Y0246273D01*
X0123542Y0246393D01*
X0123652Y0246510D01*
X0123765Y0246625D01*
X0123881Y0246736D01*
X0124000Y0246845D01*
X0124121Y0246950D01*
X0124245Y0247053D01*
X0124371Y0247153D01*
X0124499Y0247249D01*
X0124630Y0247342D01*
X0124764Y0247432D01*
X0124899Y0247519D01*
X0125037Y0247602D01*
X0125176Y0247682D01*
X0125318Y0247758D01*
X0125461Y0247831D01*
X0125606Y0247900D01*
X0125753Y0247966D01*
X0125901Y0248028D01*
X0126051Y0248086D01*
X0126202Y0248141D01*
X0126355Y0248192D01*
X0126509Y0248239D01*
X0126664Y0248282D01*
X0126820Y0248321D01*
X0126976Y0248357D01*
X0127134Y0248388D01*
X0127292Y0248416D01*
X0127451Y0248440D01*
X0127611Y0248460D01*
X0127771Y0248476D01*
X0127931Y0248488D01*
X0128092Y0248496D01*
X0128253Y0248500D01*
X0128413Y0248500D01*
X0128574Y0248496D01*
X0128735Y0248488D01*
X0128895Y0248476D01*
X0129055Y0248460D01*
X0129215Y0248440D01*
X0129374Y0248416D01*
X0129532Y0248388D01*
X0129690Y0248357D01*
X0129846Y0248321D01*
X0130002Y0248282D01*
X0130157Y0248239D01*
X0130311Y0248192D01*
X0130464Y0248141D01*
X0130615Y0248086D01*
X0130765Y0248028D01*
X0130913Y0247966D01*
X0131060Y0247900D01*
X0131205Y0247831D01*
X0131348Y0247758D01*
X0131490Y0247682D01*
X0131629Y0247602D01*
X0131767Y0247519D01*
X0131902Y0247432D01*
X0132036Y0247342D01*
X0132167Y0247249D01*
X0132295Y0247153D01*
X0132421Y0247053D01*
X0132545Y0246950D01*
X0132666Y0246845D01*
X0132785Y0246736D01*
X0132901Y0246625D01*
X0133014Y0246510D01*
X0133124Y0246393D01*
X0133231Y0246273D01*
X0133335Y0246151D01*
X0133436Y0246026D01*
X0133534Y0245898D01*
X0133629Y0245768D01*
X0133721Y0245636D01*
X0133809Y0245502D01*
X0133894Y0245365D01*
X0133976Y0245227D01*
X0134054Y0245086D01*
X0134128Y0244944D01*
X0134199Y0244800D01*
X0134267Y0244654D01*
X0134330Y0244506D01*
X0134391Y0244357D01*
X0134447Y0244206D01*
X0134500Y0244054D01*
X0134549Y0243901D01*
X0134594Y0243747D01*
X0134635Y0243592D01*
X0134673Y0243435D01*
X0134706Y0243278D01*
X0134736Y0243120D01*
X0134762Y0242961D01*
X0134783Y0242802D01*
X0134801Y0242642D01*
X0134815Y0242482D01*
X0134825Y0242321D01*
X0134831Y0242161D01*
X0134833Y0242000D01*
X0134831Y0241839D01*
X0134825Y0241679D01*
X0134815Y0241518D01*
X0134801Y0241358D01*
X0134783Y0241198D01*
X0134762Y0241039D01*
X0134736Y0240880D01*
X0134706Y0240722D01*
X0134673Y0240565D01*
X0134635Y0240408D01*
X0134594Y0240253D01*
X0134549Y0240099D01*
X0134500Y0239946D01*
X0134447Y0239794D01*
X0134391Y0239643D01*
X0134330Y0239494D01*
X0134267Y0239346D01*
X0134199Y0239200D01*
X0134128Y0239056D01*
X0134054Y0238914D01*
X0133976Y0238773D01*
X0133894Y0238635D01*
X0133809Y0238498D01*
X0133721Y0238364D01*
X0133629Y0238232D01*
X0133534Y0238102D01*
X0133436Y0237974D01*
X0133335Y0237849D01*
X0133231Y0237727D01*
X0133124Y0237607D01*
X0133014Y0237490D01*
X0132901Y0237375D01*
X0132785Y0237264D01*
X0132666Y0237155D01*
X0132545Y0237050D01*
X0132421Y0236947D01*
X0132295Y0236847D01*
X0132167Y0236751D01*
X0132036Y0236658D01*
X0131902Y0236568D01*
X0131767Y0236481D01*
X0131629Y0236398D01*
X0131490Y0236318D01*
X0131348Y0236242D01*
X0131205Y0236169D01*
X0131060Y0236100D01*
X0130913Y0236034D01*
X0130765Y0235972D01*
X0130615Y0235914D01*
X0130464Y0235859D01*
X0130311Y0235808D01*
X0130157Y0235761D01*
X0130002Y0235718D01*
X0129846Y0235679D01*
X0129690Y0235643D01*
X0129532Y0235612D01*
X0129374Y0235584D01*
X0129215Y0235560D01*
X0129055Y0235540D01*
X0128895Y0235524D01*
X0128735Y0235512D01*
X0128574Y0235504D01*
X0128413Y0235500D01*
X0128253Y0235500D01*
X0128092Y0235504D01*
X0127931Y0235512D01*
X0127771Y0235524D01*
X0127611Y0235540D01*
X0127451Y0235560D01*
X0127292Y0235584D01*
X0127134Y0235612D01*
X0126976Y0235643D01*
X0126820Y0235679D01*
X0126664Y0235718D01*
X0126509Y0235761D01*
X0126355Y0235808D01*
X0126202Y0235859D01*
X0126051Y0235914D01*
X0125901Y0235972D01*
X0125753Y0236034D01*
X0125606Y0236100D01*
X0125461Y0236169D01*
X0125318Y0236242D01*
X0125176Y0236318D01*
X0125037Y0236398D01*
X0124899Y0236481D01*
X0124764Y0236568D01*
X0124630Y0236658D01*
X0124499Y0236751D01*
X0124371Y0236847D01*
X0124245Y0236947D01*
X0124121Y0237050D01*
X0124000Y0237155D01*
X0123881Y0237264D01*
X0123765Y0237375D01*
X0123652Y0237490D01*
X0123542Y0237607D01*
X0123435Y0237727D01*
X0123331Y0237849D01*
X0123230Y0237974D01*
X0123132Y0238102D01*
X0123037Y0238232D01*
X0122945Y0238364D01*
X0122857Y0238498D01*
X0122772Y0238635D01*
X0122690Y0238773D01*
X0122612Y0238914D01*
X0122538Y0239056D01*
X0122467Y0239200D01*
X0122399Y0239346D01*
X0122336Y0239494D01*
X0122275Y0239643D01*
X0122219Y0239794D01*
X0122166Y0239946D01*
X0122117Y0240099D01*
X0122072Y0240253D01*
X0122031Y0240408D01*
X0121993Y0240565D01*
X0121960Y0240722D01*
X0121930Y0240880D01*
X0121904Y0241039D01*
X0121883Y0241198D01*
X0121865Y0241358D01*
X0121851Y0241518D01*
X0121841Y0241679D01*
X0121835Y0241839D01*
X0121833Y0242000D01*
X0201833Y0242000D02*
X0201835Y0242161D01*
X0201841Y0242321D01*
X0201851Y0242482D01*
X0201865Y0242642D01*
X0201883Y0242802D01*
X0201904Y0242961D01*
X0201930Y0243120D01*
X0201960Y0243278D01*
X0201993Y0243435D01*
X0202031Y0243592D01*
X0202072Y0243747D01*
X0202117Y0243901D01*
X0202166Y0244054D01*
X0202219Y0244206D01*
X0202275Y0244357D01*
X0202336Y0244506D01*
X0202399Y0244654D01*
X0202467Y0244800D01*
X0202538Y0244944D01*
X0202612Y0245086D01*
X0202690Y0245227D01*
X0202772Y0245365D01*
X0202857Y0245502D01*
X0202945Y0245636D01*
X0203037Y0245768D01*
X0203132Y0245898D01*
X0203230Y0246026D01*
X0203331Y0246151D01*
X0203435Y0246273D01*
X0203542Y0246393D01*
X0203652Y0246510D01*
X0203765Y0246625D01*
X0203881Y0246736D01*
X0204000Y0246845D01*
X0204121Y0246950D01*
X0204245Y0247053D01*
X0204371Y0247153D01*
X0204499Y0247249D01*
X0204630Y0247342D01*
X0204764Y0247432D01*
X0204899Y0247519D01*
X0205037Y0247602D01*
X0205176Y0247682D01*
X0205318Y0247758D01*
X0205461Y0247831D01*
X0205606Y0247900D01*
X0205753Y0247966D01*
X0205901Y0248028D01*
X0206051Y0248086D01*
X0206202Y0248141D01*
X0206355Y0248192D01*
X0206509Y0248239D01*
X0206664Y0248282D01*
X0206820Y0248321D01*
X0206976Y0248357D01*
X0207134Y0248388D01*
X0207292Y0248416D01*
X0207451Y0248440D01*
X0207611Y0248460D01*
X0207771Y0248476D01*
X0207931Y0248488D01*
X0208092Y0248496D01*
X0208253Y0248500D01*
X0208413Y0248500D01*
X0208574Y0248496D01*
X0208735Y0248488D01*
X0208895Y0248476D01*
X0209055Y0248460D01*
X0209215Y0248440D01*
X0209374Y0248416D01*
X0209532Y0248388D01*
X0209690Y0248357D01*
X0209846Y0248321D01*
X0210002Y0248282D01*
X0210157Y0248239D01*
X0210311Y0248192D01*
X0210464Y0248141D01*
X0210615Y0248086D01*
X0210765Y0248028D01*
X0210913Y0247966D01*
X0211060Y0247900D01*
X0211205Y0247831D01*
X0211348Y0247758D01*
X0211490Y0247682D01*
X0211629Y0247602D01*
X0211767Y0247519D01*
X0211902Y0247432D01*
X0212036Y0247342D01*
X0212167Y0247249D01*
X0212295Y0247153D01*
X0212421Y0247053D01*
X0212545Y0246950D01*
X0212666Y0246845D01*
X0212785Y0246736D01*
X0212901Y0246625D01*
X0213014Y0246510D01*
X0213124Y0246393D01*
X0213231Y0246273D01*
X0213335Y0246151D01*
X0213436Y0246026D01*
X0213534Y0245898D01*
X0213629Y0245768D01*
X0213721Y0245636D01*
X0213809Y0245502D01*
X0213894Y0245365D01*
X0213976Y0245227D01*
X0214054Y0245086D01*
X0214128Y0244944D01*
X0214199Y0244800D01*
X0214267Y0244654D01*
X0214330Y0244506D01*
X0214391Y0244357D01*
X0214447Y0244206D01*
X0214500Y0244054D01*
X0214549Y0243901D01*
X0214594Y0243747D01*
X0214635Y0243592D01*
X0214673Y0243435D01*
X0214706Y0243278D01*
X0214736Y0243120D01*
X0214762Y0242961D01*
X0214783Y0242802D01*
X0214801Y0242642D01*
X0214815Y0242482D01*
X0214825Y0242321D01*
X0214831Y0242161D01*
X0214833Y0242000D01*
X0214831Y0241839D01*
X0214825Y0241679D01*
X0214815Y0241518D01*
X0214801Y0241358D01*
X0214783Y0241198D01*
X0214762Y0241039D01*
X0214736Y0240880D01*
X0214706Y0240722D01*
X0214673Y0240565D01*
X0214635Y0240408D01*
X0214594Y0240253D01*
X0214549Y0240099D01*
X0214500Y0239946D01*
X0214447Y0239794D01*
X0214391Y0239643D01*
X0214330Y0239494D01*
X0214267Y0239346D01*
X0214199Y0239200D01*
X0214128Y0239056D01*
X0214054Y0238914D01*
X0213976Y0238773D01*
X0213894Y0238635D01*
X0213809Y0238498D01*
X0213721Y0238364D01*
X0213629Y0238232D01*
X0213534Y0238102D01*
X0213436Y0237974D01*
X0213335Y0237849D01*
X0213231Y0237727D01*
X0213124Y0237607D01*
X0213014Y0237490D01*
X0212901Y0237375D01*
X0212785Y0237264D01*
X0212666Y0237155D01*
X0212545Y0237050D01*
X0212421Y0236947D01*
X0212295Y0236847D01*
X0212167Y0236751D01*
X0212036Y0236658D01*
X0211902Y0236568D01*
X0211767Y0236481D01*
X0211629Y0236398D01*
X0211490Y0236318D01*
X0211348Y0236242D01*
X0211205Y0236169D01*
X0211060Y0236100D01*
X0210913Y0236034D01*
X0210765Y0235972D01*
X0210615Y0235914D01*
X0210464Y0235859D01*
X0210311Y0235808D01*
X0210157Y0235761D01*
X0210002Y0235718D01*
X0209846Y0235679D01*
X0209690Y0235643D01*
X0209532Y0235612D01*
X0209374Y0235584D01*
X0209215Y0235560D01*
X0209055Y0235540D01*
X0208895Y0235524D01*
X0208735Y0235512D01*
X0208574Y0235504D01*
X0208413Y0235500D01*
X0208253Y0235500D01*
X0208092Y0235504D01*
X0207931Y0235512D01*
X0207771Y0235524D01*
X0207611Y0235540D01*
X0207451Y0235560D01*
X0207292Y0235584D01*
X0207134Y0235612D01*
X0206976Y0235643D01*
X0206820Y0235679D01*
X0206664Y0235718D01*
X0206509Y0235761D01*
X0206355Y0235808D01*
X0206202Y0235859D01*
X0206051Y0235914D01*
X0205901Y0235972D01*
X0205753Y0236034D01*
X0205606Y0236100D01*
X0205461Y0236169D01*
X0205318Y0236242D01*
X0205176Y0236318D01*
X0205037Y0236398D01*
X0204899Y0236481D01*
X0204764Y0236568D01*
X0204630Y0236658D01*
X0204499Y0236751D01*
X0204371Y0236847D01*
X0204245Y0236947D01*
X0204121Y0237050D01*
X0204000Y0237155D01*
X0203881Y0237264D01*
X0203765Y0237375D01*
X0203652Y0237490D01*
X0203542Y0237607D01*
X0203435Y0237727D01*
X0203331Y0237849D01*
X0203230Y0237974D01*
X0203132Y0238102D01*
X0203037Y0238232D01*
X0202945Y0238364D01*
X0202857Y0238498D01*
X0202772Y0238635D01*
X0202690Y0238773D01*
X0202612Y0238914D01*
X0202538Y0239056D01*
X0202467Y0239200D01*
X0202399Y0239346D01*
X0202336Y0239494D01*
X0202275Y0239643D01*
X0202219Y0239794D01*
X0202166Y0239946D01*
X0202117Y0240099D01*
X0202072Y0240253D01*
X0202031Y0240408D01*
X0201993Y0240565D01*
X0201960Y0240722D01*
X0201930Y0240880D01*
X0201904Y0241039D01*
X0201883Y0241198D01*
X0201865Y0241358D01*
X0201851Y0241518D01*
X0201841Y0241679D01*
X0201835Y0241839D01*
X0201833Y0242000D01*
X0223833Y0242000D02*
X0223835Y0242161D01*
X0223841Y0242321D01*
X0223851Y0242482D01*
X0223865Y0242642D01*
X0223883Y0242802D01*
X0223904Y0242961D01*
X0223930Y0243120D01*
X0223960Y0243278D01*
X0223993Y0243435D01*
X0224031Y0243592D01*
X0224072Y0243747D01*
X0224117Y0243901D01*
X0224166Y0244054D01*
X0224219Y0244206D01*
X0224275Y0244357D01*
X0224336Y0244506D01*
X0224399Y0244654D01*
X0224467Y0244800D01*
X0224538Y0244944D01*
X0224612Y0245086D01*
X0224690Y0245227D01*
X0224772Y0245365D01*
X0224857Y0245502D01*
X0224945Y0245636D01*
X0225037Y0245768D01*
X0225132Y0245898D01*
X0225230Y0246026D01*
X0225331Y0246151D01*
X0225435Y0246273D01*
X0225542Y0246393D01*
X0225652Y0246510D01*
X0225765Y0246625D01*
X0225881Y0246736D01*
X0226000Y0246845D01*
X0226121Y0246950D01*
X0226245Y0247053D01*
X0226371Y0247153D01*
X0226499Y0247249D01*
X0226630Y0247342D01*
X0226764Y0247432D01*
X0226899Y0247519D01*
X0227037Y0247602D01*
X0227176Y0247682D01*
X0227318Y0247758D01*
X0227461Y0247831D01*
X0227606Y0247900D01*
X0227753Y0247966D01*
X0227901Y0248028D01*
X0228051Y0248086D01*
X0228202Y0248141D01*
X0228355Y0248192D01*
X0228509Y0248239D01*
X0228664Y0248282D01*
X0228820Y0248321D01*
X0228976Y0248357D01*
X0229134Y0248388D01*
X0229292Y0248416D01*
X0229451Y0248440D01*
X0229611Y0248460D01*
X0229771Y0248476D01*
X0229931Y0248488D01*
X0230092Y0248496D01*
X0230253Y0248500D01*
X0230413Y0248500D01*
X0230574Y0248496D01*
X0230735Y0248488D01*
X0230895Y0248476D01*
X0231055Y0248460D01*
X0231215Y0248440D01*
X0231374Y0248416D01*
X0231532Y0248388D01*
X0231690Y0248357D01*
X0231846Y0248321D01*
X0232002Y0248282D01*
X0232157Y0248239D01*
X0232311Y0248192D01*
X0232464Y0248141D01*
X0232615Y0248086D01*
X0232765Y0248028D01*
X0232913Y0247966D01*
X0233060Y0247900D01*
X0233205Y0247831D01*
X0233348Y0247758D01*
X0233490Y0247682D01*
X0233629Y0247602D01*
X0233767Y0247519D01*
X0233902Y0247432D01*
X0234036Y0247342D01*
X0234167Y0247249D01*
X0234295Y0247153D01*
X0234421Y0247053D01*
X0234545Y0246950D01*
X0234666Y0246845D01*
X0234785Y0246736D01*
X0234901Y0246625D01*
X0235014Y0246510D01*
X0235124Y0246393D01*
X0235231Y0246273D01*
X0235335Y0246151D01*
X0235436Y0246026D01*
X0235534Y0245898D01*
X0235629Y0245768D01*
X0235721Y0245636D01*
X0235809Y0245502D01*
X0235894Y0245365D01*
X0235976Y0245227D01*
X0236054Y0245086D01*
X0236128Y0244944D01*
X0236199Y0244800D01*
X0236267Y0244654D01*
X0236330Y0244506D01*
X0236391Y0244357D01*
X0236447Y0244206D01*
X0236500Y0244054D01*
X0236549Y0243901D01*
X0236594Y0243747D01*
X0236635Y0243592D01*
X0236673Y0243435D01*
X0236706Y0243278D01*
X0236736Y0243120D01*
X0236762Y0242961D01*
X0236783Y0242802D01*
X0236801Y0242642D01*
X0236815Y0242482D01*
X0236825Y0242321D01*
X0236831Y0242161D01*
X0236833Y0242000D01*
X0236831Y0241839D01*
X0236825Y0241679D01*
X0236815Y0241518D01*
X0236801Y0241358D01*
X0236783Y0241198D01*
X0236762Y0241039D01*
X0236736Y0240880D01*
X0236706Y0240722D01*
X0236673Y0240565D01*
X0236635Y0240408D01*
X0236594Y0240253D01*
X0236549Y0240099D01*
X0236500Y0239946D01*
X0236447Y0239794D01*
X0236391Y0239643D01*
X0236330Y0239494D01*
X0236267Y0239346D01*
X0236199Y0239200D01*
X0236128Y0239056D01*
X0236054Y0238914D01*
X0235976Y0238773D01*
X0235894Y0238635D01*
X0235809Y0238498D01*
X0235721Y0238364D01*
X0235629Y0238232D01*
X0235534Y0238102D01*
X0235436Y0237974D01*
X0235335Y0237849D01*
X0235231Y0237727D01*
X0235124Y0237607D01*
X0235014Y0237490D01*
X0234901Y0237375D01*
X0234785Y0237264D01*
X0234666Y0237155D01*
X0234545Y0237050D01*
X0234421Y0236947D01*
X0234295Y0236847D01*
X0234167Y0236751D01*
X0234036Y0236658D01*
X0233902Y0236568D01*
X0233767Y0236481D01*
X0233629Y0236398D01*
X0233490Y0236318D01*
X0233348Y0236242D01*
X0233205Y0236169D01*
X0233060Y0236100D01*
X0232913Y0236034D01*
X0232765Y0235972D01*
X0232615Y0235914D01*
X0232464Y0235859D01*
X0232311Y0235808D01*
X0232157Y0235761D01*
X0232002Y0235718D01*
X0231846Y0235679D01*
X0231690Y0235643D01*
X0231532Y0235612D01*
X0231374Y0235584D01*
X0231215Y0235560D01*
X0231055Y0235540D01*
X0230895Y0235524D01*
X0230735Y0235512D01*
X0230574Y0235504D01*
X0230413Y0235500D01*
X0230253Y0235500D01*
X0230092Y0235504D01*
X0229931Y0235512D01*
X0229771Y0235524D01*
X0229611Y0235540D01*
X0229451Y0235560D01*
X0229292Y0235584D01*
X0229134Y0235612D01*
X0228976Y0235643D01*
X0228820Y0235679D01*
X0228664Y0235718D01*
X0228509Y0235761D01*
X0228355Y0235808D01*
X0228202Y0235859D01*
X0228051Y0235914D01*
X0227901Y0235972D01*
X0227753Y0236034D01*
X0227606Y0236100D01*
X0227461Y0236169D01*
X0227318Y0236242D01*
X0227176Y0236318D01*
X0227037Y0236398D01*
X0226899Y0236481D01*
X0226764Y0236568D01*
X0226630Y0236658D01*
X0226499Y0236751D01*
X0226371Y0236847D01*
X0226245Y0236947D01*
X0226121Y0237050D01*
X0226000Y0237155D01*
X0225881Y0237264D01*
X0225765Y0237375D01*
X0225652Y0237490D01*
X0225542Y0237607D01*
X0225435Y0237727D01*
X0225331Y0237849D01*
X0225230Y0237974D01*
X0225132Y0238102D01*
X0225037Y0238232D01*
X0224945Y0238364D01*
X0224857Y0238498D01*
X0224772Y0238635D01*
X0224690Y0238773D01*
X0224612Y0238914D01*
X0224538Y0239056D01*
X0224467Y0239200D01*
X0224399Y0239346D01*
X0224336Y0239494D01*
X0224275Y0239643D01*
X0224219Y0239794D01*
X0224166Y0239946D01*
X0224117Y0240099D01*
X0224072Y0240253D01*
X0224031Y0240408D01*
X0223993Y0240565D01*
X0223960Y0240722D01*
X0223930Y0240880D01*
X0223904Y0241039D01*
X0223883Y0241198D01*
X0223865Y0241358D01*
X0223851Y0241518D01*
X0223841Y0241679D01*
X0223835Y0241839D01*
X0223833Y0242000D01*
X0303833Y0242000D02*
X0303835Y0242161D01*
X0303841Y0242321D01*
X0303851Y0242482D01*
X0303865Y0242642D01*
X0303883Y0242802D01*
X0303904Y0242961D01*
X0303930Y0243120D01*
X0303960Y0243278D01*
X0303993Y0243435D01*
X0304031Y0243592D01*
X0304072Y0243747D01*
X0304117Y0243901D01*
X0304166Y0244054D01*
X0304219Y0244206D01*
X0304275Y0244357D01*
X0304336Y0244506D01*
X0304399Y0244654D01*
X0304467Y0244800D01*
X0304538Y0244944D01*
X0304612Y0245086D01*
X0304690Y0245227D01*
X0304772Y0245365D01*
X0304857Y0245502D01*
X0304945Y0245636D01*
X0305037Y0245768D01*
X0305132Y0245898D01*
X0305230Y0246026D01*
X0305331Y0246151D01*
X0305435Y0246273D01*
X0305542Y0246393D01*
X0305652Y0246510D01*
X0305765Y0246625D01*
X0305881Y0246736D01*
X0306000Y0246845D01*
X0306121Y0246950D01*
X0306245Y0247053D01*
X0306371Y0247153D01*
X0306499Y0247249D01*
X0306630Y0247342D01*
X0306764Y0247432D01*
X0306899Y0247519D01*
X0307037Y0247602D01*
X0307176Y0247682D01*
X0307318Y0247758D01*
X0307461Y0247831D01*
X0307606Y0247900D01*
X0307753Y0247966D01*
X0307901Y0248028D01*
X0308051Y0248086D01*
X0308202Y0248141D01*
X0308355Y0248192D01*
X0308509Y0248239D01*
X0308664Y0248282D01*
X0308820Y0248321D01*
X0308976Y0248357D01*
X0309134Y0248388D01*
X0309292Y0248416D01*
X0309451Y0248440D01*
X0309611Y0248460D01*
X0309771Y0248476D01*
X0309931Y0248488D01*
X0310092Y0248496D01*
X0310253Y0248500D01*
X0310413Y0248500D01*
X0310574Y0248496D01*
X0310735Y0248488D01*
X0310895Y0248476D01*
X0311055Y0248460D01*
X0311215Y0248440D01*
X0311374Y0248416D01*
X0311532Y0248388D01*
X0311690Y0248357D01*
X0311846Y0248321D01*
X0312002Y0248282D01*
X0312157Y0248239D01*
X0312311Y0248192D01*
X0312464Y0248141D01*
X0312615Y0248086D01*
X0312765Y0248028D01*
X0312913Y0247966D01*
X0313060Y0247900D01*
X0313205Y0247831D01*
X0313348Y0247758D01*
X0313490Y0247682D01*
X0313629Y0247602D01*
X0313767Y0247519D01*
X0313902Y0247432D01*
X0314036Y0247342D01*
X0314167Y0247249D01*
X0314295Y0247153D01*
X0314421Y0247053D01*
X0314545Y0246950D01*
X0314666Y0246845D01*
X0314785Y0246736D01*
X0314901Y0246625D01*
X0315014Y0246510D01*
X0315124Y0246393D01*
X0315231Y0246273D01*
X0315335Y0246151D01*
X0315436Y0246026D01*
X0315534Y0245898D01*
X0315629Y0245768D01*
X0315721Y0245636D01*
X0315809Y0245502D01*
X0315894Y0245365D01*
X0315976Y0245227D01*
X0316054Y0245086D01*
X0316128Y0244944D01*
X0316199Y0244800D01*
X0316267Y0244654D01*
X0316330Y0244506D01*
X0316391Y0244357D01*
X0316447Y0244206D01*
X0316500Y0244054D01*
X0316549Y0243901D01*
X0316594Y0243747D01*
X0316635Y0243592D01*
X0316673Y0243435D01*
X0316706Y0243278D01*
X0316736Y0243120D01*
X0316762Y0242961D01*
X0316783Y0242802D01*
X0316801Y0242642D01*
X0316815Y0242482D01*
X0316825Y0242321D01*
X0316831Y0242161D01*
X0316833Y0242000D01*
X0316831Y0241839D01*
X0316825Y0241679D01*
X0316815Y0241518D01*
X0316801Y0241358D01*
X0316783Y0241198D01*
X0316762Y0241039D01*
X0316736Y0240880D01*
X0316706Y0240722D01*
X0316673Y0240565D01*
X0316635Y0240408D01*
X0316594Y0240253D01*
X0316549Y0240099D01*
X0316500Y0239946D01*
X0316447Y0239794D01*
X0316391Y0239643D01*
X0316330Y0239494D01*
X0316267Y0239346D01*
X0316199Y0239200D01*
X0316128Y0239056D01*
X0316054Y0238914D01*
X0315976Y0238773D01*
X0315894Y0238635D01*
X0315809Y0238498D01*
X0315721Y0238364D01*
X0315629Y0238232D01*
X0315534Y0238102D01*
X0315436Y0237974D01*
X0315335Y0237849D01*
X0315231Y0237727D01*
X0315124Y0237607D01*
X0315014Y0237490D01*
X0314901Y0237375D01*
X0314785Y0237264D01*
X0314666Y0237155D01*
X0314545Y0237050D01*
X0314421Y0236947D01*
X0314295Y0236847D01*
X0314167Y0236751D01*
X0314036Y0236658D01*
X0313902Y0236568D01*
X0313767Y0236481D01*
X0313629Y0236398D01*
X0313490Y0236318D01*
X0313348Y0236242D01*
X0313205Y0236169D01*
X0313060Y0236100D01*
X0312913Y0236034D01*
X0312765Y0235972D01*
X0312615Y0235914D01*
X0312464Y0235859D01*
X0312311Y0235808D01*
X0312157Y0235761D01*
X0312002Y0235718D01*
X0311846Y0235679D01*
X0311690Y0235643D01*
X0311532Y0235612D01*
X0311374Y0235584D01*
X0311215Y0235560D01*
X0311055Y0235540D01*
X0310895Y0235524D01*
X0310735Y0235512D01*
X0310574Y0235504D01*
X0310413Y0235500D01*
X0310253Y0235500D01*
X0310092Y0235504D01*
X0309931Y0235512D01*
X0309771Y0235524D01*
X0309611Y0235540D01*
X0309451Y0235560D01*
X0309292Y0235584D01*
X0309134Y0235612D01*
X0308976Y0235643D01*
X0308820Y0235679D01*
X0308664Y0235718D01*
X0308509Y0235761D01*
X0308355Y0235808D01*
X0308202Y0235859D01*
X0308051Y0235914D01*
X0307901Y0235972D01*
X0307753Y0236034D01*
X0307606Y0236100D01*
X0307461Y0236169D01*
X0307318Y0236242D01*
X0307176Y0236318D01*
X0307037Y0236398D01*
X0306899Y0236481D01*
X0306764Y0236568D01*
X0306630Y0236658D01*
X0306499Y0236751D01*
X0306371Y0236847D01*
X0306245Y0236947D01*
X0306121Y0237050D01*
X0306000Y0237155D01*
X0305881Y0237264D01*
X0305765Y0237375D01*
X0305652Y0237490D01*
X0305542Y0237607D01*
X0305435Y0237727D01*
X0305331Y0237849D01*
X0305230Y0237974D01*
X0305132Y0238102D01*
X0305037Y0238232D01*
X0304945Y0238364D01*
X0304857Y0238498D01*
X0304772Y0238635D01*
X0304690Y0238773D01*
X0304612Y0238914D01*
X0304538Y0239056D01*
X0304467Y0239200D01*
X0304399Y0239346D01*
X0304336Y0239494D01*
X0304275Y0239643D01*
X0304219Y0239794D01*
X0304166Y0239946D01*
X0304117Y0240099D01*
X0304072Y0240253D01*
X0304031Y0240408D01*
X0303993Y0240565D01*
X0303960Y0240722D01*
X0303930Y0240880D01*
X0303904Y0241039D01*
X0303883Y0241198D01*
X0303865Y0241358D01*
X0303851Y0241518D01*
X0303841Y0241679D01*
X0303835Y0241839D01*
X0303833Y0242000D01*
X0325833Y0242000D02*
X0325835Y0242161D01*
X0325841Y0242321D01*
X0325851Y0242482D01*
X0325865Y0242642D01*
X0325883Y0242802D01*
X0325904Y0242961D01*
X0325930Y0243120D01*
X0325960Y0243278D01*
X0325993Y0243435D01*
X0326031Y0243592D01*
X0326072Y0243747D01*
X0326117Y0243901D01*
X0326166Y0244054D01*
X0326219Y0244206D01*
X0326275Y0244357D01*
X0326336Y0244506D01*
X0326399Y0244654D01*
X0326467Y0244800D01*
X0326538Y0244944D01*
X0326612Y0245086D01*
X0326690Y0245227D01*
X0326772Y0245365D01*
X0326857Y0245502D01*
X0326945Y0245636D01*
X0327037Y0245768D01*
X0327132Y0245898D01*
X0327230Y0246026D01*
X0327331Y0246151D01*
X0327435Y0246273D01*
X0327542Y0246393D01*
X0327652Y0246510D01*
X0327765Y0246625D01*
X0327881Y0246736D01*
X0328000Y0246845D01*
X0328121Y0246950D01*
X0328245Y0247053D01*
X0328371Y0247153D01*
X0328499Y0247249D01*
X0328630Y0247342D01*
X0328764Y0247432D01*
X0328899Y0247519D01*
X0329037Y0247602D01*
X0329176Y0247682D01*
X0329318Y0247758D01*
X0329461Y0247831D01*
X0329606Y0247900D01*
X0329753Y0247966D01*
X0329901Y0248028D01*
X0330051Y0248086D01*
X0330202Y0248141D01*
X0330355Y0248192D01*
X0330509Y0248239D01*
X0330664Y0248282D01*
X0330820Y0248321D01*
X0330976Y0248357D01*
X0331134Y0248388D01*
X0331292Y0248416D01*
X0331451Y0248440D01*
X0331611Y0248460D01*
X0331771Y0248476D01*
X0331931Y0248488D01*
X0332092Y0248496D01*
X0332253Y0248500D01*
X0332413Y0248500D01*
X0332574Y0248496D01*
X0332735Y0248488D01*
X0332895Y0248476D01*
X0333055Y0248460D01*
X0333215Y0248440D01*
X0333374Y0248416D01*
X0333532Y0248388D01*
X0333690Y0248357D01*
X0333846Y0248321D01*
X0334002Y0248282D01*
X0334157Y0248239D01*
X0334311Y0248192D01*
X0334464Y0248141D01*
X0334615Y0248086D01*
X0334765Y0248028D01*
X0334913Y0247966D01*
X0335060Y0247900D01*
X0335205Y0247831D01*
X0335348Y0247758D01*
X0335490Y0247682D01*
X0335629Y0247602D01*
X0335767Y0247519D01*
X0335902Y0247432D01*
X0336036Y0247342D01*
X0336167Y0247249D01*
X0336295Y0247153D01*
X0336421Y0247053D01*
X0336545Y0246950D01*
X0336666Y0246845D01*
X0336785Y0246736D01*
X0336901Y0246625D01*
X0337014Y0246510D01*
X0337124Y0246393D01*
X0337231Y0246273D01*
X0337335Y0246151D01*
X0337436Y0246026D01*
X0337534Y0245898D01*
X0337629Y0245768D01*
X0337721Y0245636D01*
X0337809Y0245502D01*
X0337894Y0245365D01*
X0337976Y0245227D01*
X0338054Y0245086D01*
X0338128Y0244944D01*
X0338199Y0244800D01*
X0338267Y0244654D01*
X0338330Y0244506D01*
X0338391Y0244357D01*
X0338447Y0244206D01*
X0338500Y0244054D01*
X0338549Y0243901D01*
X0338594Y0243747D01*
X0338635Y0243592D01*
X0338673Y0243435D01*
X0338706Y0243278D01*
X0338736Y0243120D01*
X0338762Y0242961D01*
X0338783Y0242802D01*
X0338801Y0242642D01*
X0338815Y0242482D01*
X0338825Y0242321D01*
X0338831Y0242161D01*
X0338833Y0242000D01*
X0338831Y0241839D01*
X0338825Y0241679D01*
X0338815Y0241518D01*
X0338801Y0241358D01*
X0338783Y0241198D01*
X0338762Y0241039D01*
X0338736Y0240880D01*
X0338706Y0240722D01*
X0338673Y0240565D01*
X0338635Y0240408D01*
X0338594Y0240253D01*
X0338549Y0240099D01*
X0338500Y0239946D01*
X0338447Y0239794D01*
X0338391Y0239643D01*
X0338330Y0239494D01*
X0338267Y0239346D01*
X0338199Y0239200D01*
X0338128Y0239056D01*
X0338054Y0238914D01*
X0337976Y0238773D01*
X0337894Y0238635D01*
X0337809Y0238498D01*
X0337721Y0238364D01*
X0337629Y0238232D01*
X0337534Y0238102D01*
X0337436Y0237974D01*
X0337335Y0237849D01*
X0337231Y0237727D01*
X0337124Y0237607D01*
X0337014Y0237490D01*
X0336901Y0237375D01*
X0336785Y0237264D01*
X0336666Y0237155D01*
X0336545Y0237050D01*
X0336421Y0236947D01*
X0336295Y0236847D01*
X0336167Y0236751D01*
X0336036Y0236658D01*
X0335902Y0236568D01*
X0335767Y0236481D01*
X0335629Y0236398D01*
X0335490Y0236318D01*
X0335348Y0236242D01*
X0335205Y0236169D01*
X0335060Y0236100D01*
X0334913Y0236034D01*
X0334765Y0235972D01*
X0334615Y0235914D01*
X0334464Y0235859D01*
X0334311Y0235808D01*
X0334157Y0235761D01*
X0334002Y0235718D01*
X0333846Y0235679D01*
X0333690Y0235643D01*
X0333532Y0235612D01*
X0333374Y0235584D01*
X0333215Y0235560D01*
X0333055Y0235540D01*
X0332895Y0235524D01*
X0332735Y0235512D01*
X0332574Y0235504D01*
X0332413Y0235500D01*
X0332253Y0235500D01*
X0332092Y0235504D01*
X0331931Y0235512D01*
X0331771Y0235524D01*
X0331611Y0235540D01*
X0331451Y0235560D01*
X0331292Y0235584D01*
X0331134Y0235612D01*
X0330976Y0235643D01*
X0330820Y0235679D01*
X0330664Y0235718D01*
X0330509Y0235761D01*
X0330355Y0235808D01*
X0330202Y0235859D01*
X0330051Y0235914D01*
X0329901Y0235972D01*
X0329753Y0236034D01*
X0329606Y0236100D01*
X0329461Y0236169D01*
X0329318Y0236242D01*
X0329176Y0236318D01*
X0329037Y0236398D01*
X0328899Y0236481D01*
X0328764Y0236568D01*
X0328630Y0236658D01*
X0328499Y0236751D01*
X0328371Y0236847D01*
X0328245Y0236947D01*
X0328121Y0237050D01*
X0328000Y0237155D01*
X0327881Y0237264D01*
X0327765Y0237375D01*
X0327652Y0237490D01*
X0327542Y0237607D01*
X0327435Y0237727D01*
X0327331Y0237849D01*
X0327230Y0237974D01*
X0327132Y0238102D01*
X0327037Y0238232D01*
X0326945Y0238364D01*
X0326857Y0238498D01*
X0326772Y0238635D01*
X0326690Y0238773D01*
X0326612Y0238914D01*
X0326538Y0239056D01*
X0326467Y0239200D01*
X0326399Y0239346D01*
X0326336Y0239494D01*
X0326275Y0239643D01*
X0326219Y0239794D01*
X0326166Y0239946D01*
X0326117Y0240099D01*
X0326072Y0240253D01*
X0326031Y0240408D01*
X0325993Y0240565D01*
X0325960Y0240722D01*
X0325930Y0240880D01*
X0325904Y0241039D01*
X0325883Y0241198D01*
X0325865Y0241358D01*
X0325851Y0241518D01*
X0325841Y0241679D01*
X0325835Y0241839D01*
X0325833Y0242000D01*
X0405833Y0242000D02*
X0405835Y0242161D01*
X0405841Y0242321D01*
X0405851Y0242482D01*
X0405865Y0242642D01*
X0405883Y0242802D01*
X0405904Y0242961D01*
X0405930Y0243120D01*
X0405960Y0243278D01*
X0405993Y0243435D01*
X0406031Y0243592D01*
X0406072Y0243747D01*
X0406117Y0243901D01*
X0406166Y0244054D01*
X0406219Y0244206D01*
X0406275Y0244357D01*
X0406336Y0244506D01*
X0406399Y0244654D01*
X0406467Y0244800D01*
X0406538Y0244944D01*
X0406612Y0245086D01*
X0406690Y0245227D01*
X0406772Y0245365D01*
X0406857Y0245502D01*
X0406945Y0245636D01*
X0407037Y0245768D01*
X0407132Y0245898D01*
X0407230Y0246026D01*
X0407331Y0246151D01*
X0407435Y0246273D01*
X0407542Y0246393D01*
X0407652Y0246510D01*
X0407765Y0246625D01*
X0407881Y0246736D01*
X0408000Y0246845D01*
X0408121Y0246950D01*
X0408245Y0247053D01*
X0408371Y0247153D01*
X0408499Y0247249D01*
X0408630Y0247342D01*
X0408764Y0247432D01*
X0408899Y0247519D01*
X0409037Y0247602D01*
X0409176Y0247682D01*
X0409318Y0247758D01*
X0409461Y0247831D01*
X0409606Y0247900D01*
X0409753Y0247966D01*
X0409901Y0248028D01*
X0410051Y0248086D01*
X0410202Y0248141D01*
X0410355Y0248192D01*
X0410509Y0248239D01*
X0410664Y0248282D01*
X0410820Y0248321D01*
X0410976Y0248357D01*
X0411134Y0248388D01*
X0411292Y0248416D01*
X0411451Y0248440D01*
X0411611Y0248460D01*
X0411771Y0248476D01*
X0411931Y0248488D01*
X0412092Y0248496D01*
X0412253Y0248500D01*
X0412413Y0248500D01*
X0412574Y0248496D01*
X0412735Y0248488D01*
X0412895Y0248476D01*
X0413055Y0248460D01*
X0413215Y0248440D01*
X0413374Y0248416D01*
X0413532Y0248388D01*
X0413690Y0248357D01*
X0413846Y0248321D01*
X0414002Y0248282D01*
X0414157Y0248239D01*
X0414311Y0248192D01*
X0414464Y0248141D01*
X0414615Y0248086D01*
X0414765Y0248028D01*
X0414913Y0247966D01*
X0415060Y0247900D01*
X0415205Y0247831D01*
X0415348Y0247758D01*
X0415490Y0247682D01*
X0415629Y0247602D01*
X0415767Y0247519D01*
X0415902Y0247432D01*
X0416036Y0247342D01*
X0416167Y0247249D01*
X0416295Y0247153D01*
X0416421Y0247053D01*
X0416545Y0246950D01*
X0416666Y0246845D01*
X0416785Y0246736D01*
X0416901Y0246625D01*
X0417014Y0246510D01*
X0417124Y0246393D01*
X0417231Y0246273D01*
X0417335Y0246151D01*
X0417436Y0246026D01*
X0417534Y0245898D01*
X0417629Y0245768D01*
X0417721Y0245636D01*
X0417809Y0245502D01*
X0417894Y0245365D01*
X0417976Y0245227D01*
X0418054Y0245086D01*
X0418128Y0244944D01*
X0418199Y0244800D01*
X0418267Y0244654D01*
X0418330Y0244506D01*
X0418391Y0244357D01*
X0418447Y0244206D01*
X0418500Y0244054D01*
X0418549Y0243901D01*
X0418594Y0243747D01*
X0418635Y0243592D01*
X0418673Y0243435D01*
X0418706Y0243278D01*
X0418736Y0243120D01*
X0418762Y0242961D01*
X0418783Y0242802D01*
X0418801Y0242642D01*
X0418815Y0242482D01*
X0418825Y0242321D01*
X0418831Y0242161D01*
X0418833Y0242000D01*
X0418831Y0241839D01*
X0418825Y0241679D01*
X0418815Y0241518D01*
X0418801Y0241358D01*
X0418783Y0241198D01*
X0418762Y0241039D01*
X0418736Y0240880D01*
X0418706Y0240722D01*
X0418673Y0240565D01*
X0418635Y0240408D01*
X0418594Y0240253D01*
X0418549Y0240099D01*
X0418500Y0239946D01*
X0418447Y0239794D01*
X0418391Y0239643D01*
X0418330Y0239494D01*
X0418267Y0239346D01*
X0418199Y0239200D01*
X0418128Y0239056D01*
X0418054Y0238914D01*
X0417976Y0238773D01*
X0417894Y0238635D01*
X0417809Y0238498D01*
X0417721Y0238364D01*
X0417629Y0238232D01*
X0417534Y0238102D01*
X0417436Y0237974D01*
X0417335Y0237849D01*
X0417231Y0237727D01*
X0417124Y0237607D01*
X0417014Y0237490D01*
X0416901Y0237375D01*
X0416785Y0237264D01*
X0416666Y0237155D01*
X0416545Y0237050D01*
X0416421Y0236947D01*
X0416295Y0236847D01*
X0416167Y0236751D01*
X0416036Y0236658D01*
X0415902Y0236568D01*
X0415767Y0236481D01*
X0415629Y0236398D01*
X0415490Y0236318D01*
X0415348Y0236242D01*
X0415205Y0236169D01*
X0415060Y0236100D01*
X0414913Y0236034D01*
X0414765Y0235972D01*
X0414615Y0235914D01*
X0414464Y0235859D01*
X0414311Y0235808D01*
X0414157Y0235761D01*
X0414002Y0235718D01*
X0413846Y0235679D01*
X0413690Y0235643D01*
X0413532Y0235612D01*
X0413374Y0235584D01*
X0413215Y0235560D01*
X0413055Y0235540D01*
X0412895Y0235524D01*
X0412735Y0235512D01*
X0412574Y0235504D01*
X0412413Y0235500D01*
X0412253Y0235500D01*
X0412092Y0235504D01*
X0411931Y0235512D01*
X0411771Y0235524D01*
X0411611Y0235540D01*
X0411451Y0235560D01*
X0411292Y0235584D01*
X0411134Y0235612D01*
X0410976Y0235643D01*
X0410820Y0235679D01*
X0410664Y0235718D01*
X0410509Y0235761D01*
X0410355Y0235808D01*
X0410202Y0235859D01*
X0410051Y0235914D01*
X0409901Y0235972D01*
X0409753Y0236034D01*
X0409606Y0236100D01*
X0409461Y0236169D01*
X0409318Y0236242D01*
X0409176Y0236318D01*
X0409037Y0236398D01*
X0408899Y0236481D01*
X0408764Y0236568D01*
X0408630Y0236658D01*
X0408499Y0236751D01*
X0408371Y0236847D01*
X0408245Y0236947D01*
X0408121Y0237050D01*
X0408000Y0237155D01*
X0407881Y0237264D01*
X0407765Y0237375D01*
X0407652Y0237490D01*
X0407542Y0237607D01*
X0407435Y0237727D01*
X0407331Y0237849D01*
X0407230Y0237974D01*
X0407132Y0238102D01*
X0407037Y0238232D01*
X0406945Y0238364D01*
X0406857Y0238498D01*
X0406772Y0238635D01*
X0406690Y0238773D01*
X0406612Y0238914D01*
X0406538Y0239056D01*
X0406467Y0239200D01*
X0406399Y0239346D01*
X0406336Y0239494D01*
X0406275Y0239643D01*
X0406219Y0239794D01*
X0406166Y0239946D01*
X0406117Y0240099D01*
X0406072Y0240253D01*
X0406031Y0240408D01*
X0405993Y0240565D01*
X0405960Y0240722D01*
X0405930Y0240880D01*
X0405904Y0241039D01*
X0405883Y0241198D01*
X0405865Y0241358D01*
X0405851Y0241518D01*
X0405841Y0241679D01*
X0405835Y0241839D01*
X0405833Y0242000D01*
X0405833Y0140000D02*
X0405835Y0140161D01*
X0405841Y0140321D01*
X0405851Y0140482D01*
X0405865Y0140642D01*
X0405883Y0140802D01*
X0405904Y0140961D01*
X0405930Y0141120D01*
X0405960Y0141278D01*
X0405993Y0141435D01*
X0406031Y0141592D01*
X0406072Y0141747D01*
X0406117Y0141901D01*
X0406166Y0142054D01*
X0406219Y0142206D01*
X0406275Y0142357D01*
X0406336Y0142506D01*
X0406399Y0142654D01*
X0406467Y0142800D01*
X0406538Y0142944D01*
X0406612Y0143086D01*
X0406690Y0143227D01*
X0406772Y0143365D01*
X0406857Y0143502D01*
X0406945Y0143636D01*
X0407037Y0143768D01*
X0407132Y0143898D01*
X0407230Y0144026D01*
X0407331Y0144151D01*
X0407435Y0144273D01*
X0407542Y0144393D01*
X0407652Y0144510D01*
X0407765Y0144625D01*
X0407881Y0144736D01*
X0408000Y0144845D01*
X0408121Y0144950D01*
X0408245Y0145053D01*
X0408371Y0145153D01*
X0408499Y0145249D01*
X0408630Y0145342D01*
X0408764Y0145432D01*
X0408899Y0145519D01*
X0409037Y0145602D01*
X0409176Y0145682D01*
X0409318Y0145758D01*
X0409461Y0145831D01*
X0409606Y0145900D01*
X0409753Y0145966D01*
X0409901Y0146028D01*
X0410051Y0146086D01*
X0410202Y0146141D01*
X0410355Y0146192D01*
X0410509Y0146239D01*
X0410664Y0146282D01*
X0410820Y0146321D01*
X0410976Y0146357D01*
X0411134Y0146388D01*
X0411292Y0146416D01*
X0411451Y0146440D01*
X0411611Y0146460D01*
X0411771Y0146476D01*
X0411931Y0146488D01*
X0412092Y0146496D01*
X0412253Y0146500D01*
X0412413Y0146500D01*
X0412574Y0146496D01*
X0412735Y0146488D01*
X0412895Y0146476D01*
X0413055Y0146460D01*
X0413215Y0146440D01*
X0413374Y0146416D01*
X0413532Y0146388D01*
X0413690Y0146357D01*
X0413846Y0146321D01*
X0414002Y0146282D01*
X0414157Y0146239D01*
X0414311Y0146192D01*
X0414464Y0146141D01*
X0414615Y0146086D01*
X0414765Y0146028D01*
X0414913Y0145966D01*
X0415060Y0145900D01*
X0415205Y0145831D01*
X0415348Y0145758D01*
X0415490Y0145682D01*
X0415629Y0145602D01*
X0415767Y0145519D01*
X0415902Y0145432D01*
X0416036Y0145342D01*
X0416167Y0145249D01*
X0416295Y0145153D01*
X0416421Y0145053D01*
X0416545Y0144950D01*
X0416666Y0144845D01*
X0416785Y0144736D01*
X0416901Y0144625D01*
X0417014Y0144510D01*
X0417124Y0144393D01*
X0417231Y0144273D01*
X0417335Y0144151D01*
X0417436Y0144026D01*
X0417534Y0143898D01*
X0417629Y0143768D01*
X0417721Y0143636D01*
X0417809Y0143502D01*
X0417894Y0143365D01*
X0417976Y0143227D01*
X0418054Y0143086D01*
X0418128Y0142944D01*
X0418199Y0142800D01*
X0418267Y0142654D01*
X0418330Y0142506D01*
X0418391Y0142357D01*
X0418447Y0142206D01*
X0418500Y0142054D01*
X0418549Y0141901D01*
X0418594Y0141747D01*
X0418635Y0141592D01*
X0418673Y0141435D01*
X0418706Y0141278D01*
X0418736Y0141120D01*
X0418762Y0140961D01*
X0418783Y0140802D01*
X0418801Y0140642D01*
X0418815Y0140482D01*
X0418825Y0140321D01*
X0418831Y0140161D01*
X0418833Y0140000D01*
X0418831Y0139839D01*
X0418825Y0139679D01*
X0418815Y0139518D01*
X0418801Y0139358D01*
X0418783Y0139198D01*
X0418762Y0139039D01*
X0418736Y0138880D01*
X0418706Y0138722D01*
X0418673Y0138565D01*
X0418635Y0138408D01*
X0418594Y0138253D01*
X0418549Y0138099D01*
X0418500Y0137946D01*
X0418447Y0137794D01*
X0418391Y0137643D01*
X0418330Y0137494D01*
X0418267Y0137346D01*
X0418199Y0137200D01*
X0418128Y0137056D01*
X0418054Y0136914D01*
X0417976Y0136773D01*
X0417894Y0136635D01*
X0417809Y0136498D01*
X0417721Y0136364D01*
X0417629Y0136232D01*
X0417534Y0136102D01*
X0417436Y0135974D01*
X0417335Y0135849D01*
X0417231Y0135727D01*
X0417124Y0135607D01*
X0417014Y0135490D01*
X0416901Y0135375D01*
X0416785Y0135264D01*
X0416666Y0135155D01*
X0416545Y0135050D01*
X0416421Y0134947D01*
X0416295Y0134847D01*
X0416167Y0134751D01*
X0416036Y0134658D01*
X0415902Y0134568D01*
X0415767Y0134481D01*
X0415629Y0134398D01*
X0415490Y0134318D01*
X0415348Y0134242D01*
X0415205Y0134169D01*
X0415060Y0134100D01*
X0414913Y0134034D01*
X0414765Y0133972D01*
X0414615Y0133914D01*
X0414464Y0133859D01*
X0414311Y0133808D01*
X0414157Y0133761D01*
X0414002Y0133718D01*
X0413846Y0133679D01*
X0413690Y0133643D01*
X0413532Y0133612D01*
X0413374Y0133584D01*
X0413215Y0133560D01*
X0413055Y0133540D01*
X0412895Y0133524D01*
X0412735Y0133512D01*
X0412574Y0133504D01*
X0412413Y0133500D01*
X0412253Y0133500D01*
X0412092Y0133504D01*
X0411931Y0133512D01*
X0411771Y0133524D01*
X0411611Y0133540D01*
X0411451Y0133560D01*
X0411292Y0133584D01*
X0411134Y0133612D01*
X0410976Y0133643D01*
X0410820Y0133679D01*
X0410664Y0133718D01*
X0410509Y0133761D01*
X0410355Y0133808D01*
X0410202Y0133859D01*
X0410051Y0133914D01*
X0409901Y0133972D01*
X0409753Y0134034D01*
X0409606Y0134100D01*
X0409461Y0134169D01*
X0409318Y0134242D01*
X0409176Y0134318D01*
X0409037Y0134398D01*
X0408899Y0134481D01*
X0408764Y0134568D01*
X0408630Y0134658D01*
X0408499Y0134751D01*
X0408371Y0134847D01*
X0408245Y0134947D01*
X0408121Y0135050D01*
X0408000Y0135155D01*
X0407881Y0135264D01*
X0407765Y0135375D01*
X0407652Y0135490D01*
X0407542Y0135607D01*
X0407435Y0135727D01*
X0407331Y0135849D01*
X0407230Y0135974D01*
X0407132Y0136102D01*
X0407037Y0136232D01*
X0406945Y0136364D01*
X0406857Y0136498D01*
X0406772Y0136635D01*
X0406690Y0136773D01*
X0406612Y0136914D01*
X0406538Y0137056D01*
X0406467Y0137200D01*
X0406399Y0137346D01*
X0406336Y0137494D01*
X0406275Y0137643D01*
X0406219Y0137794D01*
X0406166Y0137946D01*
X0406117Y0138099D01*
X0406072Y0138253D01*
X0406031Y0138408D01*
X0405993Y0138565D01*
X0405960Y0138722D01*
X0405930Y0138880D01*
X0405904Y0139039D01*
X0405883Y0139198D01*
X0405865Y0139358D01*
X0405851Y0139518D01*
X0405841Y0139679D01*
X0405835Y0139839D01*
X0405833Y0140000D01*
X0325833Y0140000D02*
X0325835Y0140161D01*
X0325841Y0140321D01*
X0325851Y0140482D01*
X0325865Y0140642D01*
X0325883Y0140802D01*
X0325904Y0140961D01*
X0325930Y0141120D01*
X0325960Y0141278D01*
X0325993Y0141435D01*
X0326031Y0141592D01*
X0326072Y0141747D01*
X0326117Y0141901D01*
X0326166Y0142054D01*
X0326219Y0142206D01*
X0326275Y0142357D01*
X0326336Y0142506D01*
X0326399Y0142654D01*
X0326467Y0142800D01*
X0326538Y0142944D01*
X0326612Y0143086D01*
X0326690Y0143227D01*
X0326772Y0143365D01*
X0326857Y0143502D01*
X0326945Y0143636D01*
X0327037Y0143768D01*
X0327132Y0143898D01*
X0327230Y0144026D01*
X0327331Y0144151D01*
X0327435Y0144273D01*
X0327542Y0144393D01*
X0327652Y0144510D01*
X0327765Y0144625D01*
X0327881Y0144736D01*
X0328000Y0144845D01*
X0328121Y0144950D01*
X0328245Y0145053D01*
X0328371Y0145153D01*
X0328499Y0145249D01*
X0328630Y0145342D01*
X0328764Y0145432D01*
X0328899Y0145519D01*
X0329037Y0145602D01*
X0329176Y0145682D01*
X0329318Y0145758D01*
X0329461Y0145831D01*
X0329606Y0145900D01*
X0329753Y0145966D01*
X0329901Y0146028D01*
X0330051Y0146086D01*
X0330202Y0146141D01*
X0330355Y0146192D01*
X0330509Y0146239D01*
X0330664Y0146282D01*
X0330820Y0146321D01*
X0330976Y0146357D01*
X0331134Y0146388D01*
X0331292Y0146416D01*
X0331451Y0146440D01*
X0331611Y0146460D01*
X0331771Y0146476D01*
X0331931Y0146488D01*
X0332092Y0146496D01*
X0332253Y0146500D01*
X0332413Y0146500D01*
X0332574Y0146496D01*
X0332735Y0146488D01*
X0332895Y0146476D01*
X0333055Y0146460D01*
X0333215Y0146440D01*
X0333374Y0146416D01*
X0333532Y0146388D01*
X0333690Y0146357D01*
X0333846Y0146321D01*
X0334002Y0146282D01*
X0334157Y0146239D01*
X0334311Y0146192D01*
X0334464Y0146141D01*
X0334615Y0146086D01*
X0334765Y0146028D01*
X0334913Y0145966D01*
X0335060Y0145900D01*
X0335205Y0145831D01*
X0335348Y0145758D01*
X0335490Y0145682D01*
X0335629Y0145602D01*
X0335767Y0145519D01*
X0335902Y0145432D01*
X0336036Y0145342D01*
X0336167Y0145249D01*
X0336295Y0145153D01*
X0336421Y0145053D01*
X0336545Y0144950D01*
X0336666Y0144845D01*
X0336785Y0144736D01*
X0336901Y0144625D01*
X0337014Y0144510D01*
X0337124Y0144393D01*
X0337231Y0144273D01*
X0337335Y0144151D01*
X0337436Y0144026D01*
X0337534Y0143898D01*
X0337629Y0143768D01*
X0337721Y0143636D01*
X0337809Y0143502D01*
X0337894Y0143365D01*
X0337976Y0143227D01*
X0338054Y0143086D01*
X0338128Y0142944D01*
X0338199Y0142800D01*
X0338267Y0142654D01*
X0338330Y0142506D01*
X0338391Y0142357D01*
X0338447Y0142206D01*
X0338500Y0142054D01*
X0338549Y0141901D01*
X0338594Y0141747D01*
X0338635Y0141592D01*
X0338673Y0141435D01*
X0338706Y0141278D01*
X0338736Y0141120D01*
X0338762Y0140961D01*
X0338783Y0140802D01*
X0338801Y0140642D01*
X0338815Y0140482D01*
X0338825Y0140321D01*
X0338831Y0140161D01*
X0338833Y0140000D01*
X0338831Y0139839D01*
X0338825Y0139679D01*
X0338815Y0139518D01*
X0338801Y0139358D01*
X0338783Y0139198D01*
X0338762Y0139039D01*
X0338736Y0138880D01*
X0338706Y0138722D01*
X0338673Y0138565D01*
X0338635Y0138408D01*
X0338594Y0138253D01*
X0338549Y0138099D01*
X0338500Y0137946D01*
X0338447Y0137794D01*
X0338391Y0137643D01*
X0338330Y0137494D01*
X0338267Y0137346D01*
X0338199Y0137200D01*
X0338128Y0137056D01*
X0338054Y0136914D01*
X0337976Y0136773D01*
X0337894Y0136635D01*
X0337809Y0136498D01*
X0337721Y0136364D01*
X0337629Y0136232D01*
X0337534Y0136102D01*
X0337436Y0135974D01*
X0337335Y0135849D01*
X0337231Y0135727D01*
X0337124Y0135607D01*
X0337014Y0135490D01*
X0336901Y0135375D01*
X0336785Y0135264D01*
X0336666Y0135155D01*
X0336545Y0135050D01*
X0336421Y0134947D01*
X0336295Y0134847D01*
X0336167Y0134751D01*
X0336036Y0134658D01*
X0335902Y0134568D01*
X0335767Y0134481D01*
X0335629Y0134398D01*
X0335490Y0134318D01*
X0335348Y0134242D01*
X0335205Y0134169D01*
X0335060Y0134100D01*
X0334913Y0134034D01*
X0334765Y0133972D01*
X0334615Y0133914D01*
X0334464Y0133859D01*
X0334311Y0133808D01*
X0334157Y0133761D01*
X0334002Y0133718D01*
X0333846Y0133679D01*
X0333690Y0133643D01*
X0333532Y0133612D01*
X0333374Y0133584D01*
X0333215Y0133560D01*
X0333055Y0133540D01*
X0332895Y0133524D01*
X0332735Y0133512D01*
X0332574Y0133504D01*
X0332413Y0133500D01*
X0332253Y0133500D01*
X0332092Y0133504D01*
X0331931Y0133512D01*
X0331771Y0133524D01*
X0331611Y0133540D01*
X0331451Y0133560D01*
X0331292Y0133584D01*
X0331134Y0133612D01*
X0330976Y0133643D01*
X0330820Y0133679D01*
X0330664Y0133718D01*
X0330509Y0133761D01*
X0330355Y0133808D01*
X0330202Y0133859D01*
X0330051Y0133914D01*
X0329901Y0133972D01*
X0329753Y0134034D01*
X0329606Y0134100D01*
X0329461Y0134169D01*
X0329318Y0134242D01*
X0329176Y0134318D01*
X0329037Y0134398D01*
X0328899Y0134481D01*
X0328764Y0134568D01*
X0328630Y0134658D01*
X0328499Y0134751D01*
X0328371Y0134847D01*
X0328245Y0134947D01*
X0328121Y0135050D01*
X0328000Y0135155D01*
X0327881Y0135264D01*
X0327765Y0135375D01*
X0327652Y0135490D01*
X0327542Y0135607D01*
X0327435Y0135727D01*
X0327331Y0135849D01*
X0327230Y0135974D01*
X0327132Y0136102D01*
X0327037Y0136232D01*
X0326945Y0136364D01*
X0326857Y0136498D01*
X0326772Y0136635D01*
X0326690Y0136773D01*
X0326612Y0136914D01*
X0326538Y0137056D01*
X0326467Y0137200D01*
X0326399Y0137346D01*
X0326336Y0137494D01*
X0326275Y0137643D01*
X0326219Y0137794D01*
X0326166Y0137946D01*
X0326117Y0138099D01*
X0326072Y0138253D01*
X0326031Y0138408D01*
X0325993Y0138565D01*
X0325960Y0138722D01*
X0325930Y0138880D01*
X0325904Y0139039D01*
X0325883Y0139198D01*
X0325865Y0139358D01*
X0325851Y0139518D01*
X0325841Y0139679D01*
X0325835Y0139839D01*
X0325833Y0140000D01*
X0303833Y0140000D02*
X0303835Y0140161D01*
X0303841Y0140321D01*
X0303851Y0140482D01*
X0303865Y0140642D01*
X0303883Y0140802D01*
X0303904Y0140961D01*
X0303930Y0141120D01*
X0303960Y0141278D01*
X0303993Y0141435D01*
X0304031Y0141592D01*
X0304072Y0141747D01*
X0304117Y0141901D01*
X0304166Y0142054D01*
X0304219Y0142206D01*
X0304275Y0142357D01*
X0304336Y0142506D01*
X0304399Y0142654D01*
X0304467Y0142800D01*
X0304538Y0142944D01*
X0304612Y0143086D01*
X0304690Y0143227D01*
X0304772Y0143365D01*
X0304857Y0143502D01*
X0304945Y0143636D01*
X0305037Y0143768D01*
X0305132Y0143898D01*
X0305230Y0144026D01*
X0305331Y0144151D01*
X0305435Y0144273D01*
X0305542Y0144393D01*
X0305652Y0144510D01*
X0305765Y0144625D01*
X0305881Y0144736D01*
X0306000Y0144845D01*
X0306121Y0144950D01*
X0306245Y0145053D01*
X0306371Y0145153D01*
X0306499Y0145249D01*
X0306630Y0145342D01*
X0306764Y0145432D01*
X0306899Y0145519D01*
X0307037Y0145602D01*
X0307176Y0145682D01*
X0307318Y0145758D01*
X0307461Y0145831D01*
X0307606Y0145900D01*
X0307753Y0145966D01*
X0307901Y0146028D01*
X0308051Y0146086D01*
X0308202Y0146141D01*
X0308355Y0146192D01*
X0308509Y0146239D01*
X0308664Y0146282D01*
X0308820Y0146321D01*
X0308976Y0146357D01*
X0309134Y0146388D01*
X0309292Y0146416D01*
X0309451Y0146440D01*
X0309611Y0146460D01*
X0309771Y0146476D01*
X0309931Y0146488D01*
X0310092Y0146496D01*
X0310253Y0146500D01*
X0310413Y0146500D01*
X0310574Y0146496D01*
X0310735Y0146488D01*
X0310895Y0146476D01*
X0311055Y0146460D01*
X0311215Y0146440D01*
X0311374Y0146416D01*
X0311532Y0146388D01*
X0311690Y0146357D01*
X0311846Y0146321D01*
X0312002Y0146282D01*
X0312157Y0146239D01*
X0312311Y0146192D01*
X0312464Y0146141D01*
X0312615Y0146086D01*
X0312765Y0146028D01*
X0312913Y0145966D01*
X0313060Y0145900D01*
X0313205Y0145831D01*
X0313348Y0145758D01*
X0313490Y0145682D01*
X0313629Y0145602D01*
X0313767Y0145519D01*
X0313902Y0145432D01*
X0314036Y0145342D01*
X0314167Y0145249D01*
X0314295Y0145153D01*
X0314421Y0145053D01*
X0314545Y0144950D01*
X0314666Y0144845D01*
X0314785Y0144736D01*
X0314901Y0144625D01*
X0315014Y0144510D01*
X0315124Y0144393D01*
X0315231Y0144273D01*
X0315335Y0144151D01*
X0315436Y0144026D01*
X0315534Y0143898D01*
X0315629Y0143768D01*
X0315721Y0143636D01*
X0315809Y0143502D01*
X0315894Y0143365D01*
X0315976Y0143227D01*
X0316054Y0143086D01*
X0316128Y0142944D01*
X0316199Y0142800D01*
X0316267Y0142654D01*
X0316330Y0142506D01*
X0316391Y0142357D01*
X0316447Y0142206D01*
X0316500Y0142054D01*
X0316549Y0141901D01*
X0316594Y0141747D01*
X0316635Y0141592D01*
X0316673Y0141435D01*
X0316706Y0141278D01*
X0316736Y0141120D01*
X0316762Y0140961D01*
X0316783Y0140802D01*
X0316801Y0140642D01*
X0316815Y0140482D01*
X0316825Y0140321D01*
X0316831Y0140161D01*
X0316833Y0140000D01*
X0316831Y0139839D01*
X0316825Y0139679D01*
X0316815Y0139518D01*
X0316801Y0139358D01*
X0316783Y0139198D01*
X0316762Y0139039D01*
X0316736Y0138880D01*
X0316706Y0138722D01*
X0316673Y0138565D01*
X0316635Y0138408D01*
X0316594Y0138253D01*
X0316549Y0138099D01*
X0316500Y0137946D01*
X0316447Y0137794D01*
X0316391Y0137643D01*
X0316330Y0137494D01*
X0316267Y0137346D01*
X0316199Y0137200D01*
X0316128Y0137056D01*
X0316054Y0136914D01*
X0315976Y0136773D01*
X0315894Y0136635D01*
X0315809Y0136498D01*
X0315721Y0136364D01*
X0315629Y0136232D01*
X0315534Y0136102D01*
X0315436Y0135974D01*
X0315335Y0135849D01*
X0315231Y0135727D01*
X0315124Y0135607D01*
X0315014Y0135490D01*
X0314901Y0135375D01*
X0314785Y0135264D01*
X0314666Y0135155D01*
X0314545Y0135050D01*
X0314421Y0134947D01*
X0314295Y0134847D01*
X0314167Y0134751D01*
X0314036Y0134658D01*
X0313902Y0134568D01*
X0313767Y0134481D01*
X0313629Y0134398D01*
X0313490Y0134318D01*
X0313348Y0134242D01*
X0313205Y0134169D01*
X0313060Y0134100D01*
X0312913Y0134034D01*
X0312765Y0133972D01*
X0312615Y0133914D01*
X0312464Y0133859D01*
X0312311Y0133808D01*
X0312157Y0133761D01*
X0312002Y0133718D01*
X0311846Y0133679D01*
X0311690Y0133643D01*
X0311532Y0133612D01*
X0311374Y0133584D01*
X0311215Y0133560D01*
X0311055Y0133540D01*
X0310895Y0133524D01*
X0310735Y0133512D01*
X0310574Y0133504D01*
X0310413Y0133500D01*
X0310253Y0133500D01*
X0310092Y0133504D01*
X0309931Y0133512D01*
X0309771Y0133524D01*
X0309611Y0133540D01*
X0309451Y0133560D01*
X0309292Y0133584D01*
X0309134Y0133612D01*
X0308976Y0133643D01*
X0308820Y0133679D01*
X0308664Y0133718D01*
X0308509Y0133761D01*
X0308355Y0133808D01*
X0308202Y0133859D01*
X0308051Y0133914D01*
X0307901Y0133972D01*
X0307753Y0134034D01*
X0307606Y0134100D01*
X0307461Y0134169D01*
X0307318Y0134242D01*
X0307176Y0134318D01*
X0307037Y0134398D01*
X0306899Y0134481D01*
X0306764Y0134568D01*
X0306630Y0134658D01*
X0306499Y0134751D01*
X0306371Y0134847D01*
X0306245Y0134947D01*
X0306121Y0135050D01*
X0306000Y0135155D01*
X0305881Y0135264D01*
X0305765Y0135375D01*
X0305652Y0135490D01*
X0305542Y0135607D01*
X0305435Y0135727D01*
X0305331Y0135849D01*
X0305230Y0135974D01*
X0305132Y0136102D01*
X0305037Y0136232D01*
X0304945Y0136364D01*
X0304857Y0136498D01*
X0304772Y0136635D01*
X0304690Y0136773D01*
X0304612Y0136914D01*
X0304538Y0137056D01*
X0304467Y0137200D01*
X0304399Y0137346D01*
X0304336Y0137494D01*
X0304275Y0137643D01*
X0304219Y0137794D01*
X0304166Y0137946D01*
X0304117Y0138099D01*
X0304072Y0138253D01*
X0304031Y0138408D01*
X0303993Y0138565D01*
X0303960Y0138722D01*
X0303930Y0138880D01*
X0303904Y0139039D01*
X0303883Y0139198D01*
X0303865Y0139358D01*
X0303851Y0139518D01*
X0303841Y0139679D01*
X0303835Y0139839D01*
X0303833Y0140000D01*
X0223833Y0140000D02*
X0223835Y0140161D01*
X0223841Y0140321D01*
X0223851Y0140482D01*
X0223865Y0140642D01*
X0223883Y0140802D01*
X0223904Y0140961D01*
X0223930Y0141120D01*
X0223960Y0141278D01*
X0223993Y0141435D01*
X0224031Y0141592D01*
X0224072Y0141747D01*
X0224117Y0141901D01*
X0224166Y0142054D01*
X0224219Y0142206D01*
X0224275Y0142357D01*
X0224336Y0142506D01*
X0224399Y0142654D01*
X0224467Y0142800D01*
X0224538Y0142944D01*
X0224612Y0143086D01*
X0224690Y0143227D01*
X0224772Y0143365D01*
X0224857Y0143502D01*
X0224945Y0143636D01*
X0225037Y0143768D01*
X0225132Y0143898D01*
X0225230Y0144026D01*
X0225331Y0144151D01*
X0225435Y0144273D01*
X0225542Y0144393D01*
X0225652Y0144510D01*
X0225765Y0144625D01*
X0225881Y0144736D01*
X0226000Y0144845D01*
X0226121Y0144950D01*
X0226245Y0145053D01*
X0226371Y0145153D01*
X0226499Y0145249D01*
X0226630Y0145342D01*
X0226764Y0145432D01*
X0226899Y0145519D01*
X0227037Y0145602D01*
X0227176Y0145682D01*
X0227318Y0145758D01*
X0227461Y0145831D01*
X0227606Y0145900D01*
X0227753Y0145966D01*
X0227901Y0146028D01*
X0228051Y0146086D01*
X0228202Y0146141D01*
X0228355Y0146192D01*
X0228509Y0146239D01*
X0228664Y0146282D01*
X0228820Y0146321D01*
X0228976Y0146357D01*
X0229134Y0146388D01*
X0229292Y0146416D01*
X0229451Y0146440D01*
X0229611Y0146460D01*
X0229771Y0146476D01*
X0229931Y0146488D01*
X0230092Y0146496D01*
X0230253Y0146500D01*
X0230413Y0146500D01*
X0230574Y0146496D01*
X0230735Y0146488D01*
X0230895Y0146476D01*
X0231055Y0146460D01*
X0231215Y0146440D01*
X0231374Y0146416D01*
X0231532Y0146388D01*
X0231690Y0146357D01*
X0231846Y0146321D01*
X0232002Y0146282D01*
X0232157Y0146239D01*
X0232311Y0146192D01*
X0232464Y0146141D01*
X0232615Y0146086D01*
X0232765Y0146028D01*
X0232913Y0145966D01*
X0233060Y0145900D01*
X0233205Y0145831D01*
X0233348Y0145758D01*
X0233490Y0145682D01*
X0233629Y0145602D01*
X0233767Y0145519D01*
X0233902Y0145432D01*
X0234036Y0145342D01*
X0234167Y0145249D01*
X0234295Y0145153D01*
X0234421Y0145053D01*
X0234545Y0144950D01*
X0234666Y0144845D01*
X0234785Y0144736D01*
X0234901Y0144625D01*
X0235014Y0144510D01*
X0235124Y0144393D01*
X0235231Y0144273D01*
X0235335Y0144151D01*
X0235436Y0144026D01*
X0235534Y0143898D01*
X0235629Y0143768D01*
X0235721Y0143636D01*
X0235809Y0143502D01*
X0235894Y0143365D01*
X0235976Y0143227D01*
X0236054Y0143086D01*
X0236128Y0142944D01*
X0236199Y0142800D01*
X0236267Y0142654D01*
X0236330Y0142506D01*
X0236391Y0142357D01*
X0236447Y0142206D01*
X0236500Y0142054D01*
X0236549Y0141901D01*
X0236594Y0141747D01*
X0236635Y0141592D01*
X0236673Y0141435D01*
X0236706Y0141278D01*
X0236736Y0141120D01*
X0236762Y0140961D01*
X0236783Y0140802D01*
X0236801Y0140642D01*
X0236815Y0140482D01*
X0236825Y0140321D01*
X0236831Y0140161D01*
X0236833Y0140000D01*
X0236831Y0139839D01*
X0236825Y0139679D01*
X0236815Y0139518D01*
X0236801Y0139358D01*
X0236783Y0139198D01*
X0236762Y0139039D01*
X0236736Y0138880D01*
X0236706Y0138722D01*
X0236673Y0138565D01*
X0236635Y0138408D01*
X0236594Y0138253D01*
X0236549Y0138099D01*
X0236500Y0137946D01*
X0236447Y0137794D01*
X0236391Y0137643D01*
X0236330Y0137494D01*
X0236267Y0137346D01*
X0236199Y0137200D01*
X0236128Y0137056D01*
X0236054Y0136914D01*
X0235976Y0136773D01*
X0235894Y0136635D01*
X0235809Y0136498D01*
X0235721Y0136364D01*
X0235629Y0136232D01*
X0235534Y0136102D01*
X0235436Y0135974D01*
X0235335Y0135849D01*
X0235231Y0135727D01*
X0235124Y0135607D01*
X0235014Y0135490D01*
X0234901Y0135375D01*
X0234785Y0135264D01*
X0234666Y0135155D01*
X0234545Y0135050D01*
X0234421Y0134947D01*
X0234295Y0134847D01*
X0234167Y0134751D01*
X0234036Y0134658D01*
X0233902Y0134568D01*
X0233767Y0134481D01*
X0233629Y0134398D01*
X0233490Y0134318D01*
X0233348Y0134242D01*
X0233205Y0134169D01*
X0233060Y0134100D01*
X0232913Y0134034D01*
X0232765Y0133972D01*
X0232615Y0133914D01*
X0232464Y0133859D01*
X0232311Y0133808D01*
X0232157Y0133761D01*
X0232002Y0133718D01*
X0231846Y0133679D01*
X0231690Y0133643D01*
X0231532Y0133612D01*
X0231374Y0133584D01*
X0231215Y0133560D01*
X0231055Y0133540D01*
X0230895Y0133524D01*
X0230735Y0133512D01*
X0230574Y0133504D01*
X0230413Y0133500D01*
X0230253Y0133500D01*
X0230092Y0133504D01*
X0229931Y0133512D01*
X0229771Y0133524D01*
X0229611Y0133540D01*
X0229451Y0133560D01*
X0229292Y0133584D01*
X0229134Y0133612D01*
X0228976Y0133643D01*
X0228820Y0133679D01*
X0228664Y0133718D01*
X0228509Y0133761D01*
X0228355Y0133808D01*
X0228202Y0133859D01*
X0228051Y0133914D01*
X0227901Y0133972D01*
X0227753Y0134034D01*
X0227606Y0134100D01*
X0227461Y0134169D01*
X0227318Y0134242D01*
X0227176Y0134318D01*
X0227037Y0134398D01*
X0226899Y0134481D01*
X0226764Y0134568D01*
X0226630Y0134658D01*
X0226499Y0134751D01*
X0226371Y0134847D01*
X0226245Y0134947D01*
X0226121Y0135050D01*
X0226000Y0135155D01*
X0225881Y0135264D01*
X0225765Y0135375D01*
X0225652Y0135490D01*
X0225542Y0135607D01*
X0225435Y0135727D01*
X0225331Y0135849D01*
X0225230Y0135974D01*
X0225132Y0136102D01*
X0225037Y0136232D01*
X0224945Y0136364D01*
X0224857Y0136498D01*
X0224772Y0136635D01*
X0224690Y0136773D01*
X0224612Y0136914D01*
X0224538Y0137056D01*
X0224467Y0137200D01*
X0224399Y0137346D01*
X0224336Y0137494D01*
X0224275Y0137643D01*
X0224219Y0137794D01*
X0224166Y0137946D01*
X0224117Y0138099D01*
X0224072Y0138253D01*
X0224031Y0138408D01*
X0223993Y0138565D01*
X0223960Y0138722D01*
X0223930Y0138880D01*
X0223904Y0139039D01*
X0223883Y0139198D01*
X0223865Y0139358D01*
X0223851Y0139518D01*
X0223841Y0139679D01*
X0223835Y0139839D01*
X0223833Y0140000D01*
X0201833Y0140000D02*
X0201835Y0140161D01*
X0201841Y0140321D01*
X0201851Y0140482D01*
X0201865Y0140642D01*
X0201883Y0140802D01*
X0201904Y0140961D01*
X0201930Y0141120D01*
X0201960Y0141278D01*
X0201993Y0141435D01*
X0202031Y0141592D01*
X0202072Y0141747D01*
X0202117Y0141901D01*
X0202166Y0142054D01*
X0202219Y0142206D01*
X0202275Y0142357D01*
X0202336Y0142506D01*
X0202399Y0142654D01*
X0202467Y0142800D01*
X0202538Y0142944D01*
X0202612Y0143086D01*
X0202690Y0143227D01*
X0202772Y0143365D01*
X0202857Y0143502D01*
X0202945Y0143636D01*
X0203037Y0143768D01*
X0203132Y0143898D01*
X0203230Y0144026D01*
X0203331Y0144151D01*
X0203435Y0144273D01*
X0203542Y0144393D01*
X0203652Y0144510D01*
X0203765Y0144625D01*
X0203881Y0144736D01*
X0204000Y0144845D01*
X0204121Y0144950D01*
X0204245Y0145053D01*
X0204371Y0145153D01*
X0204499Y0145249D01*
X0204630Y0145342D01*
X0204764Y0145432D01*
X0204899Y0145519D01*
X0205037Y0145602D01*
X0205176Y0145682D01*
X0205318Y0145758D01*
X0205461Y0145831D01*
X0205606Y0145900D01*
X0205753Y0145966D01*
X0205901Y0146028D01*
X0206051Y0146086D01*
X0206202Y0146141D01*
X0206355Y0146192D01*
X0206509Y0146239D01*
X0206664Y0146282D01*
X0206820Y0146321D01*
X0206976Y0146357D01*
X0207134Y0146388D01*
X0207292Y0146416D01*
X0207451Y0146440D01*
X0207611Y0146460D01*
X0207771Y0146476D01*
X0207931Y0146488D01*
X0208092Y0146496D01*
X0208253Y0146500D01*
X0208413Y0146500D01*
X0208574Y0146496D01*
X0208735Y0146488D01*
X0208895Y0146476D01*
X0209055Y0146460D01*
X0209215Y0146440D01*
X0209374Y0146416D01*
X0209532Y0146388D01*
X0209690Y0146357D01*
X0209846Y0146321D01*
X0210002Y0146282D01*
X0210157Y0146239D01*
X0210311Y0146192D01*
X0210464Y0146141D01*
X0210615Y0146086D01*
X0210765Y0146028D01*
X0210913Y0145966D01*
X0211060Y0145900D01*
X0211205Y0145831D01*
X0211348Y0145758D01*
X0211490Y0145682D01*
X0211629Y0145602D01*
X0211767Y0145519D01*
X0211902Y0145432D01*
X0212036Y0145342D01*
X0212167Y0145249D01*
X0212295Y0145153D01*
X0212421Y0145053D01*
X0212545Y0144950D01*
X0212666Y0144845D01*
X0212785Y0144736D01*
X0212901Y0144625D01*
X0213014Y0144510D01*
X0213124Y0144393D01*
X0213231Y0144273D01*
X0213335Y0144151D01*
X0213436Y0144026D01*
X0213534Y0143898D01*
X0213629Y0143768D01*
X0213721Y0143636D01*
X0213809Y0143502D01*
X0213894Y0143365D01*
X0213976Y0143227D01*
X0214054Y0143086D01*
X0214128Y0142944D01*
X0214199Y0142800D01*
X0214267Y0142654D01*
X0214330Y0142506D01*
X0214391Y0142357D01*
X0214447Y0142206D01*
X0214500Y0142054D01*
X0214549Y0141901D01*
X0214594Y0141747D01*
X0214635Y0141592D01*
X0214673Y0141435D01*
X0214706Y0141278D01*
X0214736Y0141120D01*
X0214762Y0140961D01*
X0214783Y0140802D01*
X0214801Y0140642D01*
X0214815Y0140482D01*
X0214825Y0140321D01*
X0214831Y0140161D01*
X0214833Y0140000D01*
X0214831Y0139839D01*
X0214825Y0139679D01*
X0214815Y0139518D01*
X0214801Y0139358D01*
X0214783Y0139198D01*
X0214762Y0139039D01*
X0214736Y0138880D01*
X0214706Y0138722D01*
X0214673Y0138565D01*
X0214635Y0138408D01*
X0214594Y0138253D01*
X0214549Y0138099D01*
X0214500Y0137946D01*
X0214447Y0137794D01*
X0214391Y0137643D01*
X0214330Y0137494D01*
X0214267Y0137346D01*
X0214199Y0137200D01*
X0214128Y0137056D01*
X0214054Y0136914D01*
X0213976Y0136773D01*
X0213894Y0136635D01*
X0213809Y0136498D01*
X0213721Y0136364D01*
X0213629Y0136232D01*
X0213534Y0136102D01*
X0213436Y0135974D01*
X0213335Y0135849D01*
X0213231Y0135727D01*
X0213124Y0135607D01*
X0213014Y0135490D01*
X0212901Y0135375D01*
X0212785Y0135264D01*
X0212666Y0135155D01*
X0212545Y0135050D01*
X0212421Y0134947D01*
X0212295Y0134847D01*
X0212167Y0134751D01*
X0212036Y0134658D01*
X0211902Y0134568D01*
X0211767Y0134481D01*
X0211629Y0134398D01*
X0211490Y0134318D01*
X0211348Y0134242D01*
X0211205Y0134169D01*
X0211060Y0134100D01*
X0210913Y0134034D01*
X0210765Y0133972D01*
X0210615Y0133914D01*
X0210464Y0133859D01*
X0210311Y0133808D01*
X0210157Y0133761D01*
X0210002Y0133718D01*
X0209846Y0133679D01*
X0209690Y0133643D01*
X0209532Y0133612D01*
X0209374Y0133584D01*
X0209215Y0133560D01*
X0209055Y0133540D01*
X0208895Y0133524D01*
X0208735Y0133512D01*
X0208574Y0133504D01*
X0208413Y0133500D01*
X0208253Y0133500D01*
X0208092Y0133504D01*
X0207931Y0133512D01*
X0207771Y0133524D01*
X0207611Y0133540D01*
X0207451Y0133560D01*
X0207292Y0133584D01*
X0207134Y0133612D01*
X0206976Y0133643D01*
X0206820Y0133679D01*
X0206664Y0133718D01*
X0206509Y0133761D01*
X0206355Y0133808D01*
X0206202Y0133859D01*
X0206051Y0133914D01*
X0205901Y0133972D01*
X0205753Y0134034D01*
X0205606Y0134100D01*
X0205461Y0134169D01*
X0205318Y0134242D01*
X0205176Y0134318D01*
X0205037Y0134398D01*
X0204899Y0134481D01*
X0204764Y0134568D01*
X0204630Y0134658D01*
X0204499Y0134751D01*
X0204371Y0134847D01*
X0204245Y0134947D01*
X0204121Y0135050D01*
X0204000Y0135155D01*
X0203881Y0135264D01*
X0203765Y0135375D01*
X0203652Y0135490D01*
X0203542Y0135607D01*
X0203435Y0135727D01*
X0203331Y0135849D01*
X0203230Y0135974D01*
X0203132Y0136102D01*
X0203037Y0136232D01*
X0202945Y0136364D01*
X0202857Y0136498D01*
X0202772Y0136635D01*
X0202690Y0136773D01*
X0202612Y0136914D01*
X0202538Y0137056D01*
X0202467Y0137200D01*
X0202399Y0137346D01*
X0202336Y0137494D01*
X0202275Y0137643D01*
X0202219Y0137794D01*
X0202166Y0137946D01*
X0202117Y0138099D01*
X0202072Y0138253D01*
X0202031Y0138408D01*
X0201993Y0138565D01*
X0201960Y0138722D01*
X0201930Y0138880D01*
X0201904Y0139039D01*
X0201883Y0139198D01*
X0201865Y0139358D01*
X0201851Y0139518D01*
X0201841Y0139679D01*
X0201835Y0139839D01*
X0201833Y0140000D01*
X0121833Y0140000D02*
X0121835Y0140161D01*
X0121841Y0140321D01*
X0121851Y0140482D01*
X0121865Y0140642D01*
X0121883Y0140802D01*
X0121904Y0140961D01*
X0121930Y0141120D01*
X0121960Y0141278D01*
X0121993Y0141435D01*
X0122031Y0141592D01*
X0122072Y0141747D01*
X0122117Y0141901D01*
X0122166Y0142054D01*
X0122219Y0142206D01*
X0122275Y0142357D01*
X0122336Y0142506D01*
X0122399Y0142654D01*
X0122467Y0142800D01*
X0122538Y0142944D01*
X0122612Y0143086D01*
X0122690Y0143227D01*
X0122772Y0143365D01*
X0122857Y0143502D01*
X0122945Y0143636D01*
X0123037Y0143768D01*
X0123132Y0143898D01*
X0123230Y0144026D01*
X0123331Y0144151D01*
X0123435Y0144273D01*
X0123542Y0144393D01*
X0123652Y0144510D01*
X0123765Y0144625D01*
X0123881Y0144736D01*
X0124000Y0144845D01*
X0124121Y0144950D01*
X0124245Y0145053D01*
X0124371Y0145153D01*
X0124499Y0145249D01*
X0124630Y0145342D01*
X0124764Y0145432D01*
X0124899Y0145519D01*
X0125037Y0145602D01*
X0125176Y0145682D01*
X0125318Y0145758D01*
X0125461Y0145831D01*
X0125606Y0145900D01*
X0125753Y0145966D01*
X0125901Y0146028D01*
X0126051Y0146086D01*
X0126202Y0146141D01*
X0126355Y0146192D01*
X0126509Y0146239D01*
X0126664Y0146282D01*
X0126820Y0146321D01*
X0126976Y0146357D01*
X0127134Y0146388D01*
X0127292Y0146416D01*
X0127451Y0146440D01*
X0127611Y0146460D01*
X0127771Y0146476D01*
X0127931Y0146488D01*
X0128092Y0146496D01*
X0128253Y0146500D01*
X0128413Y0146500D01*
X0128574Y0146496D01*
X0128735Y0146488D01*
X0128895Y0146476D01*
X0129055Y0146460D01*
X0129215Y0146440D01*
X0129374Y0146416D01*
X0129532Y0146388D01*
X0129690Y0146357D01*
X0129846Y0146321D01*
X0130002Y0146282D01*
X0130157Y0146239D01*
X0130311Y0146192D01*
X0130464Y0146141D01*
X0130615Y0146086D01*
X0130765Y0146028D01*
X0130913Y0145966D01*
X0131060Y0145900D01*
X0131205Y0145831D01*
X0131348Y0145758D01*
X0131490Y0145682D01*
X0131629Y0145602D01*
X0131767Y0145519D01*
X0131902Y0145432D01*
X0132036Y0145342D01*
X0132167Y0145249D01*
X0132295Y0145153D01*
X0132421Y0145053D01*
X0132545Y0144950D01*
X0132666Y0144845D01*
X0132785Y0144736D01*
X0132901Y0144625D01*
X0133014Y0144510D01*
X0133124Y0144393D01*
X0133231Y0144273D01*
X0133335Y0144151D01*
X0133436Y0144026D01*
X0133534Y0143898D01*
X0133629Y0143768D01*
X0133721Y0143636D01*
X0133809Y0143502D01*
X0133894Y0143365D01*
X0133976Y0143227D01*
X0134054Y0143086D01*
X0134128Y0142944D01*
X0134199Y0142800D01*
X0134267Y0142654D01*
X0134330Y0142506D01*
X0134391Y0142357D01*
X0134447Y0142206D01*
X0134500Y0142054D01*
X0134549Y0141901D01*
X0134594Y0141747D01*
X0134635Y0141592D01*
X0134673Y0141435D01*
X0134706Y0141278D01*
X0134736Y0141120D01*
X0134762Y0140961D01*
X0134783Y0140802D01*
X0134801Y0140642D01*
X0134815Y0140482D01*
X0134825Y0140321D01*
X0134831Y0140161D01*
X0134833Y0140000D01*
X0134831Y0139839D01*
X0134825Y0139679D01*
X0134815Y0139518D01*
X0134801Y0139358D01*
X0134783Y0139198D01*
X0134762Y0139039D01*
X0134736Y0138880D01*
X0134706Y0138722D01*
X0134673Y0138565D01*
X0134635Y0138408D01*
X0134594Y0138253D01*
X0134549Y0138099D01*
X0134500Y0137946D01*
X0134447Y0137794D01*
X0134391Y0137643D01*
X0134330Y0137494D01*
X0134267Y0137346D01*
X0134199Y0137200D01*
X0134128Y0137056D01*
X0134054Y0136914D01*
X0133976Y0136773D01*
X0133894Y0136635D01*
X0133809Y0136498D01*
X0133721Y0136364D01*
X0133629Y0136232D01*
X0133534Y0136102D01*
X0133436Y0135974D01*
X0133335Y0135849D01*
X0133231Y0135727D01*
X0133124Y0135607D01*
X0133014Y0135490D01*
X0132901Y0135375D01*
X0132785Y0135264D01*
X0132666Y0135155D01*
X0132545Y0135050D01*
X0132421Y0134947D01*
X0132295Y0134847D01*
X0132167Y0134751D01*
X0132036Y0134658D01*
X0131902Y0134568D01*
X0131767Y0134481D01*
X0131629Y0134398D01*
X0131490Y0134318D01*
X0131348Y0134242D01*
X0131205Y0134169D01*
X0131060Y0134100D01*
X0130913Y0134034D01*
X0130765Y0133972D01*
X0130615Y0133914D01*
X0130464Y0133859D01*
X0130311Y0133808D01*
X0130157Y0133761D01*
X0130002Y0133718D01*
X0129846Y0133679D01*
X0129690Y0133643D01*
X0129532Y0133612D01*
X0129374Y0133584D01*
X0129215Y0133560D01*
X0129055Y0133540D01*
X0128895Y0133524D01*
X0128735Y0133512D01*
X0128574Y0133504D01*
X0128413Y0133500D01*
X0128253Y0133500D01*
X0128092Y0133504D01*
X0127931Y0133512D01*
X0127771Y0133524D01*
X0127611Y0133540D01*
X0127451Y0133560D01*
X0127292Y0133584D01*
X0127134Y0133612D01*
X0126976Y0133643D01*
X0126820Y0133679D01*
X0126664Y0133718D01*
X0126509Y0133761D01*
X0126355Y0133808D01*
X0126202Y0133859D01*
X0126051Y0133914D01*
X0125901Y0133972D01*
X0125753Y0134034D01*
X0125606Y0134100D01*
X0125461Y0134169D01*
X0125318Y0134242D01*
X0125176Y0134318D01*
X0125037Y0134398D01*
X0124899Y0134481D01*
X0124764Y0134568D01*
X0124630Y0134658D01*
X0124499Y0134751D01*
X0124371Y0134847D01*
X0124245Y0134947D01*
X0124121Y0135050D01*
X0124000Y0135155D01*
X0123881Y0135264D01*
X0123765Y0135375D01*
X0123652Y0135490D01*
X0123542Y0135607D01*
X0123435Y0135727D01*
X0123331Y0135849D01*
X0123230Y0135974D01*
X0123132Y0136102D01*
X0123037Y0136232D01*
X0122945Y0136364D01*
X0122857Y0136498D01*
X0122772Y0136635D01*
X0122690Y0136773D01*
X0122612Y0136914D01*
X0122538Y0137056D01*
X0122467Y0137200D01*
X0122399Y0137346D01*
X0122336Y0137494D01*
X0122275Y0137643D01*
X0122219Y0137794D01*
X0122166Y0137946D01*
X0122117Y0138099D01*
X0122072Y0138253D01*
X0122031Y0138408D01*
X0121993Y0138565D01*
X0121960Y0138722D01*
X0121930Y0138880D01*
X0121904Y0139039D01*
X0121883Y0139198D01*
X0121865Y0139358D01*
X0121851Y0139518D01*
X0121841Y0139679D01*
X0121835Y0139839D01*
X0121833Y0140000D01*
M02*
