G75*
%MOIN*%
%OFA0B0*%
%FSLAX25Y25*%
%IPPOS*%
%LPD*%
%AMOC8*
5,1,8,0,0,1.08239X$1,22.5*
%
%ADD10C,0.00800*%
%ADD11R,0.02500X0.05000*%
%ADD12R,0.01600X0.01000*%
%ADD13C,0.07400*%
%ADD14C,0.02500*%
%ADD15C,0.02900*%
%ADD16C,0.01000*%
D10*
X0122050Y0052900D02*
X0124383Y0052900D01*
X0123217Y0052900D02*
X0123217Y0057100D01*
X0124383Y0056167D01*
X0128883Y0055000D02*
X0128881Y0054888D01*
X0128876Y0054776D01*
X0128867Y0054664D01*
X0128854Y0054553D01*
X0128838Y0054442D01*
X0128818Y0054331D01*
X0128794Y0054222D01*
X0128767Y0054113D01*
X0128737Y0054005D01*
X0128703Y0053898D01*
X0128666Y0053792D01*
X0128625Y0053688D01*
X0128581Y0053585D01*
X0128533Y0053483D01*
X0128650Y0053833D02*
X0126783Y0056167D01*
X0126901Y0056517D02*
X0126921Y0056570D01*
X0126944Y0056621D01*
X0126971Y0056670D01*
X0127001Y0056718D01*
X0127034Y0056764D01*
X0127069Y0056807D01*
X0127108Y0056848D01*
X0127149Y0056887D01*
X0127193Y0056923D01*
X0127239Y0056955D01*
X0127286Y0056985D01*
X0127336Y0057011D01*
X0127388Y0057035D01*
X0127440Y0057054D01*
X0127494Y0057071D01*
X0127549Y0057083D01*
X0127605Y0057093D01*
X0127661Y0057098D01*
X0127717Y0057100D01*
X0127773Y0057098D01*
X0127829Y0057093D01*
X0127885Y0057083D01*
X0127940Y0057071D01*
X0127994Y0057054D01*
X0128046Y0057035D01*
X0128098Y0057011D01*
X0128148Y0056985D01*
X0128195Y0056955D01*
X0128241Y0056922D01*
X0128285Y0056887D01*
X0128326Y0056848D01*
X0128365Y0056807D01*
X0128400Y0056764D01*
X0128433Y0056718D01*
X0128463Y0056670D01*
X0128490Y0056621D01*
X0128513Y0056570D01*
X0128533Y0056517D01*
X0126900Y0056517D02*
X0126852Y0056415D01*
X0126808Y0056312D01*
X0126767Y0056208D01*
X0126730Y0056102D01*
X0126696Y0055995D01*
X0126666Y0055887D01*
X0126639Y0055778D01*
X0126615Y0055669D01*
X0126595Y0055558D01*
X0126579Y0055447D01*
X0126566Y0055336D01*
X0126557Y0055224D01*
X0126552Y0055112D01*
X0126550Y0055000D01*
X0128883Y0055000D02*
X0128881Y0055112D01*
X0128876Y0055224D01*
X0128867Y0055336D01*
X0128854Y0055447D01*
X0128838Y0055558D01*
X0128818Y0055669D01*
X0128794Y0055778D01*
X0128767Y0055887D01*
X0128737Y0055995D01*
X0128703Y0056102D01*
X0128666Y0056208D01*
X0128625Y0056312D01*
X0128581Y0056415D01*
X0128533Y0056517D01*
X0126550Y0055000D02*
X0126552Y0054888D01*
X0126557Y0054776D01*
X0126566Y0054664D01*
X0126579Y0054553D01*
X0126595Y0054442D01*
X0126615Y0054331D01*
X0126639Y0054222D01*
X0126666Y0054113D01*
X0126696Y0054005D01*
X0126730Y0053898D01*
X0126767Y0053792D01*
X0126808Y0053688D01*
X0126852Y0053585D01*
X0126900Y0053483D01*
X0127717Y0052900D02*
X0127773Y0052902D01*
X0127829Y0052907D01*
X0127885Y0052917D01*
X0127940Y0052929D01*
X0127994Y0052946D01*
X0128046Y0052965D01*
X0128098Y0052989D01*
X0128148Y0053015D01*
X0128195Y0053045D01*
X0128241Y0053077D01*
X0128285Y0053113D01*
X0128326Y0053152D01*
X0128365Y0053193D01*
X0128400Y0053236D01*
X0128433Y0053282D01*
X0128463Y0053330D01*
X0128490Y0053379D01*
X0128513Y0053430D01*
X0128533Y0053483D01*
X0127717Y0052900D02*
X0127661Y0052902D01*
X0127605Y0052907D01*
X0127549Y0052917D01*
X0127494Y0052929D01*
X0127440Y0052946D01*
X0127388Y0052965D01*
X0127336Y0052989D01*
X0127286Y0053015D01*
X0127239Y0053045D01*
X0127193Y0053077D01*
X0127149Y0053113D01*
X0127108Y0053152D01*
X0127069Y0053193D01*
X0127034Y0053236D01*
X0127001Y0053282D01*
X0126971Y0053330D01*
X0126944Y0053379D01*
X0126921Y0053430D01*
X0126901Y0053483D01*
X0130817Y0052900D02*
X0133617Y0057100D01*
X0130817Y0057100D02*
X0133617Y0052900D01*
X0138333Y0060000D02*
X0138333Y0096969D01*
X0143333Y0101969D01*
X0146365Y0101969D01*
X0146955Y0101378D01*
X0155333Y0101378D01*
X0155333Y0063000D01*
X0163333Y0055000D01*
X0173333Y0055000D02*
X0173333Y0098622D01*
X0178023Y0098622D01*
X0180114Y0096531D01*
X0186802Y0096531D01*
X0188333Y0095000D01*
X0193333Y0098031D02*
X0180735Y0098031D01*
X0177388Y0101378D01*
X0168333Y0110433D01*
X0168333Y0115000D01*
X0164333Y0115000D02*
X0164333Y0120500D01*
X0172333Y0120500D02*
X0172333Y0115000D01*
X0177388Y0101378D02*
X0155333Y0101378D01*
X0158333Y0098622D02*
X0173333Y0098622D01*
X0225217Y0057100D02*
X0225217Y0052900D01*
X0226383Y0052900D02*
X0224050Y0052900D01*
X0230533Y0053483D02*
X0230581Y0053585D01*
X0230625Y0053688D01*
X0230666Y0053792D01*
X0230703Y0053898D01*
X0230737Y0054005D01*
X0230767Y0054113D01*
X0230794Y0054222D01*
X0230818Y0054331D01*
X0230838Y0054442D01*
X0230854Y0054553D01*
X0230867Y0054664D01*
X0230876Y0054776D01*
X0230881Y0054888D01*
X0230883Y0055000D01*
X0228550Y0055000D02*
X0228552Y0055112D01*
X0228557Y0055224D01*
X0228566Y0055336D01*
X0228579Y0055447D01*
X0228595Y0055558D01*
X0228615Y0055669D01*
X0228639Y0055778D01*
X0228666Y0055887D01*
X0228696Y0055995D01*
X0228730Y0056102D01*
X0228767Y0056208D01*
X0228808Y0056312D01*
X0228852Y0056415D01*
X0228900Y0056517D01*
X0228783Y0056167D02*
X0230650Y0053833D01*
X0229717Y0052900D02*
X0229661Y0052902D01*
X0229605Y0052907D01*
X0229549Y0052917D01*
X0229494Y0052929D01*
X0229440Y0052946D01*
X0229388Y0052965D01*
X0229336Y0052989D01*
X0229286Y0053015D01*
X0229239Y0053045D01*
X0229193Y0053077D01*
X0229149Y0053113D01*
X0229108Y0053152D01*
X0229069Y0053193D01*
X0229034Y0053236D01*
X0229001Y0053282D01*
X0228971Y0053330D01*
X0228944Y0053379D01*
X0228921Y0053430D01*
X0228901Y0053483D01*
X0229717Y0052900D02*
X0229773Y0052902D01*
X0229829Y0052907D01*
X0229885Y0052917D01*
X0229940Y0052929D01*
X0229994Y0052946D01*
X0230046Y0052965D01*
X0230098Y0052989D01*
X0230148Y0053015D01*
X0230195Y0053045D01*
X0230241Y0053077D01*
X0230285Y0053113D01*
X0230326Y0053152D01*
X0230365Y0053193D01*
X0230400Y0053236D01*
X0230433Y0053282D01*
X0230463Y0053330D01*
X0230490Y0053379D01*
X0230513Y0053430D01*
X0230533Y0053483D01*
X0228900Y0053483D02*
X0228852Y0053585D01*
X0228808Y0053688D01*
X0228767Y0053792D01*
X0228730Y0053898D01*
X0228696Y0054005D01*
X0228666Y0054113D01*
X0228639Y0054222D01*
X0228615Y0054331D01*
X0228595Y0054442D01*
X0228579Y0054553D01*
X0228566Y0054664D01*
X0228557Y0054776D01*
X0228552Y0054888D01*
X0228550Y0055000D01*
X0230883Y0055000D02*
X0230881Y0055112D01*
X0230876Y0055224D01*
X0230867Y0055336D01*
X0230854Y0055447D01*
X0230838Y0055558D01*
X0230818Y0055669D01*
X0230794Y0055778D01*
X0230767Y0055887D01*
X0230737Y0055995D01*
X0230703Y0056102D01*
X0230666Y0056208D01*
X0230625Y0056312D01*
X0230581Y0056415D01*
X0230533Y0056517D01*
X0230513Y0056570D01*
X0230490Y0056621D01*
X0230463Y0056670D01*
X0230433Y0056718D01*
X0230400Y0056764D01*
X0230365Y0056807D01*
X0230326Y0056848D01*
X0230285Y0056887D01*
X0230241Y0056922D01*
X0230195Y0056955D01*
X0230148Y0056985D01*
X0230098Y0057011D01*
X0230046Y0057035D01*
X0229994Y0057054D01*
X0229940Y0057071D01*
X0229885Y0057083D01*
X0229829Y0057093D01*
X0229773Y0057098D01*
X0229717Y0057100D01*
X0229661Y0057098D01*
X0229605Y0057093D01*
X0229549Y0057083D01*
X0229494Y0057071D01*
X0229440Y0057054D01*
X0229388Y0057035D01*
X0229336Y0057011D01*
X0229286Y0056985D01*
X0229239Y0056955D01*
X0229193Y0056923D01*
X0229149Y0056887D01*
X0229108Y0056848D01*
X0229069Y0056807D01*
X0229034Y0056764D01*
X0229001Y0056718D01*
X0228971Y0056670D01*
X0228944Y0056621D01*
X0228921Y0056570D01*
X0228901Y0056517D01*
X0226383Y0056167D02*
X0225217Y0057100D01*
X0232817Y0057100D02*
X0235617Y0052900D01*
X0232817Y0052900D02*
X0235617Y0057100D01*
X0240333Y0060000D02*
X0240333Y0096969D01*
X0245333Y0101969D01*
X0248365Y0101969D01*
X0248955Y0101378D01*
X0257333Y0101378D01*
X0257333Y0063000D01*
X0265333Y0055000D01*
X0275333Y0055000D02*
X0275333Y0098622D01*
X0280023Y0098622D01*
X0282114Y0096531D01*
X0288802Y0096531D01*
X0290333Y0095000D01*
X0295333Y0098031D02*
X0282735Y0098031D01*
X0279388Y0101378D01*
X0270333Y0110433D01*
X0270333Y0115000D01*
X0266333Y0115000D02*
X0266333Y0120500D01*
X0274333Y0120500D02*
X0274333Y0115000D01*
X0279388Y0101378D02*
X0257333Y0101378D01*
X0260333Y0098622D02*
X0275333Y0098622D01*
X0327217Y0057100D02*
X0327217Y0052900D01*
X0328383Y0052900D02*
X0326050Y0052900D01*
X0332533Y0053483D02*
X0332581Y0053585D01*
X0332625Y0053688D01*
X0332666Y0053792D01*
X0332703Y0053898D01*
X0332737Y0054005D01*
X0332767Y0054113D01*
X0332794Y0054222D01*
X0332818Y0054331D01*
X0332838Y0054442D01*
X0332854Y0054553D01*
X0332867Y0054664D01*
X0332876Y0054776D01*
X0332881Y0054888D01*
X0332883Y0055000D01*
X0330550Y0055000D02*
X0330552Y0055112D01*
X0330557Y0055224D01*
X0330566Y0055336D01*
X0330579Y0055447D01*
X0330595Y0055558D01*
X0330615Y0055669D01*
X0330639Y0055778D01*
X0330666Y0055887D01*
X0330696Y0055995D01*
X0330730Y0056102D01*
X0330767Y0056208D01*
X0330808Y0056312D01*
X0330852Y0056415D01*
X0330900Y0056517D01*
X0330783Y0056167D02*
X0332650Y0053833D01*
X0331717Y0052900D02*
X0331661Y0052902D01*
X0331605Y0052907D01*
X0331549Y0052917D01*
X0331494Y0052929D01*
X0331440Y0052946D01*
X0331388Y0052965D01*
X0331336Y0052989D01*
X0331286Y0053015D01*
X0331239Y0053045D01*
X0331193Y0053077D01*
X0331149Y0053113D01*
X0331108Y0053152D01*
X0331069Y0053193D01*
X0331034Y0053236D01*
X0331001Y0053282D01*
X0330971Y0053330D01*
X0330944Y0053379D01*
X0330921Y0053430D01*
X0330901Y0053483D01*
X0331717Y0052900D02*
X0331773Y0052902D01*
X0331829Y0052907D01*
X0331885Y0052917D01*
X0331940Y0052929D01*
X0331994Y0052946D01*
X0332046Y0052965D01*
X0332098Y0052989D01*
X0332148Y0053015D01*
X0332195Y0053045D01*
X0332241Y0053077D01*
X0332285Y0053113D01*
X0332326Y0053152D01*
X0332365Y0053193D01*
X0332400Y0053236D01*
X0332433Y0053282D01*
X0332463Y0053330D01*
X0332490Y0053379D01*
X0332513Y0053430D01*
X0332533Y0053483D01*
X0330900Y0053483D02*
X0330852Y0053585D01*
X0330808Y0053688D01*
X0330767Y0053792D01*
X0330730Y0053898D01*
X0330696Y0054005D01*
X0330666Y0054113D01*
X0330639Y0054222D01*
X0330615Y0054331D01*
X0330595Y0054442D01*
X0330579Y0054553D01*
X0330566Y0054664D01*
X0330557Y0054776D01*
X0330552Y0054888D01*
X0330550Y0055000D01*
X0332883Y0055000D02*
X0332881Y0055112D01*
X0332876Y0055224D01*
X0332867Y0055336D01*
X0332854Y0055447D01*
X0332838Y0055558D01*
X0332818Y0055669D01*
X0332794Y0055778D01*
X0332767Y0055887D01*
X0332737Y0055995D01*
X0332703Y0056102D01*
X0332666Y0056208D01*
X0332625Y0056312D01*
X0332581Y0056415D01*
X0332533Y0056517D01*
X0332513Y0056570D01*
X0332490Y0056621D01*
X0332463Y0056670D01*
X0332433Y0056718D01*
X0332400Y0056764D01*
X0332365Y0056807D01*
X0332326Y0056848D01*
X0332285Y0056887D01*
X0332241Y0056922D01*
X0332195Y0056955D01*
X0332148Y0056985D01*
X0332098Y0057011D01*
X0332046Y0057035D01*
X0331994Y0057054D01*
X0331940Y0057071D01*
X0331885Y0057083D01*
X0331829Y0057093D01*
X0331773Y0057098D01*
X0331717Y0057100D01*
X0331661Y0057098D01*
X0331605Y0057093D01*
X0331549Y0057083D01*
X0331494Y0057071D01*
X0331440Y0057054D01*
X0331388Y0057035D01*
X0331336Y0057011D01*
X0331286Y0056985D01*
X0331239Y0056955D01*
X0331193Y0056923D01*
X0331149Y0056887D01*
X0331108Y0056848D01*
X0331069Y0056807D01*
X0331034Y0056764D01*
X0331001Y0056718D01*
X0330971Y0056670D01*
X0330944Y0056621D01*
X0330921Y0056570D01*
X0330901Y0056517D01*
X0328383Y0056167D02*
X0327217Y0057100D01*
X0334817Y0057100D02*
X0337617Y0052900D01*
X0334817Y0052900D02*
X0337617Y0057100D01*
X0342333Y0060000D02*
X0342333Y0096969D01*
X0347333Y0101969D01*
X0350365Y0101969D01*
X0350955Y0101378D01*
X0359333Y0101378D01*
X0359333Y0063000D01*
X0367333Y0055000D01*
X0377333Y0055000D02*
X0377333Y0098622D01*
X0382023Y0098622D01*
X0384114Y0096531D01*
X0390802Y0096531D01*
X0392333Y0095000D01*
X0397333Y0098031D02*
X0384735Y0098031D01*
X0381388Y0101378D01*
X0372333Y0110433D01*
X0372333Y0115000D01*
X0368333Y0115000D02*
X0368333Y0120500D01*
X0376333Y0120500D02*
X0376333Y0115000D01*
X0381388Y0101378D02*
X0359333Y0101378D01*
X0362333Y0098622D02*
X0377333Y0098622D01*
X0337617Y0154900D02*
X0334817Y0159100D01*
X0330550Y0157000D02*
X0330552Y0156888D01*
X0330557Y0156776D01*
X0330566Y0156664D01*
X0330579Y0156553D01*
X0330595Y0156442D01*
X0330615Y0156331D01*
X0330639Y0156222D01*
X0330666Y0156113D01*
X0330696Y0156005D01*
X0330730Y0155898D01*
X0330767Y0155792D01*
X0330808Y0155688D01*
X0330852Y0155585D01*
X0330900Y0155483D01*
X0331717Y0154900D02*
X0331773Y0154902D01*
X0331829Y0154907D01*
X0331885Y0154917D01*
X0331940Y0154929D01*
X0331994Y0154946D01*
X0332046Y0154965D01*
X0332098Y0154989D01*
X0332148Y0155015D01*
X0332195Y0155045D01*
X0332241Y0155077D01*
X0332285Y0155113D01*
X0332326Y0155152D01*
X0332365Y0155193D01*
X0332400Y0155236D01*
X0332433Y0155282D01*
X0332463Y0155330D01*
X0332490Y0155379D01*
X0332513Y0155430D01*
X0332533Y0155483D01*
X0332650Y0155833D02*
X0330783Y0158167D01*
X0330901Y0158517D02*
X0330921Y0158570D01*
X0330944Y0158621D01*
X0330971Y0158670D01*
X0331001Y0158718D01*
X0331034Y0158764D01*
X0331069Y0158807D01*
X0331108Y0158848D01*
X0331149Y0158887D01*
X0331193Y0158923D01*
X0331239Y0158955D01*
X0331286Y0158985D01*
X0331336Y0159011D01*
X0331388Y0159035D01*
X0331440Y0159054D01*
X0331494Y0159071D01*
X0331549Y0159083D01*
X0331605Y0159093D01*
X0331661Y0159098D01*
X0331717Y0159100D01*
X0331773Y0159098D01*
X0331829Y0159093D01*
X0331885Y0159083D01*
X0331940Y0159071D01*
X0331994Y0159054D01*
X0332046Y0159035D01*
X0332098Y0159011D01*
X0332148Y0158985D01*
X0332195Y0158955D01*
X0332241Y0158922D01*
X0332285Y0158887D01*
X0332326Y0158848D01*
X0332365Y0158807D01*
X0332400Y0158764D01*
X0332433Y0158718D01*
X0332463Y0158670D01*
X0332490Y0158621D01*
X0332513Y0158570D01*
X0332533Y0158517D01*
X0330900Y0158517D02*
X0330852Y0158415D01*
X0330808Y0158312D01*
X0330767Y0158208D01*
X0330730Y0158102D01*
X0330696Y0157995D01*
X0330666Y0157887D01*
X0330639Y0157778D01*
X0330615Y0157669D01*
X0330595Y0157558D01*
X0330579Y0157447D01*
X0330566Y0157336D01*
X0330557Y0157224D01*
X0330552Y0157112D01*
X0330550Y0157000D01*
X0332883Y0157000D02*
X0332881Y0157112D01*
X0332876Y0157224D01*
X0332867Y0157336D01*
X0332854Y0157447D01*
X0332838Y0157558D01*
X0332818Y0157669D01*
X0332794Y0157778D01*
X0332767Y0157887D01*
X0332737Y0157995D01*
X0332703Y0158102D01*
X0332666Y0158208D01*
X0332625Y0158312D01*
X0332581Y0158415D01*
X0332533Y0158517D01*
X0330901Y0155483D02*
X0330921Y0155430D01*
X0330944Y0155379D01*
X0330971Y0155330D01*
X0331001Y0155282D01*
X0331034Y0155236D01*
X0331069Y0155193D01*
X0331108Y0155152D01*
X0331149Y0155113D01*
X0331193Y0155077D01*
X0331239Y0155045D01*
X0331286Y0155015D01*
X0331336Y0154989D01*
X0331388Y0154965D01*
X0331440Y0154946D01*
X0331494Y0154929D01*
X0331549Y0154917D01*
X0331605Y0154907D01*
X0331661Y0154902D01*
X0331717Y0154900D01*
X0334817Y0154900D02*
X0337617Y0159100D01*
X0342333Y0162000D02*
X0342333Y0198969D01*
X0347333Y0203969D01*
X0350365Y0203969D01*
X0350955Y0203378D01*
X0359333Y0203378D01*
X0359333Y0165000D01*
X0367333Y0157000D01*
X0377333Y0157000D02*
X0377333Y0200622D01*
X0382023Y0200622D01*
X0384114Y0198531D01*
X0390802Y0198531D01*
X0392333Y0197000D01*
X0397333Y0200031D02*
X0384735Y0200031D01*
X0381388Y0203378D01*
X0372333Y0212433D01*
X0372333Y0217000D01*
X0368333Y0217000D02*
X0368333Y0222500D01*
X0376333Y0222500D02*
X0376333Y0217000D01*
X0381388Y0203378D02*
X0359333Y0203378D01*
X0362333Y0200622D02*
X0377333Y0200622D01*
X0332883Y0157000D02*
X0332881Y0156888D01*
X0332876Y0156776D01*
X0332867Y0156664D01*
X0332854Y0156553D01*
X0332838Y0156442D01*
X0332818Y0156331D01*
X0332794Y0156222D01*
X0332767Y0156113D01*
X0332737Y0156005D01*
X0332703Y0155898D01*
X0332666Y0155792D01*
X0332625Y0155688D01*
X0332581Y0155585D01*
X0332533Y0155483D01*
X0328383Y0154900D02*
X0326050Y0154900D01*
X0327217Y0154900D02*
X0327217Y0159100D01*
X0328383Y0158167D01*
X0290333Y0197000D02*
X0288802Y0198531D01*
X0282114Y0198531D01*
X0280023Y0200622D01*
X0275333Y0200622D01*
X0275333Y0157000D01*
X0265333Y0157000D02*
X0257333Y0165000D01*
X0257333Y0203378D01*
X0279388Y0203378D01*
X0270333Y0212433D01*
X0270333Y0217000D01*
X0266333Y0217000D02*
X0266333Y0222500D01*
X0274333Y0222500D02*
X0274333Y0217000D01*
X0279388Y0203378D02*
X0282735Y0200031D01*
X0295333Y0200031D01*
X0275333Y0200622D02*
X0260333Y0200622D01*
X0257333Y0203378D02*
X0248955Y0203378D01*
X0248365Y0203969D01*
X0245333Y0203969D01*
X0240333Y0198969D01*
X0240333Y0162000D01*
X0235617Y0159100D02*
X0232817Y0154900D01*
X0228900Y0155483D02*
X0228852Y0155585D01*
X0228808Y0155688D01*
X0228767Y0155792D01*
X0228730Y0155898D01*
X0228696Y0156005D01*
X0228666Y0156113D01*
X0228639Y0156222D01*
X0228615Y0156331D01*
X0228595Y0156442D01*
X0228579Y0156553D01*
X0228566Y0156664D01*
X0228557Y0156776D01*
X0228552Y0156888D01*
X0228550Y0157000D01*
X0230883Y0157000D02*
X0230881Y0157112D01*
X0230876Y0157224D01*
X0230867Y0157336D01*
X0230854Y0157447D01*
X0230838Y0157558D01*
X0230818Y0157669D01*
X0230794Y0157778D01*
X0230767Y0157887D01*
X0230737Y0157995D01*
X0230703Y0158102D01*
X0230666Y0158208D01*
X0230625Y0158312D01*
X0230581Y0158415D01*
X0230533Y0158517D01*
X0230513Y0158570D01*
X0230490Y0158621D01*
X0230463Y0158670D01*
X0230433Y0158718D01*
X0230400Y0158764D01*
X0230365Y0158807D01*
X0230326Y0158848D01*
X0230285Y0158887D01*
X0230241Y0158922D01*
X0230195Y0158955D01*
X0230148Y0158985D01*
X0230098Y0159011D01*
X0230046Y0159035D01*
X0229994Y0159054D01*
X0229940Y0159071D01*
X0229885Y0159083D01*
X0229829Y0159093D01*
X0229773Y0159098D01*
X0229717Y0159100D01*
X0229661Y0159098D01*
X0229605Y0159093D01*
X0229549Y0159083D01*
X0229494Y0159071D01*
X0229440Y0159054D01*
X0229388Y0159035D01*
X0229336Y0159011D01*
X0229286Y0158985D01*
X0229239Y0158955D01*
X0229193Y0158923D01*
X0229149Y0158887D01*
X0229108Y0158848D01*
X0229069Y0158807D01*
X0229034Y0158764D01*
X0229001Y0158718D01*
X0228971Y0158670D01*
X0228944Y0158621D01*
X0228921Y0158570D01*
X0228901Y0158517D01*
X0228783Y0158167D02*
X0230650Y0155833D01*
X0229717Y0154900D02*
X0229661Y0154902D01*
X0229605Y0154907D01*
X0229549Y0154917D01*
X0229494Y0154929D01*
X0229440Y0154946D01*
X0229388Y0154965D01*
X0229336Y0154989D01*
X0229286Y0155015D01*
X0229239Y0155045D01*
X0229193Y0155077D01*
X0229149Y0155113D01*
X0229108Y0155152D01*
X0229069Y0155193D01*
X0229034Y0155236D01*
X0229001Y0155282D01*
X0228971Y0155330D01*
X0228944Y0155379D01*
X0228921Y0155430D01*
X0228901Y0155483D01*
X0229717Y0154900D02*
X0229773Y0154902D01*
X0229829Y0154907D01*
X0229885Y0154917D01*
X0229940Y0154929D01*
X0229994Y0154946D01*
X0230046Y0154965D01*
X0230098Y0154989D01*
X0230148Y0155015D01*
X0230195Y0155045D01*
X0230241Y0155077D01*
X0230285Y0155113D01*
X0230326Y0155152D01*
X0230365Y0155193D01*
X0230400Y0155236D01*
X0230433Y0155282D01*
X0230463Y0155330D01*
X0230490Y0155379D01*
X0230513Y0155430D01*
X0230533Y0155483D01*
X0228550Y0157000D02*
X0228552Y0157112D01*
X0228557Y0157224D01*
X0228566Y0157336D01*
X0228579Y0157447D01*
X0228595Y0157558D01*
X0228615Y0157669D01*
X0228639Y0157778D01*
X0228666Y0157887D01*
X0228696Y0157995D01*
X0228730Y0158102D01*
X0228767Y0158208D01*
X0228808Y0158312D01*
X0228852Y0158415D01*
X0228900Y0158517D01*
X0230883Y0157000D02*
X0230881Y0156888D01*
X0230876Y0156776D01*
X0230867Y0156664D01*
X0230854Y0156553D01*
X0230838Y0156442D01*
X0230818Y0156331D01*
X0230794Y0156222D01*
X0230767Y0156113D01*
X0230737Y0156005D01*
X0230703Y0155898D01*
X0230666Y0155792D01*
X0230625Y0155688D01*
X0230581Y0155585D01*
X0230533Y0155483D01*
X0226383Y0154900D02*
X0224050Y0154900D01*
X0225217Y0154900D02*
X0225217Y0159100D01*
X0226383Y0158167D01*
X0232817Y0159100D02*
X0235617Y0154900D01*
X0188333Y0197000D02*
X0186802Y0198531D01*
X0180114Y0198531D01*
X0178023Y0200622D01*
X0173333Y0200622D01*
X0173333Y0157000D01*
X0163333Y0157000D02*
X0155333Y0165000D01*
X0155333Y0203378D01*
X0177388Y0203378D01*
X0168333Y0212433D01*
X0168333Y0217000D01*
X0164333Y0217000D02*
X0164333Y0222500D01*
X0172333Y0222500D02*
X0172333Y0217000D01*
X0177388Y0203378D02*
X0180735Y0200031D01*
X0193333Y0200031D01*
X0173333Y0200622D02*
X0158333Y0200622D01*
X0155333Y0203378D02*
X0146955Y0203378D01*
X0146365Y0203969D01*
X0143333Y0203969D01*
X0138333Y0198969D01*
X0138333Y0162000D01*
X0133617Y0159100D02*
X0130817Y0154900D01*
X0126900Y0155483D02*
X0126852Y0155585D01*
X0126808Y0155688D01*
X0126767Y0155792D01*
X0126730Y0155898D01*
X0126696Y0156005D01*
X0126666Y0156113D01*
X0126639Y0156222D01*
X0126615Y0156331D01*
X0126595Y0156442D01*
X0126579Y0156553D01*
X0126566Y0156664D01*
X0126557Y0156776D01*
X0126552Y0156888D01*
X0126550Y0157000D01*
X0128883Y0157000D02*
X0128881Y0157112D01*
X0128876Y0157224D01*
X0128867Y0157336D01*
X0128854Y0157447D01*
X0128838Y0157558D01*
X0128818Y0157669D01*
X0128794Y0157778D01*
X0128767Y0157887D01*
X0128737Y0157995D01*
X0128703Y0158102D01*
X0128666Y0158208D01*
X0128625Y0158312D01*
X0128581Y0158415D01*
X0128533Y0158517D01*
X0128513Y0158570D01*
X0128490Y0158621D01*
X0128463Y0158670D01*
X0128433Y0158718D01*
X0128400Y0158764D01*
X0128365Y0158807D01*
X0128326Y0158848D01*
X0128285Y0158887D01*
X0128241Y0158922D01*
X0128195Y0158955D01*
X0128148Y0158985D01*
X0128098Y0159011D01*
X0128046Y0159035D01*
X0127994Y0159054D01*
X0127940Y0159071D01*
X0127885Y0159083D01*
X0127829Y0159093D01*
X0127773Y0159098D01*
X0127717Y0159100D01*
X0127661Y0159098D01*
X0127605Y0159093D01*
X0127549Y0159083D01*
X0127494Y0159071D01*
X0127440Y0159054D01*
X0127388Y0159035D01*
X0127336Y0159011D01*
X0127286Y0158985D01*
X0127239Y0158955D01*
X0127193Y0158923D01*
X0127149Y0158887D01*
X0127108Y0158848D01*
X0127069Y0158807D01*
X0127034Y0158764D01*
X0127001Y0158718D01*
X0126971Y0158670D01*
X0126944Y0158621D01*
X0126921Y0158570D01*
X0126901Y0158517D01*
X0126783Y0158167D02*
X0128650Y0155833D01*
X0127717Y0154900D02*
X0127661Y0154902D01*
X0127605Y0154907D01*
X0127549Y0154917D01*
X0127494Y0154929D01*
X0127440Y0154946D01*
X0127388Y0154965D01*
X0127336Y0154989D01*
X0127286Y0155015D01*
X0127239Y0155045D01*
X0127193Y0155077D01*
X0127149Y0155113D01*
X0127108Y0155152D01*
X0127069Y0155193D01*
X0127034Y0155236D01*
X0127001Y0155282D01*
X0126971Y0155330D01*
X0126944Y0155379D01*
X0126921Y0155430D01*
X0126901Y0155483D01*
X0127717Y0154900D02*
X0127773Y0154902D01*
X0127829Y0154907D01*
X0127885Y0154917D01*
X0127940Y0154929D01*
X0127994Y0154946D01*
X0128046Y0154965D01*
X0128098Y0154989D01*
X0128148Y0155015D01*
X0128195Y0155045D01*
X0128241Y0155077D01*
X0128285Y0155113D01*
X0128326Y0155152D01*
X0128365Y0155193D01*
X0128400Y0155236D01*
X0128433Y0155282D01*
X0128463Y0155330D01*
X0128490Y0155379D01*
X0128513Y0155430D01*
X0128533Y0155483D01*
X0126550Y0157000D02*
X0126552Y0157112D01*
X0126557Y0157224D01*
X0126566Y0157336D01*
X0126579Y0157447D01*
X0126595Y0157558D01*
X0126615Y0157669D01*
X0126639Y0157778D01*
X0126666Y0157887D01*
X0126696Y0157995D01*
X0126730Y0158102D01*
X0126767Y0158208D01*
X0126808Y0158312D01*
X0126852Y0158415D01*
X0126900Y0158517D01*
X0128883Y0157000D02*
X0128881Y0156888D01*
X0128876Y0156776D01*
X0128867Y0156664D01*
X0128854Y0156553D01*
X0128838Y0156442D01*
X0128818Y0156331D01*
X0128794Y0156222D01*
X0128767Y0156113D01*
X0128737Y0156005D01*
X0128703Y0155898D01*
X0128666Y0155792D01*
X0128625Y0155688D01*
X0128581Y0155585D01*
X0128533Y0155483D01*
X0124383Y0154900D02*
X0122050Y0154900D01*
X0123217Y0154900D02*
X0123217Y0159100D01*
X0124383Y0158167D01*
X0130817Y0159100D02*
X0133617Y0154900D01*
X0133617Y0256900D02*
X0130817Y0261100D01*
X0126550Y0259000D02*
X0126552Y0258888D01*
X0126557Y0258776D01*
X0126566Y0258664D01*
X0126579Y0258553D01*
X0126595Y0258442D01*
X0126615Y0258331D01*
X0126639Y0258222D01*
X0126666Y0258113D01*
X0126696Y0258005D01*
X0126730Y0257898D01*
X0126767Y0257792D01*
X0126808Y0257688D01*
X0126852Y0257585D01*
X0126900Y0257483D01*
X0127717Y0256900D02*
X0127773Y0256902D01*
X0127829Y0256907D01*
X0127885Y0256917D01*
X0127940Y0256929D01*
X0127994Y0256946D01*
X0128046Y0256965D01*
X0128098Y0256989D01*
X0128148Y0257015D01*
X0128195Y0257045D01*
X0128241Y0257077D01*
X0128285Y0257113D01*
X0128326Y0257152D01*
X0128365Y0257193D01*
X0128400Y0257236D01*
X0128433Y0257282D01*
X0128463Y0257330D01*
X0128490Y0257379D01*
X0128513Y0257430D01*
X0128533Y0257483D01*
X0128650Y0257833D02*
X0126783Y0260167D01*
X0126901Y0260517D02*
X0126921Y0260570D01*
X0126944Y0260621D01*
X0126971Y0260670D01*
X0127001Y0260718D01*
X0127034Y0260764D01*
X0127069Y0260807D01*
X0127108Y0260848D01*
X0127149Y0260887D01*
X0127193Y0260923D01*
X0127239Y0260955D01*
X0127286Y0260985D01*
X0127336Y0261011D01*
X0127388Y0261035D01*
X0127440Y0261054D01*
X0127494Y0261071D01*
X0127549Y0261083D01*
X0127605Y0261093D01*
X0127661Y0261098D01*
X0127717Y0261100D01*
X0127773Y0261098D01*
X0127829Y0261093D01*
X0127885Y0261083D01*
X0127940Y0261071D01*
X0127994Y0261054D01*
X0128046Y0261035D01*
X0128098Y0261011D01*
X0128148Y0260985D01*
X0128195Y0260955D01*
X0128241Y0260922D01*
X0128285Y0260887D01*
X0128326Y0260848D01*
X0128365Y0260807D01*
X0128400Y0260764D01*
X0128433Y0260718D01*
X0128463Y0260670D01*
X0128490Y0260621D01*
X0128513Y0260570D01*
X0128533Y0260517D01*
X0126900Y0260517D02*
X0126852Y0260415D01*
X0126808Y0260312D01*
X0126767Y0260208D01*
X0126730Y0260102D01*
X0126696Y0259995D01*
X0126666Y0259887D01*
X0126639Y0259778D01*
X0126615Y0259669D01*
X0126595Y0259558D01*
X0126579Y0259447D01*
X0126566Y0259336D01*
X0126557Y0259224D01*
X0126552Y0259112D01*
X0126550Y0259000D01*
X0128883Y0259000D02*
X0128881Y0259112D01*
X0128876Y0259224D01*
X0128867Y0259336D01*
X0128854Y0259447D01*
X0128838Y0259558D01*
X0128818Y0259669D01*
X0128794Y0259778D01*
X0128767Y0259887D01*
X0128737Y0259995D01*
X0128703Y0260102D01*
X0128666Y0260208D01*
X0128625Y0260312D01*
X0128581Y0260415D01*
X0128533Y0260517D01*
X0126901Y0257483D02*
X0126921Y0257430D01*
X0126944Y0257379D01*
X0126971Y0257330D01*
X0127001Y0257282D01*
X0127034Y0257236D01*
X0127069Y0257193D01*
X0127108Y0257152D01*
X0127149Y0257113D01*
X0127193Y0257077D01*
X0127239Y0257045D01*
X0127286Y0257015D01*
X0127336Y0256989D01*
X0127388Y0256965D01*
X0127440Y0256946D01*
X0127494Y0256929D01*
X0127549Y0256917D01*
X0127605Y0256907D01*
X0127661Y0256902D01*
X0127717Y0256900D01*
X0130817Y0256900D02*
X0133617Y0261100D01*
X0138333Y0264000D02*
X0138333Y0300969D01*
X0143333Y0305969D01*
X0146365Y0305969D01*
X0146955Y0305378D01*
X0155333Y0305378D01*
X0155333Y0267000D01*
X0163333Y0259000D01*
X0173333Y0259000D02*
X0173333Y0302622D01*
X0178023Y0302622D01*
X0180114Y0300531D01*
X0186802Y0300531D01*
X0188333Y0299000D01*
X0193333Y0302031D02*
X0180735Y0302031D01*
X0177388Y0305378D01*
X0168333Y0314433D01*
X0168333Y0319000D01*
X0164333Y0319000D02*
X0164333Y0324500D01*
X0172333Y0324500D02*
X0172333Y0319000D01*
X0177388Y0305378D02*
X0155333Y0305378D01*
X0158333Y0302622D02*
X0173333Y0302622D01*
X0128883Y0259000D02*
X0128881Y0258888D01*
X0128876Y0258776D01*
X0128867Y0258664D01*
X0128854Y0258553D01*
X0128838Y0258442D01*
X0128818Y0258331D01*
X0128794Y0258222D01*
X0128767Y0258113D01*
X0128737Y0258005D01*
X0128703Y0257898D01*
X0128666Y0257792D01*
X0128625Y0257688D01*
X0128581Y0257585D01*
X0128533Y0257483D01*
X0124383Y0256900D02*
X0122050Y0256900D01*
X0123217Y0256900D02*
X0123217Y0261100D01*
X0124383Y0260167D01*
X0224050Y0256900D02*
X0226383Y0256900D01*
X0225217Y0256900D02*
X0225217Y0261100D01*
X0226383Y0260167D01*
X0230883Y0259000D02*
X0230881Y0258888D01*
X0230876Y0258776D01*
X0230867Y0258664D01*
X0230854Y0258553D01*
X0230838Y0258442D01*
X0230818Y0258331D01*
X0230794Y0258222D01*
X0230767Y0258113D01*
X0230737Y0258005D01*
X0230703Y0257898D01*
X0230666Y0257792D01*
X0230625Y0257688D01*
X0230581Y0257585D01*
X0230533Y0257483D01*
X0230650Y0257833D02*
X0228783Y0260167D01*
X0228901Y0260517D02*
X0228921Y0260570D01*
X0228944Y0260621D01*
X0228971Y0260670D01*
X0229001Y0260718D01*
X0229034Y0260764D01*
X0229069Y0260807D01*
X0229108Y0260848D01*
X0229149Y0260887D01*
X0229193Y0260923D01*
X0229239Y0260955D01*
X0229286Y0260985D01*
X0229336Y0261011D01*
X0229388Y0261035D01*
X0229440Y0261054D01*
X0229494Y0261071D01*
X0229549Y0261083D01*
X0229605Y0261093D01*
X0229661Y0261098D01*
X0229717Y0261100D01*
X0229773Y0261098D01*
X0229829Y0261093D01*
X0229885Y0261083D01*
X0229940Y0261071D01*
X0229994Y0261054D01*
X0230046Y0261035D01*
X0230098Y0261011D01*
X0230148Y0260985D01*
X0230195Y0260955D01*
X0230241Y0260922D01*
X0230285Y0260887D01*
X0230326Y0260848D01*
X0230365Y0260807D01*
X0230400Y0260764D01*
X0230433Y0260718D01*
X0230463Y0260670D01*
X0230490Y0260621D01*
X0230513Y0260570D01*
X0230533Y0260517D01*
X0228900Y0260517D02*
X0228852Y0260415D01*
X0228808Y0260312D01*
X0228767Y0260208D01*
X0228730Y0260102D01*
X0228696Y0259995D01*
X0228666Y0259887D01*
X0228639Y0259778D01*
X0228615Y0259669D01*
X0228595Y0259558D01*
X0228579Y0259447D01*
X0228566Y0259336D01*
X0228557Y0259224D01*
X0228552Y0259112D01*
X0228550Y0259000D01*
X0230883Y0259000D02*
X0230881Y0259112D01*
X0230876Y0259224D01*
X0230867Y0259336D01*
X0230854Y0259447D01*
X0230838Y0259558D01*
X0230818Y0259669D01*
X0230794Y0259778D01*
X0230767Y0259887D01*
X0230737Y0259995D01*
X0230703Y0260102D01*
X0230666Y0260208D01*
X0230625Y0260312D01*
X0230581Y0260415D01*
X0230533Y0260517D01*
X0228550Y0259000D02*
X0228552Y0258888D01*
X0228557Y0258776D01*
X0228566Y0258664D01*
X0228579Y0258553D01*
X0228595Y0258442D01*
X0228615Y0258331D01*
X0228639Y0258222D01*
X0228666Y0258113D01*
X0228696Y0258005D01*
X0228730Y0257898D01*
X0228767Y0257792D01*
X0228808Y0257688D01*
X0228852Y0257585D01*
X0228900Y0257483D01*
X0229717Y0256900D02*
X0229773Y0256902D01*
X0229829Y0256907D01*
X0229885Y0256917D01*
X0229940Y0256929D01*
X0229994Y0256946D01*
X0230046Y0256965D01*
X0230098Y0256989D01*
X0230148Y0257015D01*
X0230195Y0257045D01*
X0230241Y0257077D01*
X0230285Y0257113D01*
X0230326Y0257152D01*
X0230365Y0257193D01*
X0230400Y0257236D01*
X0230433Y0257282D01*
X0230463Y0257330D01*
X0230490Y0257379D01*
X0230513Y0257430D01*
X0230533Y0257483D01*
X0229717Y0256900D02*
X0229661Y0256902D01*
X0229605Y0256907D01*
X0229549Y0256917D01*
X0229494Y0256929D01*
X0229440Y0256946D01*
X0229388Y0256965D01*
X0229336Y0256989D01*
X0229286Y0257015D01*
X0229239Y0257045D01*
X0229193Y0257077D01*
X0229149Y0257113D01*
X0229108Y0257152D01*
X0229069Y0257193D01*
X0229034Y0257236D01*
X0229001Y0257282D01*
X0228971Y0257330D01*
X0228944Y0257379D01*
X0228921Y0257430D01*
X0228901Y0257483D01*
X0232817Y0256900D02*
X0235617Y0261100D01*
X0232817Y0261100D02*
X0235617Y0256900D01*
X0240333Y0264000D02*
X0240333Y0300969D01*
X0245333Y0305969D01*
X0248365Y0305969D01*
X0248955Y0305378D01*
X0257333Y0305378D01*
X0257333Y0267000D01*
X0265333Y0259000D01*
X0275333Y0259000D02*
X0275333Y0302622D01*
X0280023Y0302622D01*
X0282114Y0300531D01*
X0288802Y0300531D01*
X0290333Y0299000D01*
X0295333Y0302031D02*
X0282735Y0302031D01*
X0279388Y0305378D01*
X0270333Y0314433D01*
X0270333Y0319000D01*
X0266333Y0319000D02*
X0266333Y0324500D01*
X0274333Y0324500D02*
X0274333Y0319000D01*
X0279388Y0305378D02*
X0257333Y0305378D01*
X0260333Y0302622D02*
X0275333Y0302622D01*
X0327217Y0261100D02*
X0327217Y0256900D01*
X0328383Y0256900D02*
X0326050Y0256900D01*
X0332533Y0257483D02*
X0332581Y0257585D01*
X0332625Y0257688D01*
X0332666Y0257792D01*
X0332703Y0257898D01*
X0332737Y0258005D01*
X0332767Y0258113D01*
X0332794Y0258222D01*
X0332818Y0258331D01*
X0332838Y0258442D01*
X0332854Y0258553D01*
X0332867Y0258664D01*
X0332876Y0258776D01*
X0332881Y0258888D01*
X0332883Y0259000D01*
X0330550Y0259000D02*
X0330552Y0259112D01*
X0330557Y0259224D01*
X0330566Y0259336D01*
X0330579Y0259447D01*
X0330595Y0259558D01*
X0330615Y0259669D01*
X0330639Y0259778D01*
X0330666Y0259887D01*
X0330696Y0259995D01*
X0330730Y0260102D01*
X0330767Y0260208D01*
X0330808Y0260312D01*
X0330852Y0260415D01*
X0330900Y0260517D01*
X0330783Y0260167D02*
X0332650Y0257833D01*
X0331717Y0256900D02*
X0331661Y0256902D01*
X0331605Y0256907D01*
X0331549Y0256917D01*
X0331494Y0256929D01*
X0331440Y0256946D01*
X0331388Y0256965D01*
X0331336Y0256989D01*
X0331286Y0257015D01*
X0331239Y0257045D01*
X0331193Y0257077D01*
X0331149Y0257113D01*
X0331108Y0257152D01*
X0331069Y0257193D01*
X0331034Y0257236D01*
X0331001Y0257282D01*
X0330971Y0257330D01*
X0330944Y0257379D01*
X0330921Y0257430D01*
X0330901Y0257483D01*
X0331717Y0256900D02*
X0331773Y0256902D01*
X0331829Y0256907D01*
X0331885Y0256917D01*
X0331940Y0256929D01*
X0331994Y0256946D01*
X0332046Y0256965D01*
X0332098Y0256989D01*
X0332148Y0257015D01*
X0332195Y0257045D01*
X0332241Y0257077D01*
X0332285Y0257113D01*
X0332326Y0257152D01*
X0332365Y0257193D01*
X0332400Y0257236D01*
X0332433Y0257282D01*
X0332463Y0257330D01*
X0332490Y0257379D01*
X0332513Y0257430D01*
X0332533Y0257483D01*
X0330900Y0257483D02*
X0330852Y0257585D01*
X0330808Y0257688D01*
X0330767Y0257792D01*
X0330730Y0257898D01*
X0330696Y0258005D01*
X0330666Y0258113D01*
X0330639Y0258222D01*
X0330615Y0258331D01*
X0330595Y0258442D01*
X0330579Y0258553D01*
X0330566Y0258664D01*
X0330557Y0258776D01*
X0330552Y0258888D01*
X0330550Y0259000D01*
X0332883Y0259000D02*
X0332881Y0259112D01*
X0332876Y0259224D01*
X0332867Y0259336D01*
X0332854Y0259447D01*
X0332838Y0259558D01*
X0332818Y0259669D01*
X0332794Y0259778D01*
X0332767Y0259887D01*
X0332737Y0259995D01*
X0332703Y0260102D01*
X0332666Y0260208D01*
X0332625Y0260312D01*
X0332581Y0260415D01*
X0332533Y0260517D01*
X0332513Y0260570D01*
X0332490Y0260621D01*
X0332463Y0260670D01*
X0332433Y0260718D01*
X0332400Y0260764D01*
X0332365Y0260807D01*
X0332326Y0260848D01*
X0332285Y0260887D01*
X0332241Y0260922D01*
X0332195Y0260955D01*
X0332148Y0260985D01*
X0332098Y0261011D01*
X0332046Y0261035D01*
X0331994Y0261054D01*
X0331940Y0261071D01*
X0331885Y0261083D01*
X0331829Y0261093D01*
X0331773Y0261098D01*
X0331717Y0261100D01*
X0331661Y0261098D01*
X0331605Y0261093D01*
X0331549Y0261083D01*
X0331494Y0261071D01*
X0331440Y0261054D01*
X0331388Y0261035D01*
X0331336Y0261011D01*
X0331286Y0260985D01*
X0331239Y0260955D01*
X0331193Y0260923D01*
X0331149Y0260887D01*
X0331108Y0260848D01*
X0331069Y0260807D01*
X0331034Y0260764D01*
X0331001Y0260718D01*
X0330971Y0260670D01*
X0330944Y0260621D01*
X0330921Y0260570D01*
X0330901Y0260517D01*
X0328383Y0260167D02*
X0327217Y0261100D01*
X0334817Y0261100D02*
X0337617Y0256900D01*
X0334817Y0256900D02*
X0337617Y0261100D01*
X0342333Y0264000D02*
X0342333Y0300969D01*
X0347333Y0305969D01*
X0350365Y0305969D01*
X0350955Y0305378D01*
X0359333Y0305378D01*
X0359333Y0267000D01*
X0367333Y0259000D01*
X0377333Y0259000D02*
X0377333Y0302622D01*
X0382023Y0302622D01*
X0384114Y0300531D01*
X0390802Y0300531D01*
X0392333Y0299000D01*
X0397333Y0302031D02*
X0384735Y0302031D01*
X0381388Y0305378D01*
X0372333Y0314433D01*
X0372333Y0319000D01*
X0368333Y0319000D02*
X0368333Y0324500D01*
X0376333Y0324500D02*
X0376333Y0319000D01*
X0381388Y0305378D02*
X0359333Y0305378D01*
X0362333Y0302622D02*
X0377333Y0302622D01*
D11*
X0376333Y0319000D03*
X0372333Y0319000D03*
X0368333Y0319000D03*
X0274333Y0319000D03*
X0270333Y0319000D03*
X0266333Y0319000D03*
X0172333Y0319000D03*
X0168333Y0319000D03*
X0164333Y0319000D03*
X0164333Y0217000D03*
X0168333Y0217000D03*
X0172333Y0217000D03*
X0266333Y0217000D03*
X0270333Y0217000D03*
X0274333Y0217000D03*
X0368333Y0217000D03*
X0372333Y0217000D03*
X0376333Y0217000D03*
X0376333Y0115000D03*
X0372333Y0115000D03*
X0368333Y0115000D03*
X0274333Y0115000D03*
X0270333Y0115000D03*
X0266333Y0115000D03*
X0172333Y0115000D03*
X0168333Y0115000D03*
X0164333Y0115000D03*
D12*
X0166333Y0115000D03*
X0170333Y0115000D03*
X0268333Y0115000D03*
X0272333Y0115000D03*
X0370333Y0115000D03*
X0374333Y0115000D03*
X0374333Y0217000D03*
X0370333Y0217000D03*
X0272333Y0217000D03*
X0268333Y0217000D03*
X0170333Y0217000D03*
X0166333Y0217000D03*
X0166333Y0319000D03*
X0170333Y0319000D03*
X0268333Y0319000D03*
X0272333Y0319000D03*
X0370333Y0319000D03*
X0374333Y0319000D03*
D13*
X0377333Y0259000D03*
X0367333Y0259000D03*
X0357333Y0259000D03*
X0387333Y0259000D03*
X0285333Y0259000D03*
X0275333Y0259000D03*
X0265333Y0259000D03*
X0255333Y0259000D03*
X0183333Y0259000D03*
X0173333Y0259000D03*
X0163333Y0259000D03*
X0153333Y0259000D03*
X0153333Y0157000D03*
X0163333Y0157000D03*
X0173333Y0157000D03*
X0183333Y0157000D03*
X0255333Y0157000D03*
X0265333Y0157000D03*
X0275333Y0157000D03*
X0285333Y0157000D03*
X0357333Y0157000D03*
X0367333Y0157000D03*
X0377333Y0157000D03*
X0387333Y0157000D03*
X0387333Y0055000D03*
X0377333Y0055000D03*
X0367333Y0055000D03*
X0357333Y0055000D03*
X0285333Y0055000D03*
X0275333Y0055000D03*
X0265333Y0055000D03*
X0255333Y0055000D03*
X0183333Y0055000D03*
X0173333Y0055000D03*
X0163333Y0055000D03*
X0153333Y0055000D03*
D14*
X0215833Y0052500D03*
X0317833Y0052500D03*
X0419833Y0052500D03*
X0324833Y0147500D03*
X0317833Y0154500D03*
X0222833Y0147500D03*
X0215833Y0154500D03*
X0120833Y0147500D03*
X0120833Y0249500D03*
X0215833Y0256500D03*
X0222833Y0249500D03*
X0317833Y0256500D03*
X0324833Y0249500D03*
X0419833Y0256500D03*
X0324833Y0351500D03*
X0222833Y0351500D03*
X0120833Y0351500D03*
X0419833Y0154500D03*
D15*
X0376333Y0120500D03*
X0368333Y0120500D03*
X0347333Y0101969D03*
X0362333Y0098622D03*
X0367833Y0091000D03*
X0381388Y0101378D03*
X0392333Y0095000D03*
X0397333Y0098031D03*
X0342333Y0060000D03*
X0295333Y0098031D03*
X0290333Y0095000D03*
X0279388Y0101378D03*
X0265833Y0091000D03*
X0260333Y0098622D03*
X0245333Y0101969D03*
X0266333Y0120500D03*
X0274333Y0120500D03*
X0240333Y0162000D03*
X0265833Y0193000D03*
X0260333Y0200622D03*
X0245333Y0203969D03*
X0266333Y0222500D03*
X0274333Y0222500D03*
X0279388Y0203378D03*
X0290333Y0197000D03*
X0295333Y0200031D03*
X0347333Y0203969D03*
X0362333Y0200622D03*
X0367833Y0193000D03*
X0381388Y0203378D03*
X0392333Y0197000D03*
X0397333Y0200031D03*
X0376333Y0222500D03*
X0368333Y0222500D03*
X0342333Y0264000D03*
X0367833Y0295000D03*
X0362333Y0302622D03*
X0347333Y0305969D03*
X0368333Y0324500D03*
X0376333Y0324500D03*
X0381388Y0305378D03*
X0392333Y0299000D03*
X0397333Y0302031D03*
X0295333Y0302031D03*
X0290333Y0299000D03*
X0279388Y0305378D03*
X0265833Y0295000D03*
X0260333Y0302622D03*
X0245333Y0305969D03*
X0266333Y0324500D03*
X0274333Y0324500D03*
X0240333Y0264000D03*
X0193333Y0302031D03*
X0188333Y0299000D03*
X0177388Y0305378D03*
X0163833Y0295000D03*
X0158333Y0302622D03*
X0143333Y0305969D03*
X0164333Y0324500D03*
X0172333Y0324500D03*
X0138333Y0264000D03*
X0164333Y0222500D03*
X0172333Y0222500D03*
X0177388Y0203378D03*
X0188333Y0197000D03*
X0193333Y0200031D03*
X0163833Y0193000D03*
X0158333Y0200622D03*
X0143333Y0203969D03*
X0138333Y0162000D03*
X0164333Y0120500D03*
X0172333Y0120500D03*
X0177388Y0101378D03*
X0188333Y0095000D03*
X0193333Y0098031D03*
X0163833Y0091000D03*
X0158333Y0098622D03*
X0143333Y0101969D03*
X0138333Y0060000D03*
X0240333Y0060000D03*
X0342333Y0162000D03*
D16*
X0120233Y0135630D02*
X0120233Y0053770D01*
X0121263Y0054800D01*
X0121317Y0054800D01*
X0121317Y0056995D01*
X0121241Y0057672D01*
X0121317Y0057766D01*
X0121317Y0057887D01*
X0121799Y0058369D01*
X0122225Y0058901D01*
X0122344Y0058915D01*
X0122430Y0059000D01*
X0123111Y0059000D01*
X0123789Y0059075D01*
X0123883Y0059000D01*
X0124004Y0059000D01*
X0124486Y0058518D01*
X0125343Y0057832D01*
X0125390Y0057971D01*
X0125390Y0057971D01*
X0126831Y0059000D01*
X0128602Y0059000D01*
X0129394Y0058435D01*
X0130418Y0059117D01*
X0131961Y0058809D01*
X0132217Y0058425D01*
X0132472Y0058809D01*
X0134016Y0059117D01*
X0135325Y0058244D01*
X0135634Y0056701D01*
X0134500Y0055000D01*
X0135634Y0053299D01*
X0135354Y0051900D01*
X0149158Y0051900D01*
X0148886Y0052275D01*
X0148514Y0053004D01*
X0148261Y0053782D01*
X0148148Y0054500D01*
X0152833Y0054500D01*
X0152833Y0055500D01*
X0148148Y0055500D01*
X0148261Y0056218D01*
X0148514Y0056996D01*
X0148886Y0057725D01*
X0149367Y0058388D01*
X0149946Y0058966D01*
X0150608Y0059447D01*
X0151337Y0059819D01*
X0152116Y0060072D01*
X0152833Y0060186D01*
X0152833Y0055500D01*
X0153833Y0055500D01*
X0153833Y0060186D01*
X0154551Y0060072D01*
X0155329Y0059819D01*
X0156059Y0059447D01*
X0156571Y0059075D01*
X0154546Y0061100D01*
X0153433Y0062213D01*
X0153433Y0099478D01*
X0146168Y0099478D01*
X0145592Y0100055D01*
X0145004Y0099468D01*
X0143920Y0099019D01*
X0143070Y0099019D01*
X0140233Y0096181D01*
X0140233Y0062272D01*
X0140834Y0061671D01*
X0141283Y0060587D01*
X0141283Y0059413D01*
X0140834Y0058329D01*
X0140004Y0057499D01*
X0138920Y0057050D01*
X0137747Y0057050D01*
X0136662Y0057499D01*
X0135832Y0058329D01*
X0135383Y0059413D01*
X0135383Y0060587D01*
X0135832Y0061671D01*
X0136433Y0062272D01*
X0136433Y0097755D01*
X0140383Y0101705D01*
X0140383Y0102555D01*
X0140832Y0103640D01*
X0141662Y0104469D01*
X0142747Y0104918D01*
X0143920Y0104918D01*
X0145004Y0104469D01*
X0145605Y0103868D01*
X0147152Y0103868D01*
X0147742Y0103278D01*
X0172801Y0103278D01*
X0166433Y0109646D01*
X0166433Y0111029D01*
X0166333Y0111129D01*
X0166205Y0111000D01*
X0162462Y0111000D01*
X0161583Y0111879D01*
X0161583Y0118121D01*
X0162062Y0118600D01*
X0161832Y0118829D01*
X0161383Y0119913D01*
X0161383Y0121087D01*
X0161832Y0122171D01*
X0162662Y0123001D01*
X0163747Y0123450D01*
X0164920Y0123450D01*
X0166004Y0123001D01*
X0166834Y0122171D01*
X0167283Y0121087D01*
X0167283Y0119913D01*
X0166905Y0119000D01*
X0169762Y0119000D01*
X0169383Y0119913D01*
X0169383Y0121087D01*
X0169832Y0122171D01*
X0170662Y0123001D01*
X0171747Y0123450D01*
X0172920Y0123450D01*
X0174004Y0123001D01*
X0174834Y0122171D01*
X0175283Y0121087D01*
X0175283Y0119913D01*
X0174834Y0118829D01*
X0174605Y0118600D01*
X0175083Y0118121D01*
X0175083Y0111879D01*
X0174205Y0111000D01*
X0170462Y0111000D01*
X0170333Y0111129D01*
X0170329Y0111124D01*
X0177125Y0104328D01*
X0177975Y0104328D01*
X0179059Y0103879D01*
X0179889Y0103049D01*
X0180338Y0101965D01*
X0180338Y0101115D01*
X0181522Y0099931D01*
X0191061Y0099931D01*
X0191662Y0100532D01*
X0192747Y0100981D01*
X0193920Y0100981D01*
X0195004Y0100532D01*
X0195834Y0099703D01*
X0196283Y0098618D01*
X0196283Y0097445D01*
X0195834Y0096360D01*
X0195004Y0095531D01*
X0193920Y0095081D01*
X0192747Y0095081D01*
X0191662Y0095531D01*
X0191061Y0096131D01*
X0191058Y0096131D01*
X0191283Y0095587D01*
X0191283Y0094413D01*
X0190834Y0093329D01*
X0190004Y0092499D01*
X0188920Y0092050D01*
X0187747Y0092050D01*
X0186662Y0092499D01*
X0185832Y0093329D01*
X0185383Y0094413D01*
X0185383Y0094631D01*
X0179327Y0094631D01*
X0178214Y0095744D01*
X0177236Y0096722D01*
X0175233Y0096722D01*
X0175233Y0059841D01*
X0176279Y0059408D01*
X0177742Y0057946D01*
X0178333Y0056517D01*
X0178925Y0057946D01*
X0180388Y0059408D01*
X0182299Y0060200D01*
X0184368Y0060200D01*
X0186279Y0059408D01*
X0187742Y0057946D01*
X0188533Y0056034D01*
X0188533Y0053966D01*
X0187742Y0052054D01*
X0187587Y0051900D01*
X0213105Y0051900D01*
X0213083Y0051953D01*
X0213083Y0053047D01*
X0213502Y0054058D01*
X0214276Y0054831D01*
X0215286Y0055250D01*
X0216380Y0055250D01*
X0216433Y0055228D01*
X0216433Y0135356D01*
X0216424Y0135329D01*
X0216424Y0135329D01*
X0214338Y0132844D01*
X0214338Y0132844D01*
X0211528Y0131221D01*
X0211528Y0131221D01*
X0208333Y0130658D01*
X0208333Y0130658D01*
X0205138Y0131221D01*
X0205138Y0131221D01*
X0202328Y0132844D01*
X0202328Y0132844D01*
X0202328Y0132844D01*
X0200243Y0135329D01*
X0200243Y0135329D01*
X0199133Y0138378D01*
X0199133Y0141622D01*
X0200243Y0144671D01*
X0200243Y0144671D01*
X0202328Y0147156D01*
X0202328Y0147156D01*
X0203963Y0148100D01*
X0132978Y0148100D01*
X0133004Y0148090D01*
X0133004Y0148090D01*
X0135490Y0146005D01*
X0135490Y0146005D01*
X0137112Y0143195D01*
X0137112Y0143195D01*
X0137675Y0140000D01*
X0137675Y0140000D01*
X0137112Y0136805D01*
X0137112Y0136805D01*
X0135490Y0133995D01*
X0135490Y0133995D01*
X0135490Y0133995D01*
X0133004Y0131910D01*
X0133004Y0131910D01*
X0129956Y0130800D01*
X0126711Y0130800D01*
X0123662Y0131910D01*
X0123662Y0131910D01*
X0121177Y0133995D01*
X0121177Y0133995D01*
X0120233Y0135630D01*
X0120233Y0134873D02*
X0120670Y0134873D01*
X0120233Y0133875D02*
X0121320Y0133875D01*
X0120233Y0132876D02*
X0122510Y0132876D01*
X0123750Y0131878D02*
X0120233Y0131878D01*
X0120233Y0130879D02*
X0126493Y0130879D01*
X0130174Y0130879D02*
X0207078Y0130879D01*
X0209589Y0130879D02*
X0216433Y0130879D01*
X0216433Y0129881D02*
X0120233Y0129881D01*
X0120233Y0128882D02*
X0216433Y0128882D01*
X0216433Y0127884D02*
X0120233Y0127884D01*
X0120233Y0126885D02*
X0216433Y0126885D01*
X0216433Y0125887D02*
X0120233Y0125887D01*
X0120233Y0124888D02*
X0216433Y0124888D01*
X0216433Y0123890D02*
X0120233Y0123890D01*
X0120233Y0122891D02*
X0162553Y0122891D01*
X0161717Y0121893D02*
X0120233Y0121893D01*
X0120233Y0120894D02*
X0161383Y0120894D01*
X0161391Y0119896D02*
X0120233Y0119896D01*
X0120233Y0118897D02*
X0161804Y0118897D01*
X0161583Y0117899D02*
X0120233Y0117899D01*
X0120233Y0116900D02*
X0161583Y0116900D01*
X0161583Y0115902D02*
X0120233Y0115902D01*
X0120233Y0114903D02*
X0161583Y0114903D01*
X0161583Y0113905D02*
X0120233Y0113905D01*
X0120233Y0112906D02*
X0161583Y0112906D01*
X0161583Y0111908D02*
X0120233Y0111908D01*
X0120233Y0110909D02*
X0166433Y0110909D01*
X0166433Y0109911D02*
X0120233Y0109911D01*
X0120233Y0108912D02*
X0167167Y0108912D01*
X0168166Y0107914D02*
X0120233Y0107914D01*
X0120233Y0106915D02*
X0169164Y0106915D01*
X0170163Y0105917D02*
X0120233Y0105917D01*
X0120233Y0104918D02*
X0142746Y0104918D01*
X0143921Y0104918D02*
X0171161Y0104918D01*
X0172160Y0103920D02*
X0145554Y0103920D01*
X0145462Y0099926D02*
X0145721Y0099926D01*
X0142979Y0098927D02*
X0153433Y0098927D01*
X0153433Y0097929D02*
X0141980Y0097929D01*
X0140982Y0096930D02*
X0153433Y0096930D01*
X0153433Y0095932D02*
X0140233Y0095932D01*
X0140233Y0094933D02*
X0153433Y0094933D01*
X0153433Y0093934D02*
X0140233Y0093934D01*
X0140233Y0092936D02*
X0153433Y0092936D01*
X0153433Y0091937D02*
X0140233Y0091937D01*
X0140233Y0090939D02*
X0153433Y0090939D01*
X0153433Y0089940D02*
X0140233Y0089940D01*
X0140233Y0088942D02*
X0153433Y0088942D01*
X0153433Y0087943D02*
X0140233Y0087943D01*
X0140233Y0086945D02*
X0153433Y0086945D01*
X0153433Y0085946D02*
X0140233Y0085946D01*
X0140233Y0084948D02*
X0153433Y0084948D01*
X0153433Y0083949D02*
X0140233Y0083949D01*
X0140233Y0082951D02*
X0153433Y0082951D01*
X0153433Y0081952D02*
X0140233Y0081952D01*
X0140233Y0080954D02*
X0153433Y0080954D01*
X0153433Y0079955D02*
X0140233Y0079955D01*
X0140233Y0078957D02*
X0153433Y0078957D01*
X0153433Y0077958D02*
X0140233Y0077958D01*
X0140233Y0076960D02*
X0153433Y0076960D01*
X0153433Y0075961D02*
X0140233Y0075961D01*
X0140233Y0074963D02*
X0153433Y0074963D01*
X0153433Y0073964D02*
X0140233Y0073964D01*
X0140233Y0072966D02*
X0153433Y0072966D01*
X0153433Y0071967D02*
X0140233Y0071967D01*
X0140233Y0070969D02*
X0153433Y0070969D01*
X0153433Y0069970D02*
X0140233Y0069970D01*
X0140233Y0068972D02*
X0153433Y0068972D01*
X0153433Y0067973D02*
X0140233Y0067973D01*
X0140233Y0066975D02*
X0153433Y0066975D01*
X0153433Y0065976D02*
X0140233Y0065976D01*
X0140233Y0064978D02*
X0153433Y0064978D01*
X0153433Y0063979D02*
X0140233Y0063979D01*
X0140233Y0062981D02*
X0153433Y0062981D01*
X0153664Y0061982D02*
X0140523Y0061982D01*
X0141119Y0060984D02*
X0154663Y0060984D01*
X0154818Y0059985D02*
X0155661Y0059985D01*
X0153833Y0059985D02*
X0152833Y0059985D01*
X0151848Y0059985D02*
X0141283Y0059985D01*
X0141107Y0058987D02*
X0149974Y0058987D01*
X0149077Y0057988D02*
X0140493Y0057988D01*
X0136173Y0057988D02*
X0135377Y0057988D01*
X0135560Y0058987D02*
X0134212Y0058987D01*
X0133362Y0058987D02*
X0131072Y0058987D01*
X0130221Y0058987D02*
X0128621Y0058987D01*
X0126812Y0058987D02*
X0124017Y0058987D01*
X0125148Y0057988D02*
X0125414Y0057988D01*
X0125390Y0057971D02*
X0125390Y0057971D01*
X0122416Y0058987D02*
X0120233Y0058987D01*
X0120233Y0059985D02*
X0135383Y0059985D01*
X0135548Y0060984D02*
X0120233Y0060984D01*
X0120233Y0061982D02*
X0136144Y0061982D01*
X0136433Y0062981D02*
X0120233Y0062981D01*
X0120233Y0063979D02*
X0136433Y0063979D01*
X0136433Y0064978D02*
X0120233Y0064978D01*
X0120233Y0065976D02*
X0136433Y0065976D01*
X0136433Y0066975D02*
X0120233Y0066975D01*
X0120233Y0067973D02*
X0136433Y0067973D01*
X0136433Y0068972D02*
X0120233Y0068972D01*
X0120233Y0069970D02*
X0136433Y0069970D01*
X0136433Y0070969D02*
X0120233Y0070969D01*
X0120233Y0071967D02*
X0136433Y0071967D01*
X0136433Y0072966D02*
X0120233Y0072966D01*
X0120233Y0073964D02*
X0136433Y0073964D01*
X0136433Y0074963D02*
X0120233Y0074963D01*
X0120233Y0075961D02*
X0136433Y0075961D01*
X0136433Y0076960D02*
X0120233Y0076960D01*
X0120233Y0077958D02*
X0136433Y0077958D01*
X0136433Y0078957D02*
X0120233Y0078957D01*
X0120233Y0079955D02*
X0136433Y0079955D01*
X0136433Y0080954D02*
X0120233Y0080954D01*
X0120233Y0081952D02*
X0136433Y0081952D01*
X0136433Y0082951D02*
X0120233Y0082951D01*
X0120233Y0083949D02*
X0136433Y0083949D01*
X0136433Y0084948D02*
X0120233Y0084948D01*
X0120233Y0085946D02*
X0136433Y0085946D01*
X0136433Y0086945D02*
X0120233Y0086945D01*
X0120233Y0087943D02*
X0136433Y0087943D01*
X0136433Y0088942D02*
X0120233Y0088942D01*
X0120233Y0089940D02*
X0136433Y0089940D01*
X0136433Y0090939D02*
X0120233Y0090939D01*
X0120233Y0091937D02*
X0136433Y0091937D01*
X0136433Y0092936D02*
X0120233Y0092936D01*
X0120233Y0093934D02*
X0136433Y0093934D01*
X0136433Y0094933D02*
X0120233Y0094933D01*
X0120233Y0095932D02*
X0136433Y0095932D01*
X0136433Y0096930D02*
X0120233Y0096930D01*
X0120233Y0097929D02*
X0136606Y0097929D01*
X0137605Y0098927D02*
X0120233Y0098927D01*
X0120233Y0099926D02*
X0138603Y0099926D01*
X0139602Y0100924D02*
X0120233Y0100924D01*
X0120233Y0101923D02*
X0140383Y0101923D01*
X0140535Y0102921D02*
X0120233Y0102921D01*
X0120233Y0103920D02*
X0141113Y0103920D01*
X0157233Y0095885D02*
X0157747Y0095672D01*
X0158920Y0095672D01*
X0160004Y0096121D01*
X0160605Y0096722D01*
X0171433Y0096722D01*
X0171433Y0059841D01*
X0170388Y0059408D01*
X0168925Y0057946D01*
X0168333Y0056517D01*
X0167742Y0057946D01*
X0166279Y0059408D01*
X0164368Y0060200D01*
X0162299Y0060200D01*
X0161253Y0059767D01*
X0157233Y0063787D01*
X0157233Y0095885D01*
X0157233Y0094933D02*
X0171433Y0094933D01*
X0171433Y0093934D02*
X0157233Y0093934D01*
X0157233Y0092936D02*
X0171433Y0092936D01*
X0171433Y0091937D02*
X0157233Y0091937D01*
X0157233Y0090939D02*
X0171433Y0090939D01*
X0171433Y0089940D02*
X0157233Y0089940D01*
X0157233Y0088942D02*
X0171433Y0088942D01*
X0171433Y0087943D02*
X0157233Y0087943D01*
X0157233Y0086945D02*
X0171433Y0086945D01*
X0171433Y0085946D02*
X0157233Y0085946D01*
X0157233Y0084948D02*
X0171433Y0084948D01*
X0171433Y0083949D02*
X0157233Y0083949D01*
X0157233Y0082951D02*
X0171433Y0082951D01*
X0171433Y0081952D02*
X0157233Y0081952D01*
X0157233Y0080954D02*
X0171433Y0080954D01*
X0171433Y0079955D02*
X0157233Y0079955D01*
X0157233Y0078957D02*
X0171433Y0078957D01*
X0171433Y0077958D02*
X0157233Y0077958D01*
X0157233Y0076960D02*
X0171433Y0076960D01*
X0171433Y0075961D02*
X0157233Y0075961D01*
X0157233Y0074963D02*
X0171433Y0074963D01*
X0171433Y0073964D02*
X0157233Y0073964D01*
X0157233Y0072966D02*
X0171433Y0072966D01*
X0171433Y0071967D02*
X0157233Y0071967D01*
X0157233Y0070969D02*
X0171433Y0070969D01*
X0171433Y0069970D02*
X0157233Y0069970D01*
X0157233Y0068972D02*
X0171433Y0068972D01*
X0171433Y0067973D02*
X0157233Y0067973D01*
X0157233Y0066975D02*
X0171433Y0066975D01*
X0171433Y0065976D02*
X0157233Y0065976D01*
X0157233Y0064978D02*
X0171433Y0064978D01*
X0171433Y0063979D02*
X0157233Y0063979D01*
X0158040Y0062981D02*
X0171433Y0062981D01*
X0171433Y0061982D02*
X0159038Y0061982D01*
X0160037Y0060984D02*
X0171433Y0060984D01*
X0171433Y0059985D02*
X0164886Y0059985D01*
X0166701Y0058987D02*
X0169966Y0058987D01*
X0168968Y0057988D02*
X0167699Y0057988D01*
X0168138Y0056990D02*
X0168529Y0056990D01*
X0175233Y0059985D02*
X0181780Y0059985D01*
X0179966Y0058987D02*
X0176701Y0058987D01*
X0177699Y0057988D02*
X0178968Y0057988D01*
X0178529Y0056990D02*
X0178138Y0056990D01*
X0175233Y0060984D02*
X0216433Y0060984D01*
X0216433Y0061982D02*
X0175233Y0061982D01*
X0175233Y0062981D02*
X0216433Y0062981D01*
X0216433Y0063979D02*
X0175233Y0063979D01*
X0175233Y0064978D02*
X0216433Y0064978D01*
X0216433Y0065976D02*
X0175233Y0065976D01*
X0175233Y0066975D02*
X0216433Y0066975D01*
X0216433Y0067973D02*
X0175233Y0067973D01*
X0175233Y0068972D02*
X0216433Y0068972D01*
X0216433Y0069970D02*
X0175233Y0069970D01*
X0175233Y0070969D02*
X0216433Y0070969D01*
X0216433Y0071967D02*
X0175233Y0071967D01*
X0175233Y0072966D02*
X0216433Y0072966D01*
X0216433Y0073964D02*
X0175233Y0073964D01*
X0175233Y0074963D02*
X0216433Y0074963D01*
X0216433Y0075961D02*
X0175233Y0075961D01*
X0175233Y0076960D02*
X0216433Y0076960D01*
X0216433Y0077958D02*
X0175233Y0077958D01*
X0175233Y0078957D02*
X0216433Y0078957D01*
X0216433Y0079955D02*
X0175233Y0079955D01*
X0175233Y0080954D02*
X0216433Y0080954D01*
X0216433Y0081952D02*
X0175233Y0081952D01*
X0175233Y0082951D02*
X0216433Y0082951D01*
X0216433Y0083949D02*
X0175233Y0083949D01*
X0175233Y0084948D02*
X0216433Y0084948D01*
X0216433Y0085946D02*
X0175233Y0085946D01*
X0175233Y0086945D02*
X0216433Y0086945D01*
X0216433Y0087943D02*
X0175233Y0087943D01*
X0175233Y0088942D02*
X0216433Y0088942D01*
X0216433Y0089940D02*
X0175233Y0089940D01*
X0175233Y0090939D02*
X0216433Y0090939D01*
X0216433Y0091937D02*
X0175233Y0091937D01*
X0175233Y0092936D02*
X0186225Y0092936D01*
X0185582Y0093934D02*
X0175233Y0093934D01*
X0175233Y0094933D02*
X0179025Y0094933D01*
X0178027Y0095932D02*
X0175233Y0095932D01*
X0171433Y0095932D02*
X0159547Y0095932D01*
X0172541Y0108912D02*
X0216433Y0108912D01*
X0216433Y0107914D02*
X0173540Y0107914D01*
X0174538Y0106915D02*
X0216433Y0106915D01*
X0216433Y0105917D02*
X0175537Y0105917D01*
X0176535Y0104918D02*
X0216433Y0104918D01*
X0216433Y0103920D02*
X0178961Y0103920D01*
X0179942Y0102921D02*
X0216433Y0102921D01*
X0216433Y0101923D02*
X0180338Y0101923D01*
X0180529Y0100924D02*
X0192608Y0100924D01*
X0194059Y0100924D02*
X0216433Y0100924D01*
X0216433Y0099926D02*
X0195611Y0099926D01*
X0196155Y0098927D02*
X0216433Y0098927D01*
X0216433Y0097929D02*
X0196283Y0097929D01*
X0196070Y0096930D02*
X0216433Y0096930D01*
X0216433Y0095932D02*
X0195405Y0095932D01*
X0191261Y0095932D02*
X0191141Y0095932D01*
X0191283Y0094933D02*
X0216433Y0094933D01*
X0216433Y0093934D02*
X0191085Y0093934D01*
X0190441Y0092936D02*
X0216433Y0092936D01*
X0222233Y0092936D02*
X0238433Y0092936D01*
X0238433Y0093934D02*
X0222233Y0093934D01*
X0222233Y0094933D02*
X0238433Y0094933D01*
X0238433Y0095932D02*
X0222233Y0095932D01*
X0222233Y0096930D02*
X0238433Y0096930D01*
X0238433Y0097755D02*
X0238433Y0062272D01*
X0237832Y0061671D01*
X0237383Y0060587D01*
X0237383Y0059413D01*
X0237832Y0058329D01*
X0238662Y0057499D01*
X0239747Y0057050D01*
X0240920Y0057050D01*
X0242004Y0057499D01*
X0242834Y0058329D01*
X0243283Y0059413D01*
X0243283Y0060587D01*
X0242834Y0061671D01*
X0242233Y0062272D01*
X0242233Y0096181D01*
X0245070Y0099019D01*
X0245920Y0099019D01*
X0247004Y0099468D01*
X0247592Y0100055D01*
X0248168Y0099478D01*
X0255433Y0099478D01*
X0255433Y0062213D01*
X0256546Y0061100D01*
X0258571Y0059075D01*
X0258059Y0059447D01*
X0257329Y0059819D01*
X0256551Y0060072D01*
X0255833Y0060186D01*
X0255833Y0055500D01*
X0254833Y0055500D01*
X0254833Y0054500D01*
X0250148Y0054500D01*
X0250261Y0053782D01*
X0250514Y0053004D01*
X0250886Y0052275D01*
X0251158Y0051900D01*
X0237354Y0051900D01*
X0237634Y0053299D01*
X0236500Y0055000D01*
X0237634Y0056701D01*
X0237325Y0058244D01*
X0236016Y0059117D01*
X0234472Y0058809D01*
X0234217Y0058425D01*
X0233961Y0058809D01*
X0232418Y0059117D01*
X0231394Y0058435D01*
X0230602Y0059000D01*
X0228831Y0059000D01*
X0227390Y0057971D01*
X0227390Y0057971D01*
X0227390Y0057971D01*
X0227343Y0057832D01*
X0226486Y0058518D01*
X0226004Y0059000D01*
X0225883Y0059000D01*
X0225789Y0059075D01*
X0225111Y0059000D01*
X0224430Y0059000D01*
X0224344Y0058915D01*
X0224225Y0058901D01*
X0223799Y0058369D01*
X0223317Y0057887D01*
X0223317Y0057766D01*
X0223241Y0057672D01*
X0223317Y0056995D01*
X0223317Y0054800D01*
X0223263Y0054800D01*
X0222233Y0053770D01*
X0222233Y0135630D01*
X0223177Y0133995D01*
X0225662Y0131910D01*
X0228711Y0130800D01*
X0229546Y0130800D01*
X0231956Y0130800D01*
X0235004Y0131910D01*
X0237490Y0133995D01*
X0237490Y0133995D01*
X0237490Y0133995D01*
X0239112Y0136805D01*
X0239675Y0140000D01*
X0239112Y0143195D01*
X0237490Y0146005D01*
X0235004Y0148090D01*
X0234978Y0148100D01*
X0305963Y0148100D01*
X0304328Y0147156D01*
X0302243Y0144671D01*
X0302243Y0144671D01*
X0301133Y0141622D01*
X0301133Y0138378D01*
X0302243Y0135329D01*
X0304328Y0132844D01*
X0304328Y0132844D01*
X0304328Y0132844D01*
X0307138Y0131221D01*
X0307138Y0131221D01*
X0310333Y0130658D01*
X0310333Y0130658D01*
X0313528Y0131221D01*
X0313528Y0131221D01*
X0316338Y0132844D01*
X0318424Y0135329D01*
X0318433Y0135356D01*
X0318433Y0055228D01*
X0318380Y0055250D01*
X0317286Y0055250D01*
X0316276Y0054831D01*
X0315502Y0054058D01*
X0315083Y0053047D01*
X0315083Y0051953D01*
X0315105Y0051900D01*
X0289587Y0051900D01*
X0289742Y0052054D01*
X0290533Y0053966D01*
X0290533Y0056034D01*
X0289742Y0057946D01*
X0288279Y0059408D01*
X0286368Y0060200D01*
X0284299Y0060200D01*
X0282388Y0059408D01*
X0280925Y0057946D01*
X0280333Y0056517D01*
X0279742Y0057946D01*
X0278279Y0059408D01*
X0277233Y0059841D01*
X0277233Y0096722D01*
X0279236Y0096722D01*
X0280214Y0095744D01*
X0281327Y0094631D01*
X0287383Y0094631D01*
X0287383Y0094413D01*
X0287832Y0093329D01*
X0288662Y0092499D01*
X0289747Y0092050D01*
X0290920Y0092050D01*
X0292004Y0092499D01*
X0292834Y0093329D01*
X0293283Y0094413D01*
X0293283Y0095587D01*
X0293058Y0096131D01*
X0293061Y0096131D01*
X0293662Y0095531D01*
X0294747Y0095081D01*
X0295920Y0095081D01*
X0297004Y0095531D01*
X0297834Y0096360D01*
X0298283Y0097445D01*
X0298283Y0098618D01*
X0297834Y0099703D01*
X0297004Y0100532D01*
X0295920Y0100981D01*
X0294747Y0100981D01*
X0293662Y0100532D01*
X0293061Y0099931D01*
X0283522Y0099931D01*
X0282338Y0101115D01*
X0282338Y0101965D01*
X0281889Y0103049D01*
X0281059Y0103879D01*
X0279975Y0104328D01*
X0279125Y0104328D01*
X0272329Y0111124D01*
X0272333Y0111129D01*
X0272462Y0111000D01*
X0276205Y0111000D01*
X0277083Y0111879D01*
X0277083Y0118121D01*
X0276605Y0118600D01*
X0276834Y0118829D01*
X0277283Y0119913D01*
X0277283Y0121087D01*
X0276834Y0122171D01*
X0276004Y0123001D01*
X0274920Y0123450D01*
X0273747Y0123450D01*
X0272662Y0123001D01*
X0271832Y0122171D01*
X0271383Y0121087D01*
X0271383Y0119913D01*
X0271762Y0119000D01*
X0268905Y0119000D01*
X0269283Y0119913D01*
X0269283Y0121087D01*
X0268834Y0122171D01*
X0268004Y0123001D01*
X0266920Y0123450D01*
X0265747Y0123450D01*
X0264662Y0123001D01*
X0263832Y0122171D01*
X0263383Y0121087D01*
X0263383Y0119913D01*
X0263832Y0118829D01*
X0264062Y0118600D01*
X0263583Y0118121D01*
X0263583Y0111879D01*
X0264462Y0111000D01*
X0268205Y0111000D01*
X0268333Y0111129D01*
X0268433Y0111029D01*
X0268433Y0109646D01*
X0274801Y0103278D01*
X0249742Y0103278D01*
X0249152Y0103868D01*
X0247605Y0103868D01*
X0247004Y0104469D01*
X0245920Y0104918D01*
X0244747Y0104918D01*
X0243662Y0104469D01*
X0242832Y0103640D01*
X0242383Y0102555D01*
X0242383Y0101705D01*
X0238433Y0097755D01*
X0238606Y0097929D02*
X0222233Y0097929D01*
X0222233Y0098927D02*
X0239605Y0098927D01*
X0240603Y0099926D02*
X0222233Y0099926D01*
X0222233Y0100924D02*
X0241602Y0100924D01*
X0242383Y0101923D02*
X0222233Y0101923D01*
X0222233Y0102921D02*
X0242535Y0102921D01*
X0243113Y0103920D02*
X0222233Y0103920D01*
X0222233Y0104918D02*
X0244746Y0104918D01*
X0245921Y0104918D02*
X0273161Y0104918D01*
X0272163Y0105917D02*
X0222233Y0105917D01*
X0222233Y0106915D02*
X0271164Y0106915D01*
X0270166Y0107914D02*
X0222233Y0107914D01*
X0222233Y0108912D02*
X0269167Y0108912D01*
X0268433Y0109911D02*
X0222233Y0109911D01*
X0222233Y0110909D02*
X0268433Y0110909D01*
X0272544Y0110909D02*
X0318433Y0110909D01*
X0318433Y0109911D02*
X0273543Y0109911D01*
X0274541Y0108912D02*
X0318433Y0108912D01*
X0318433Y0107914D02*
X0275540Y0107914D01*
X0276538Y0106915D02*
X0318433Y0106915D01*
X0318433Y0105917D02*
X0277537Y0105917D01*
X0278535Y0104918D02*
X0318433Y0104918D01*
X0318433Y0103920D02*
X0280961Y0103920D01*
X0281942Y0102921D02*
X0318433Y0102921D01*
X0318433Y0101923D02*
X0282338Y0101923D01*
X0282529Y0100924D02*
X0294608Y0100924D01*
X0296059Y0100924D02*
X0318433Y0100924D01*
X0318433Y0099926D02*
X0297611Y0099926D01*
X0298155Y0098927D02*
X0318433Y0098927D01*
X0318433Y0097929D02*
X0298283Y0097929D01*
X0298070Y0096930D02*
X0318433Y0096930D01*
X0318433Y0095932D02*
X0297405Y0095932D01*
X0293261Y0095932D02*
X0293141Y0095932D01*
X0293283Y0094933D02*
X0318433Y0094933D01*
X0318433Y0093934D02*
X0293085Y0093934D01*
X0292441Y0092936D02*
X0318433Y0092936D01*
X0318433Y0091937D02*
X0277233Y0091937D01*
X0277233Y0090939D02*
X0318433Y0090939D01*
X0318433Y0089940D02*
X0277233Y0089940D01*
X0277233Y0088942D02*
X0318433Y0088942D01*
X0318433Y0087943D02*
X0277233Y0087943D01*
X0277233Y0086945D02*
X0318433Y0086945D01*
X0318433Y0085946D02*
X0277233Y0085946D01*
X0277233Y0084948D02*
X0318433Y0084948D01*
X0318433Y0083949D02*
X0277233Y0083949D01*
X0277233Y0082951D02*
X0318433Y0082951D01*
X0318433Y0081952D02*
X0277233Y0081952D01*
X0277233Y0080954D02*
X0318433Y0080954D01*
X0318433Y0079955D02*
X0277233Y0079955D01*
X0277233Y0078957D02*
X0318433Y0078957D01*
X0318433Y0077958D02*
X0277233Y0077958D01*
X0277233Y0076960D02*
X0318433Y0076960D01*
X0318433Y0075961D02*
X0277233Y0075961D01*
X0277233Y0074963D02*
X0318433Y0074963D01*
X0318433Y0073964D02*
X0277233Y0073964D01*
X0277233Y0072966D02*
X0318433Y0072966D01*
X0318433Y0071967D02*
X0277233Y0071967D01*
X0277233Y0070969D02*
X0318433Y0070969D01*
X0318433Y0069970D02*
X0277233Y0069970D01*
X0277233Y0068972D02*
X0318433Y0068972D01*
X0318433Y0067973D02*
X0277233Y0067973D01*
X0277233Y0066975D02*
X0318433Y0066975D01*
X0318433Y0065976D02*
X0277233Y0065976D01*
X0277233Y0064978D02*
X0318433Y0064978D01*
X0318433Y0063979D02*
X0277233Y0063979D01*
X0277233Y0062981D02*
X0318433Y0062981D01*
X0318433Y0061982D02*
X0277233Y0061982D01*
X0277233Y0060984D02*
X0318433Y0060984D01*
X0318433Y0059985D02*
X0286886Y0059985D01*
X0288701Y0058987D02*
X0318433Y0058987D01*
X0318433Y0057988D02*
X0289699Y0057988D01*
X0290138Y0056990D02*
X0318433Y0056990D01*
X0318433Y0055991D02*
X0290533Y0055991D01*
X0290533Y0054993D02*
X0316665Y0054993D01*
X0315476Y0053994D02*
X0290533Y0053994D01*
X0290131Y0052996D02*
X0315083Y0052996D01*
X0315083Y0051997D02*
X0289684Y0051997D01*
X0281966Y0058987D02*
X0278701Y0058987D01*
X0279699Y0057988D02*
X0280968Y0057988D01*
X0280529Y0056990D02*
X0280138Y0056990D01*
X0277233Y0059985D02*
X0283780Y0059985D01*
X0273433Y0059985D02*
X0266886Y0059985D01*
X0266368Y0060200D02*
X0264299Y0060200D01*
X0263253Y0059767D01*
X0259233Y0063787D01*
X0259233Y0095885D01*
X0259747Y0095672D01*
X0260920Y0095672D01*
X0262004Y0096121D01*
X0262605Y0096722D01*
X0273433Y0096722D01*
X0273433Y0059841D01*
X0272388Y0059408D01*
X0270925Y0057946D01*
X0270333Y0056517D01*
X0269742Y0057946D01*
X0268279Y0059408D01*
X0266368Y0060200D01*
X0263780Y0059985D02*
X0263035Y0059985D01*
X0262037Y0060984D02*
X0273433Y0060984D01*
X0273433Y0061982D02*
X0261038Y0061982D01*
X0260040Y0062981D02*
X0273433Y0062981D01*
X0273433Y0063979D02*
X0259233Y0063979D01*
X0259233Y0064978D02*
X0273433Y0064978D01*
X0273433Y0065976D02*
X0259233Y0065976D01*
X0259233Y0066975D02*
X0273433Y0066975D01*
X0273433Y0067973D02*
X0259233Y0067973D01*
X0259233Y0068972D02*
X0273433Y0068972D01*
X0273433Y0069970D02*
X0259233Y0069970D01*
X0259233Y0070969D02*
X0273433Y0070969D01*
X0273433Y0071967D02*
X0259233Y0071967D01*
X0259233Y0072966D02*
X0273433Y0072966D01*
X0273433Y0073964D02*
X0259233Y0073964D01*
X0259233Y0074963D02*
X0273433Y0074963D01*
X0273433Y0075961D02*
X0259233Y0075961D01*
X0259233Y0076960D02*
X0273433Y0076960D01*
X0273433Y0077958D02*
X0259233Y0077958D01*
X0259233Y0078957D02*
X0273433Y0078957D01*
X0273433Y0079955D02*
X0259233Y0079955D01*
X0259233Y0080954D02*
X0273433Y0080954D01*
X0273433Y0081952D02*
X0259233Y0081952D01*
X0259233Y0082951D02*
X0273433Y0082951D01*
X0273433Y0083949D02*
X0259233Y0083949D01*
X0259233Y0084948D02*
X0273433Y0084948D01*
X0273433Y0085946D02*
X0259233Y0085946D01*
X0259233Y0086945D02*
X0273433Y0086945D01*
X0273433Y0087943D02*
X0259233Y0087943D01*
X0259233Y0088942D02*
X0273433Y0088942D01*
X0273433Y0089940D02*
X0259233Y0089940D01*
X0259233Y0090939D02*
X0273433Y0090939D01*
X0273433Y0091937D02*
X0259233Y0091937D01*
X0259233Y0092936D02*
X0273433Y0092936D01*
X0273433Y0093934D02*
X0259233Y0093934D01*
X0259233Y0094933D02*
X0273433Y0094933D01*
X0273433Y0095932D02*
X0261547Y0095932D01*
X0255433Y0095932D02*
X0242233Y0095932D01*
X0242233Y0094933D02*
X0255433Y0094933D01*
X0255433Y0093934D02*
X0242233Y0093934D01*
X0242233Y0092936D02*
X0255433Y0092936D01*
X0255433Y0091937D02*
X0242233Y0091937D01*
X0242233Y0090939D02*
X0255433Y0090939D01*
X0255433Y0089940D02*
X0242233Y0089940D01*
X0242233Y0088942D02*
X0255433Y0088942D01*
X0255433Y0087943D02*
X0242233Y0087943D01*
X0242233Y0086945D02*
X0255433Y0086945D01*
X0255433Y0085946D02*
X0242233Y0085946D01*
X0242233Y0084948D02*
X0255433Y0084948D01*
X0255433Y0083949D02*
X0242233Y0083949D01*
X0242233Y0082951D02*
X0255433Y0082951D01*
X0255433Y0081952D02*
X0242233Y0081952D01*
X0242233Y0080954D02*
X0255433Y0080954D01*
X0255433Y0079955D02*
X0242233Y0079955D01*
X0242233Y0078957D02*
X0255433Y0078957D01*
X0255433Y0077958D02*
X0242233Y0077958D01*
X0242233Y0076960D02*
X0255433Y0076960D01*
X0255433Y0075961D02*
X0242233Y0075961D01*
X0242233Y0074963D02*
X0255433Y0074963D01*
X0255433Y0073964D02*
X0242233Y0073964D01*
X0242233Y0072966D02*
X0255433Y0072966D01*
X0255433Y0071967D02*
X0242233Y0071967D01*
X0242233Y0070969D02*
X0255433Y0070969D01*
X0255433Y0069970D02*
X0242233Y0069970D01*
X0242233Y0068972D02*
X0255433Y0068972D01*
X0255433Y0067973D02*
X0242233Y0067973D01*
X0242233Y0066975D02*
X0255433Y0066975D01*
X0255433Y0065976D02*
X0242233Y0065976D01*
X0242233Y0064978D02*
X0255433Y0064978D01*
X0255433Y0063979D02*
X0242233Y0063979D01*
X0242233Y0062981D02*
X0255433Y0062981D01*
X0255664Y0061982D02*
X0242523Y0061982D01*
X0243119Y0060984D02*
X0256663Y0060984D01*
X0256818Y0059985D02*
X0257661Y0059985D01*
X0255833Y0059985D02*
X0254833Y0059985D01*
X0254833Y0060186D02*
X0254116Y0060072D01*
X0253337Y0059819D01*
X0252608Y0059447D01*
X0251946Y0058966D01*
X0251367Y0058388D01*
X0250886Y0057725D01*
X0250514Y0056996D01*
X0250261Y0056218D01*
X0250148Y0055500D01*
X0254833Y0055500D01*
X0254833Y0060186D01*
X0253848Y0059985D02*
X0243283Y0059985D01*
X0243107Y0058987D02*
X0251974Y0058987D01*
X0251077Y0057988D02*
X0242493Y0057988D01*
X0238173Y0057988D02*
X0237377Y0057988D01*
X0237560Y0058987D02*
X0236212Y0058987D01*
X0235362Y0058987D02*
X0233072Y0058987D01*
X0232221Y0058987D02*
X0230621Y0058987D01*
X0228812Y0058987D02*
X0226017Y0058987D01*
X0227148Y0057988D02*
X0227414Y0057988D01*
X0224416Y0058987D02*
X0222233Y0058987D01*
X0222233Y0059985D02*
X0237383Y0059985D01*
X0237548Y0060984D02*
X0222233Y0060984D01*
X0222233Y0061982D02*
X0238144Y0061982D01*
X0238433Y0062981D02*
X0222233Y0062981D01*
X0222233Y0063979D02*
X0238433Y0063979D01*
X0238433Y0064978D02*
X0222233Y0064978D01*
X0222233Y0065976D02*
X0238433Y0065976D01*
X0238433Y0066975D02*
X0222233Y0066975D01*
X0222233Y0067973D02*
X0238433Y0067973D01*
X0238433Y0068972D02*
X0222233Y0068972D01*
X0222233Y0069970D02*
X0238433Y0069970D01*
X0238433Y0070969D02*
X0222233Y0070969D01*
X0222233Y0071967D02*
X0238433Y0071967D01*
X0238433Y0072966D02*
X0222233Y0072966D01*
X0222233Y0073964D02*
X0238433Y0073964D01*
X0238433Y0074963D02*
X0222233Y0074963D01*
X0222233Y0075961D02*
X0238433Y0075961D01*
X0238433Y0076960D02*
X0222233Y0076960D01*
X0222233Y0077958D02*
X0238433Y0077958D01*
X0238433Y0078957D02*
X0222233Y0078957D01*
X0222233Y0079955D02*
X0238433Y0079955D01*
X0238433Y0080954D02*
X0222233Y0080954D01*
X0222233Y0081952D02*
X0238433Y0081952D01*
X0238433Y0082951D02*
X0222233Y0082951D01*
X0222233Y0083949D02*
X0238433Y0083949D01*
X0238433Y0084948D02*
X0222233Y0084948D01*
X0222233Y0085946D02*
X0238433Y0085946D01*
X0238433Y0086945D02*
X0222233Y0086945D01*
X0222233Y0087943D02*
X0238433Y0087943D01*
X0238433Y0088942D02*
X0222233Y0088942D01*
X0222233Y0089940D02*
X0238433Y0089940D01*
X0238433Y0090939D02*
X0222233Y0090939D01*
X0222233Y0091937D02*
X0238433Y0091937D01*
X0242982Y0096930D02*
X0255433Y0096930D01*
X0255433Y0097929D02*
X0243980Y0097929D01*
X0244979Y0098927D02*
X0255433Y0098927D01*
X0247721Y0099926D02*
X0247462Y0099926D01*
X0247554Y0103920D02*
X0274160Y0103920D01*
X0277083Y0111908D02*
X0318433Y0111908D01*
X0318433Y0112906D02*
X0277083Y0112906D01*
X0277083Y0113905D02*
X0318433Y0113905D01*
X0318433Y0114903D02*
X0277083Y0114903D01*
X0277083Y0115902D02*
X0318433Y0115902D01*
X0318433Y0116900D02*
X0277083Y0116900D01*
X0277083Y0117899D02*
X0318433Y0117899D01*
X0318433Y0118897D02*
X0276863Y0118897D01*
X0277276Y0119896D02*
X0318433Y0119896D01*
X0318433Y0120894D02*
X0277283Y0120894D01*
X0276949Y0121893D02*
X0318433Y0121893D01*
X0318433Y0122891D02*
X0276114Y0122891D01*
X0272553Y0122891D02*
X0268114Y0122891D01*
X0268949Y0121893D02*
X0271717Y0121893D01*
X0271383Y0120894D02*
X0269283Y0120894D01*
X0269276Y0119896D02*
X0271391Y0119896D01*
X0264553Y0122891D02*
X0222233Y0122891D01*
X0222233Y0121893D02*
X0263717Y0121893D01*
X0263383Y0120894D02*
X0222233Y0120894D01*
X0222233Y0119896D02*
X0263391Y0119896D01*
X0263804Y0118897D02*
X0222233Y0118897D01*
X0222233Y0117899D02*
X0263583Y0117899D01*
X0263583Y0116900D02*
X0222233Y0116900D01*
X0222233Y0115902D02*
X0263583Y0115902D01*
X0263583Y0114903D02*
X0222233Y0114903D01*
X0222233Y0113905D02*
X0263583Y0113905D01*
X0263583Y0112906D02*
X0222233Y0112906D01*
X0222233Y0111908D02*
X0263583Y0111908D01*
X0277233Y0095932D02*
X0280027Y0095932D01*
X0281025Y0094933D02*
X0277233Y0094933D01*
X0277233Y0093934D02*
X0287582Y0093934D01*
X0288225Y0092936D02*
X0277233Y0092936D01*
X0271966Y0058987D02*
X0268701Y0058987D01*
X0269699Y0057988D02*
X0270968Y0057988D01*
X0270529Y0056990D02*
X0270138Y0056990D01*
X0255833Y0056990D02*
X0254833Y0056990D01*
X0254833Y0057988D02*
X0255833Y0057988D01*
X0255833Y0058987D02*
X0254833Y0058987D01*
X0254833Y0055991D02*
X0255833Y0055991D01*
X0254833Y0054993D02*
X0236505Y0054993D01*
X0237161Y0055991D02*
X0250225Y0055991D01*
X0250512Y0056990D02*
X0237576Y0056990D01*
X0237171Y0053994D02*
X0250228Y0053994D01*
X0250519Y0052996D02*
X0237573Y0052996D01*
X0237374Y0051997D02*
X0251088Y0051997D01*
X0223317Y0054993D02*
X0222233Y0054993D01*
X0222233Y0055991D02*
X0223317Y0055991D01*
X0223317Y0056990D02*
X0222233Y0056990D01*
X0222233Y0057988D02*
X0223418Y0057988D01*
X0222457Y0053994D02*
X0222233Y0053994D01*
X0216433Y0055991D02*
X0188533Y0055991D01*
X0188533Y0054993D02*
X0214665Y0054993D01*
X0213476Y0053994D02*
X0188533Y0053994D01*
X0188131Y0052996D02*
X0213083Y0052996D01*
X0213083Y0051997D02*
X0187684Y0051997D01*
X0188138Y0056990D02*
X0216433Y0056990D01*
X0216433Y0057988D02*
X0187699Y0057988D01*
X0186701Y0058987D02*
X0216433Y0058987D01*
X0216433Y0059985D02*
X0184886Y0059985D01*
X0161780Y0059985D02*
X0161035Y0059985D01*
X0153833Y0058987D02*
X0152833Y0058987D01*
X0152833Y0057988D02*
X0153833Y0057988D01*
X0153833Y0056990D02*
X0152833Y0056990D01*
X0152833Y0055991D02*
X0153833Y0055991D01*
X0152833Y0054993D02*
X0134505Y0054993D01*
X0135161Y0055991D02*
X0148225Y0055991D01*
X0148512Y0056990D02*
X0135576Y0056990D01*
X0135171Y0053994D02*
X0148228Y0053994D01*
X0148519Y0052996D02*
X0135573Y0052996D01*
X0135374Y0051997D02*
X0149088Y0051997D01*
X0121418Y0057988D02*
X0120233Y0057988D01*
X0120233Y0056990D02*
X0121317Y0056990D01*
X0121317Y0055991D02*
X0120233Y0055991D01*
X0120233Y0054993D02*
X0121317Y0054993D01*
X0120457Y0053994D02*
X0120233Y0053994D01*
X0171543Y0109911D02*
X0216433Y0109911D01*
X0216433Y0110909D02*
X0170544Y0110909D01*
X0175083Y0111908D02*
X0216433Y0111908D01*
X0216433Y0112906D02*
X0175083Y0112906D01*
X0175083Y0113905D02*
X0216433Y0113905D01*
X0216433Y0114903D02*
X0175083Y0114903D01*
X0175083Y0115902D02*
X0216433Y0115902D01*
X0216433Y0116900D02*
X0175083Y0116900D01*
X0175083Y0117899D02*
X0216433Y0117899D01*
X0216433Y0118897D02*
X0174862Y0118897D01*
X0175276Y0119896D02*
X0216433Y0119896D01*
X0216433Y0120894D02*
X0175283Y0120894D01*
X0174949Y0121893D02*
X0216433Y0121893D01*
X0216433Y0122891D02*
X0174114Y0122891D01*
X0170553Y0122891D02*
X0166114Y0122891D01*
X0166949Y0121893D02*
X0169717Y0121893D01*
X0169383Y0120894D02*
X0167283Y0120894D01*
X0167276Y0119896D02*
X0169391Y0119896D01*
X0200045Y0135872D02*
X0136573Y0135872D01*
X0137123Y0136870D02*
X0199682Y0136870D01*
X0199319Y0137869D02*
X0137299Y0137869D01*
X0137476Y0138868D02*
X0199133Y0138868D01*
X0199133Y0139866D02*
X0137652Y0139866D01*
X0137523Y0140865D02*
X0199133Y0140865D01*
X0199221Y0141863D02*
X0137347Y0141863D01*
X0137171Y0142862D02*
X0199584Y0142862D01*
X0199948Y0143860D02*
X0136728Y0143860D01*
X0136151Y0144859D02*
X0200400Y0144859D01*
X0201238Y0145857D02*
X0135575Y0145857D01*
X0134476Y0146856D02*
X0202076Y0146856D01*
X0203537Y0147854D02*
X0133286Y0147854D01*
X0135354Y0153900D02*
X0135634Y0155299D01*
X0134500Y0157000D01*
X0135634Y0158701D01*
X0135325Y0160244D01*
X0134016Y0161117D01*
X0132472Y0160809D01*
X0132217Y0160425D01*
X0131961Y0160809D01*
X0130418Y0161117D01*
X0129394Y0160435D01*
X0128602Y0161000D01*
X0126831Y0161000D01*
X0125390Y0159971D01*
X0125390Y0159971D01*
X0125390Y0159971D01*
X0125343Y0159832D01*
X0124486Y0160518D01*
X0124004Y0161000D01*
X0123883Y0161000D01*
X0123789Y0161075D01*
X0123111Y0161000D01*
X0122430Y0161000D01*
X0122344Y0160915D01*
X0122225Y0160901D01*
X0121799Y0160369D01*
X0121317Y0159887D01*
X0121317Y0159766D01*
X0121241Y0159672D01*
X0121317Y0158995D01*
X0121317Y0156800D01*
X0121263Y0156800D01*
X0120233Y0155770D01*
X0120233Y0237630D01*
X0121177Y0235995D01*
X0123662Y0233910D01*
X0126711Y0232800D01*
X0129956Y0232800D01*
X0133004Y0233910D01*
X0133004Y0233910D01*
X0135490Y0235995D01*
X0135490Y0235995D01*
X0135490Y0235995D01*
X0137112Y0238805D01*
X0137675Y0242000D01*
X0137112Y0245195D01*
X0135490Y0248005D01*
X0133004Y0250090D01*
X0132978Y0250100D01*
X0203963Y0250100D01*
X0202328Y0249156D01*
X0200243Y0246671D01*
X0200243Y0246671D01*
X0199133Y0243622D01*
X0199133Y0240378D01*
X0200243Y0237329D01*
X0202328Y0234844D01*
X0202328Y0234844D01*
X0202328Y0234844D01*
X0205138Y0233221D01*
X0205138Y0233221D01*
X0208333Y0232658D01*
X0208333Y0232658D01*
X0211528Y0233221D01*
X0211528Y0233221D01*
X0214338Y0234844D01*
X0216424Y0237329D01*
X0216433Y0237356D01*
X0216433Y0157228D01*
X0216380Y0157250D01*
X0215286Y0157250D01*
X0214276Y0156831D01*
X0213502Y0156058D01*
X0213083Y0155047D01*
X0213083Y0153953D01*
X0213105Y0153900D01*
X0187587Y0153900D01*
X0187742Y0154054D01*
X0188533Y0155966D01*
X0188533Y0158034D01*
X0187742Y0159946D01*
X0186279Y0161408D01*
X0184368Y0162200D01*
X0182299Y0162200D01*
X0180388Y0161408D01*
X0178925Y0159946D01*
X0178333Y0158517D01*
X0177742Y0159946D01*
X0176279Y0161408D01*
X0175233Y0161841D01*
X0175233Y0198722D01*
X0177236Y0198722D01*
X0178214Y0197744D01*
X0179327Y0196631D01*
X0185383Y0196631D01*
X0185383Y0196413D01*
X0185832Y0195329D01*
X0186662Y0194499D01*
X0187747Y0194050D01*
X0188920Y0194050D01*
X0190004Y0194499D01*
X0190834Y0195329D01*
X0191283Y0196413D01*
X0191283Y0197587D01*
X0191058Y0198131D01*
X0191061Y0198131D01*
X0191662Y0197531D01*
X0192747Y0197081D01*
X0193920Y0197081D01*
X0195004Y0197531D01*
X0195834Y0198360D01*
X0196283Y0199445D01*
X0196283Y0200618D01*
X0195834Y0201703D01*
X0195004Y0202532D01*
X0193920Y0202981D01*
X0192747Y0202981D01*
X0191662Y0202532D01*
X0191061Y0201931D01*
X0181522Y0201931D01*
X0180338Y0203115D01*
X0180338Y0203965D01*
X0179889Y0205049D01*
X0179059Y0205879D01*
X0177975Y0206328D01*
X0177125Y0206328D01*
X0170329Y0213124D01*
X0170333Y0213129D01*
X0170462Y0213000D01*
X0174205Y0213000D01*
X0175083Y0213879D01*
X0175083Y0220121D01*
X0174605Y0220600D01*
X0174834Y0220829D01*
X0175283Y0221913D01*
X0175283Y0223087D01*
X0174834Y0224171D01*
X0174004Y0225001D01*
X0172920Y0225450D01*
X0171747Y0225450D01*
X0170662Y0225001D01*
X0169832Y0224171D01*
X0169383Y0223087D01*
X0169383Y0221913D01*
X0169762Y0221000D01*
X0166905Y0221000D01*
X0167283Y0221913D01*
X0167283Y0223087D01*
X0166834Y0224171D01*
X0166004Y0225001D01*
X0164920Y0225450D01*
X0163747Y0225450D01*
X0162662Y0225001D01*
X0161832Y0224171D01*
X0161383Y0223087D01*
X0161383Y0221913D01*
X0161832Y0220829D01*
X0162062Y0220600D01*
X0161583Y0220121D01*
X0161583Y0213879D01*
X0162462Y0213000D01*
X0166205Y0213000D01*
X0166333Y0213129D01*
X0166433Y0213029D01*
X0166433Y0211646D01*
X0172801Y0205278D01*
X0147742Y0205278D01*
X0147152Y0205868D01*
X0145605Y0205868D01*
X0145004Y0206469D01*
X0143920Y0206918D01*
X0142747Y0206918D01*
X0141662Y0206469D01*
X0140832Y0205640D01*
X0140383Y0204555D01*
X0140383Y0203705D01*
X0136433Y0199755D01*
X0136433Y0164272D01*
X0135832Y0163671D01*
X0135383Y0162587D01*
X0135383Y0161413D01*
X0135832Y0160329D01*
X0136662Y0159499D01*
X0137747Y0159050D01*
X0138920Y0159050D01*
X0140004Y0159499D01*
X0140834Y0160329D01*
X0141283Y0161413D01*
X0141283Y0162587D01*
X0140834Y0163671D01*
X0140233Y0164272D01*
X0140233Y0198181D01*
X0143070Y0201019D01*
X0143920Y0201019D01*
X0145004Y0201468D01*
X0145592Y0202055D01*
X0146168Y0201478D01*
X0153433Y0201478D01*
X0153433Y0164213D01*
X0154546Y0163100D01*
X0156571Y0161075D01*
X0156059Y0161447D01*
X0155329Y0161819D01*
X0154551Y0162072D01*
X0153833Y0162186D01*
X0153833Y0157500D01*
X0152833Y0157500D01*
X0152833Y0156500D01*
X0148148Y0156500D01*
X0148261Y0155782D01*
X0148514Y0155004D01*
X0148886Y0154275D01*
X0149158Y0153900D01*
X0135354Y0153900D01*
X0135543Y0154844D02*
X0148596Y0154844D01*
X0148252Y0155842D02*
X0135272Y0155842D01*
X0134606Y0156841D02*
X0152833Y0156841D01*
X0152833Y0157500D02*
X0148148Y0157500D01*
X0148261Y0158218D01*
X0148514Y0158996D01*
X0148886Y0159725D01*
X0149367Y0160388D01*
X0149946Y0160966D01*
X0150608Y0161447D01*
X0151337Y0161819D01*
X0152116Y0162072D01*
X0152833Y0162186D01*
X0152833Y0157500D01*
X0152833Y0157839D02*
X0153833Y0157839D01*
X0153833Y0158838D02*
X0152833Y0158838D01*
X0152833Y0159836D02*
X0153833Y0159836D01*
X0153833Y0160835D02*
X0152833Y0160835D01*
X0152833Y0161833D02*
X0153833Y0161833D01*
X0154815Y0162832D02*
X0141182Y0162832D01*
X0141283Y0161833D02*
X0151381Y0161833D01*
X0149814Y0160835D02*
X0141044Y0160835D01*
X0140341Y0159836D02*
X0148966Y0159836D01*
X0148463Y0158838D02*
X0135607Y0158838D01*
X0135407Y0159836D02*
X0136325Y0159836D01*
X0135623Y0160835D02*
X0134440Y0160835D01*
X0135383Y0161833D02*
X0120233Y0161833D01*
X0120233Y0160835D02*
X0122171Y0160835D01*
X0121317Y0159836D02*
X0120233Y0159836D01*
X0120233Y0158838D02*
X0121317Y0158838D01*
X0121317Y0157839D02*
X0120233Y0157839D01*
X0120233Y0156841D02*
X0121317Y0156841D01*
X0120305Y0155842D02*
X0120233Y0155842D01*
X0125338Y0159836D02*
X0125344Y0159836D01*
X0124169Y0160835D02*
X0126600Y0160835D01*
X0128834Y0160835D02*
X0129994Y0160835D01*
X0131831Y0160835D02*
X0132602Y0160835D01*
X0135485Y0162832D02*
X0120233Y0162832D01*
X0120233Y0163830D02*
X0135992Y0163830D01*
X0136433Y0164829D02*
X0120233Y0164829D01*
X0120233Y0165827D02*
X0136433Y0165827D01*
X0136433Y0166826D02*
X0120233Y0166826D01*
X0120233Y0167824D02*
X0136433Y0167824D01*
X0136433Y0168823D02*
X0120233Y0168823D01*
X0120233Y0169821D02*
X0136433Y0169821D01*
X0136433Y0170820D02*
X0120233Y0170820D01*
X0120233Y0171818D02*
X0136433Y0171818D01*
X0136433Y0172817D02*
X0120233Y0172817D01*
X0120233Y0173815D02*
X0136433Y0173815D01*
X0136433Y0174814D02*
X0120233Y0174814D01*
X0120233Y0175812D02*
X0136433Y0175812D01*
X0136433Y0176811D02*
X0120233Y0176811D01*
X0120233Y0177809D02*
X0136433Y0177809D01*
X0136433Y0178808D02*
X0120233Y0178808D01*
X0120233Y0179806D02*
X0136433Y0179806D01*
X0136433Y0180805D02*
X0120233Y0180805D01*
X0120233Y0181803D02*
X0136433Y0181803D01*
X0136433Y0182802D02*
X0120233Y0182802D01*
X0120233Y0183801D02*
X0136433Y0183801D01*
X0136433Y0184799D02*
X0120233Y0184799D01*
X0120233Y0185798D02*
X0136433Y0185798D01*
X0136433Y0186796D02*
X0120233Y0186796D01*
X0120233Y0187795D02*
X0136433Y0187795D01*
X0136433Y0188793D02*
X0120233Y0188793D01*
X0120233Y0189792D02*
X0136433Y0189792D01*
X0136433Y0190790D02*
X0120233Y0190790D01*
X0120233Y0191789D02*
X0136433Y0191789D01*
X0136433Y0192787D02*
X0120233Y0192787D01*
X0120233Y0193786D02*
X0136433Y0193786D01*
X0136433Y0194784D02*
X0120233Y0194784D01*
X0120233Y0195783D02*
X0136433Y0195783D01*
X0136433Y0196781D02*
X0120233Y0196781D01*
X0120233Y0197780D02*
X0136433Y0197780D01*
X0136433Y0198778D02*
X0120233Y0198778D01*
X0120233Y0199777D02*
X0136455Y0199777D01*
X0137453Y0200775D02*
X0120233Y0200775D01*
X0120233Y0201774D02*
X0138452Y0201774D01*
X0139450Y0202772D02*
X0120233Y0202772D01*
X0120233Y0203771D02*
X0140383Y0203771D01*
X0140472Y0204769D02*
X0120233Y0204769D01*
X0120233Y0205768D02*
X0140961Y0205768D01*
X0142379Y0206766D02*
X0120233Y0206766D01*
X0120233Y0207765D02*
X0170315Y0207765D01*
X0171313Y0206766D02*
X0144288Y0206766D01*
X0147253Y0205768D02*
X0172312Y0205768D01*
X0174690Y0208763D02*
X0216433Y0208763D01*
X0216433Y0207765D02*
X0175689Y0207765D01*
X0176687Y0206766D02*
X0216433Y0206766D01*
X0216433Y0205768D02*
X0179171Y0205768D01*
X0180005Y0204769D02*
X0216433Y0204769D01*
X0216433Y0203771D02*
X0180338Y0203771D01*
X0180681Y0202772D02*
X0192241Y0202772D01*
X0194425Y0202772D02*
X0216433Y0202772D01*
X0216433Y0201774D02*
X0195763Y0201774D01*
X0196218Y0200775D02*
X0216433Y0200775D01*
X0216433Y0199777D02*
X0196283Y0199777D01*
X0196007Y0198778D02*
X0216433Y0198778D01*
X0216433Y0197780D02*
X0195253Y0197780D01*
X0191413Y0197780D02*
X0191203Y0197780D01*
X0191283Y0196781D02*
X0216433Y0196781D01*
X0216433Y0195783D02*
X0191022Y0195783D01*
X0190289Y0194784D02*
X0216433Y0194784D01*
X0216433Y0193786D02*
X0175233Y0193786D01*
X0175233Y0194784D02*
X0186377Y0194784D01*
X0185645Y0195783D02*
X0175233Y0195783D01*
X0175233Y0196781D02*
X0179177Y0196781D01*
X0178178Y0197780D02*
X0175233Y0197780D01*
X0171433Y0197780D02*
X0159180Y0197780D01*
X0158920Y0197672D02*
X0160004Y0198121D01*
X0160605Y0198722D01*
X0171433Y0198722D01*
X0171433Y0161841D01*
X0170388Y0161408D01*
X0168925Y0159946D01*
X0168333Y0158517D01*
X0167742Y0159946D01*
X0166279Y0161408D01*
X0164368Y0162200D01*
X0162299Y0162200D01*
X0161253Y0161767D01*
X0157233Y0165787D01*
X0157233Y0197885D01*
X0157747Y0197672D01*
X0158920Y0197672D01*
X0157487Y0197780D02*
X0157233Y0197780D01*
X0157233Y0196781D02*
X0171433Y0196781D01*
X0171433Y0195783D02*
X0157233Y0195783D01*
X0157233Y0194784D02*
X0171433Y0194784D01*
X0171433Y0193786D02*
X0157233Y0193786D01*
X0157233Y0192787D02*
X0171433Y0192787D01*
X0171433Y0191789D02*
X0157233Y0191789D01*
X0157233Y0190790D02*
X0171433Y0190790D01*
X0171433Y0189792D02*
X0157233Y0189792D01*
X0157233Y0188793D02*
X0171433Y0188793D01*
X0171433Y0187795D02*
X0157233Y0187795D01*
X0157233Y0186796D02*
X0171433Y0186796D01*
X0171433Y0185798D02*
X0157233Y0185798D01*
X0157233Y0184799D02*
X0171433Y0184799D01*
X0171433Y0183801D02*
X0157233Y0183801D01*
X0157233Y0182802D02*
X0171433Y0182802D01*
X0171433Y0181803D02*
X0157233Y0181803D01*
X0157233Y0180805D02*
X0171433Y0180805D01*
X0171433Y0179806D02*
X0157233Y0179806D01*
X0157233Y0178808D02*
X0171433Y0178808D01*
X0171433Y0177809D02*
X0157233Y0177809D01*
X0157233Y0176811D02*
X0171433Y0176811D01*
X0171433Y0175812D02*
X0157233Y0175812D01*
X0157233Y0174814D02*
X0171433Y0174814D01*
X0171433Y0173815D02*
X0157233Y0173815D01*
X0157233Y0172817D02*
X0171433Y0172817D01*
X0171433Y0171818D02*
X0157233Y0171818D01*
X0157233Y0170820D02*
X0171433Y0170820D01*
X0171433Y0169821D02*
X0157233Y0169821D01*
X0157233Y0168823D02*
X0171433Y0168823D01*
X0171433Y0167824D02*
X0157233Y0167824D01*
X0157233Y0166826D02*
X0171433Y0166826D01*
X0171433Y0165827D02*
X0157233Y0165827D01*
X0158192Y0164829D02*
X0171433Y0164829D01*
X0171433Y0163830D02*
X0159190Y0163830D01*
X0160189Y0162832D02*
X0171433Y0162832D01*
X0171414Y0161833D02*
X0165253Y0161833D01*
X0166852Y0160835D02*
X0169814Y0160835D01*
X0168880Y0159836D02*
X0167787Y0159836D01*
X0168201Y0158838D02*
X0168466Y0158838D01*
X0175253Y0161833D02*
X0181414Y0161833D01*
X0179814Y0160835D02*
X0176852Y0160835D01*
X0177787Y0159836D02*
X0178880Y0159836D01*
X0178466Y0158838D02*
X0178201Y0158838D01*
X0175233Y0162832D02*
X0216433Y0162832D01*
X0216433Y0163830D02*
X0175233Y0163830D01*
X0175233Y0164829D02*
X0216433Y0164829D01*
X0216433Y0165827D02*
X0175233Y0165827D01*
X0175233Y0166826D02*
X0216433Y0166826D01*
X0216433Y0167824D02*
X0175233Y0167824D01*
X0175233Y0168823D02*
X0216433Y0168823D01*
X0216433Y0169821D02*
X0175233Y0169821D01*
X0175233Y0170820D02*
X0216433Y0170820D01*
X0216433Y0171818D02*
X0175233Y0171818D01*
X0175233Y0172817D02*
X0216433Y0172817D01*
X0216433Y0173815D02*
X0175233Y0173815D01*
X0175233Y0174814D02*
X0216433Y0174814D01*
X0216433Y0175812D02*
X0175233Y0175812D01*
X0175233Y0176811D02*
X0216433Y0176811D01*
X0216433Y0177809D02*
X0175233Y0177809D01*
X0175233Y0178808D02*
X0216433Y0178808D01*
X0216433Y0179806D02*
X0175233Y0179806D01*
X0175233Y0180805D02*
X0216433Y0180805D01*
X0216433Y0181803D02*
X0175233Y0181803D01*
X0175233Y0182802D02*
X0216433Y0182802D01*
X0216433Y0183801D02*
X0175233Y0183801D01*
X0175233Y0184799D02*
X0216433Y0184799D01*
X0216433Y0185798D02*
X0175233Y0185798D01*
X0175233Y0186796D02*
X0216433Y0186796D01*
X0216433Y0187795D02*
X0175233Y0187795D01*
X0175233Y0188793D02*
X0216433Y0188793D01*
X0216433Y0189792D02*
X0175233Y0189792D01*
X0175233Y0190790D02*
X0216433Y0190790D01*
X0216433Y0191789D02*
X0175233Y0191789D01*
X0175233Y0192787D02*
X0216433Y0192787D01*
X0222233Y0192787D02*
X0238433Y0192787D01*
X0238433Y0191789D02*
X0222233Y0191789D01*
X0222233Y0190790D02*
X0238433Y0190790D01*
X0238433Y0189792D02*
X0222233Y0189792D01*
X0222233Y0188793D02*
X0238433Y0188793D01*
X0238433Y0187795D02*
X0222233Y0187795D01*
X0222233Y0186796D02*
X0238433Y0186796D01*
X0238433Y0185798D02*
X0222233Y0185798D01*
X0222233Y0184799D02*
X0238433Y0184799D01*
X0238433Y0183801D02*
X0222233Y0183801D01*
X0222233Y0182802D02*
X0238433Y0182802D01*
X0238433Y0181803D02*
X0222233Y0181803D01*
X0222233Y0180805D02*
X0238433Y0180805D01*
X0238433Y0179806D02*
X0222233Y0179806D01*
X0222233Y0178808D02*
X0238433Y0178808D01*
X0238433Y0177809D02*
X0222233Y0177809D01*
X0222233Y0176811D02*
X0238433Y0176811D01*
X0238433Y0175812D02*
X0222233Y0175812D01*
X0222233Y0174814D02*
X0238433Y0174814D01*
X0238433Y0173815D02*
X0222233Y0173815D01*
X0222233Y0172817D02*
X0238433Y0172817D01*
X0238433Y0171818D02*
X0222233Y0171818D01*
X0222233Y0170820D02*
X0238433Y0170820D01*
X0238433Y0169821D02*
X0222233Y0169821D01*
X0222233Y0168823D02*
X0238433Y0168823D01*
X0238433Y0167824D02*
X0222233Y0167824D01*
X0222233Y0166826D02*
X0238433Y0166826D01*
X0238433Y0165827D02*
X0222233Y0165827D01*
X0222233Y0164829D02*
X0238433Y0164829D01*
X0238433Y0164272D02*
X0237832Y0163671D01*
X0237383Y0162587D01*
X0237383Y0161413D01*
X0237832Y0160329D01*
X0238662Y0159499D01*
X0239747Y0159050D01*
X0240920Y0159050D01*
X0242004Y0159499D01*
X0242834Y0160329D01*
X0243283Y0161413D01*
X0243283Y0162587D01*
X0242834Y0163671D01*
X0242233Y0164272D01*
X0242233Y0198181D01*
X0245070Y0201019D01*
X0245920Y0201019D01*
X0247004Y0201468D01*
X0247592Y0202055D01*
X0248168Y0201478D01*
X0255433Y0201478D01*
X0255433Y0164213D01*
X0256546Y0163100D01*
X0258571Y0161075D01*
X0258059Y0161447D01*
X0257329Y0161819D01*
X0256551Y0162072D01*
X0255833Y0162186D01*
X0255833Y0157500D01*
X0254833Y0157500D01*
X0254833Y0156500D01*
X0250148Y0156500D01*
X0250261Y0155782D01*
X0250514Y0155004D01*
X0250886Y0154275D01*
X0251158Y0153900D01*
X0237354Y0153900D01*
X0237634Y0155299D01*
X0236500Y0157000D01*
X0237634Y0158701D01*
X0237325Y0160244D01*
X0236016Y0161117D01*
X0234472Y0160809D01*
X0234217Y0160425D01*
X0233961Y0160809D01*
X0232418Y0161117D01*
X0231394Y0160435D01*
X0230602Y0161000D01*
X0228831Y0161000D01*
X0227390Y0159971D01*
X0227390Y0159971D01*
X0227390Y0159971D01*
X0227343Y0159832D01*
X0226486Y0160518D01*
X0226004Y0161000D01*
X0225883Y0161000D01*
X0225789Y0161075D01*
X0225111Y0161000D01*
X0224430Y0161000D01*
X0224344Y0160915D01*
X0224225Y0160901D01*
X0223799Y0160369D01*
X0223317Y0159887D01*
X0223317Y0159766D01*
X0223241Y0159672D01*
X0223317Y0158995D01*
X0223317Y0156800D01*
X0223263Y0156800D01*
X0222233Y0155770D01*
X0222233Y0237630D01*
X0223177Y0235995D01*
X0225662Y0233910D01*
X0228711Y0232800D01*
X0231120Y0232800D01*
X0231956Y0232800D01*
X0235004Y0233910D01*
X0235004Y0233910D01*
X0237490Y0235995D01*
X0237490Y0235995D01*
X0237490Y0235995D01*
X0239112Y0238805D01*
X0239675Y0242000D01*
X0239112Y0245195D01*
X0237490Y0248005D01*
X0235004Y0250090D01*
X0234978Y0250100D01*
X0305963Y0250100D01*
X0304328Y0249156D01*
X0302243Y0246671D01*
X0301133Y0243622D01*
X0301133Y0240378D01*
X0302243Y0237329D01*
X0304328Y0234844D01*
X0304328Y0234844D01*
X0304328Y0234844D01*
X0307138Y0233221D01*
X0307138Y0233221D01*
X0310333Y0232658D01*
X0310333Y0232658D01*
X0313528Y0233221D01*
X0313528Y0233221D01*
X0316338Y0234844D01*
X0318424Y0237329D01*
X0318433Y0237356D01*
X0318433Y0157228D01*
X0318380Y0157250D01*
X0317286Y0157250D01*
X0316276Y0156831D01*
X0315502Y0156058D01*
X0315083Y0155047D01*
X0315083Y0153953D01*
X0315105Y0153900D01*
X0289587Y0153900D01*
X0289742Y0154054D01*
X0290533Y0155966D01*
X0290533Y0158034D01*
X0289742Y0159946D01*
X0288279Y0161408D01*
X0286368Y0162200D01*
X0284299Y0162200D01*
X0282388Y0161408D01*
X0280925Y0159946D01*
X0280333Y0158517D01*
X0279742Y0159946D01*
X0278279Y0161408D01*
X0277233Y0161841D01*
X0277233Y0198722D01*
X0279236Y0198722D01*
X0280214Y0197745D01*
X0280214Y0197744D01*
X0281327Y0196631D01*
X0287383Y0196631D01*
X0287383Y0196413D01*
X0287832Y0195329D01*
X0288662Y0194499D01*
X0289747Y0194050D01*
X0290920Y0194050D01*
X0292004Y0194499D01*
X0292834Y0195329D01*
X0293283Y0196413D01*
X0293283Y0197587D01*
X0293058Y0198131D01*
X0293061Y0198131D01*
X0293662Y0197531D01*
X0294747Y0197081D01*
X0295920Y0197081D01*
X0297004Y0197531D01*
X0297834Y0198360D01*
X0298283Y0199445D01*
X0298283Y0200618D01*
X0297834Y0201703D01*
X0297004Y0202532D01*
X0295920Y0202981D01*
X0294747Y0202981D01*
X0293662Y0202532D01*
X0293061Y0201931D01*
X0283522Y0201931D01*
X0282338Y0203115D01*
X0282338Y0203965D01*
X0281889Y0205049D01*
X0281059Y0205879D01*
X0279975Y0206328D01*
X0279125Y0206328D01*
X0272329Y0213124D01*
X0272333Y0213129D01*
X0272462Y0213000D01*
X0276205Y0213000D01*
X0277083Y0213879D01*
X0277083Y0220121D01*
X0276605Y0220600D01*
X0276834Y0220829D01*
X0277283Y0221913D01*
X0277283Y0223087D01*
X0276834Y0224171D01*
X0276004Y0225001D01*
X0274920Y0225450D01*
X0273747Y0225450D01*
X0272662Y0225001D01*
X0271832Y0224171D01*
X0271383Y0223087D01*
X0271383Y0221913D01*
X0271762Y0221000D01*
X0268905Y0221000D01*
X0269283Y0221913D01*
X0269283Y0223087D01*
X0268834Y0224171D01*
X0268004Y0225001D01*
X0266920Y0225450D01*
X0265747Y0225450D01*
X0264662Y0225001D01*
X0263832Y0224171D01*
X0263383Y0223087D01*
X0263383Y0221913D01*
X0263832Y0220829D01*
X0264062Y0220600D01*
X0263583Y0220121D01*
X0263583Y0213879D01*
X0264462Y0213000D01*
X0268205Y0213000D01*
X0268333Y0213129D01*
X0268433Y0213029D01*
X0268433Y0211646D01*
X0274801Y0205278D01*
X0249742Y0205278D01*
X0249152Y0205868D01*
X0247605Y0205868D01*
X0247004Y0206469D01*
X0245920Y0206918D01*
X0244747Y0206918D01*
X0243662Y0206469D01*
X0242832Y0205640D01*
X0242383Y0204555D01*
X0242383Y0203705D01*
X0238433Y0199755D01*
X0238433Y0164272D01*
X0237992Y0163830D02*
X0222233Y0163830D01*
X0222233Y0162832D02*
X0237485Y0162832D01*
X0237383Y0161833D02*
X0222233Y0161833D01*
X0222233Y0160835D02*
X0224171Y0160835D01*
X0223317Y0159836D02*
X0222233Y0159836D01*
X0222233Y0158838D02*
X0223317Y0158838D01*
X0223317Y0157839D02*
X0222233Y0157839D01*
X0222233Y0156841D02*
X0223317Y0156841D01*
X0222305Y0155842D02*
X0222233Y0155842D01*
X0216433Y0157839D02*
X0188533Y0157839D01*
X0188533Y0156841D02*
X0214298Y0156841D01*
X0213413Y0155842D02*
X0188482Y0155842D01*
X0188069Y0154844D02*
X0213083Y0154844D01*
X0216433Y0158838D02*
X0188201Y0158838D01*
X0187787Y0159836D02*
X0216433Y0159836D01*
X0216433Y0160835D02*
X0186852Y0160835D01*
X0185253Y0161833D02*
X0216433Y0161833D01*
X0226169Y0160835D02*
X0228600Y0160835D01*
X0227344Y0159836D02*
X0227338Y0159836D01*
X0230834Y0160835D02*
X0231994Y0160835D01*
X0233831Y0160835D02*
X0234602Y0160835D01*
X0236440Y0160835D02*
X0237623Y0160835D01*
X0237407Y0159836D02*
X0238325Y0159836D01*
X0237607Y0158838D02*
X0250463Y0158838D01*
X0250514Y0158996D02*
X0250261Y0158218D01*
X0250148Y0157500D01*
X0254833Y0157500D01*
X0254833Y0162186D01*
X0254116Y0162072D01*
X0253337Y0161819D01*
X0252608Y0161447D01*
X0251946Y0160966D01*
X0251367Y0160388D01*
X0250886Y0159725D01*
X0250514Y0158996D01*
X0250966Y0159836D02*
X0242341Y0159836D01*
X0243044Y0160835D02*
X0251814Y0160835D01*
X0253381Y0161833D02*
X0243283Y0161833D01*
X0243182Y0162832D02*
X0256815Y0162832D01*
X0257286Y0161833D02*
X0257813Y0161833D01*
X0255833Y0161833D02*
X0254833Y0161833D01*
X0254833Y0160835D02*
X0255833Y0160835D01*
X0255833Y0159836D02*
X0254833Y0159836D01*
X0254833Y0158838D02*
X0255833Y0158838D01*
X0255833Y0157839D02*
X0254833Y0157839D01*
X0254833Y0156841D02*
X0236606Y0156841D01*
X0237060Y0157839D02*
X0250201Y0157839D01*
X0250252Y0155842D02*
X0237272Y0155842D01*
X0237543Y0154844D02*
X0250596Y0154844D01*
X0255816Y0163830D02*
X0242675Y0163830D01*
X0242233Y0164829D02*
X0255433Y0164829D01*
X0255433Y0165827D02*
X0242233Y0165827D01*
X0242233Y0166826D02*
X0255433Y0166826D01*
X0255433Y0167824D02*
X0242233Y0167824D01*
X0242233Y0168823D02*
X0255433Y0168823D01*
X0255433Y0169821D02*
X0242233Y0169821D01*
X0242233Y0170820D02*
X0255433Y0170820D01*
X0255433Y0171818D02*
X0242233Y0171818D01*
X0242233Y0172817D02*
X0255433Y0172817D01*
X0255433Y0173815D02*
X0242233Y0173815D01*
X0242233Y0174814D02*
X0255433Y0174814D01*
X0255433Y0175812D02*
X0242233Y0175812D01*
X0242233Y0176811D02*
X0255433Y0176811D01*
X0255433Y0177809D02*
X0242233Y0177809D01*
X0242233Y0178808D02*
X0255433Y0178808D01*
X0255433Y0179806D02*
X0242233Y0179806D01*
X0242233Y0180805D02*
X0255433Y0180805D01*
X0255433Y0181803D02*
X0242233Y0181803D01*
X0242233Y0182802D02*
X0255433Y0182802D01*
X0255433Y0183801D02*
X0242233Y0183801D01*
X0242233Y0184799D02*
X0255433Y0184799D01*
X0255433Y0185798D02*
X0242233Y0185798D01*
X0242233Y0186796D02*
X0255433Y0186796D01*
X0255433Y0187795D02*
X0242233Y0187795D01*
X0242233Y0188793D02*
X0255433Y0188793D01*
X0255433Y0189792D02*
X0242233Y0189792D01*
X0242233Y0190790D02*
X0255433Y0190790D01*
X0255433Y0191789D02*
X0242233Y0191789D01*
X0242233Y0192787D02*
X0255433Y0192787D01*
X0255433Y0193786D02*
X0242233Y0193786D01*
X0242233Y0194784D02*
X0255433Y0194784D01*
X0255433Y0195783D02*
X0242233Y0195783D01*
X0242233Y0196781D02*
X0255433Y0196781D01*
X0255433Y0197780D02*
X0242233Y0197780D01*
X0242830Y0198778D02*
X0255433Y0198778D01*
X0255433Y0199777D02*
X0243829Y0199777D01*
X0244827Y0200775D02*
X0255433Y0200775D01*
X0259233Y0197885D02*
X0259747Y0197672D01*
X0260920Y0197672D01*
X0262004Y0198121D01*
X0262605Y0198722D01*
X0273433Y0198722D01*
X0273433Y0161841D01*
X0272388Y0161408D01*
X0270925Y0159946D01*
X0270333Y0158517D01*
X0269742Y0159946D01*
X0268279Y0161408D01*
X0266368Y0162200D01*
X0264299Y0162200D01*
X0263253Y0161767D01*
X0259233Y0165787D01*
X0259233Y0197885D01*
X0259233Y0197780D02*
X0259487Y0197780D01*
X0259233Y0196781D02*
X0273433Y0196781D01*
X0273433Y0195783D02*
X0259233Y0195783D01*
X0259233Y0194784D02*
X0273433Y0194784D01*
X0273433Y0193786D02*
X0259233Y0193786D01*
X0259233Y0192787D02*
X0273433Y0192787D01*
X0273433Y0191789D02*
X0259233Y0191789D01*
X0259233Y0190790D02*
X0273433Y0190790D01*
X0273433Y0189792D02*
X0259233Y0189792D01*
X0259233Y0188793D02*
X0273433Y0188793D01*
X0273433Y0187795D02*
X0259233Y0187795D01*
X0259233Y0186796D02*
X0273433Y0186796D01*
X0273433Y0185798D02*
X0259233Y0185798D01*
X0259233Y0184799D02*
X0273433Y0184799D01*
X0273433Y0183801D02*
X0259233Y0183801D01*
X0259233Y0182802D02*
X0273433Y0182802D01*
X0273433Y0181803D02*
X0259233Y0181803D01*
X0259233Y0180805D02*
X0273433Y0180805D01*
X0273433Y0179806D02*
X0259233Y0179806D01*
X0259233Y0178808D02*
X0273433Y0178808D01*
X0273433Y0177809D02*
X0259233Y0177809D01*
X0259233Y0176811D02*
X0273433Y0176811D01*
X0273433Y0175812D02*
X0259233Y0175812D01*
X0259233Y0174814D02*
X0273433Y0174814D01*
X0273433Y0173815D02*
X0259233Y0173815D01*
X0259233Y0172817D02*
X0273433Y0172817D01*
X0273433Y0171818D02*
X0259233Y0171818D01*
X0259233Y0170820D02*
X0273433Y0170820D01*
X0273433Y0169821D02*
X0259233Y0169821D01*
X0259233Y0168823D02*
X0273433Y0168823D01*
X0273433Y0167824D02*
X0259233Y0167824D01*
X0259233Y0166826D02*
X0273433Y0166826D01*
X0273433Y0165827D02*
X0259233Y0165827D01*
X0260192Y0164829D02*
X0273433Y0164829D01*
X0273433Y0163830D02*
X0261190Y0163830D01*
X0262189Y0162832D02*
X0273433Y0162832D01*
X0273414Y0161833D02*
X0267253Y0161833D01*
X0268852Y0160835D02*
X0271814Y0160835D01*
X0270880Y0159836D02*
X0269787Y0159836D01*
X0270201Y0158838D02*
X0270466Y0158838D01*
X0277253Y0161833D02*
X0283414Y0161833D01*
X0281814Y0160835D02*
X0278852Y0160835D01*
X0279787Y0159836D02*
X0280880Y0159836D01*
X0280466Y0158838D02*
X0280201Y0158838D01*
X0277233Y0162832D02*
X0318433Y0162832D01*
X0318433Y0163830D02*
X0277233Y0163830D01*
X0277233Y0164829D02*
X0318433Y0164829D01*
X0318433Y0165827D02*
X0277233Y0165827D01*
X0277233Y0166826D02*
X0318433Y0166826D01*
X0318433Y0167824D02*
X0277233Y0167824D01*
X0277233Y0168823D02*
X0318433Y0168823D01*
X0318433Y0169821D02*
X0277233Y0169821D01*
X0277233Y0170820D02*
X0318433Y0170820D01*
X0318433Y0171818D02*
X0277233Y0171818D01*
X0277233Y0172817D02*
X0318433Y0172817D01*
X0318433Y0173815D02*
X0277233Y0173815D01*
X0277233Y0174814D02*
X0318433Y0174814D01*
X0318433Y0175812D02*
X0277233Y0175812D01*
X0277233Y0176811D02*
X0318433Y0176811D01*
X0318433Y0177809D02*
X0277233Y0177809D01*
X0277233Y0178808D02*
X0318433Y0178808D01*
X0318433Y0179806D02*
X0277233Y0179806D01*
X0277233Y0180805D02*
X0318433Y0180805D01*
X0318433Y0181803D02*
X0277233Y0181803D01*
X0277233Y0182802D02*
X0318433Y0182802D01*
X0318433Y0183801D02*
X0277233Y0183801D01*
X0277233Y0184799D02*
X0318433Y0184799D01*
X0318433Y0185798D02*
X0277233Y0185798D01*
X0277233Y0186796D02*
X0318433Y0186796D01*
X0318433Y0187795D02*
X0277233Y0187795D01*
X0277233Y0188793D02*
X0318433Y0188793D01*
X0318433Y0189792D02*
X0277233Y0189792D01*
X0277233Y0190790D02*
X0318433Y0190790D01*
X0318433Y0191789D02*
X0277233Y0191789D01*
X0277233Y0192787D02*
X0318433Y0192787D01*
X0318433Y0193786D02*
X0277233Y0193786D01*
X0277233Y0194784D02*
X0288377Y0194784D01*
X0287645Y0195783D02*
X0277233Y0195783D01*
X0277233Y0196781D02*
X0281177Y0196781D01*
X0280178Y0197780D02*
X0277233Y0197780D01*
X0273433Y0197780D02*
X0261180Y0197780D01*
X0249253Y0205768D02*
X0274312Y0205768D01*
X0273313Y0206766D02*
X0246288Y0206766D01*
X0244379Y0206766D02*
X0222233Y0206766D01*
X0222233Y0205768D02*
X0242961Y0205768D01*
X0242472Y0204769D02*
X0222233Y0204769D01*
X0222233Y0203771D02*
X0242383Y0203771D01*
X0241450Y0202772D02*
X0222233Y0202772D01*
X0222233Y0201774D02*
X0240452Y0201774D01*
X0239453Y0200775D02*
X0222233Y0200775D01*
X0222233Y0199777D02*
X0238455Y0199777D01*
X0238433Y0198778D02*
X0222233Y0198778D01*
X0222233Y0197780D02*
X0238433Y0197780D01*
X0238433Y0196781D02*
X0222233Y0196781D01*
X0222233Y0195783D02*
X0238433Y0195783D01*
X0238433Y0194784D02*
X0222233Y0194784D01*
X0222233Y0193786D02*
X0238433Y0193786D01*
X0247310Y0201774D02*
X0247873Y0201774D01*
X0263706Y0213756D02*
X0222233Y0213756D01*
X0222233Y0214754D02*
X0263583Y0214754D01*
X0263583Y0215753D02*
X0222233Y0215753D01*
X0222233Y0216751D02*
X0263583Y0216751D01*
X0263583Y0217750D02*
X0222233Y0217750D01*
X0222233Y0218748D02*
X0263583Y0218748D01*
X0263583Y0219747D02*
X0222233Y0219747D01*
X0222233Y0220745D02*
X0263916Y0220745D01*
X0263453Y0221744D02*
X0222233Y0221744D01*
X0222233Y0222742D02*
X0263383Y0222742D01*
X0263654Y0223741D02*
X0222233Y0223741D01*
X0222233Y0224739D02*
X0264401Y0224739D01*
X0268266Y0224739D02*
X0272401Y0224739D01*
X0271654Y0223741D02*
X0269012Y0223741D01*
X0269283Y0222742D02*
X0271383Y0222742D01*
X0271453Y0221744D02*
X0269213Y0221744D01*
X0276751Y0220745D02*
X0318433Y0220745D01*
X0318433Y0219747D02*
X0277083Y0219747D01*
X0277083Y0218748D02*
X0318433Y0218748D01*
X0318433Y0217750D02*
X0277083Y0217750D01*
X0277083Y0216751D02*
X0318433Y0216751D01*
X0318433Y0215753D02*
X0277083Y0215753D01*
X0277083Y0214754D02*
X0318433Y0214754D01*
X0318433Y0213756D02*
X0276961Y0213756D01*
X0274693Y0210760D02*
X0318433Y0210760D01*
X0318433Y0209762D02*
X0275692Y0209762D01*
X0276690Y0208763D02*
X0318433Y0208763D01*
X0318433Y0207765D02*
X0277689Y0207765D01*
X0278687Y0206766D02*
X0318433Y0206766D01*
X0318433Y0205768D02*
X0281171Y0205768D01*
X0282005Y0204769D02*
X0318433Y0204769D01*
X0318433Y0203771D02*
X0282338Y0203771D01*
X0282681Y0202772D02*
X0294241Y0202772D01*
X0296425Y0202772D02*
X0318433Y0202772D01*
X0318433Y0201774D02*
X0297763Y0201774D01*
X0298218Y0200775D02*
X0318433Y0200775D01*
X0318433Y0199777D02*
X0298283Y0199777D01*
X0298007Y0198778D02*
X0318433Y0198778D01*
X0318433Y0197780D02*
X0297253Y0197780D01*
X0293413Y0197780D02*
X0293203Y0197780D01*
X0293283Y0196781D02*
X0318433Y0196781D01*
X0318433Y0195783D02*
X0293022Y0195783D01*
X0292289Y0194784D02*
X0318433Y0194784D01*
X0324233Y0194784D02*
X0340433Y0194784D01*
X0340433Y0193786D02*
X0324233Y0193786D01*
X0324233Y0192787D02*
X0340433Y0192787D01*
X0340433Y0191789D02*
X0324233Y0191789D01*
X0324233Y0190790D02*
X0340433Y0190790D01*
X0340433Y0189792D02*
X0324233Y0189792D01*
X0324233Y0188793D02*
X0340433Y0188793D01*
X0340433Y0187795D02*
X0324233Y0187795D01*
X0324233Y0186796D02*
X0340433Y0186796D01*
X0340433Y0185798D02*
X0324233Y0185798D01*
X0324233Y0184799D02*
X0340433Y0184799D01*
X0340433Y0183801D02*
X0324233Y0183801D01*
X0324233Y0182802D02*
X0340433Y0182802D01*
X0340433Y0181803D02*
X0324233Y0181803D01*
X0324233Y0180805D02*
X0340433Y0180805D01*
X0340433Y0179806D02*
X0324233Y0179806D01*
X0324233Y0178808D02*
X0340433Y0178808D01*
X0340433Y0177809D02*
X0324233Y0177809D01*
X0324233Y0176811D02*
X0340433Y0176811D01*
X0340433Y0175812D02*
X0324233Y0175812D01*
X0324233Y0174814D02*
X0340433Y0174814D01*
X0340433Y0173815D02*
X0324233Y0173815D01*
X0324233Y0172817D02*
X0340433Y0172817D01*
X0340433Y0171818D02*
X0324233Y0171818D01*
X0324233Y0170820D02*
X0340433Y0170820D01*
X0340433Y0169821D02*
X0324233Y0169821D01*
X0324233Y0168823D02*
X0340433Y0168823D01*
X0340433Y0167824D02*
X0324233Y0167824D01*
X0324233Y0166826D02*
X0340433Y0166826D01*
X0340433Y0165827D02*
X0324233Y0165827D01*
X0324233Y0164829D02*
X0340433Y0164829D01*
X0340433Y0164272D02*
X0339832Y0163671D01*
X0339383Y0162587D01*
X0339383Y0161413D01*
X0339832Y0160329D01*
X0340662Y0159499D01*
X0341747Y0159050D01*
X0342920Y0159050D01*
X0344004Y0159499D01*
X0344834Y0160329D01*
X0345283Y0161413D01*
X0345283Y0162587D01*
X0344834Y0163671D01*
X0344233Y0164272D01*
X0344233Y0198181D01*
X0347070Y0201019D01*
X0347920Y0201019D01*
X0349004Y0201468D01*
X0349592Y0202055D01*
X0350168Y0201478D01*
X0357433Y0201478D01*
X0357433Y0164213D01*
X0358546Y0163100D01*
X0360571Y0161075D01*
X0360059Y0161447D01*
X0359329Y0161819D01*
X0358551Y0162072D01*
X0357833Y0162186D01*
X0357833Y0157500D01*
X0356833Y0157500D01*
X0356833Y0156500D01*
X0352148Y0156500D01*
X0352261Y0155782D01*
X0352514Y0155004D01*
X0352886Y0154275D01*
X0353158Y0153900D01*
X0339354Y0153900D01*
X0339634Y0155299D01*
X0338500Y0157000D01*
X0339634Y0158701D01*
X0339325Y0160244D01*
X0338016Y0161117D01*
X0336472Y0160809D01*
X0336217Y0160425D01*
X0335961Y0160809D01*
X0334418Y0161117D01*
X0333394Y0160435D01*
X0332602Y0161000D01*
X0330831Y0161000D01*
X0329390Y0159971D01*
X0329390Y0159971D01*
X0329390Y0159971D01*
X0329343Y0159832D01*
X0328486Y0160518D01*
X0328004Y0161000D01*
X0327883Y0161000D01*
X0327789Y0161075D01*
X0327111Y0161000D01*
X0326430Y0161000D01*
X0326344Y0160915D01*
X0326225Y0160901D01*
X0325799Y0160369D01*
X0325317Y0159887D01*
X0325317Y0159766D01*
X0325241Y0159672D01*
X0325317Y0158995D01*
X0325317Y0156800D01*
X0325263Y0156800D01*
X0324233Y0155770D01*
X0324233Y0237630D01*
X0325177Y0235995D01*
X0327662Y0233910D01*
X0330711Y0232800D01*
X0331546Y0232800D01*
X0333956Y0232800D01*
X0337004Y0233910D01*
X0337004Y0233910D01*
X0339490Y0235995D01*
X0339490Y0235995D01*
X0339490Y0235995D01*
X0341112Y0238805D01*
X0341675Y0242000D01*
X0341112Y0245195D01*
X0339490Y0248005D01*
X0337004Y0250090D01*
X0336978Y0250100D01*
X0407963Y0250100D01*
X0406328Y0249156D01*
X0404243Y0246671D01*
X0404243Y0246671D01*
X0403133Y0243622D01*
X0403133Y0240378D01*
X0404243Y0237329D01*
X0406328Y0234844D01*
X0406328Y0234844D01*
X0406328Y0234844D01*
X0409138Y0233221D01*
X0409138Y0233221D01*
X0412333Y0232658D01*
X0412333Y0232658D01*
X0415528Y0233221D01*
X0415528Y0233221D01*
X0418338Y0234844D01*
X0420424Y0237329D01*
X0420433Y0237356D01*
X0420433Y0157228D01*
X0420380Y0157250D01*
X0419286Y0157250D01*
X0418276Y0156831D01*
X0417502Y0156058D01*
X0417083Y0155047D01*
X0417083Y0153953D01*
X0417105Y0153900D01*
X0391587Y0153900D01*
X0391742Y0154054D01*
X0392533Y0155966D01*
X0392533Y0158034D01*
X0391742Y0159946D01*
X0390279Y0161408D01*
X0388368Y0162200D01*
X0386299Y0162200D01*
X0384388Y0161408D01*
X0382925Y0159946D01*
X0382333Y0158517D01*
X0381742Y0159946D01*
X0380279Y0161408D01*
X0379233Y0161841D01*
X0379233Y0198722D01*
X0381236Y0198722D01*
X0382214Y0197744D01*
X0383327Y0196631D01*
X0389383Y0196631D01*
X0389383Y0196413D01*
X0389832Y0195329D01*
X0390662Y0194499D01*
X0391747Y0194050D01*
X0392920Y0194050D01*
X0394004Y0194499D01*
X0394834Y0195329D01*
X0395283Y0196413D01*
X0395283Y0197587D01*
X0395058Y0198131D01*
X0395061Y0198131D01*
X0395662Y0197531D01*
X0396747Y0197081D01*
X0397920Y0197081D01*
X0399004Y0197531D01*
X0399834Y0198360D01*
X0400283Y0199445D01*
X0400283Y0200618D01*
X0399834Y0201703D01*
X0399004Y0202532D01*
X0397920Y0202981D01*
X0396747Y0202981D01*
X0395662Y0202532D01*
X0395061Y0201931D01*
X0385522Y0201931D01*
X0384338Y0203115D01*
X0384338Y0203965D01*
X0383889Y0205049D01*
X0383059Y0205879D01*
X0381975Y0206328D01*
X0381125Y0206328D01*
X0374329Y0213124D01*
X0374333Y0213129D01*
X0374462Y0213000D01*
X0378205Y0213000D01*
X0379083Y0213879D01*
X0379083Y0220121D01*
X0378605Y0220600D01*
X0378834Y0220829D01*
X0379283Y0221913D01*
X0379283Y0223087D01*
X0378834Y0224171D01*
X0378004Y0225001D01*
X0376920Y0225450D01*
X0375747Y0225450D01*
X0374662Y0225001D01*
X0373832Y0224171D01*
X0373383Y0223087D01*
X0373383Y0221913D01*
X0373762Y0221000D01*
X0370905Y0221000D01*
X0371283Y0221913D01*
X0371283Y0223087D01*
X0370834Y0224171D01*
X0370004Y0225001D01*
X0368920Y0225450D01*
X0367747Y0225450D01*
X0366662Y0225001D01*
X0365832Y0224171D01*
X0365383Y0223087D01*
X0365383Y0221913D01*
X0365832Y0220829D01*
X0366062Y0220600D01*
X0365583Y0220121D01*
X0365583Y0213879D01*
X0366462Y0213000D01*
X0370205Y0213000D01*
X0370333Y0213129D01*
X0370433Y0213029D01*
X0370433Y0211646D01*
X0376801Y0205278D01*
X0351742Y0205278D01*
X0351152Y0205868D01*
X0349605Y0205868D01*
X0349004Y0206469D01*
X0347920Y0206918D01*
X0346747Y0206918D01*
X0345662Y0206469D01*
X0344832Y0205640D01*
X0344383Y0204555D01*
X0344383Y0203705D01*
X0340433Y0199755D01*
X0340433Y0164272D01*
X0339992Y0163830D02*
X0324233Y0163830D01*
X0324233Y0162832D02*
X0339485Y0162832D01*
X0339383Y0161833D02*
X0324233Y0161833D01*
X0324233Y0160835D02*
X0326171Y0160835D01*
X0325317Y0159836D02*
X0324233Y0159836D01*
X0324233Y0158838D02*
X0325317Y0158838D01*
X0325317Y0157839D02*
X0324233Y0157839D01*
X0324233Y0156841D02*
X0325317Y0156841D01*
X0324305Y0155842D02*
X0324233Y0155842D01*
X0318433Y0157839D02*
X0290533Y0157839D01*
X0290533Y0156841D02*
X0316298Y0156841D01*
X0315413Y0155842D02*
X0290482Y0155842D01*
X0290069Y0154844D02*
X0315083Y0154844D01*
X0318433Y0158838D02*
X0290201Y0158838D01*
X0289787Y0159836D02*
X0318433Y0159836D01*
X0318433Y0160835D02*
X0288852Y0160835D01*
X0287253Y0161833D02*
X0318433Y0161833D01*
X0328169Y0160835D02*
X0330600Y0160835D01*
X0329344Y0159836D02*
X0329338Y0159836D01*
X0332834Y0160835D02*
X0333994Y0160835D01*
X0335831Y0160835D02*
X0336602Y0160835D01*
X0338440Y0160835D02*
X0339623Y0160835D01*
X0339407Y0159836D02*
X0340325Y0159836D01*
X0339607Y0158838D02*
X0352463Y0158838D01*
X0352514Y0158996D02*
X0352261Y0158218D01*
X0352148Y0157500D01*
X0356833Y0157500D01*
X0356833Y0162186D01*
X0356116Y0162072D01*
X0355337Y0161819D01*
X0354608Y0161447D01*
X0353946Y0160966D01*
X0353367Y0160388D01*
X0352886Y0159725D01*
X0352514Y0158996D01*
X0352966Y0159836D02*
X0344341Y0159836D01*
X0345044Y0160835D02*
X0353814Y0160835D01*
X0355381Y0161833D02*
X0345283Y0161833D01*
X0345182Y0162832D02*
X0358815Y0162832D01*
X0359286Y0161833D02*
X0359813Y0161833D01*
X0357833Y0161833D02*
X0356833Y0161833D01*
X0356833Y0160835D02*
X0357833Y0160835D01*
X0357833Y0159836D02*
X0356833Y0159836D01*
X0356833Y0158838D02*
X0357833Y0158838D01*
X0357833Y0157839D02*
X0356833Y0157839D01*
X0356833Y0156841D02*
X0338606Y0156841D01*
X0339060Y0157839D02*
X0352201Y0157839D01*
X0352252Y0155842D02*
X0339272Y0155842D01*
X0339543Y0154844D02*
X0352596Y0154844D01*
X0357816Y0163830D02*
X0344675Y0163830D01*
X0344233Y0164829D02*
X0357433Y0164829D01*
X0357433Y0165827D02*
X0344233Y0165827D01*
X0344233Y0166826D02*
X0357433Y0166826D01*
X0357433Y0167824D02*
X0344233Y0167824D01*
X0344233Y0168823D02*
X0357433Y0168823D01*
X0357433Y0169821D02*
X0344233Y0169821D01*
X0344233Y0170820D02*
X0357433Y0170820D01*
X0357433Y0171818D02*
X0344233Y0171818D01*
X0344233Y0172817D02*
X0357433Y0172817D01*
X0357433Y0173815D02*
X0344233Y0173815D01*
X0344233Y0174814D02*
X0357433Y0174814D01*
X0357433Y0175812D02*
X0344233Y0175812D01*
X0344233Y0176811D02*
X0357433Y0176811D01*
X0357433Y0177809D02*
X0344233Y0177809D01*
X0344233Y0178808D02*
X0357433Y0178808D01*
X0357433Y0179806D02*
X0344233Y0179806D01*
X0344233Y0180805D02*
X0357433Y0180805D01*
X0357433Y0181803D02*
X0344233Y0181803D01*
X0344233Y0182802D02*
X0357433Y0182802D01*
X0357433Y0183801D02*
X0344233Y0183801D01*
X0344233Y0184799D02*
X0357433Y0184799D01*
X0357433Y0185798D02*
X0344233Y0185798D01*
X0344233Y0186796D02*
X0357433Y0186796D01*
X0357433Y0187795D02*
X0344233Y0187795D01*
X0344233Y0188793D02*
X0357433Y0188793D01*
X0357433Y0189792D02*
X0344233Y0189792D01*
X0344233Y0190790D02*
X0357433Y0190790D01*
X0357433Y0191789D02*
X0344233Y0191789D01*
X0344233Y0192787D02*
X0357433Y0192787D01*
X0357433Y0193786D02*
X0344233Y0193786D01*
X0344233Y0194784D02*
X0357433Y0194784D01*
X0357433Y0195783D02*
X0344233Y0195783D01*
X0344233Y0196781D02*
X0357433Y0196781D01*
X0357433Y0197780D02*
X0344233Y0197780D01*
X0344830Y0198778D02*
X0357433Y0198778D01*
X0357433Y0199777D02*
X0345829Y0199777D01*
X0346827Y0200775D02*
X0357433Y0200775D01*
X0361233Y0197885D02*
X0361747Y0197672D01*
X0362920Y0197672D01*
X0364004Y0198121D01*
X0364605Y0198722D01*
X0375433Y0198722D01*
X0375433Y0161841D01*
X0374388Y0161408D01*
X0372925Y0159946D01*
X0372333Y0158517D01*
X0371742Y0159946D01*
X0370279Y0161408D01*
X0368368Y0162200D01*
X0366299Y0162200D01*
X0365253Y0161767D01*
X0361233Y0165787D01*
X0361233Y0197885D01*
X0361233Y0197780D02*
X0361487Y0197780D01*
X0361233Y0196781D02*
X0375433Y0196781D01*
X0375433Y0195783D02*
X0361233Y0195783D01*
X0361233Y0194784D02*
X0375433Y0194784D01*
X0375433Y0193786D02*
X0361233Y0193786D01*
X0361233Y0192787D02*
X0375433Y0192787D01*
X0375433Y0191789D02*
X0361233Y0191789D01*
X0361233Y0190790D02*
X0375433Y0190790D01*
X0375433Y0189792D02*
X0361233Y0189792D01*
X0361233Y0188793D02*
X0375433Y0188793D01*
X0375433Y0187795D02*
X0361233Y0187795D01*
X0361233Y0186796D02*
X0375433Y0186796D01*
X0375433Y0185798D02*
X0361233Y0185798D01*
X0361233Y0184799D02*
X0375433Y0184799D01*
X0375433Y0183801D02*
X0361233Y0183801D01*
X0361233Y0182802D02*
X0375433Y0182802D01*
X0375433Y0181803D02*
X0361233Y0181803D01*
X0361233Y0180805D02*
X0375433Y0180805D01*
X0375433Y0179806D02*
X0361233Y0179806D01*
X0361233Y0178808D02*
X0375433Y0178808D01*
X0375433Y0177809D02*
X0361233Y0177809D01*
X0361233Y0176811D02*
X0375433Y0176811D01*
X0375433Y0175812D02*
X0361233Y0175812D01*
X0361233Y0174814D02*
X0375433Y0174814D01*
X0375433Y0173815D02*
X0361233Y0173815D01*
X0361233Y0172817D02*
X0375433Y0172817D01*
X0375433Y0171818D02*
X0361233Y0171818D01*
X0361233Y0170820D02*
X0375433Y0170820D01*
X0375433Y0169821D02*
X0361233Y0169821D01*
X0361233Y0168823D02*
X0375433Y0168823D01*
X0375433Y0167824D02*
X0361233Y0167824D01*
X0361233Y0166826D02*
X0375433Y0166826D01*
X0375433Y0165827D02*
X0361233Y0165827D01*
X0362192Y0164829D02*
X0375433Y0164829D01*
X0375433Y0163830D02*
X0363190Y0163830D01*
X0364189Y0162832D02*
X0375433Y0162832D01*
X0375414Y0161833D02*
X0369253Y0161833D01*
X0370852Y0160835D02*
X0373814Y0160835D01*
X0372880Y0159836D02*
X0371787Y0159836D01*
X0372201Y0158838D02*
X0372466Y0158838D01*
X0379253Y0161833D02*
X0385414Y0161833D01*
X0383814Y0160835D02*
X0380852Y0160835D01*
X0381787Y0159836D02*
X0382880Y0159836D01*
X0382466Y0158838D02*
X0382201Y0158838D01*
X0379233Y0162832D02*
X0420433Y0162832D01*
X0420433Y0163830D02*
X0379233Y0163830D01*
X0379233Y0164829D02*
X0420433Y0164829D01*
X0420433Y0165827D02*
X0379233Y0165827D01*
X0379233Y0166826D02*
X0420433Y0166826D01*
X0420433Y0167824D02*
X0379233Y0167824D01*
X0379233Y0168823D02*
X0420433Y0168823D01*
X0420433Y0169821D02*
X0379233Y0169821D01*
X0379233Y0170820D02*
X0420433Y0170820D01*
X0420433Y0171818D02*
X0379233Y0171818D01*
X0379233Y0172817D02*
X0420433Y0172817D01*
X0420433Y0173815D02*
X0379233Y0173815D01*
X0379233Y0174814D02*
X0420433Y0174814D01*
X0420433Y0175812D02*
X0379233Y0175812D01*
X0379233Y0176811D02*
X0420433Y0176811D01*
X0420433Y0177809D02*
X0379233Y0177809D01*
X0379233Y0178808D02*
X0420433Y0178808D01*
X0420433Y0179806D02*
X0379233Y0179806D01*
X0379233Y0180805D02*
X0420433Y0180805D01*
X0420433Y0181803D02*
X0379233Y0181803D01*
X0379233Y0182802D02*
X0420433Y0182802D01*
X0420433Y0183801D02*
X0379233Y0183801D01*
X0379233Y0184799D02*
X0420433Y0184799D01*
X0420433Y0185798D02*
X0379233Y0185798D01*
X0379233Y0186796D02*
X0420433Y0186796D01*
X0420433Y0187795D02*
X0379233Y0187795D01*
X0379233Y0188793D02*
X0420433Y0188793D01*
X0420433Y0189792D02*
X0379233Y0189792D01*
X0379233Y0190790D02*
X0420433Y0190790D01*
X0420433Y0191789D02*
X0379233Y0191789D01*
X0379233Y0192787D02*
X0420433Y0192787D01*
X0420433Y0193786D02*
X0379233Y0193786D01*
X0379233Y0194784D02*
X0390377Y0194784D01*
X0389645Y0195783D02*
X0379233Y0195783D01*
X0379233Y0196781D02*
X0383177Y0196781D01*
X0382178Y0197780D02*
X0379233Y0197780D01*
X0375433Y0197780D02*
X0363180Y0197780D01*
X0349873Y0201774D02*
X0349310Y0201774D01*
X0351253Y0205768D02*
X0376312Y0205768D01*
X0375313Y0206766D02*
X0348288Y0206766D01*
X0346379Y0206766D02*
X0324233Y0206766D01*
X0324233Y0205768D02*
X0344961Y0205768D01*
X0344472Y0204769D02*
X0324233Y0204769D01*
X0324233Y0203771D02*
X0344383Y0203771D01*
X0343450Y0202772D02*
X0324233Y0202772D01*
X0324233Y0201774D02*
X0342452Y0201774D01*
X0341453Y0200775D02*
X0324233Y0200775D01*
X0324233Y0199777D02*
X0340455Y0199777D01*
X0340433Y0198778D02*
X0324233Y0198778D01*
X0324233Y0197780D02*
X0340433Y0197780D01*
X0340433Y0196781D02*
X0324233Y0196781D01*
X0324233Y0195783D02*
X0340433Y0195783D01*
X0324233Y0207765D02*
X0374315Y0207765D01*
X0373316Y0208763D02*
X0324233Y0208763D01*
X0324233Y0209762D02*
X0372318Y0209762D01*
X0371319Y0210760D02*
X0324233Y0210760D01*
X0324233Y0211759D02*
X0370433Y0211759D01*
X0370433Y0212757D02*
X0324233Y0212757D01*
X0324233Y0213756D02*
X0365706Y0213756D01*
X0365583Y0214754D02*
X0324233Y0214754D01*
X0324233Y0215753D02*
X0365583Y0215753D01*
X0365583Y0216751D02*
X0324233Y0216751D01*
X0324233Y0217750D02*
X0365583Y0217750D01*
X0365583Y0218748D02*
X0324233Y0218748D01*
X0324233Y0219747D02*
X0365583Y0219747D01*
X0365916Y0220745D02*
X0324233Y0220745D01*
X0324233Y0221744D02*
X0365453Y0221744D01*
X0365383Y0222742D02*
X0324233Y0222742D01*
X0324233Y0223741D02*
X0365654Y0223741D01*
X0366401Y0224739D02*
X0324233Y0224739D01*
X0324233Y0225738D02*
X0420433Y0225738D01*
X0420433Y0226737D02*
X0324233Y0226737D01*
X0324233Y0227735D02*
X0420433Y0227735D01*
X0420433Y0228734D02*
X0324233Y0228734D01*
X0324233Y0229732D02*
X0420433Y0229732D01*
X0420433Y0230731D02*
X0324233Y0230731D01*
X0324233Y0231729D02*
X0420433Y0231729D01*
X0420433Y0232728D02*
X0412727Y0232728D01*
X0411939Y0232728D02*
X0324233Y0232728D01*
X0324233Y0233726D02*
X0328167Y0233726D01*
X0327662Y0233910D02*
X0327662Y0233910D01*
X0326691Y0234725D02*
X0324233Y0234725D01*
X0324233Y0235723D02*
X0325501Y0235723D01*
X0325177Y0235995D02*
X0325177Y0235995D01*
X0324758Y0236722D02*
X0324233Y0236722D01*
X0318433Y0236722D02*
X0317914Y0236722D01*
X0318424Y0237329D02*
X0318424Y0237329D01*
X0318433Y0235723D02*
X0317076Y0235723D01*
X0316338Y0234844D02*
X0316338Y0234844D01*
X0316132Y0234725D02*
X0318433Y0234725D01*
X0318433Y0233726D02*
X0314402Y0233726D01*
X0310727Y0232728D02*
X0318433Y0232728D01*
X0318433Y0231729D02*
X0222233Y0231729D01*
X0222233Y0230731D02*
X0318433Y0230731D01*
X0318433Y0229732D02*
X0222233Y0229732D01*
X0222233Y0228734D02*
X0318433Y0228734D01*
X0318433Y0227735D02*
X0222233Y0227735D01*
X0222233Y0226737D02*
X0318433Y0226737D01*
X0318433Y0225738D02*
X0222233Y0225738D01*
X0216433Y0225738D02*
X0120233Y0225738D01*
X0120233Y0226737D02*
X0216433Y0226737D01*
X0216433Y0227735D02*
X0120233Y0227735D01*
X0120233Y0228734D02*
X0216433Y0228734D01*
X0216433Y0229732D02*
X0120233Y0229732D01*
X0120233Y0230731D02*
X0216433Y0230731D01*
X0216433Y0231729D02*
X0120233Y0231729D01*
X0120233Y0232728D02*
X0207939Y0232728D01*
X0208727Y0232728D02*
X0216433Y0232728D01*
X0216433Y0233726D02*
X0212402Y0233726D01*
X0214132Y0234725D02*
X0216433Y0234725D01*
X0216433Y0235723D02*
X0215076Y0235723D01*
X0214338Y0234844D02*
X0214338Y0234844D01*
X0215914Y0236722D02*
X0216433Y0236722D01*
X0216424Y0237329D02*
X0216424Y0237329D01*
X0222233Y0236722D02*
X0222758Y0236722D01*
X0223177Y0235995D02*
X0223177Y0235995D01*
X0223501Y0235723D02*
X0222233Y0235723D01*
X0222233Y0234725D02*
X0224691Y0234725D01*
X0225662Y0233910D02*
X0225662Y0233910D01*
X0226167Y0233726D02*
X0222233Y0233726D01*
X0222233Y0232728D02*
X0309939Y0232728D01*
X0306264Y0233726D02*
X0234500Y0233726D01*
X0235975Y0234725D02*
X0304535Y0234725D01*
X0303591Y0235723D02*
X0237165Y0235723D01*
X0237909Y0236722D02*
X0302753Y0236722D01*
X0302243Y0237329D02*
X0302243Y0237329D01*
X0302101Y0237720D02*
X0238486Y0237720D01*
X0239062Y0238719D02*
X0301737Y0238719D01*
X0301374Y0239717D02*
X0239273Y0239717D01*
X0239112Y0238805D02*
X0239112Y0238805D01*
X0239449Y0240716D02*
X0301133Y0240716D01*
X0301133Y0241714D02*
X0239625Y0241714D01*
X0239675Y0242000D02*
X0239675Y0242000D01*
X0239550Y0242713D02*
X0301133Y0242713D01*
X0301166Y0243711D02*
X0239374Y0243711D01*
X0239197Y0244710D02*
X0301529Y0244710D01*
X0301893Y0245708D02*
X0238816Y0245708D01*
X0239112Y0245195D02*
X0239112Y0245195D01*
X0238239Y0246707D02*
X0302273Y0246707D01*
X0303111Y0247705D02*
X0237663Y0247705D01*
X0237490Y0248005D02*
X0237490Y0248005D01*
X0236657Y0248704D02*
X0303949Y0248704D01*
X0304328Y0249156D02*
X0304328Y0249156D01*
X0305274Y0249702D02*
X0235467Y0249702D01*
X0235004Y0250090D02*
X0235004Y0250090D01*
X0237354Y0255900D02*
X0237634Y0257299D01*
X0236500Y0259000D01*
X0237634Y0260701D01*
X0237325Y0262244D01*
X0236016Y0263117D01*
X0234472Y0262809D01*
X0234217Y0262425D01*
X0233961Y0262809D01*
X0232418Y0263117D01*
X0231394Y0262435D01*
X0230602Y0263000D01*
X0228831Y0263000D01*
X0227390Y0261971D01*
X0227390Y0261971D01*
X0227390Y0261971D01*
X0227343Y0261832D01*
X0226486Y0262518D01*
X0226004Y0263000D01*
X0225883Y0263000D01*
X0225789Y0263075D01*
X0225111Y0263000D01*
X0224430Y0263000D01*
X0224344Y0262915D01*
X0224225Y0262901D01*
X0223799Y0262369D01*
X0223317Y0261887D01*
X0223317Y0261766D01*
X0223241Y0261672D01*
X0223317Y0260995D01*
X0223317Y0258800D01*
X0223263Y0258800D01*
X0222233Y0257770D01*
X0222233Y0339630D01*
X0223177Y0337995D01*
X0225662Y0335910D01*
X0228711Y0334800D01*
X0231120Y0334800D01*
X0231956Y0334800D01*
X0235004Y0335910D01*
X0235004Y0335910D01*
X0237490Y0337995D01*
X0237490Y0337995D01*
X0237490Y0337995D01*
X0239112Y0340805D01*
X0239675Y0344000D01*
X0239112Y0347195D01*
X0237490Y0350005D01*
X0235004Y0352090D01*
X0234978Y0352100D01*
X0305963Y0352100D01*
X0304328Y0351156D01*
X0302243Y0348671D01*
X0302243Y0348671D01*
X0301133Y0345622D01*
X0301133Y0342378D01*
X0302243Y0339329D01*
X0304328Y0336844D01*
X0304328Y0336844D01*
X0304328Y0336844D01*
X0307138Y0335221D01*
X0307138Y0335221D01*
X0310333Y0334658D01*
X0310333Y0334658D01*
X0313528Y0335221D01*
X0313528Y0335221D01*
X0316338Y0336844D01*
X0318424Y0339329D01*
X0318433Y0339356D01*
X0318433Y0259228D01*
X0318380Y0259250D01*
X0317286Y0259250D01*
X0316276Y0258831D01*
X0315502Y0258058D01*
X0315083Y0257047D01*
X0315083Y0255953D01*
X0315105Y0255900D01*
X0289587Y0255900D01*
X0289742Y0256054D01*
X0290533Y0257966D01*
X0290533Y0260034D01*
X0289742Y0261946D01*
X0288279Y0263408D01*
X0286368Y0264200D01*
X0284299Y0264200D01*
X0282388Y0263408D01*
X0280925Y0261946D01*
X0280333Y0260517D01*
X0279742Y0261946D01*
X0278279Y0263408D01*
X0277233Y0263841D01*
X0277233Y0300722D01*
X0279236Y0300722D01*
X0280214Y0299744D01*
X0281327Y0298631D01*
X0287383Y0298631D01*
X0287383Y0298413D01*
X0287832Y0297329D01*
X0288662Y0296499D01*
X0289747Y0296050D01*
X0290920Y0296050D01*
X0292004Y0296499D01*
X0292834Y0297329D01*
X0293283Y0298413D01*
X0293283Y0299587D01*
X0293058Y0300131D01*
X0293061Y0300131D01*
X0293662Y0299531D01*
X0294747Y0299081D01*
X0295920Y0299081D01*
X0297004Y0299531D01*
X0297834Y0300360D01*
X0298283Y0301445D01*
X0298283Y0302618D01*
X0297834Y0303703D01*
X0297004Y0304532D01*
X0295920Y0304981D01*
X0294747Y0304981D01*
X0293662Y0304532D01*
X0293061Y0303931D01*
X0283522Y0303931D01*
X0282338Y0305115D01*
X0282338Y0305965D01*
X0281889Y0307049D01*
X0281059Y0307879D01*
X0279975Y0308328D01*
X0279125Y0308328D01*
X0272329Y0315124D01*
X0272333Y0315129D01*
X0272462Y0315000D01*
X0276205Y0315000D01*
X0277083Y0315879D01*
X0277083Y0322121D01*
X0276605Y0322600D01*
X0276834Y0322829D01*
X0277283Y0323913D01*
X0277283Y0325087D01*
X0276834Y0326171D01*
X0276004Y0327001D01*
X0274920Y0327450D01*
X0273747Y0327450D01*
X0272662Y0327001D01*
X0271832Y0326171D01*
X0271383Y0325087D01*
X0271383Y0323913D01*
X0271762Y0323000D01*
X0268905Y0323000D01*
X0269283Y0323913D01*
X0269283Y0325087D01*
X0268834Y0326171D01*
X0268004Y0327001D01*
X0266920Y0327450D01*
X0265747Y0327450D01*
X0264662Y0327001D01*
X0263832Y0326171D01*
X0263383Y0325087D01*
X0263383Y0323913D01*
X0263832Y0322829D01*
X0264062Y0322600D01*
X0263583Y0322121D01*
X0263583Y0315879D01*
X0264462Y0315000D01*
X0268205Y0315000D01*
X0268333Y0315129D01*
X0268433Y0315029D01*
X0268433Y0313646D01*
X0274801Y0307278D01*
X0249742Y0307278D01*
X0249152Y0307868D01*
X0247605Y0307868D01*
X0247004Y0308469D01*
X0245920Y0308918D01*
X0244747Y0308918D01*
X0243662Y0308469D01*
X0242832Y0307640D01*
X0242383Y0306555D01*
X0242383Y0305705D01*
X0238433Y0301755D01*
X0238433Y0266272D01*
X0237832Y0265671D01*
X0237383Y0264587D01*
X0237383Y0263413D01*
X0237832Y0262329D01*
X0238662Y0261499D01*
X0239747Y0261050D01*
X0240920Y0261050D01*
X0242004Y0261499D01*
X0242834Y0262329D01*
X0243283Y0263413D01*
X0243283Y0264587D01*
X0242834Y0265671D01*
X0242233Y0266272D01*
X0242233Y0300181D01*
X0245070Y0303019D01*
X0245920Y0303019D01*
X0247004Y0303468D01*
X0247592Y0304055D01*
X0248168Y0303478D01*
X0255433Y0303478D01*
X0255433Y0266213D01*
X0256546Y0265100D01*
X0258571Y0263075D01*
X0258059Y0263447D01*
X0257329Y0263819D01*
X0256551Y0264072D01*
X0255833Y0264186D01*
X0255833Y0259500D01*
X0254833Y0259500D01*
X0254833Y0258500D01*
X0250148Y0258500D01*
X0250261Y0257782D01*
X0250514Y0257004D01*
X0250886Y0256275D01*
X0251158Y0255900D01*
X0237354Y0255900D01*
X0237513Y0256692D02*
X0250673Y0256692D01*
X0250291Y0257690D02*
X0237373Y0257690D01*
X0236708Y0258689D02*
X0254833Y0258689D01*
X0254833Y0259500D02*
X0250148Y0259500D01*
X0250261Y0260218D01*
X0250514Y0260996D01*
X0250886Y0261725D01*
X0251367Y0262388D01*
X0251946Y0262966D01*
X0252608Y0263447D01*
X0253337Y0263819D01*
X0254116Y0264072D01*
X0254833Y0264186D01*
X0254833Y0259500D01*
X0254833Y0259687D02*
X0255833Y0259687D01*
X0255833Y0260686D02*
X0254833Y0260686D01*
X0254833Y0261684D02*
X0255833Y0261684D01*
X0255833Y0262683D02*
X0254833Y0262683D01*
X0254833Y0263681D02*
X0255833Y0263681D01*
X0256966Y0264680D02*
X0243245Y0264680D01*
X0243283Y0263681D02*
X0253067Y0263681D01*
X0251662Y0262683D02*
X0242981Y0262683D01*
X0242190Y0261684D02*
X0250865Y0261684D01*
X0250414Y0260686D02*
X0237624Y0260686D01*
X0237437Y0261684D02*
X0238477Y0261684D01*
X0237686Y0262683D02*
X0236668Y0262683D01*
X0237383Y0263681D02*
X0222233Y0263681D01*
X0222233Y0262683D02*
X0224050Y0262683D01*
X0223251Y0261684D02*
X0222233Y0261684D01*
X0222233Y0260686D02*
X0223317Y0260686D01*
X0223317Y0259687D02*
X0222233Y0259687D01*
X0222233Y0258689D02*
X0223152Y0258689D01*
X0226321Y0262683D02*
X0228387Y0262683D01*
X0231046Y0262683D02*
X0231766Y0262683D01*
X0234045Y0262683D02*
X0234388Y0262683D01*
X0237422Y0264680D02*
X0222233Y0264680D01*
X0222233Y0265678D02*
X0237840Y0265678D01*
X0238433Y0266677D02*
X0222233Y0266677D01*
X0222233Y0267675D02*
X0238433Y0267675D01*
X0238433Y0268674D02*
X0222233Y0268674D01*
X0222233Y0269672D02*
X0238433Y0269672D01*
X0238433Y0270671D02*
X0222233Y0270671D01*
X0222233Y0271670D02*
X0238433Y0271670D01*
X0238433Y0272668D02*
X0222233Y0272668D01*
X0222233Y0273667D02*
X0238433Y0273667D01*
X0238433Y0274665D02*
X0222233Y0274665D01*
X0222233Y0275664D02*
X0238433Y0275664D01*
X0238433Y0276662D02*
X0222233Y0276662D01*
X0222233Y0277661D02*
X0238433Y0277661D01*
X0238433Y0278659D02*
X0222233Y0278659D01*
X0222233Y0279658D02*
X0238433Y0279658D01*
X0238433Y0280656D02*
X0222233Y0280656D01*
X0222233Y0281655D02*
X0238433Y0281655D01*
X0238433Y0282653D02*
X0222233Y0282653D01*
X0222233Y0283652D02*
X0238433Y0283652D01*
X0238433Y0284650D02*
X0222233Y0284650D01*
X0222233Y0285649D02*
X0238433Y0285649D01*
X0238433Y0286647D02*
X0222233Y0286647D01*
X0222233Y0287646D02*
X0238433Y0287646D01*
X0238433Y0288644D02*
X0222233Y0288644D01*
X0222233Y0289643D02*
X0238433Y0289643D01*
X0238433Y0290641D02*
X0222233Y0290641D01*
X0222233Y0291640D02*
X0238433Y0291640D01*
X0238433Y0292638D02*
X0222233Y0292638D01*
X0222233Y0293637D02*
X0238433Y0293637D01*
X0238433Y0294635D02*
X0222233Y0294635D01*
X0222233Y0295634D02*
X0238433Y0295634D01*
X0238433Y0296632D02*
X0222233Y0296632D01*
X0222233Y0297631D02*
X0238433Y0297631D01*
X0238433Y0298629D02*
X0222233Y0298629D01*
X0222233Y0299628D02*
X0238433Y0299628D01*
X0238433Y0300626D02*
X0222233Y0300626D01*
X0222233Y0301625D02*
X0238433Y0301625D01*
X0239301Y0302623D02*
X0222233Y0302623D01*
X0222233Y0303622D02*
X0240300Y0303622D01*
X0241298Y0304620D02*
X0222233Y0304620D01*
X0222233Y0305619D02*
X0242297Y0305619D01*
X0242409Y0306617D02*
X0222233Y0306617D01*
X0222233Y0307616D02*
X0242823Y0307616D01*
X0244012Y0308614D02*
X0222233Y0308614D01*
X0222233Y0309613D02*
X0272466Y0309613D01*
X0271468Y0310611D02*
X0222233Y0310611D01*
X0222233Y0311610D02*
X0270469Y0311610D01*
X0269471Y0312608D02*
X0222233Y0312608D01*
X0222233Y0313607D02*
X0268472Y0313607D01*
X0268433Y0314605D02*
X0222233Y0314605D01*
X0222233Y0315604D02*
X0263858Y0315604D01*
X0263583Y0316603D02*
X0222233Y0316603D01*
X0222233Y0317601D02*
X0263583Y0317601D01*
X0263583Y0318600D02*
X0222233Y0318600D01*
X0222233Y0319598D02*
X0263583Y0319598D01*
X0263583Y0320597D02*
X0222233Y0320597D01*
X0222233Y0321595D02*
X0263583Y0321595D01*
X0264056Y0322594D02*
X0222233Y0322594D01*
X0222233Y0323592D02*
X0263516Y0323592D01*
X0263383Y0324591D02*
X0222233Y0324591D01*
X0222233Y0325589D02*
X0263591Y0325589D01*
X0264249Y0326588D02*
X0222233Y0326588D01*
X0222233Y0327586D02*
X0318433Y0327586D01*
X0318433Y0326588D02*
X0276418Y0326588D01*
X0277075Y0325589D02*
X0318433Y0325589D01*
X0318433Y0324591D02*
X0277283Y0324591D01*
X0277150Y0323592D02*
X0318433Y0323592D01*
X0318433Y0322594D02*
X0276611Y0322594D01*
X0277083Y0321595D02*
X0318433Y0321595D01*
X0318433Y0320597D02*
X0277083Y0320597D01*
X0277083Y0319598D02*
X0318433Y0319598D01*
X0318433Y0318600D02*
X0277083Y0318600D01*
X0277083Y0317601D02*
X0318433Y0317601D01*
X0318433Y0316603D02*
X0277083Y0316603D01*
X0276809Y0315604D02*
X0318433Y0315604D01*
X0318433Y0314605D02*
X0272848Y0314605D01*
X0273846Y0313607D02*
X0318433Y0313607D01*
X0318433Y0312608D02*
X0274845Y0312608D01*
X0275843Y0311610D02*
X0318433Y0311610D01*
X0318433Y0310611D02*
X0276842Y0310611D01*
X0277840Y0309613D02*
X0318433Y0309613D01*
X0318433Y0308614D02*
X0278839Y0308614D01*
X0281322Y0307616D02*
X0318433Y0307616D01*
X0318433Y0306617D02*
X0282068Y0306617D01*
X0282338Y0305619D02*
X0318433Y0305619D01*
X0318433Y0304620D02*
X0296792Y0304620D01*
X0297868Y0303622D02*
X0318433Y0303622D01*
X0318433Y0302623D02*
X0298281Y0302623D01*
X0298283Y0301625D02*
X0318433Y0301625D01*
X0318433Y0300626D02*
X0297944Y0300626D01*
X0297102Y0299628D02*
X0318433Y0299628D01*
X0318433Y0298629D02*
X0293283Y0298629D01*
X0293266Y0299628D02*
X0293565Y0299628D01*
X0292959Y0297631D02*
X0318433Y0297631D01*
X0318433Y0296632D02*
X0292138Y0296632D01*
X0288529Y0296632D02*
X0277233Y0296632D01*
X0277233Y0295634D02*
X0318433Y0295634D01*
X0318433Y0294635D02*
X0277233Y0294635D01*
X0277233Y0293637D02*
X0318433Y0293637D01*
X0318433Y0292638D02*
X0277233Y0292638D01*
X0277233Y0291640D02*
X0318433Y0291640D01*
X0318433Y0290641D02*
X0277233Y0290641D01*
X0277233Y0289643D02*
X0318433Y0289643D01*
X0318433Y0288644D02*
X0277233Y0288644D01*
X0277233Y0287646D02*
X0318433Y0287646D01*
X0318433Y0286647D02*
X0277233Y0286647D01*
X0277233Y0285649D02*
X0318433Y0285649D01*
X0318433Y0284650D02*
X0277233Y0284650D01*
X0277233Y0283652D02*
X0318433Y0283652D01*
X0318433Y0282653D02*
X0277233Y0282653D01*
X0277233Y0281655D02*
X0318433Y0281655D01*
X0318433Y0280656D02*
X0277233Y0280656D01*
X0277233Y0279658D02*
X0318433Y0279658D01*
X0318433Y0278659D02*
X0277233Y0278659D01*
X0277233Y0277661D02*
X0318433Y0277661D01*
X0318433Y0276662D02*
X0277233Y0276662D01*
X0277233Y0275664D02*
X0318433Y0275664D01*
X0318433Y0274665D02*
X0277233Y0274665D01*
X0277233Y0273667D02*
X0318433Y0273667D01*
X0318433Y0272668D02*
X0277233Y0272668D01*
X0277233Y0271670D02*
X0318433Y0271670D01*
X0318433Y0270671D02*
X0277233Y0270671D01*
X0277233Y0269672D02*
X0318433Y0269672D01*
X0318433Y0268674D02*
X0277233Y0268674D01*
X0277233Y0267675D02*
X0318433Y0267675D01*
X0318433Y0266677D02*
X0277233Y0266677D01*
X0277233Y0265678D02*
X0318433Y0265678D01*
X0318433Y0264680D02*
X0277233Y0264680D01*
X0277620Y0263681D02*
X0283047Y0263681D01*
X0281662Y0262683D02*
X0279004Y0262683D01*
X0279850Y0261684D02*
X0280817Y0261684D01*
X0280403Y0260686D02*
X0280263Y0260686D01*
X0273433Y0263841D02*
X0272388Y0263408D01*
X0270925Y0261946D01*
X0270333Y0260517D01*
X0269742Y0261946D01*
X0268279Y0263408D01*
X0266368Y0264200D01*
X0264299Y0264200D01*
X0263253Y0263767D01*
X0259233Y0267787D01*
X0259233Y0299885D01*
X0259747Y0299672D01*
X0260920Y0299672D01*
X0262004Y0300121D01*
X0262605Y0300722D01*
X0273433Y0300722D01*
X0273433Y0263841D01*
X0273047Y0263681D02*
X0267620Y0263681D01*
X0269004Y0262683D02*
X0271662Y0262683D01*
X0270817Y0261684D02*
X0269850Y0261684D01*
X0270263Y0260686D02*
X0270403Y0260686D01*
X0273433Y0264680D02*
X0262340Y0264680D01*
X0261342Y0265678D02*
X0273433Y0265678D01*
X0273433Y0266677D02*
X0260343Y0266677D01*
X0259345Y0267675D02*
X0273433Y0267675D01*
X0273433Y0268674D02*
X0259233Y0268674D01*
X0259233Y0269672D02*
X0273433Y0269672D01*
X0273433Y0270671D02*
X0259233Y0270671D01*
X0259233Y0271670D02*
X0273433Y0271670D01*
X0273433Y0272668D02*
X0259233Y0272668D01*
X0259233Y0273667D02*
X0273433Y0273667D01*
X0273433Y0274665D02*
X0259233Y0274665D01*
X0259233Y0275664D02*
X0273433Y0275664D01*
X0273433Y0276662D02*
X0259233Y0276662D01*
X0259233Y0277661D02*
X0273433Y0277661D01*
X0273433Y0278659D02*
X0259233Y0278659D01*
X0259233Y0279658D02*
X0273433Y0279658D01*
X0273433Y0280656D02*
X0259233Y0280656D01*
X0259233Y0281655D02*
X0273433Y0281655D01*
X0273433Y0282653D02*
X0259233Y0282653D01*
X0259233Y0283652D02*
X0273433Y0283652D01*
X0273433Y0284650D02*
X0259233Y0284650D01*
X0259233Y0285649D02*
X0273433Y0285649D01*
X0273433Y0286647D02*
X0259233Y0286647D01*
X0259233Y0287646D02*
X0273433Y0287646D01*
X0273433Y0288644D02*
X0259233Y0288644D01*
X0259233Y0289643D02*
X0273433Y0289643D01*
X0273433Y0290641D02*
X0259233Y0290641D01*
X0259233Y0291640D02*
X0273433Y0291640D01*
X0273433Y0292638D02*
X0259233Y0292638D01*
X0259233Y0293637D02*
X0273433Y0293637D01*
X0273433Y0294635D02*
X0259233Y0294635D01*
X0259233Y0295634D02*
X0273433Y0295634D01*
X0273433Y0296632D02*
X0259233Y0296632D01*
X0259233Y0297631D02*
X0273433Y0297631D01*
X0273433Y0298629D02*
X0259233Y0298629D01*
X0259233Y0299628D02*
X0273433Y0299628D01*
X0273433Y0300626D02*
X0262510Y0300626D01*
X0255433Y0300626D02*
X0242678Y0300626D01*
X0242233Y0299628D02*
X0255433Y0299628D01*
X0255433Y0298629D02*
X0242233Y0298629D01*
X0242233Y0297631D02*
X0255433Y0297631D01*
X0255433Y0296632D02*
X0242233Y0296632D01*
X0242233Y0295634D02*
X0255433Y0295634D01*
X0255433Y0294635D02*
X0242233Y0294635D01*
X0242233Y0293637D02*
X0255433Y0293637D01*
X0255433Y0292638D02*
X0242233Y0292638D01*
X0242233Y0291640D02*
X0255433Y0291640D01*
X0255433Y0290641D02*
X0242233Y0290641D01*
X0242233Y0289643D02*
X0255433Y0289643D01*
X0255433Y0288644D02*
X0242233Y0288644D01*
X0242233Y0287646D02*
X0255433Y0287646D01*
X0255433Y0286647D02*
X0242233Y0286647D01*
X0242233Y0285649D02*
X0255433Y0285649D01*
X0255433Y0284650D02*
X0242233Y0284650D01*
X0242233Y0283652D02*
X0255433Y0283652D01*
X0255433Y0282653D02*
X0242233Y0282653D01*
X0242233Y0281655D02*
X0255433Y0281655D01*
X0255433Y0280656D02*
X0242233Y0280656D01*
X0242233Y0279658D02*
X0255433Y0279658D01*
X0255433Y0278659D02*
X0242233Y0278659D01*
X0242233Y0277661D02*
X0255433Y0277661D01*
X0255433Y0276662D02*
X0242233Y0276662D01*
X0242233Y0275664D02*
X0255433Y0275664D01*
X0255433Y0274665D02*
X0242233Y0274665D01*
X0242233Y0273667D02*
X0255433Y0273667D01*
X0255433Y0272668D02*
X0242233Y0272668D01*
X0242233Y0271670D02*
X0255433Y0271670D01*
X0255433Y0270671D02*
X0242233Y0270671D01*
X0242233Y0269672D02*
X0255433Y0269672D01*
X0255433Y0268674D02*
X0242233Y0268674D01*
X0242233Y0267675D02*
X0255433Y0267675D01*
X0255433Y0266677D02*
X0242233Y0266677D01*
X0242827Y0265678D02*
X0255968Y0265678D01*
X0257599Y0263681D02*
X0257965Y0263681D01*
X0250177Y0259687D02*
X0236958Y0259687D01*
X0216433Y0259687D02*
X0188533Y0259687D01*
X0188533Y0260034D02*
X0187742Y0261946D01*
X0186279Y0263408D01*
X0184368Y0264200D01*
X0182299Y0264200D01*
X0180388Y0263408D01*
X0178925Y0261946D01*
X0178333Y0260517D01*
X0177742Y0261946D01*
X0176279Y0263408D01*
X0175233Y0263841D01*
X0175233Y0300722D01*
X0177236Y0300722D01*
X0178214Y0299744D01*
X0179327Y0298631D01*
X0185383Y0298631D01*
X0185383Y0298413D01*
X0185832Y0297329D01*
X0186662Y0296499D01*
X0187747Y0296050D01*
X0188920Y0296050D01*
X0190004Y0296499D01*
X0190834Y0297329D01*
X0191283Y0298413D01*
X0191283Y0299587D01*
X0191058Y0300131D01*
X0191061Y0300131D01*
X0191662Y0299531D01*
X0192747Y0299081D01*
X0193920Y0299081D01*
X0195004Y0299531D01*
X0195834Y0300360D01*
X0196283Y0301445D01*
X0196283Y0302618D01*
X0195834Y0303703D01*
X0195004Y0304532D01*
X0193920Y0304981D01*
X0192747Y0304981D01*
X0191662Y0304532D01*
X0191061Y0303931D01*
X0181522Y0303931D01*
X0180338Y0305115D01*
X0180338Y0305965D01*
X0179889Y0307049D01*
X0179059Y0307879D01*
X0177975Y0308328D01*
X0177125Y0308328D01*
X0170329Y0315124D01*
X0170333Y0315129D01*
X0170462Y0315000D01*
X0174205Y0315000D01*
X0175083Y0315879D01*
X0175083Y0322121D01*
X0174605Y0322600D01*
X0174834Y0322829D01*
X0175283Y0323913D01*
X0175283Y0325087D01*
X0174834Y0326171D01*
X0174004Y0327001D01*
X0172920Y0327450D01*
X0171747Y0327450D01*
X0170662Y0327001D01*
X0169832Y0326171D01*
X0169383Y0325087D01*
X0169383Y0323913D01*
X0169762Y0323000D01*
X0166905Y0323000D01*
X0167283Y0323913D01*
X0167283Y0325087D01*
X0166834Y0326171D01*
X0166004Y0327001D01*
X0164920Y0327450D01*
X0163747Y0327450D01*
X0162662Y0327001D01*
X0161832Y0326171D01*
X0161383Y0325087D01*
X0161383Y0323913D01*
X0161832Y0322829D01*
X0162062Y0322600D01*
X0161583Y0322121D01*
X0161583Y0315879D01*
X0162462Y0315000D01*
X0166205Y0315000D01*
X0166333Y0315129D01*
X0166433Y0315029D01*
X0166433Y0313646D01*
X0172801Y0307278D01*
X0147742Y0307278D01*
X0147152Y0307868D01*
X0145605Y0307868D01*
X0145004Y0308469D01*
X0143920Y0308918D01*
X0142747Y0308918D01*
X0141662Y0308469D01*
X0140832Y0307640D01*
X0140383Y0306555D01*
X0140383Y0305705D01*
X0136433Y0301755D01*
X0136433Y0266272D01*
X0135832Y0265671D01*
X0135383Y0264587D01*
X0135383Y0263413D01*
X0135832Y0262329D01*
X0136662Y0261499D01*
X0137747Y0261050D01*
X0138920Y0261050D01*
X0140004Y0261499D01*
X0140834Y0262329D01*
X0141283Y0263413D01*
X0141283Y0264587D01*
X0140834Y0265671D01*
X0140233Y0266272D01*
X0140233Y0300181D01*
X0143070Y0303019D01*
X0143920Y0303019D01*
X0145004Y0303468D01*
X0145592Y0304055D01*
X0146168Y0303478D01*
X0153433Y0303478D01*
X0153433Y0266213D01*
X0154546Y0265100D01*
X0156571Y0263075D01*
X0156059Y0263447D01*
X0155329Y0263819D01*
X0154551Y0264072D01*
X0153833Y0264186D01*
X0153833Y0259500D01*
X0152833Y0259500D01*
X0152833Y0258500D01*
X0148148Y0258500D01*
X0148261Y0257782D01*
X0148514Y0257004D01*
X0148886Y0256275D01*
X0149158Y0255900D01*
X0135354Y0255900D01*
X0135634Y0257299D01*
X0134500Y0259000D01*
X0135634Y0260701D01*
X0135325Y0262244D01*
X0134016Y0263117D01*
X0132472Y0262809D01*
X0132217Y0262425D01*
X0131961Y0262809D01*
X0130418Y0263117D01*
X0129394Y0262435D01*
X0128602Y0263000D01*
X0126831Y0263000D01*
X0125390Y0261971D01*
X0125390Y0261971D01*
X0125390Y0261971D01*
X0125343Y0261832D01*
X0124486Y0262518D01*
X0124004Y0263000D01*
X0123883Y0263000D01*
X0123789Y0263075D01*
X0123111Y0263000D01*
X0122430Y0263000D01*
X0122344Y0262915D01*
X0122225Y0262901D01*
X0121799Y0262369D01*
X0121317Y0261887D01*
X0121317Y0261766D01*
X0121241Y0261672D01*
X0121317Y0260995D01*
X0121317Y0258800D01*
X0121263Y0258800D01*
X0120233Y0257770D01*
X0120233Y0339630D01*
X0121177Y0337995D01*
X0123662Y0335910D01*
X0123662Y0335910D01*
X0126711Y0334800D01*
X0129956Y0334800D01*
X0133004Y0335910D01*
X0133004Y0335910D01*
X0135490Y0337995D01*
X0135490Y0337995D01*
X0135490Y0337995D01*
X0137112Y0340805D01*
X0137675Y0344000D01*
X0137112Y0347195D01*
X0135490Y0350005D01*
X0133004Y0352090D01*
X0132978Y0352100D01*
X0203963Y0352100D01*
X0202328Y0351156D01*
X0200243Y0348671D01*
X0200243Y0348671D01*
X0199133Y0345622D01*
X0199133Y0342378D01*
X0200243Y0339329D01*
X0202328Y0336844D01*
X0202328Y0336844D01*
X0202328Y0336844D01*
X0205138Y0335221D01*
X0205138Y0335221D01*
X0208333Y0334658D01*
X0208333Y0334658D01*
X0211528Y0335221D01*
X0211528Y0335221D01*
X0214338Y0336844D01*
X0216424Y0339329D01*
X0216433Y0339356D01*
X0216433Y0259228D01*
X0216380Y0259250D01*
X0215286Y0259250D01*
X0214276Y0258831D01*
X0213502Y0258058D01*
X0213083Y0257047D01*
X0213083Y0255953D01*
X0213105Y0255900D01*
X0187587Y0255900D01*
X0187742Y0256054D01*
X0188533Y0257966D01*
X0188533Y0260034D01*
X0188263Y0260686D02*
X0216433Y0260686D01*
X0216433Y0261684D02*
X0187850Y0261684D01*
X0187004Y0262683D02*
X0216433Y0262683D01*
X0216433Y0263681D02*
X0185620Y0263681D01*
X0181047Y0263681D02*
X0175620Y0263681D01*
X0175233Y0264680D02*
X0216433Y0264680D01*
X0216433Y0265678D02*
X0175233Y0265678D01*
X0175233Y0266677D02*
X0216433Y0266677D01*
X0216433Y0267675D02*
X0175233Y0267675D01*
X0175233Y0268674D02*
X0216433Y0268674D01*
X0216433Y0269672D02*
X0175233Y0269672D01*
X0175233Y0270671D02*
X0216433Y0270671D01*
X0216433Y0271670D02*
X0175233Y0271670D01*
X0175233Y0272668D02*
X0216433Y0272668D01*
X0216433Y0273667D02*
X0175233Y0273667D01*
X0175233Y0274665D02*
X0216433Y0274665D01*
X0216433Y0275664D02*
X0175233Y0275664D01*
X0175233Y0276662D02*
X0216433Y0276662D01*
X0216433Y0277661D02*
X0175233Y0277661D01*
X0175233Y0278659D02*
X0216433Y0278659D01*
X0216433Y0279658D02*
X0175233Y0279658D01*
X0175233Y0280656D02*
X0216433Y0280656D01*
X0216433Y0281655D02*
X0175233Y0281655D01*
X0175233Y0282653D02*
X0216433Y0282653D01*
X0216433Y0283652D02*
X0175233Y0283652D01*
X0175233Y0284650D02*
X0216433Y0284650D01*
X0216433Y0285649D02*
X0175233Y0285649D01*
X0175233Y0286647D02*
X0216433Y0286647D01*
X0216433Y0287646D02*
X0175233Y0287646D01*
X0175233Y0288644D02*
X0216433Y0288644D01*
X0216433Y0289643D02*
X0175233Y0289643D01*
X0175233Y0290641D02*
X0216433Y0290641D01*
X0216433Y0291640D02*
X0175233Y0291640D01*
X0175233Y0292638D02*
X0216433Y0292638D01*
X0216433Y0293637D02*
X0175233Y0293637D01*
X0175233Y0294635D02*
X0216433Y0294635D01*
X0216433Y0295634D02*
X0175233Y0295634D01*
X0175233Y0296632D02*
X0186529Y0296632D01*
X0185707Y0297631D02*
X0175233Y0297631D01*
X0175233Y0298629D02*
X0185383Y0298629D01*
X0190138Y0296632D02*
X0216433Y0296632D01*
X0216433Y0297631D02*
X0190959Y0297631D01*
X0191283Y0298629D02*
X0216433Y0298629D01*
X0216433Y0299628D02*
X0195102Y0299628D01*
X0195944Y0300626D02*
X0216433Y0300626D01*
X0216433Y0301625D02*
X0196283Y0301625D01*
X0196281Y0302623D02*
X0216433Y0302623D01*
X0216433Y0303622D02*
X0195868Y0303622D01*
X0194792Y0304620D02*
X0216433Y0304620D01*
X0216433Y0305619D02*
X0180338Y0305619D01*
X0180068Y0306617D02*
X0216433Y0306617D01*
X0216433Y0307616D02*
X0179322Y0307616D01*
X0176839Y0308614D02*
X0216433Y0308614D01*
X0216433Y0309613D02*
X0175840Y0309613D01*
X0174842Y0310611D02*
X0216433Y0310611D01*
X0216433Y0311610D02*
X0173843Y0311610D01*
X0172845Y0312608D02*
X0216433Y0312608D01*
X0216433Y0313607D02*
X0171846Y0313607D01*
X0170848Y0314605D02*
X0216433Y0314605D01*
X0216433Y0315604D02*
X0174809Y0315604D01*
X0175083Y0316603D02*
X0216433Y0316603D01*
X0216433Y0317601D02*
X0175083Y0317601D01*
X0175083Y0318600D02*
X0216433Y0318600D01*
X0216433Y0319598D02*
X0175083Y0319598D01*
X0175083Y0320597D02*
X0216433Y0320597D01*
X0216433Y0321595D02*
X0175083Y0321595D01*
X0174611Y0322594D02*
X0216433Y0322594D01*
X0216433Y0323592D02*
X0175150Y0323592D01*
X0175283Y0324591D02*
X0216433Y0324591D01*
X0216433Y0325589D02*
X0175075Y0325589D01*
X0174418Y0326588D02*
X0216433Y0326588D01*
X0216433Y0327586D02*
X0120233Y0327586D01*
X0120233Y0326588D02*
X0162249Y0326588D01*
X0161591Y0325589D02*
X0120233Y0325589D01*
X0120233Y0324591D02*
X0161383Y0324591D01*
X0161516Y0323592D02*
X0120233Y0323592D01*
X0120233Y0322594D02*
X0162056Y0322594D01*
X0161583Y0321595D02*
X0120233Y0321595D01*
X0120233Y0320597D02*
X0161583Y0320597D01*
X0161583Y0319598D02*
X0120233Y0319598D01*
X0120233Y0318600D02*
X0161583Y0318600D01*
X0161583Y0317601D02*
X0120233Y0317601D01*
X0120233Y0316603D02*
X0161583Y0316603D01*
X0161858Y0315604D02*
X0120233Y0315604D01*
X0120233Y0314605D02*
X0166433Y0314605D01*
X0166472Y0313607D02*
X0120233Y0313607D01*
X0120233Y0312608D02*
X0167471Y0312608D01*
X0168469Y0311610D02*
X0120233Y0311610D01*
X0120233Y0310611D02*
X0169468Y0310611D01*
X0170466Y0309613D02*
X0120233Y0309613D01*
X0120233Y0308614D02*
X0142012Y0308614D01*
X0140823Y0307616D02*
X0120233Y0307616D01*
X0120233Y0306617D02*
X0140409Y0306617D01*
X0140297Y0305619D02*
X0120233Y0305619D01*
X0120233Y0304620D02*
X0139298Y0304620D01*
X0138300Y0303622D02*
X0120233Y0303622D01*
X0120233Y0302623D02*
X0137301Y0302623D01*
X0136433Y0301625D02*
X0120233Y0301625D01*
X0120233Y0300626D02*
X0136433Y0300626D01*
X0136433Y0299628D02*
X0120233Y0299628D01*
X0120233Y0298629D02*
X0136433Y0298629D01*
X0136433Y0297631D02*
X0120233Y0297631D01*
X0120233Y0296632D02*
X0136433Y0296632D01*
X0136433Y0295634D02*
X0120233Y0295634D01*
X0120233Y0294635D02*
X0136433Y0294635D01*
X0136433Y0293637D02*
X0120233Y0293637D01*
X0120233Y0292638D02*
X0136433Y0292638D01*
X0136433Y0291640D02*
X0120233Y0291640D01*
X0120233Y0290641D02*
X0136433Y0290641D01*
X0136433Y0289643D02*
X0120233Y0289643D01*
X0120233Y0288644D02*
X0136433Y0288644D01*
X0136433Y0287646D02*
X0120233Y0287646D01*
X0120233Y0286647D02*
X0136433Y0286647D01*
X0136433Y0285649D02*
X0120233Y0285649D01*
X0120233Y0284650D02*
X0136433Y0284650D01*
X0136433Y0283652D02*
X0120233Y0283652D01*
X0120233Y0282653D02*
X0136433Y0282653D01*
X0136433Y0281655D02*
X0120233Y0281655D01*
X0120233Y0280656D02*
X0136433Y0280656D01*
X0136433Y0279658D02*
X0120233Y0279658D01*
X0120233Y0278659D02*
X0136433Y0278659D01*
X0136433Y0277661D02*
X0120233Y0277661D01*
X0120233Y0276662D02*
X0136433Y0276662D01*
X0136433Y0275664D02*
X0120233Y0275664D01*
X0120233Y0274665D02*
X0136433Y0274665D01*
X0136433Y0273667D02*
X0120233Y0273667D01*
X0120233Y0272668D02*
X0136433Y0272668D01*
X0136433Y0271670D02*
X0120233Y0271670D01*
X0120233Y0270671D02*
X0136433Y0270671D01*
X0136433Y0269672D02*
X0120233Y0269672D01*
X0120233Y0268674D02*
X0136433Y0268674D01*
X0136433Y0267675D02*
X0120233Y0267675D01*
X0120233Y0266677D02*
X0136433Y0266677D01*
X0135840Y0265678D02*
X0120233Y0265678D01*
X0120233Y0264680D02*
X0135422Y0264680D01*
X0135383Y0263681D02*
X0120233Y0263681D01*
X0120233Y0262683D02*
X0122050Y0262683D01*
X0121251Y0261684D02*
X0120233Y0261684D01*
X0120233Y0260686D02*
X0121317Y0260686D01*
X0121317Y0259687D02*
X0120233Y0259687D01*
X0120233Y0258689D02*
X0121152Y0258689D01*
X0124321Y0262683D02*
X0126387Y0262683D01*
X0129046Y0262683D02*
X0129766Y0262683D01*
X0132045Y0262683D02*
X0132388Y0262683D01*
X0134668Y0262683D02*
X0135686Y0262683D01*
X0135437Y0261684D02*
X0136477Y0261684D01*
X0135624Y0260686D02*
X0148414Y0260686D01*
X0148514Y0260996D02*
X0148261Y0260218D01*
X0148148Y0259500D01*
X0152833Y0259500D01*
X0152833Y0264186D01*
X0152116Y0264072D01*
X0151337Y0263819D01*
X0150608Y0263447D01*
X0149946Y0262966D01*
X0149367Y0262388D01*
X0148886Y0261725D01*
X0148514Y0260996D01*
X0148865Y0261684D02*
X0140190Y0261684D01*
X0140981Y0262683D02*
X0149662Y0262683D01*
X0151067Y0263681D02*
X0141283Y0263681D01*
X0141245Y0264680D02*
X0154966Y0264680D01*
X0155599Y0263681D02*
X0155965Y0263681D01*
X0153833Y0263681D02*
X0152833Y0263681D01*
X0152833Y0262683D02*
X0153833Y0262683D01*
X0153833Y0261684D02*
X0152833Y0261684D01*
X0152833Y0260686D02*
X0153833Y0260686D01*
X0153833Y0259687D02*
X0152833Y0259687D01*
X0152833Y0258689D02*
X0134708Y0258689D01*
X0134958Y0259687D02*
X0148177Y0259687D01*
X0148291Y0257690D02*
X0135373Y0257690D01*
X0135513Y0256692D02*
X0148673Y0256692D01*
X0153968Y0265678D02*
X0140827Y0265678D01*
X0140233Y0266677D02*
X0153433Y0266677D01*
X0153433Y0267675D02*
X0140233Y0267675D01*
X0140233Y0268674D02*
X0153433Y0268674D01*
X0153433Y0269672D02*
X0140233Y0269672D01*
X0140233Y0270671D02*
X0153433Y0270671D01*
X0153433Y0271670D02*
X0140233Y0271670D01*
X0140233Y0272668D02*
X0153433Y0272668D01*
X0153433Y0273667D02*
X0140233Y0273667D01*
X0140233Y0274665D02*
X0153433Y0274665D01*
X0153433Y0275664D02*
X0140233Y0275664D01*
X0140233Y0276662D02*
X0153433Y0276662D01*
X0153433Y0277661D02*
X0140233Y0277661D01*
X0140233Y0278659D02*
X0153433Y0278659D01*
X0153433Y0279658D02*
X0140233Y0279658D01*
X0140233Y0280656D02*
X0153433Y0280656D01*
X0153433Y0281655D02*
X0140233Y0281655D01*
X0140233Y0282653D02*
X0153433Y0282653D01*
X0153433Y0283652D02*
X0140233Y0283652D01*
X0140233Y0284650D02*
X0153433Y0284650D01*
X0153433Y0285649D02*
X0140233Y0285649D01*
X0140233Y0286647D02*
X0153433Y0286647D01*
X0153433Y0287646D02*
X0140233Y0287646D01*
X0140233Y0288644D02*
X0153433Y0288644D01*
X0153433Y0289643D02*
X0140233Y0289643D01*
X0140233Y0290641D02*
X0153433Y0290641D01*
X0153433Y0291640D02*
X0140233Y0291640D01*
X0140233Y0292638D02*
X0153433Y0292638D01*
X0153433Y0293637D02*
X0140233Y0293637D01*
X0140233Y0294635D02*
X0153433Y0294635D01*
X0153433Y0295634D02*
X0140233Y0295634D01*
X0140233Y0296632D02*
X0153433Y0296632D01*
X0153433Y0297631D02*
X0140233Y0297631D01*
X0140233Y0298629D02*
X0153433Y0298629D01*
X0153433Y0299628D02*
X0140233Y0299628D01*
X0140678Y0300626D02*
X0153433Y0300626D01*
X0153433Y0301625D02*
X0141677Y0301625D01*
X0142675Y0302623D02*
X0153433Y0302623D01*
X0157233Y0299885D02*
X0157747Y0299672D01*
X0158920Y0299672D01*
X0160004Y0300121D01*
X0160605Y0300722D01*
X0171433Y0300722D01*
X0171433Y0263841D01*
X0170388Y0263408D01*
X0168925Y0261946D01*
X0168333Y0260517D01*
X0167742Y0261946D01*
X0166279Y0263408D01*
X0164368Y0264200D01*
X0162299Y0264200D01*
X0161253Y0263767D01*
X0157233Y0267787D01*
X0157233Y0299885D01*
X0157233Y0299628D02*
X0171433Y0299628D01*
X0171433Y0300626D02*
X0160510Y0300626D01*
X0157233Y0298629D02*
X0171433Y0298629D01*
X0171433Y0297631D02*
X0157233Y0297631D01*
X0157233Y0296632D02*
X0171433Y0296632D01*
X0171433Y0295634D02*
X0157233Y0295634D01*
X0157233Y0294635D02*
X0171433Y0294635D01*
X0171433Y0293637D02*
X0157233Y0293637D01*
X0157233Y0292638D02*
X0171433Y0292638D01*
X0171433Y0291640D02*
X0157233Y0291640D01*
X0157233Y0290641D02*
X0171433Y0290641D01*
X0171433Y0289643D02*
X0157233Y0289643D01*
X0157233Y0288644D02*
X0171433Y0288644D01*
X0171433Y0287646D02*
X0157233Y0287646D01*
X0157233Y0286647D02*
X0171433Y0286647D01*
X0171433Y0285649D02*
X0157233Y0285649D01*
X0157233Y0284650D02*
X0171433Y0284650D01*
X0171433Y0283652D02*
X0157233Y0283652D01*
X0157233Y0282653D02*
X0171433Y0282653D01*
X0171433Y0281655D02*
X0157233Y0281655D01*
X0157233Y0280656D02*
X0171433Y0280656D01*
X0171433Y0279658D02*
X0157233Y0279658D01*
X0157233Y0278659D02*
X0171433Y0278659D01*
X0171433Y0277661D02*
X0157233Y0277661D01*
X0157233Y0276662D02*
X0171433Y0276662D01*
X0171433Y0275664D02*
X0157233Y0275664D01*
X0157233Y0274665D02*
X0171433Y0274665D01*
X0171433Y0273667D02*
X0157233Y0273667D01*
X0157233Y0272668D02*
X0171433Y0272668D01*
X0171433Y0271670D02*
X0157233Y0271670D01*
X0157233Y0270671D02*
X0171433Y0270671D01*
X0171433Y0269672D02*
X0157233Y0269672D01*
X0157233Y0268674D02*
X0171433Y0268674D01*
X0171433Y0267675D02*
X0157345Y0267675D01*
X0158343Y0266677D02*
X0171433Y0266677D01*
X0171433Y0265678D02*
X0159342Y0265678D01*
X0160340Y0264680D02*
X0171433Y0264680D01*
X0171047Y0263681D02*
X0165620Y0263681D01*
X0167004Y0262683D02*
X0169662Y0262683D01*
X0168817Y0261684D02*
X0167850Y0261684D01*
X0168263Y0260686D02*
X0168403Y0260686D01*
X0177004Y0262683D02*
X0179662Y0262683D01*
X0178817Y0261684D02*
X0177850Y0261684D01*
X0178263Y0260686D02*
X0178403Y0260686D01*
X0188533Y0258689D02*
X0214133Y0258689D01*
X0213350Y0257690D02*
X0188419Y0257690D01*
X0188006Y0256692D02*
X0213083Y0256692D01*
X0203274Y0249702D02*
X0133467Y0249702D01*
X0133004Y0250090D02*
X0133004Y0250090D01*
X0134657Y0248704D02*
X0201949Y0248704D01*
X0202328Y0249156D02*
X0202328Y0249156D01*
X0201111Y0247705D02*
X0135663Y0247705D01*
X0135490Y0248005D02*
X0135490Y0248005D01*
X0136239Y0246707D02*
X0200273Y0246707D01*
X0199893Y0245708D02*
X0136816Y0245708D01*
X0137112Y0245195D02*
X0137112Y0245195D01*
X0137197Y0244710D02*
X0199529Y0244710D01*
X0199166Y0243711D02*
X0137374Y0243711D01*
X0137550Y0242713D02*
X0199133Y0242713D01*
X0199133Y0241714D02*
X0137625Y0241714D01*
X0137675Y0242000D02*
X0137675Y0242000D01*
X0137449Y0240716D02*
X0199133Y0240716D01*
X0199374Y0239717D02*
X0137273Y0239717D01*
X0137112Y0238805D02*
X0137112Y0238805D01*
X0137062Y0238719D02*
X0199737Y0238719D01*
X0200101Y0237720D02*
X0136486Y0237720D01*
X0135909Y0236722D02*
X0200753Y0236722D01*
X0200243Y0237329D02*
X0200243Y0237329D01*
X0201591Y0235723D02*
X0135165Y0235723D01*
X0133975Y0234725D02*
X0202535Y0234725D01*
X0204264Y0233726D02*
X0132500Y0233726D01*
X0124167Y0233726D02*
X0120233Y0233726D01*
X0120233Y0234725D02*
X0122691Y0234725D01*
X0123662Y0233910D02*
X0123662Y0233910D01*
X0121501Y0235723D02*
X0120233Y0235723D01*
X0121177Y0235995D02*
X0121177Y0235995D01*
X0120758Y0236722D02*
X0120233Y0236722D01*
X0120233Y0224739D02*
X0162401Y0224739D01*
X0161654Y0223741D02*
X0120233Y0223741D01*
X0120233Y0222742D02*
X0161383Y0222742D01*
X0161453Y0221744D02*
X0120233Y0221744D01*
X0120233Y0220745D02*
X0161916Y0220745D01*
X0161583Y0219747D02*
X0120233Y0219747D01*
X0120233Y0218748D02*
X0161583Y0218748D01*
X0161583Y0217750D02*
X0120233Y0217750D01*
X0120233Y0216751D02*
X0161583Y0216751D01*
X0161583Y0215753D02*
X0120233Y0215753D01*
X0120233Y0214754D02*
X0161583Y0214754D01*
X0161706Y0213756D02*
X0120233Y0213756D01*
X0120233Y0212757D02*
X0166433Y0212757D01*
X0166433Y0211759D02*
X0120233Y0211759D01*
X0120233Y0210760D02*
X0167319Y0210760D01*
X0168318Y0209762D02*
X0120233Y0209762D01*
X0120233Y0208763D02*
X0169316Y0208763D01*
X0171695Y0211759D02*
X0216433Y0211759D01*
X0216433Y0212757D02*
X0170696Y0212757D01*
X0172693Y0210760D02*
X0216433Y0210760D01*
X0216433Y0209762D02*
X0173692Y0209762D01*
X0174961Y0213756D02*
X0216433Y0213756D01*
X0216433Y0214754D02*
X0175083Y0214754D01*
X0175083Y0215753D02*
X0216433Y0215753D01*
X0216433Y0216751D02*
X0175083Y0216751D01*
X0175083Y0217750D02*
X0216433Y0217750D01*
X0216433Y0218748D02*
X0175083Y0218748D01*
X0175083Y0219747D02*
X0216433Y0219747D01*
X0216433Y0220745D02*
X0174751Y0220745D01*
X0175213Y0221744D02*
X0216433Y0221744D01*
X0216433Y0222742D02*
X0175283Y0222742D01*
X0175012Y0223741D02*
X0216433Y0223741D01*
X0216433Y0224739D02*
X0174266Y0224739D01*
X0170401Y0224739D02*
X0166266Y0224739D01*
X0167012Y0223741D02*
X0169654Y0223741D01*
X0169383Y0222742D02*
X0167283Y0222742D01*
X0167213Y0221744D02*
X0169453Y0221744D01*
X0153433Y0200775D02*
X0142827Y0200775D01*
X0141829Y0199777D02*
X0153433Y0199777D01*
X0153433Y0198778D02*
X0140830Y0198778D01*
X0140233Y0197780D02*
X0153433Y0197780D01*
X0153433Y0196781D02*
X0140233Y0196781D01*
X0140233Y0195783D02*
X0153433Y0195783D01*
X0153433Y0194784D02*
X0140233Y0194784D01*
X0140233Y0193786D02*
X0153433Y0193786D01*
X0153433Y0192787D02*
X0140233Y0192787D01*
X0140233Y0191789D02*
X0153433Y0191789D01*
X0153433Y0190790D02*
X0140233Y0190790D01*
X0140233Y0189792D02*
X0153433Y0189792D01*
X0153433Y0188793D02*
X0140233Y0188793D01*
X0140233Y0187795D02*
X0153433Y0187795D01*
X0153433Y0186796D02*
X0140233Y0186796D01*
X0140233Y0185798D02*
X0153433Y0185798D01*
X0153433Y0184799D02*
X0140233Y0184799D01*
X0140233Y0183801D02*
X0153433Y0183801D01*
X0153433Y0182802D02*
X0140233Y0182802D01*
X0140233Y0181803D02*
X0153433Y0181803D01*
X0153433Y0180805D02*
X0140233Y0180805D01*
X0140233Y0179806D02*
X0153433Y0179806D01*
X0153433Y0178808D02*
X0140233Y0178808D01*
X0140233Y0177809D02*
X0153433Y0177809D01*
X0153433Y0176811D02*
X0140233Y0176811D01*
X0140233Y0175812D02*
X0153433Y0175812D01*
X0153433Y0174814D02*
X0140233Y0174814D01*
X0140233Y0173815D02*
X0153433Y0173815D01*
X0153433Y0172817D02*
X0140233Y0172817D01*
X0140233Y0171818D02*
X0153433Y0171818D01*
X0153433Y0170820D02*
X0140233Y0170820D01*
X0140233Y0169821D02*
X0153433Y0169821D01*
X0153433Y0168823D02*
X0140233Y0168823D01*
X0140233Y0167824D02*
X0153433Y0167824D01*
X0153433Y0166826D02*
X0140233Y0166826D01*
X0140233Y0165827D02*
X0153433Y0165827D01*
X0153433Y0164829D02*
X0140233Y0164829D01*
X0140675Y0163830D02*
X0153816Y0163830D01*
X0155286Y0161833D02*
X0155813Y0161833D01*
X0161187Y0161833D02*
X0161414Y0161833D01*
X0148201Y0157839D02*
X0135060Y0157839D01*
X0135997Y0134873D02*
X0200625Y0134873D01*
X0201463Y0133875D02*
X0135346Y0133875D01*
X0134156Y0132876D02*
X0202301Y0132876D01*
X0204001Y0131878D02*
X0132917Y0131878D01*
X0212665Y0131878D02*
X0216433Y0131878D01*
X0216433Y0132876D02*
X0214366Y0132876D01*
X0215204Y0133875D02*
X0216433Y0133875D01*
X0216433Y0134873D02*
X0216041Y0134873D01*
X0222233Y0134873D02*
X0222670Y0134873D01*
X0223177Y0133995D02*
X0223177Y0133995D01*
X0223320Y0133875D02*
X0222233Y0133875D01*
X0222233Y0132876D02*
X0224510Y0132876D01*
X0225662Y0131910D02*
X0225662Y0131910D01*
X0225750Y0131878D02*
X0222233Y0131878D01*
X0222233Y0130879D02*
X0228493Y0130879D01*
X0232174Y0130879D02*
X0309078Y0130879D01*
X0311589Y0130879D02*
X0318433Y0130879D01*
X0318433Y0129881D02*
X0222233Y0129881D01*
X0222233Y0128882D02*
X0318433Y0128882D01*
X0318433Y0127884D02*
X0222233Y0127884D01*
X0222233Y0126885D02*
X0318433Y0126885D01*
X0318433Y0125887D02*
X0222233Y0125887D01*
X0222233Y0124888D02*
X0318433Y0124888D01*
X0318433Y0123890D02*
X0222233Y0123890D01*
X0234917Y0131878D02*
X0306001Y0131878D01*
X0304301Y0132876D02*
X0236156Y0132876D01*
X0237346Y0133875D02*
X0303463Y0133875D01*
X0302625Y0134873D02*
X0237997Y0134873D01*
X0238573Y0135872D02*
X0302045Y0135872D01*
X0302243Y0135329D02*
X0302243Y0135329D01*
X0301682Y0136870D02*
X0239123Y0136870D01*
X0239112Y0136805D02*
X0239112Y0136805D01*
X0239299Y0137869D02*
X0301319Y0137869D01*
X0301133Y0138868D02*
X0239476Y0138868D01*
X0239652Y0139866D02*
X0301133Y0139866D01*
X0301133Y0140865D02*
X0239523Y0140865D01*
X0239675Y0140000D02*
X0239675Y0140000D01*
X0239347Y0141863D02*
X0301221Y0141863D01*
X0301584Y0142862D02*
X0239171Y0142862D01*
X0239112Y0143195D02*
X0239112Y0143195D01*
X0238728Y0143860D02*
X0301948Y0143860D01*
X0302400Y0144859D02*
X0238151Y0144859D01*
X0237575Y0145857D02*
X0303238Y0145857D01*
X0304076Y0146856D02*
X0236476Y0146856D01*
X0237490Y0146005D02*
X0237490Y0146005D01*
X0235286Y0147854D02*
X0305537Y0147854D01*
X0304328Y0147156D02*
X0304328Y0147156D01*
X0318424Y0135329D02*
X0318424Y0135329D01*
X0318433Y0134873D02*
X0318041Y0134873D01*
X0318433Y0133875D02*
X0317204Y0133875D01*
X0316366Y0132876D02*
X0318433Y0132876D01*
X0318433Y0131878D02*
X0314665Y0131878D01*
X0316338Y0132844D02*
X0316338Y0132844D01*
X0324233Y0132876D02*
X0326510Y0132876D01*
X0327662Y0131910D02*
X0327662Y0131910D01*
X0330711Y0130800D01*
X0333956Y0130800D01*
X0337004Y0131910D01*
X0337004Y0131910D01*
X0339490Y0133995D01*
X0339490Y0133995D01*
X0339490Y0133995D01*
X0341112Y0136805D01*
X0341675Y0140000D01*
X0341112Y0143195D01*
X0339490Y0146005D01*
X0337004Y0148090D01*
X0336978Y0148100D01*
X0407963Y0148100D01*
X0406328Y0147156D01*
X0404243Y0144671D01*
X0404243Y0144671D01*
X0403133Y0141622D01*
X0403133Y0138378D01*
X0404243Y0135329D01*
X0406328Y0132844D01*
X0406328Y0132844D01*
X0406328Y0132844D01*
X0409138Y0131221D01*
X0409138Y0131221D01*
X0412333Y0130658D01*
X0412333Y0130658D01*
X0415528Y0131221D01*
X0415528Y0131221D01*
X0418338Y0132844D01*
X0420424Y0135329D01*
X0420433Y0135356D01*
X0420433Y0055228D01*
X0420380Y0055250D01*
X0419286Y0055250D01*
X0418276Y0054831D01*
X0417502Y0054058D01*
X0417083Y0053047D01*
X0417083Y0051953D01*
X0417105Y0051900D01*
X0391587Y0051900D01*
X0391742Y0052054D01*
X0392533Y0053966D01*
X0392533Y0056034D01*
X0391742Y0057946D01*
X0390279Y0059408D01*
X0388368Y0060200D01*
X0386299Y0060200D01*
X0384388Y0059408D01*
X0382925Y0057946D01*
X0382333Y0056517D01*
X0381742Y0057946D01*
X0380279Y0059408D01*
X0379233Y0059841D01*
X0379233Y0096722D01*
X0381236Y0096722D01*
X0382214Y0095744D01*
X0383327Y0094631D01*
X0389383Y0094631D01*
X0389383Y0094413D01*
X0389832Y0093329D01*
X0390662Y0092499D01*
X0391747Y0092050D01*
X0392920Y0092050D01*
X0394004Y0092499D01*
X0394834Y0093329D01*
X0395283Y0094413D01*
X0395283Y0095587D01*
X0395058Y0096131D01*
X0395061Y0096131D01*
X0395662Y0095531D01*
X0396747Y0095081D01*
X0397920Y0095081D01*
X0399004Y0095531D01*
X0399834Y0096360D01*
X0400283Y0097445D01*
X0400283Y0098618D01*
X0399834Y0099703D01*
X0399004Y0100532D01*
X0397920Y0100981D01*
X0396747Y0100981D01*
X0395662Y0100532D01*
X0395061Y0099931D01*
X0385522Y0099931D01*
X0384338Y0101115D01*
X0384338Y0101965D01*
X0383889Y0103049D01*
X0383059Y0103879D01*
X0381975Y0104328D01*
X0381125Y0104328D01*
X0374329Y0111124D01*
X0374333Y0111129D01*
X0374462Y0111000D01*
X0378205Y0111000D01*
X0379083Y0111879D01*
X0379083Y0118121D01*
X0378605Y0118600D01*
X0378834Y0118829D01*
X0379283Y0119913D01*
X0379283Y0121087D01*
X0378834Y0122171D01*
X0378004Y0123001D01*
X0376920Y0123450D01*
X0375747Y0123450D01*
X0374662Y0123001D01*
X0373832Y0122171D01*
X0373383Y0121087D01*
X0373383Y0119913D01*
X0373762Y0119000D01*
X0370905Y0119000D01*
X0371283Y0119913D01*
X0371283Y0121087D01*
X0370834Y0122171D01*
X0370004Y0123001D01*
X0368920Y0123450D01*
X0367747Y0123450D01*
X0366662Y0123001D01*
X0365832Y0122171D01*
X0365383Y0121087D01*
X0365383Y0119913D01*
X0365832Y0118829D01*
X0366062Y0118600D01*
X0365583Y0118121D01*
X0365583Y0111879D01*
X0366462Y0111000D01*
X0370205Y0111000D01*
X0370333Y0111129D01*
X0370433Y0111029D01*
X0370433Y0109646D01*
X0376801Y0103278D01*
X0351742Y0103278D01*
X0351152Y0103868D01*
X0349605Y0103868D01*
X0349004Y0104469D01*
X0347920Y0104918D01*
X0346747Y0104918D01*
X0345662Y0104469D01*
X0344832Y0103640D01*
X0344383Y0102555D01*
X0344383Y0101705D01*
X0340433Y0097755D01*
X0340433Y0062272D01*
X0339832Y0061671D01*
X0339383Y0060587D01*
X0339383Y0059413D01*
X0339832Y0058329D01*
X0340662Y0057499D01*
X0341747Y0057050D01*
X0342920Y0057050D01*
X0344004Y0057499D01*
X0344834Y0058329D01*
X0345283Y0059413D01*
X0345283Y0060587D01*
X0344834Y0061671D01*
X0344233Y0062272D01*
X0344233Y0096181D01*
X0347070Y0099019D01*
X0347920Y0099019D01*
X0349004Y0099468D01*
X0349592Y0100055D01*
X0350168Y0099478D01*
X0357433Y0099478D01*
X0357433Y0062213D01*
X0358546Y0061100D01*
X0360571Y0059075D01*
X0360059Y0059447D01*
X0359329Y0059819D01*
X0358551Y0060072D01*
X0357833Y0060186D01*
X0357833Y0055500D01*
X0356833Y0055500D01*
X0356833Y0054500D01*
X0352148Y0054500D01*
X0352261Y0053782D01*
X0352514Y0053004D01*
X0352886Y0052275D01*
X0353158Y0051900D01*
X0339354Y0051900D01*
X0339634Y0053299D01*
X0338500Y0055000D01*
X0339634Y0056701D01*
X0339325Y0058244D01*
X0338016Y0059117D01*
X0336472Y0058809D01*
X0336217Y0058425D01*
X0335961Y0058809D01*
X0334418Y0059117D01*
X0333394Y0058435D01*
X0332602Y0059000D01*
X0330831Y0059000D01*
X0329390Y0057971D01*
X0329390Y0057971D01*
X0329343Y0057832D01*
X0328486Y0058518D01*
X0328004Y0059000D01*
X0327883Y0059000D01*
X0327789Y0059075D01*
X0327111Y0059000D01*
X0326430Y0059000D01*
X0326344Y0058915D01*
X0326225Y0058901D01*
X0325799Y0058369D01*
X0325317Y0057887D01*
X0325317Y0057766D01*
X0325241Y0057672D01*
X0325317Y0056995D01*
X0325317Y0054800D01*
X0325263Y0054800D01*
X0324233Y0053770D01*
X0324233Y0135630D01*
X0325177Y0133995D01*
X0327662Y0131910D01*
X0327750Y0131878D02*
X0324233Y0131878D01*
X0324233Y0130879D02*
X0330493Y0130879D01*
X0334174Y0130879D02*
X0411078Y0130879D01*
X0413589Y0130879D02*
X0420433Y0130879D01*
X0420433Y0129881D02*
X0324233Y0129881D01*
X0324233Y0128882D02*
X0420433Y0128882D01*
X0420433Y0127884D02*
X0324233Y0127884D01*
X0324233Y0126885D02*
X0420433Y0126885D01*
X0420433Y0125887D02*
X0324233Y0125887D01*
X0324233Y0124888D02*
X0420433Y0124888D01*
X0420433Y0123890D02*
X0324233Y0123890D01*
X0324233Y0122891D02*
X0366553Y0122891D01*
X0365717Y0121893D02*
X0324233Y0121893D01*
X0324233Y0120894D02*
X0365383Y0120894D01*
X0365391Y0119896D02*
X0324233Y0119896D01*
X0324233Y0118897D02*
X0365804Y0118897D01*
X0365583Y0117899D02*
X0324233Y0117899D01*
X0324233Y0116900D02*
X0365583Y0116900D01*
X0365583Y0115902D02*
X0324233Y0115902D01*
X0324233Y0114903D02*
X0365583Y0114903D01*
X0365583Y0113905D02*
X0324233Y0113905D01*
X0324233Y0112906D02*
X0365583Y0112906D01*
X0365583Y0111908D02*
X0324233Y0111908D01*
X0324233Y0110909D02*
X0370433Y0110909D01*
X0370433Y0109911D02*
X0324233Y0109911D01*
X0324233Y0108912D02*
X0371167Y0108912D01*
X0372166Y0107914D02*
X0324233Y0107914D01*
X0324233Y0106915D02*
X0373164Y0106915D01*
X0374163Y0105917D02*
X0324233Y0105917D01*
X0324233Y0104918D02*
X0346746Y0104918D01*
X0347921Y0104918D02*
X0375161Y0104918D01*
X0376160Y0103920D02*
X0349554Y0103920D01*
X0349462Y0099926D02*
X0349721Y0099926D01*
X0346979Y0098927D02*
X0357433Y0098927D01*
X0357433Y0097929D02*
X0345980Y0097929D01*
X0344982Y0096930D02*
X0357433Y0096930D01*
X0357433Y0095932D02*
X0344233Y0095932D01*
X0344233Y0094933D02*
X0357433Y0094933D01*
X0357433Y0093934D02*
X0344233Y0093934D01*
X0344233Y0092936D02*
X0357433Y0092936D01*
X0357433Y0091937D02*
X0344233Y0091937D01*
X0344233Y0090939D02*
X0357433Y0090939D01*
X0357433Y0089940D02*
X0344233Y0089940D01*
X0344233Y0088942D02*
X0357433Y0088942D01*
X0357433Y0087943D02*
X0344233Y0087943D01*
X0344233Y0086945D02*
X0357433Y0086945D01*
X0357433Y0085946D02*
X0344233Y0085946D01*
X0344233Y0084948D02*
X0357433Y0084948D01*
X0357433Y0083949D02*
X0344233Y0083949D01*
X0344233Y0082951D02*
X0357433Y0082951D01*
X0357433Y0081952D02*
X0344233Y0081952D01*
X0344233Y0080954D02*
X0357433Y0080954D01*
X0357433Y0079955D02*
X0344233Y0079955D01*
X0344233Y0078957D02*
X0357433Y0078957D01*
X0357433Y0077958D02*
X0344233Y0077958D01*
X0344233Y0076960D02*
X0357433Y0076960D01*
X0357433Y0075961D02*
X0344233Y0075961D01*
X0344233Y0074963D02*
X0357433Y0074963D01*
X0357433Y0073964D02*
X0344233Y0073964D01*
X0344233Y0072966D02*
X0357433Y0072966D01*
X0357433Y0071967D02*
X0344233Y0071967D01*
X0344233Y0070969D02*
X0357433Y0070969D01*
X0357433Y0069970D02*
X0344233Y0069970D01*
X0344233Y0068972D02*
X0357433Y0068972D01*
X0357433Y0067973D02*
X0344233Y0067973D01*
X0344233Y0066975D02*
X0357433Y0066975D01*
X0357433Y0065976D02*
X0344233Y0065976D01*
X0344233Y0064978D02*
X0357433Y0064978D01*
X0357433Y0063979D02*
X0344233Y0063979D01*
X0344233Y0062981D02*
X0357433Y0062981D01*
X0357664Y0061982D02*
X0344523Y0061982D01*
X0345119Y0060984D02*
X0358663Y0060984D01*
X0358818Y0059985D02*
X0359661Y0059985D01*
X0357833Y0059985D02*
X0356833Y0059985D01*
X0356833Y0060186D02*
X0356116Y0060072D01*
X0355337Y0059819D01*
X0354608Y0059447D01*
X0353946Y0058966D01*
X0353367Y0058388D01*
X0352886Y0057725D01*
X0352514Y0056996D01*
X0352261Y0056218D01*
X0352148Y0055500D01*
X0356833Y0055500D01*
X0356833Y0060186D01*
X0355848Y0059985D02*
X0345283Y0059985D01*
X0345107Y0058987D02*
X0353974Y0058987D01*
X0353077Y0057988D02*
X0344493Y0057988D01*
X0340173Y0057988D02*
X0339377Y0057988D01*
X0339560Y0058987D02*
X0338212Y0058987D01*
X0337362Y0058987D02*
X0335072Y0058987D01*
X0334221Y0058987D02*
X0332621Y0058987D01*
X0330831Y0059000D02*
X0330831Y0059000D01*
X0330812Y0058987D02*
X0328017Y0058987D01*
X0329148Y0057988D02*
X0329414Y0057988D01*
X0326416Y0058987D02*
X0324233Y0058987D01*
X0324233Y0059985D02*
X0339383Y0059985D01*
X0339548Y0060984D02*
X0324233Y0060984D01*
X0324233Y0061982D02*
X0340144Y0061982D01*
X0340433Y0062981D02*
X0324233Y0062981D01*
X0324233Y0063979D02*
X0340433Y0063979D01*
X0340433Y0064978D02*
X0324233Y0064978D01*
X0324233Y0065976D02*
X0340433Y0065976D01*
X0340433Y0066975D02*
X0324233Y0066975D01*
X0324233Y0067973D02*
X0340433Y0067973D01*
X0340433Y0068972D02*
X0324233Y0068972D01*
X0324233Y0069970D02*
X0340433Y0069970D01*
X0340433Y0070969D02*
X0324233Y0070969D01*
X0324233Y0071967D02*
X0340433Y0071967D01*
X0340433Y0072966D02*
X0324233Y0072966D01*
X0324233Y0073964D02*
X0340433Y0073964D01*
X0340433Y0074963D02*
X0324233Y0074963D01*
X0324233Y0075961D02*
X0340433Y0075961D01*
X0340433Y0076960D02*
X0324233Y0076960D01*
X0324233Y0077958D02*
X0340433Y0077958D01*
X0340433Y0078957D02*
X0324233Y0078957D01*
X0324233Y0079955D02*
X0340433Y0079955D01*
X0340433Y0080954D02*
X0324233Y0080954D01*
X0324233Y0081952D02*
X0340433Y0081952D01*
X0340433Y0082951D02*
X0324233Y0082951D01*
X0324233Y0083949D02*
X0340433Y0083949D01*
X0340433Y0084948D02*
X0324233Y0084948D01*
X0324233Y0085946D02*
X0340433Y0085946D01*
X0340433Y0086945D02*
X0324233Y0086945D01*
X0324233Y0087943D02*
X0340433Y0087943D01*
X0340433Y0088942D02*
X0324233Y0088942D01*
X0324233Y0089940D02*
X0340433Y0089940D01*
X0340433Y0090939D02*
X0324233Y0090939D01*
X0324233Y0091937D02*
X0340433Y0091937D01*
X0340433Y0092936D02*
X0324233Y0092936D01*
X0324233Y0093934D02*
X0340433Y0093934D01*
X0340433Y0094933D02*
X0324233Y0094933D01*
X0324233Y0095932D02*
X0340433Y0095932D01*
X0340433Y0096930D02*
X0324233Y0096930D01*
X0324233Y0097929D02*
X0340606Y0097929D01*
X0341605Y0098927D02*
X0324233Y0098927D01*
X0324233Y0099926D02*
X0342603Y0099926D01*
X0343602Y0100924D02*
X0324233Y0100924D01*
X0324233Y0101923D02*
X0344383Y0101923D01*
X0344535Y0102921D02*
X0324233Y0102921D01*
X0324233Y0103920D02*
X0345113Y0103920D01*
X0361233Y0095885D02*
X0361747Y0095672D01*
X0362920Y0095672D01*
X0364004Y0096121D01*
X0364605Y0096722D01*
X0375433Y0096722D01*
X0375433Y0059841D01*
X0374388Y0059408D01*
X0372925Y0057946D01*
X0372333Y0056517D01*
X0371742Y0057946D01*
X0370279Y0059408D01*
X0368368Y0060200D01*
X0366299Y0060200D01*
X0365253Y0059767D01*
X0361233Y0063787D01*
X0361233Y0095885D01*
X0361233Y0094933D02*
X0375433Y0094933D01*
X0375433Y0093934D02*
X0361233Y0093934D01*
X0361233Y0092936D02*
X0375433Y0092936D01*
X0375433Y0091937D02*
X0361233Y0091937D01*
X0361233Y0090939D02*
X0375433Y0090939D01*
X0375433Y0089940D02*
X0361233Y0089940D01*
X0361233Y0088942D02*
X0375433Y0088942D01*
X0375433Y0087943D02*
X0361233Y0087943D01*
X0361233Y0086945D02*
X0375433Y0086945D01*
X0375433Y0085946D02*
X0361233Y0085946D01*
X0361233Y0084948D02*
X0375433Y0084948D01*
X0375433Y0083949D02*
X0361233Y0083949D01*
X0361233Y0082951D02*
X0375433Y0082951D01*
X0375433Y0081952D02*
X0361233Y0081952D01*
X0361233Y0080954D02*
X0375433Y0080954D01*
X0375433Y0079955D02*
X0361233Y0079955D01*
X0361233Y0078957D02*
X0375433Y0078957D01*
X0375433Y0077958D02*
X0361233Y0077958D01*
X0361233Y0076960D02*
X0375433Y0076960D01*
X0375433Y0075961D02*
X0361233Y0075961D01*
X0361233Y0074963D02*
X0375433Y0074963D01*
X0375433Y0073964D02*
X0361233Y0073964D01*
X0361233Y0072966D02*
X0375433Y0072966D01*
X0375433Y0071967D02*
X0361233Y0071967D01*
X0361233Y0070969D02*
X0375433Y0070969D01*
X0375433Y0069970D02*
X0361233Y0069970D01*
X0361233Y0068972D02*
X0375433Y0068972D01*
X0375433Y0067973D02*
X0361233Y0067973D01*
X0361233Y0066975D02*
X0375433Y0066975D01*
X0375433Y0065976D02*
X0361233Y0065976D01*
X0361233Y0064978D02*
X0375433Y0064978D01*
X0375433Y0063979D02*
X0361233Y0063979D01*
X0362040Y0062981D02*
X0375433Y0062981D01*
X0375433Y0061982D02*
X0363038Y0061982D01*
X0364037Y0060984D02*
X0375433Y0060984D01*
X0375433Y0059985D02*
X0368886Y0059985D01*
X0370701Y0058987D02*
X0373966Y0058987D01*
X0372968Y0057988D02*
X0371699Y0057988D01*
X0372138Y0056990D02*
X0372529Y0056990D01*
X0379233Y0059985D02*
X0385780Y0059985D01*
X0383966Y0058987D02*
X0380701Y0058987D01*
X0381699Y0057988D02*
X0382968Y0057988D01*
X0382529Y0056990D02*
X0382138Y0056990D01*
X0379233Y0060984D02*
X0420433Y0060984D01*
X0420433Y0061982D02*
X0379233Y0061982D01*
X0379233Y0062981D02*
X0420433Y0062981D01*
X0420433Y0063979D02*
X0379233Y0063979D01*
X0379233Y0064978D02*
X0420433Y0064978D01*
X0420433Y0065976D02*
X0379233Y0065976D01*
X0379233Y0066975D02*
X0420433Y0066975D01*
X0420433Y0067973D02*
X0379233Y0067973D01*
X0379233Y0068972D02*
X0420433Y0068972D01*
X0420433Y0069970D02*
X0379233Y0069970D01*
X0379233Y0070969D02*
X0420433Y0070969D01*
X0420433Y0071967D02*
X0379233Y0071967D01*
X0379233Y0072966D02*
X0420433Y0072966D01*
X0420433Y0073964D02*
X0379233Y0073964D01*
X0379233Y0074963D02*
X0420433Y0074963D01*
X0420433Y0075961D02*
X0379233Y0075961D01*
X0379233Y0076960D02*
X0420433Y0076960D01*
X0420433Y0077958D02*
X0379233Y0077958D01*
X0379233Y0078957D02*
X0420433Y0078957D01*
X0420433Y0079955D02*
X0379233Y0079955D01*
X0379233Y0080954D02*
X0420433Y0080954D01*
X0420433Y0081952D02*
X0379233Y0081952D01*
X0379233Y0082951D02*
X0420433Y0082951D01*
X0420433Y0083949D02*
X0379233Y0083949D01*
X0379233Y0084948D02*
X0420433Y0084948D01*
X0420433Y0085946D02*
X0379233Y0085946D01*
X0379233Y0086945D02*
X0420433Y0086945D01*
X0420433Y0087943D02*
X0379233Y0087943D01*
X0379233Y0088942D02*
X0420433Y0088942D01*
X0420433Y0089940D02*
X0379233Y0089940D01*
X0379233Y0090939D02*
X0420433Y0090939D01*
X0420433Y0091937D02*
X0379233Y0091937D01*
X0379233Y0092936D02*
X0390225Y0092936D01*
X0389582Y0093934D02*
X0379233Y0093934D01*
X0379233Y0094933D02*
X0383025Y0094933D01*
X0382027Y0095932D02*
X0379233Y0095932D01*
X0375433Y0095932D02*
X0363547Y0095932D01*
X0376541Y0108912D02*
X0420433Y0108912D01*
X0420433Y0107914D02*
X0377540Y0107914D01*
X0378538Y0106915D02*
X0420433Y0106915D01*
X0420433Y0105917D02*
X0379537Y0105917D01*
X0380535Y0104918D02*
X0420433Y0104918D01*
X0420433Y0103920D02*
X0382961Y0103920D01*
X0383942Y0102921D02*
X0420433Y0102921D01*
X0420433Y0101923D02*
X0384338Y0101923D01*
X0384529Y0100924D02*
X0396608Y0100924D01*
X0398059Y0100924D02*
X0420433Y0100924D01*
X0420433Y0099926D02*
X0399611Y0099926D01*
X0400155Y0098927D02*
X0420433Y0098927D01*
X0420433Y0097929D02*
X0400283Y0097929D01*
X0400070Y0096930D02*
X0420433Y0096930D01*
X0420433Y0095932D02*
X0399405Y0095932D01*
X0395261Y0095932D02*
X0395141Y0095932D01*
X0395283Y0094933D02*
X0420433Y0094933D01*
X0420433Y0093934D02*
X0395085Y0093934D01*
X0394441Y0092936D02*
X0420433Y0092936D01*
X0420433Y0109911D02*
X0375543Y0109911D01*
X0374544Y0110909D02*
X0420433Y0110909D01*
X0420433Y0111908D02*
X0379083Y0111908D01*
X0379083Y0112906D02*
X0420433Y0112906D01*
X0420433Y0113905D02*
X0379083Y0113905D01*
X0379083Y0114903D02*
X0420433Y0114903D01*
X0420433Y0115902D02*
X0379083Y0115902D01*
X0379083Y0116900D02*
X0420433Y0116900D01*
X0420433Y0117899D02*
X0379083Y0117899D01*
X0378862Y0118897D02*
X0420433Y0118897D01*
X0420433Y0119896D02*
X0379276Y0119896D01*
X0379283Y0120894D02*
X0420433Y0120894D01*
X0420433Y0121893D02*
X0378949Y0121893D01*
X0378114Y0122891D02*
X0420433Y0122891D01*
X0420433Y0131878D02*
X0416665Y0131878D01*
X0418338Y0132844D02*
X0418338Y0132844D01*
X0418366Y0132876D02*
X0420433Y0132876D01*
X0420433Y0133875D02*
X0419204Y0133875D01*
X0420041Y0134873D02*
X0420433Y0134873D01*
X0420424Y0135329D02*
X0420424Y0135329D01*
X0408001Y0131878D02*
X0336917Y0131878D01*
X0338156Y0132876D02*
X0406301Y0132876D01*
X0405463Y0133875D02*
X0339346Y0133875D01*
X0339997Y0134873D02*
X0404625Y0134873D01*
X0404243Y0135329D02*
X0404243Y0135329D01*
X0404045Y0135872D02*
X0340573Y0135872D01*
X0341112Y0136805D02*
X0341112Y0136805D01*
X0341123Y0136870D02*
X0403682Y0136870D01*
X0403319Y0137869D02*
X0341299Y0137869D01*
X0341476Y0138868D02*
X0403133Y0138868D01*
X0403133Y0139866D02*
X0341652Y0139866D01*
X0341675Y0140000D02*
X0341675Y0140000D01*
X0341523Y0140865D02*
X0403133Y0140865D01*
X0403221Y0141863D02*
X0341347Y0141863D01*
X0341171Y0142862D02*
X0403584Y0142862D01*
X0403948Y0143860D02*
X0340728Y0143860D01*
X0341112Y0143195D02*
X0341112Y0143195D01*
X0340151Y0144859D02*
X0404400Y0144859D01*
X0405238Y0145857D02*
X0339575Y0145857D01*
X0339490Y0146005D02*
X0339490Y0146005D01*
X0338476Y0146856D02*
X0406076Y0146856D01*
X0406328Y0147156D02*
X0406328Y0147156D01*
X0407537Y0147854D02*
X0337286Y0147854D01*
X0337004Y0148090D02*
X0337004Y0148090D01*
X0324670Y0134873D02*
X0324233Y0134873D01*
X0324233Y0133875D02*
X0325320Y0133875D01*
X0325177Y0133995D02*
X0325177Y0133995D01*
X0365187Y0161833D02*
X0365414Y0161833D01*
X0389253Y0161833D02*
X0420433Y0161833D01*
X0420433Y0160835D02*
X0390852Y0160835D01*
X0391787Y0159836D02*
X0420433Y0159836D01*
X0420433Y0158838D02*
X0392201Y0158838D01*
X0392533Y0157839D02*
X0420433Y0157839D01*
X0418298Y0156841D02*
X0392533Y0156841D01*
X0392482Y0155842D02*
X0417413Y0155842D01*
X0417083Y0154844D02*
X0392069Y0154844D01*
X0374553Y0122891D02*
X0370114Y0122891D01*
X0370949Y0121893D02*
X0373717Y0121893D01*
X0373383Y0120894D02*
X0371283Y0120894D01*
X0371276Y0119896D02*
X0373391Y0119896D01*
X0365780Y0059985D02*
X0365035Y0059985D01*
X0357833Y0058987D02*
X0356833Y0058987D01*
X0356833Y0057988D02*
X0357833Y0057988D01*
X0357833Y0056990D02*
X0356833Y0056990D01*
X0356833Y0055991D02*
X0357833Y0055991D01*
X0356833Y0054993D02*
X0338505Y0054993D01*
X0339161Y0055991D02*
X0352225Y0055991D01*
X0352512Y0056990D02*
X0339576Y0056990D01*
X0339171Y0053994D02*
X0352228Y0053994D01*
X0352519Y0052996D02*
X0339573Y0052996D01*
X0339374Y0051997D02*
X0353088Y0051997D01*
X0325317Y0054993D02*
X0324233Y0054993D01*
X0324233Y0055991D02*
X0325317Y0055991D01*
X0325317Y0056990D02*
X0324233Y0056990D01*
X0324233Y0057988D02*
X0325418Y0057988D01*
X0324457Y0053994D02*
X0324233Y0053994D01*
X0388886Y0059985D02*
X0420433Y0059985D01*
X0420433Y0058987D02*
X0390701Y0058987D01*
X0391699Y0057988D02*
X0420433Y0057988D01*
X0420433Y0056990D02*
X0392138Y0056990D01*
X0392533Y0055991D02*
X0420433Y0055991D01*
X0418665Y0054993D02*
X0392533Y0054993D01*
X0392533Y0053994D02*
X0417476Y0053994D01*
X0417083Y0052996D02*
X0392131Y0052996D01*
X0391684Y0051997D02*
X0417083Y0051997D01*
X0263414Y0161833D02*
X0263187Y0161833D01*
X0235004Y0148090D02*
X0235004Y0148090D01*
X0222233Y0207765D02*
X0272315Y0207765D01*
X0271316Y0208763D02*
X0222233Y0208763D01*
X0222233Y0209762D02*
X0270318Y0209762D01*
X0269319Y0210760D02*
X0222233Y0210760D01*
X0222233Y0211759D02*
X0268433Y0211759D01*
X0268433Y0212757D02*
X0222233Y0212757D01*
X0231956Y0232800D02*
X0231956Y0232800D01*
X0272696Y0212757D02*
X0318433Y0212757D01*
X0318433Y0211759D02*
X0273695Y0211759D01*
X0277213Y0221744D02*
X0318433Y0221744D01*
X0318433Y0222742D02*
X0277283Y0222742D01*
X0277012Y0223741D02*
X0318433Y0223741D01*
X0318433Y0224739D02*
X0276266Y0224739D01*
X0290006Y0256692D02*
X0315083Y0256692D01*
X0315350Y0257690D02*
X0290419Y0257690D01*
X0290533Y0258689D02*
X0316133Y0258689D01*
X0318433Y0259687D02*
X0290533Y0259687D01*
X0290263Y0260686D02*
X0318433Y0260686D01*
X0318433Y0261684D02*
X0289850Y0261684D01*
X0289004Y0262683D02*
X0318433Y0262683D01*
X0318433Y0263681D02*
X0287620Y0263681D01*
X0324233Y0263681D02*
X0339383Y0263681D01*
X0339383Y0263413D02*
X0339832Y0262329D01*
X0340662Y0261499D01*
X0341747Y0261050D01*
X0342920Y0261050D01*
X0344004Y0261499D01*
X0344834Y0262329D01*
X0345283Y0263413D01*
X0345283Y0264587D01*
X0344834Y0265671D01*
X0344233Y0266272D01*
X0344233Y0300181D01*
X0347070Y0303019D01*
X0347920Y0303019D01*
X0349004Y0303468D01*
X0349592Y0304055D01*
X0350168Y0303478D01*
X0357433Y0303478D01*
X0357433Y0266213D01*
X0358546Y0265100D01*
X0360571Y0263075D01*
X0360059Y0263447D01*
X0359329Y0263819D01*
X0358551Y0264072D01*
X0357833Y0264186D01*
X0357833Y0259500D01*
X0356833Y0259500D01*
X0356833Y0258500D01*
X0352148Y0258500D01*
X0352261Y0257782D01*
X0352514Y0257004D01*
X0352886Y0256275D01*
X0353158Y0255900D01*
X0339354Y0255900D01*
X0339634Y0257299D01*
X0338500Y0259000D01*
X0339634Y0260701D01*
X0339325Y0262244D01*
X0338016Y0263117D01*
X0336472Y0262809D01*
X0336217Y0262425D01*
X0335961Y0262809D01*
X0334418Y0263117D01*
X0333394Y0262435D01*
X0332602Y0263000D01*
X0330831Y0263000D01*
X0329390Y0261971D01*
X0329390Y0261971D01*
X0329390Y0261971D01*
X0329343Y0261832D01*
X0328486Y0262518D01*
X0328004Y0263000D01*
X0327883Y0263000D01*
X0327789Y0263075D01*
X0327111Y0263000D01*
X0326430Y0263000D01*
X0326344Y0262915D01*
X0326225Y0262901D01*
X0325799Y0262369D01*
X0325317Y0261887D01*
X0325317Y0261766D01*
X0325241Y0261672D01*
X0325317Y0260995D01*
X0325317Y0258800D01*
X0325263Y0258800D01*
X0324233Y0257770D01*
X0324233Y0339630D01*
X0325177Y0337995D01*
X0327662Y0335910D01*
X0330711Y0334800D01*
X0331546Y0334800D01*
X0333956Y0334800D01*
X0337004Y0335910D01*
X0337004Y0335910D01*
X0339490Y0337995D01*
X0339490Y0337995D01*
X0339490Y0337995D01*
X0341112Y0340805D01*
X0341675Y0344000D01*
X0341112Y0347195D01*
X0339490Y0350005D01*
X0337004Y0352090D01*
X0336978Y0352100D01*
X0407963Y0352100D01*
X0406328Y0351156D01*
X0404243Y0348671D01*
X0404243Y0348671D01*
X0403133Y0345622D01*
X0403133Y0342378D01*
X0404243Y0339329D01*
X0406328Y0336844D01*
X0406328Y0336844D01*
X0406328Y0336844D01*
X0409138Y0335221D01*
X0412333Y0334658D01*
X0415528Y0335221D01*
X0418338Y0336844D01*
X0420424Y0339329D01*
X0420433Y0339356D01*
X0420433Y0259228D01*
X0420380Y0259250D01*
X0419286Y0259250D01*
X0418276Y0258831D01*
X0417502Y0258058D01*
X0417083Y0257047D01*
X0417083Y0255953D01*
X0417105Y0255900D01*
X0391587Y0255900D01*
X0391742Y0256054D01*
X0392533Y0257966D01*
X0392533Y0260034D01*
X0391742Y0261946D01*
X0390279Y0263408D01*
X0388368Y0264200D01*
X0386299Y0264200D01*
X0384388Y0263408D01*
X0382925Y0261946D01*
X0382333Y0260517D01*
X0381742Y0261946D01*
X0380279Y0263408D01*
X0379233Y0263841D01*
X0379233Y0300722D01*
X0381236Y0300722D01*
X0382214Y0299744D01*
X0383327Y0298631D01*
X0389383Y0298631D01*
X0389383Y0298413D01*
X0389832Y0297329D01*
X0390662Y0296499D01*
X0391747Y0296050D01*
X0392920Y0296050D01*
X0394004Y0296499D01*
X0394834Y0297329D01*
X0395283Y0298413D01*
X0395283Y0299587D01*
X0395058Y0300131D01*
X0395061Y0300131D01*
X0395662Y0299531D01*
X0396747Y0299081D01*
X0397920Y0299081D01*
X0399004Y0299531D01*
X0399834Y0300360D01*
X0400283Y0301445D01*
X0400283Y0302618D01*
X0399834Y0303703D01*
X0399004Y0304532D01*
X0397920Y0304981D01*
X0396747Y0304981D01*
X0395662Y0304532D01*
X0395061Y0303931D01*
X0385522Y0303931D01*
X0384338Y0305115D01*
X0384338Y0305965D01*
X0383889Y0307049D01*
X0383059Y0307879D01*
X0381975Y0308328D01*
X0381125Y0308328D01*
X0374329Y0315124D01*
X0374333Y0315129D01*
X0374462Y0315000D01*
X0378205Y0315000D01*
X0379083Y0315879D01*
X0379083Y0322121D01*
X0378605Y0322600D01*
X0378834Y0322829D01*
X0379283Y0323913D01*
X0379283Y0325087D01*
X0378834Y0326171D01*
X0378004Y0327001D01*
X0376920Y0327450D01*
X0375747Y0327450D01*
X0374662Y0327001D01*
X0373832Y0326171D01*
X0373383Y0325087D01*
X0373383Y0323913D01*
X0373762Y0323000D01*
X0370905Y0323000D01*
X0371283Y0323913D01*
X0371283Y0325087D01*
X0370834Y0326171D01*
X0370004Y0327001D01*
X0368920Y0327450D01*
X0367747Y0327450D01*
X0366662Y0327001D01*
X0365832Y0326171D01*
X0365383Y0325087D01*
X0365383Y0323913D01*
X0365832Y0322829D01*
X0366062Y0322600D01*
X0365583Y0322121D01*
X0365583Y0315879D01*
X0366462Y0315000D01*
X0370205Y0315000D01*
X0370333Y0315129D01*
X0370433Y0315029D01*
X0370433Y0313646D01*
X0371546Y0312533D01*
X0371546Y0312533D01*
X0376801Y0307278D01*
X0351742Y0307278D01*
X0351152Y0307868D01*
X0349605Y0307868D01*
X0349004Y0308469D01*
X0347920Y0308918D01*
X0346747Y0308918D01*
X0345662Y0308469D01*
X0344832Y0307640D01*
X0344383Y0306555D01*
X0344383Y0305705D01*
X0340433Y0301755D01*
X0340433Y0266272D01*
X0339832Y0265671D01*
X0339383Y0264587D01*
X0339383Y0263413D01*
X0339686Y0262683D02*
X0338668Y0262683D01*
X0339437Y0261684D02*
X0340477Y0261684D01*
X0339624Y0260686D02*
X0352414Y0260686D01*
X0352514Y0260996D02*
X0352261Y0260218D01*
X0352148Y0259500D01*
X0356833Y0259500D01*
X0356833Y0264186D01*
X0356116Y0264072D01*
X0355337Y0263819D01*
X0354608Y0263447D01*
X0353946Y0262966D01*
X0353367Y0262388D01*
X0352886Y0261725D01*
X0352514Y0260996D01*
X0352865Y0261684D02*
X0344190Y0261684D01*
X0344981Y0262683D02*
X0353662Y0262683D01*
X0355067Y0263681D02*
X0345283Y0263681D01*
X0345245Y0264680D02*
X0358966Y0264680D01*
X0359599Y0263681D02*
X0359965Y0263681D01*
X0357833Y0263681D02*
X0356833Y0263681D01*
X0356833Y0262683D02*
X0357833Y0262683D01*
X0357833Y0261684D02*
X0356833Y0261684D01*
X0356833Y0260686D02*
X0357833Y0260686D01*
X0357833Y0259687D02*
X0356833Y0259687D01*
X0356833Y0258689D02*
X0338708Y0258689D01*
X0338958Y0259687D02*
X0352177Y0259687D01*
X0352291Y0257690D02*
X0339373Y0257690D01*
X0339513Y0256692D02*
X0352673Y0256692D01*
X0357968Y0265678D02*
X0344827Y0265678D01*
X0344233Y0266677D02*
X0357433Y0266677D01*
X0357433Y0267675D02*
X0344233Y0267675D01*
X0344233Y0268674D02*
X0357433Y0268674D01*
X0357433Y0269672D02*
X0344233Y0269672D01*
X0344233Y0270671D02*
X0357433Y0270671D01*
X0357433Y0271670D02*
X0344233Y0271670D01*
X0344233Y0272668D02*
X0357433Y0272668D01*
X0357433Y0273667D02*
X0344233Y0273667D01*
X0344233Y0274665D02*
X0357433Y0274665D01*
X0357433Y0275664D02*
X0344233Y0275664D01*
X0344233Y0276662D02*
X0357433Y0276662D01*
X0357433Y0277661D02*
X0344233Y0277661D01*
X0344233Y0278659D02*
X0357433Y0278659D01*
X0357433Y0279658D02*
X0344233Y0279658D01*
X0344233Y0280656D02*
X0357433Y0280656D01*
X0357433Y0281655D02*
X0344233Y0281655D01*
X0344233Y0282653D02*
X0357433Y0282653D01*
X0357433Y0283652D02*
X0344233Y0283652D01*
X0344233Y0284650D02*
X0357433Y0284650D01*
X0357433Y0285649D02*
X0344233Y0285649D01*
X0344233Y0286647D02*
X0357433Y0286647D01*
X0357433Y0287646D02*
X0344233Y0287646D01*
X0344233Y0288644D02*
X0357433Y0288644D01*
X0357433Y0289643D02*
X0344233Y0289643D01*
X0344233Y0290641D02*
X0357433Y0290641D01*
X0357433Y0291640D02*
X0344233Y0291640D01*
X0344233Y0292638D02*
X0357433Y0292638D01*
X0357433Y0293637D02*
X0344233Y0293637D01*
X0344233Y0294635D02*
X0357433Y0294635D01*
X0357433Y0295634D02*
X0344233Y0295634D01*
X0344233Y0296632D02*
X0357433Y0296632D01*
X0357433Y0297631D02*
X0344233Y0297631D01*
X0344233Y0298629D02*
X0357433Y0298629D01*
X0357433Y0299628D02*
X0344233Y0299628D01*
X0344678Y0300626D02*
X0357433Y0300626D01*
X0357433Y0301625D02*
X0345677Y0301625D01*
X0346675Y0302623D02*
X0357433Y0302623D01*
X0361233Y0299885D02*
X0361747Y0299672D01*
X0362920Y0299672D01*
X0364004Y0300121D01*
X0364605Y0300722D01*
X0375433Y0300722D01*
X0375433Y0263841D01*
X0374388Y0263408D01*
X0372925Y0261946D01*
X0372333Y0260517D01*
X0371742Y0261946D01*
X0370279Y0263408D01*
X0368368Y0264200D01*
X0366299Y0264200D01*
X0365253Y0263767D01*
X0361233Y0267787D01*
X0361233Y0299885D01*
X0361233Y0299628D02*
X0375433Y0299628D01*
X0375433Y0300626D02*
X0364510Y0300626D01*
X0361233Y0298629D02*
X0375433Y0298629D01*
X0375433Y0297631D02*
X0361233Y0297631D01*
X0361233Y0296632D02*
X0375433Y0296632D01*
X0375433Y0295634D02*
X0361233Y0295634D01*
X0361233Y0294635D02*
X0375433Y0294635D01*
X0375433Y0293637D02*
X0361233Y0293637D01*
X0361233Y0292638D02*
X0375433Y0292638D01*
X0375433Y0291640D02*
X0361233Y0291640D01*
X0361233Y0290641D02*
X0375433Y0290641D01*
X0375433Y0289643D02*
X0361233Y0289643D01*
X0361233Y0288644D02*
X0375433Y0288644D01*
X0375433Y0287646D02*
X0361233Y0287646D01*
X0361233Y0286647D02*
X0375433Y0286647D01*
X0375433Y0285649D02*
X0361233Y0285649D01*
X0361233Y0284650D02*
X0375433Y0284650D01*
X0375433Y0283652D02*
X0361233Y0283652D01*
X0361233Y0282653D02*
X0375433Y0282653D01*
X0375433Y0281655D02*
X0361233Y0281655D01*
X0361233Y0280656D02*
X0375433Y0280656D01*
X0375433Y0279658D02*
X0361233Y0279658D01*
X0361233Y0278659D02*
X0375433Y0278659D01*
X0375433Y0277661D02*
X0361233Y0277661D01*
X0361233Y0276662D02*
X0375433Y0276662D01*
X0375433Y0275664D02*
X0361233Y0275664D01*
X0361233Y0274665D02*
X0375433Y0274665D01*
X0375433Y0273667D02*
X0361233Y0273667D01*
X0361233Y0272668D02*
X0375433Y0272668D01*
X0375433Y0271670D02*
X0361233Y0271670D01*
X0361233Y0270671D02*
X0375433Y0270671D01*
X0375433Y0269672D02*
X0361233Y0269672D01*
X0361233Y0268674D02*
X0375433Y0268674D01*
X0375433Y0267675D02*
X0361345Y0267675D01*
X0362343Y0266677D02*
X0375433Y0266677D01*
X0375433Y0265678D02*
X0363342Y0265678D01*
X0364340Y0264680D02*
X0375433Y0264680D01*
X0375047Y0263681D02*
X0369620Y0263681D01*
X0371004Y0262683D02*
X0373662Y0262683D01*
X0372817Y0261684D02*
X0371850Y0261684D01*
X0372263Y0260686D02*
X0372403Y0260686D01*
X0379620Y0263681D02*
X0385047Y0263681D01*
X0383662Y0262683D02*
X0381004Y0262683D01*
X0381850Y0261684D02*
X0382817Y0261684D01*
X0382403Y0260686D02*
X0382263Y0260686D01*
X0379233Y0264680D02*
X0420433Y0264680D01*
X0420433Y0265678D02*
X0379233Y0265678D01*
X0379233Y0266677D02*
X0420433Y0266677D01*
X0420433Y0267675D02*
X0379233Y0267675D01*
X0379233Y0268674D02*
X0420433Y0268674D01*
X0420433Y0269672D02*
X0379233Y0269672D01*
X0379233Y0270671D02*
X0420433Y0270671D01*
X0420433Y0271670D02*
X0379233Y0271670D01*
X0379233Y0272668D02*
X0420433Y0272668D01*
X0420433Y0273667D02*
X0379233Y0273667D01*
X0379233Y0274665D02*
X0420433Y0274665D01*
X0420433Y0275664D02*
X0379233Y0275664D01*
X0379233Y0276662D02*
X0420433Y0276662D01*
X0420433Y0277661D02*
X0379233Y0277661D01*
X0379233Y0278659D02*
X0420433Y0278659D01*
X0420433Y0279658D02*
X0379233Y0279658D01*
X0379233Y0280656D02*
X0420433Y0280656D01*
X0420433Y0281655D02*
X0379233Y0281655D01*
X0379233Y0282653D02*
X0420433Y0282653D01*
X0420433Y0283652D02*
X0379233Y0283652D01*
X0379233Y0284650D02*
X0420433Y0284650D01*
X0420433Y0285649D02*
X0379233Y0285649D01*
X0379233Y0286647D02*
X0420433Y0286647D01*
X0420433Y0287646D02*
X0379233Y0287646D01*
X0379233Y0288644D02*
X0420433Y0288644D01*
X0420433Y0289643D02*
X0379233Y0289643D01*
X0379233Y0290641D02*
X0420433Y0290641D01*
X0420433Y0291640D02*
X0379233Y0291640D01*
X0379233Y0292638D02*
X0420433Y0292638D01*
X0420433Y0293637D02*
X0379233Y0293637D01*
X0379233Y0294635D02*
X0420433Y0294635D01*
X0420433Y0295634D02*
X0379233Y0295634D01*
X0379233Y0296632D02*
X0390529Y0296632D01*
X0389707Y0297631D02*
X0379233Y0297631D01*
X0379233Y0298629D02*
X0389383Y0298629D01*
X0394138Y0296632D02*
X0420433Y0296632D01*
X0420433Y0297631D02*
X0394959Y0297631D01*
X0395283Y0298629D02*
X0420433Y0298629D01*
X0420433Y0299628D02*
X0399102Y0299628D01*
X0399944Y0300626D02*
X0420433Y0300626D01*
X0420433Y0301625D02*
X0400283Y0301625D01*
X0400281Y0302623D02*
X0420433Y0302623D01*
X0420433Y0303622D02*
X0399868Y0303622D01*
X0398792Y0304620D02*
X0420433Y0304620D01*
X0420433Y0305619D02*
X0384338Y0305619D01*
X0384068Y0306617D02*
X0420433Y0306617D01*
X0420433Y0307616D02*
X0383322Y0307616D01*
X0380839Y0308614D02*
X0420433Y0308614D01*
X0420433Y0309613D02*
X0379840Y0309613D01*
X0378842Y0310611D02*
X0420433Y0310611D01*
X0420433Y0311610D02*
X0377843Y0311610D01*
X0376845Y0312608D02*
X0420433Y0312608D01*
X0420433Y0313607D02*
X0375846Y0313607D01*
X0374848Y0314605D02*
X0420433Y0314605D01*
X0420433Y0315604D02*
X0378809Y0315604D01*
X0379083Y0316603D02*
X0420433Y0316603D01*
X0420433Y0317601D02*
X0379083Y0317601D01*
X0379083Y0318600D02*
X0420433Y0318600D01*
X0420433Y0319598D02*
X0379083Y0319598D01*
X0379083Y0320597D02*
X0420433Y0320597D01*
X0420433Y0321595D02*
X0379083Y0321595D01*
X0378611Y0322594D02*
X0420433Y0322594D01*
X0420433Y0323592D02*
X0379150Y0323592D01*
X0379283Y0324591D02*
X0420433Y0324591D01*
X0420433Y0325589D02*
X0379075Y0325589D01*
X0378418Y0326588D02*
X0420433Y0326588D01*
X0420433Y0327586D02*
X0324233Y0327586D01*
X0324233Y0326588D02*
X0366249Y0326588D01*
X0365591Y0325589D02*
X0324233Y0325589D01*
X0324233Y0324591D02*
X0365383Y0324591D01*
X0365516Y0323592D02*
X0324233Y0323592D01*
X0324233Y0322594D02*
X0366056Y0322594D01*
X0365583Y0321595D02*
X0324233Y0321595D01*
X0324233Y0320597D02*
X0365583Y0320597D01*
X0365583Y0319598D02*
X0324233Y0319598D01*
X0324233Y0318600D02*
X0365583Y0318600D01*
X0365583Y0317601D02*
X0324233Y0317601D01*
X0324233Y0316603D02*
X0365583Y0316603D01*
X0365858Y0315604D02*
X0324233Y0315604D01*
X0324233Y0314605D02*
X0370433Y0314605D01*
X0370472Y0313607D02*
X0324233Y0313607D01*
X0324233Y0312608D02*
X0371471Y0312608D01*
X0372469Y0311610D02*
X0324233Y0311610D01*
X0324233Y0310611D02*
X0373468Y0310611D01*
X0374466Y0309613D02*
X0324233Y0309613D01*
X0324233Y0308614D02*
X0346012Y0308614D01*
X0344823Y0307616D02*
X0324233Y0307616D01*
X0324233Y0306617D02*
X0344409Y0306617D01*
X0344297Y0305619D02*
X0324233Y0305619D01*
X0324233Y0304620D02*
X0343298Y0304620D01*
X0342300Y0303622D02*
X0324233Y0303622D01*
X0324233Y0302623D02*
X0341301Y0302623D01*
X0340433Y0301625D02*
X0324233Y0301625D01*
X0324233Y0300626D02*
X0340433Y0300626D01*
X0340433Y0299628D02*
X0324233Y0299628D01*
X0324233Y0298629D02*
X0340433Y0298629D01*
X0340433Y0297631D02*
X0324233Y0297631D01*
X0324233Y0296632D02*
X0340433Y0296632D01*
X0340433Y0295634D02*
X0324233Y0295634D01*
X0324233Y0294635D02*
X0340433Y0294635D01*
X0340433Y0293637D02*
X0324233Y0293637D01*
X0324233Y0292638D02*
X0340433Y0292638D01*
X0340433Y0291640D02*
X0324233Y0291640D01*
X0324233Y0290641D02*
X0340433Y0290641D01*
X0340433Y0289643D02*
X0324233Y0289643D01*
X0324233Y0288644D02*
X0340433Y0288644D01*
X0340433Y0287646D02*
X0324233Y0287646D01*
X0324233Y0286647D02*
X0340433Y0286647D01*
X0340433Y0285649D02*
X0324233Y0285649D01*
X0324233Y0284650D02*
X0340433Y0284650D01*
X0340433Y0283652D02*
X0324233Y0283652D01*
X0324233Y0282653D02*
X0340433Y0282653D01*
X0340433Y0281655D02*
X0324233Y0281655D01*
X0324233Y0280656D02*
X0340433Y0280656D01*
X0340433Y0279658D02*
X0324233Y0279658D01*
X0324233Y0278659D02*
X0340433Y0278659D01*
X0340433Y0277661D02*
X0324233Y0277661D01*
X0324233Y0276662D02*
X0340433Y0276662D01*
X0340433Y0275664D02*
X0324233Y0275664D01*
X0324233Y0274665D02*
X0340433Y0274665D01*
X0340433Y0273667D02*
X0324233Y0273667D01*
X0324233Y0272668D02*
X0340433Y0272668D01*
X0340433Y0271670D02*
X0324233Y0271670D01*
X0324233Y0270671D02*
X0340433Y0270671D01*
X0340433Y0269672D02*
X0324233Y0269672D01*
X0324233Y0268674D02*
X0340433Y0268674D01*
X0340433Y0267675D02*
X0324233Y0267675D01*
X0324233Y0266677D02*
X0340433Y0266677D01*
X0339840Y0265678D02*
X0324233Y0265678D01*
X0324233Y0264680D02*
X0339422Y0264680D01*
X0336388Y0262683D02*
X0336045Y0262683D01*
X0333766Y0262683D02*
X0333046Y0262683D01*
X0330387Y0262683D02*
X0328321Y0262683D01*
X0326050Y0262683D02*
X0324233Y0262683D01*
X0324233Y0261684D02*
X0325251Y0261684D01*
X0325317Y0260686D02*
X0324233Y0260686D01*
X0324233Y0259687D02*
X0325317Y0259687D01*
X0325152Y0258689D02*
X0324233Y0258689D01*
X0337467Y0249702D02*
X0407274Y0249702D01*
X0406328Y0249156D02*
X0406328Y0249156D01*
X0405949Y0248704D02*
X0338657Y0248704D01*
X0339490Y0248005D02*
X0339490Y0248005D01*
X0339663Y0247705D02*
X0405111Y0247705D01*
X0404273Y0246707D02*
X0340239Y0246707D01*
X0340816Y0245708D02*
X0403893Y0245708D01*
X0403529Y0244710D02*
X0341197Y0244710D01*
X0341112Y0245195D02*
X0341112Y0245195D01*
X0341374Y0243711D02*
X0403166Y0243711D01*
X0403133Y0242713D02*
X0341550Y0242713D01*
X0341675Y0242000D02*
X0341675Y0242000D01*
X0341625Y0241714D02*
X0403133Y0241714D01*
X0403133Y0240716D02*
X0341449Y0240716D01*
X0341273Y0239717D02*
X0403374Y0239717D01*
X0403737Y0238719D02*
X0341062Y0238719D01*
X0341112Y0238805D02*
X0341112Y0238805D01*
X0340486Y0237720D02*
X0404101Y0237720D01*
X0404243Y0237329D02*
X0404243Y0237329D01*
X0404753Y0236722D02*
X0339909Y0236722D01*
X0339165Y0235723D02*
X0405591Y0235723D01*
X0406535Y0234725D02*
X0337975Y0234725D01*
X0336500Y0233726D02*
X0408264Y0233726D01*
X0416402Y0233726D02*
X0420433Y0233726D01*
X0420433Y0234725D02*
X0418132Y0234725D01*
X0418338Y0234844D02*
X0418338Y0234844D01*
X0419076Y0235723D02*
X0420433Y0235723D01*
X0420433Y0236722D02*
X0419914Y0236722D01*
X0420424Y0237329D02*
X0420424Y0237329D01*
X0420433Y0224739D02*
X0378266Y0224739D01*
X0379012Y0223741D02*
X0420433Y0223741D01*
X0420433Y0222742D02*
X0379283Y0222742D01*
X0379213Y0221744D02*
X0420433Y0221744D01*
X0420433Y0220745D02*
X0378751Y0220745D01*
X0379083Y0219747D02*
X0420433Y0219747D01*
X0420433Y0218748D02*
X0379083Y0218748D01*
X0379083Y0217750D02*
X0420433Y0217750D01*
X0420433Y0216751D02*
X0379083Y0216751D01*
X0379083Y0215753D02*
X0420433Y0215753D01*
X0420433Y0214754D02*
X0379083Y0214754D01*
X0378961Y0213756D02*
X0420433Y0213756D01*
X0420433Y0212757D02*
X0374696Y0212757D01*
X0375695Y0211759D02*
X0420433Y0211759D01*
X0420433Y0210760D02*
X0376693Y0210760D01*
X0377692Y0209762D02*
X0420433Y0209762D01*
X0420433Y0208763D02*
X0378690Y0208763D01*
X0379689Y0207765D02*
X0420433Y0207765D01*
X0420433Y0206766D02*
X0380687Y0206766D01*
X0383171Y0205768D02*
X0420433Y0205768D01*
X0420433Y0204769D02*
X0384005Y0204769D01*
X0384338Y0203771D02*
X0420433Y0203771D01*
X0420433Y0202772D02*
X0398425Y0202772D01*
X0399763Y0201774D02*
X0420433Y0201774D01*
X0420433Y0200775D02*
X0400218Y0200775D01*
X0400283Y0199777D02*
X0420433Y0199777D01*
X0420433Y0198778D02*
X0400007Y0198778D01*
X0399253Y0197780D02*
X0420433Y0197780D01*
X0420433Y0196781D02*
X0395283Y0196781D01*
X0395203Y0197780D02*
X0395413Y0197780D01*
X0395022Y0195783D02*
X0420433Y0195783D01*
X0420433Y0194784D02*
X0394289Y0194784D01*
X0396241Y0202772D02*
X0384681Y0202772D01*
X0373453Y0221744D02*
X0371213Y0221744D01*
X0371283Y0222742D02*
X0373383Y0222742D01*
X0373654Y0223741D02*
X0371012Y0223741D01*
X0370266Y0224739D02*
X0374401Y0224739D01*
X0392006Y0256692D02*
X0417083Y0256692D01*
X0417350Y0257690D02*
X0392419Y0257690D01*
X0392533Y0258689D02*
X0418133Y0258689D01*
X0420433Y0259687D02*
X0392533Y0259687D01*
X0392263Y0260686D02*
X0420433Y0260686D01*
X0420433Y0261684D02*
X0391850Y0261684D01*
X0391004Y0262683D02*
X0420433Y0262683D01*
X0420433Y0263681D02*
X0389620Y0263681D01*
X0395266Y0299628D02*
X0395565Y0299628D01*
X0395875Y0304620D02*
X0384833Y0304620D01*
X0381332Y0300626D02*
X0379233Y0300626D01*
X0379233Y0299628D02*
X0382330Y0299628D01*
X0376463Y0307616D02*
X0351404Y0307616D01*
X0348654Y0308614D02*
X0375465Y0308614D01*
X0373516Y0323592D02*
X0371150Y0323592D01*
X0371283Y0324591D02*
X0373383Y0324591D01*
X0373591Y0325589D02*
X0371075Y0325589D01*
X0370418Y0326588D02*
X0374249Y0326588D01*
X0404243Y0339329D02*
X0404243Y0339329D01*
X0404156Y0339568D02*
X0340398Y0339568D01*
X0339821Y0338570D02*
X0404880Y0338570D01*
X0405718Y0337571D02*
X0338984Y0337571D01*
X0337795Y0336573D02*
X0406798Y0336573D01*
X0408527Y0335574D02*
X0336083Y0335574D01*
X0340974Y0340567D02*
X0403792Y0340567D01*
X0403429Y0341565D02*
X0341246Y0341565D01*
X0341112Y0340805D02*
X0341112Y0340805D01*
X0341422Y0342564D02*
X0403133Y0342564D01*
X0403133Y0343562D02*
X0341598Y0343562D01*
X0341675Y0344000D02*
X0341675Y0344000D01*
X0341576Y0344561D02*
X0403133Y0344561D01*
X0403133Y0345559D02*
X0341400Y0345559D01*
X0341224Y0346558D02*
X0403474Y0346558D01*
X0403837Y0347556D02*
X0340903Y0347556D01*
X0340327Y0348555D02*
X0404201Y0348555D01*
X0404983Y0349553D02*
X0339750Y0349553D01*
X0338838Y0350552D02*
X0405821Y0350552D01*
X0406328Y0351156D02*
X0406328Y0351156D01*
X0407011Y0351550D02*
X0337648Y0351550D01*
X0337004Y0352090D02*
X0337004Y0352090D01*
X0324269Y0339568D02*
X0324233Y0339568D01*
X0324233Y0338570D02*
X0324845Y0338570D01*
X0325177Y0337995D02*
X0325177Y0337995D01*
X0325682Y0337571D02*
X0324233Y0337571D01*
X0324233Y0336573D02*
X0326872Y0336573D01*
X0327662Y0335910D02*
X0327662Y0335910D01*
X0328584Y0335574D02*
X0324233Y0335574D01*
X0324233Y0334576D02*
X0420433Y0334576D01*
X0420433Y0335574D02*
X0416139Y0335574D01*
X0417869Y0336573D02*
X0420433Y0336573D01*
X0420433Y0337571D02*
X0418949Y0337571D01*
X0418338Y0336844D02*
X0418338Y0336844D01*
X0419787Y0338570D02*
X0420433Y0338570D01*
X0420424Y0339329D02*
X0420424Y0339329D01*
X0420433Y0333577D02*
X0324233Y0333577D01*
X0324233Y0332579D02*
X0420433Y0332579D01*
X0420433Y0331580D02*
X0324233Y0331580D01*
X0324233Y0330582D02*
X0420433Y0330582D01*
X0420433Y0329583D02*
X0324233Y0329583D01*
X0324233Y0328585D02*
X0420433Y0328585D01*
X0350024Y0303622D02*
X0349159Y0303622D01*
X0318433Y0328585D02*
X0222233Y0328585D01*
X0222233Y0329583D02*
X0318433Y0329583D01*
X0318433Y0330582D02*
X0222233Y0330582D01*
X0222233Y0331580D02*
X0318433Y0331580D01*
X0318433Y0332579D02*
X0222233Y0332579D01*
X0222233Y0333577D02*
X0318433Y0333577D01*
X0318433Y0334576D02*
X0222233Y0334576D01*
X0222233Y0335574D02*
X0226584Y0335574D01*
X0225662Y0335910D02*
X0225662Y0335910D01*
X0224872Y0336573D02*
X0222233Y0336573D01*
X0222233Y0337571D02*
X0223682Y0337571D01*
X0223177Y0337995D02*
X0223177Y0337995D01*
X0222845Y0338570D02*
X0222233Y0338570D01*
X0222233Y0339568D02*
X0222269Y0339568D01*
X0216424Y0339329D02*
X0216424Y0339329D01*
X0216433Y0338570D02*
X0215787Y0338570D01*
X0216433Y0337571D02*
X0214949Y0337571D01*
X0214338Y0336844D02*
X0214338Y0336844D01*
X0213869Y0336573D02*
X0216433Y0336573D01*
X0216433Y0335574D02*
X0212139Y0335574D01*
X0216433Y0334576D02*
X0120233Y0334576D01*
X0120233Y0335574D02*
X0124584Y0335574D01*
X0122872Y0336573D02*
X0120233Y0336573D01*
X0120233Y0337571D02*
X0121682Y0337571D01*
X0121177Y0337995D02*
X0121177Y0337995D01*
X0120845Y0338570D02*
X0120233Y0338570D01*
X0120233Y0339568D02*
X0120269Y0339568D01*
X0120233Y0333577D02*
X0216433Y0333577D01*
X0216433Y0332579D02*
X0120233Y0332579D01*
X0120233Y0331580D02*
X0216433Y0331580D01*
X0216433Y0330582D02*
X0120233Y0330582D01*
X0120233Y0329583D02*
X0216433Y0329583D01*
X0216433Y0328585D02*
X0120233Y0328585D01*
X0132083Y0335574D02*
X0204527Y0335574D01*
X0202798Y0336573D02*
X0133795Y0336573D01*
X0134984Y0337571D02*
X0201718Y0337571D01*
X0200880Y0338570D02*
X0135821Y0338570D01*
X0136398Y0339568D02*
X0200156Y0339568D01*
X0200243Y0339329D02*
X0200243Y0339329D01*
X0199792Y0340567D02*
X0136974Y0340567D01*
X0137112Y0340805D02*
X0137112Y0340805D01*
X0137246Y0341565D02*
X0199429Y0341565D01*
X0199133Y0342564D02*
X0137422Y0342564D01*
X0137598Y0343562D02*
X0199133Y0343562D01*
X0199133Y0344561D02*
X0137576Y0344561D01*
X0137675Y0344000D02*
X0137675Y0344000D01*
X0137400Y0345559D02*
X0199133Y0345559D01*
X0199474Y0346558D02*
X0137224Y0346558D01*
X0137112Y0347195D02*
X0137112Y0347195D01*
X0136903Y0347556D02*
X0199837Y0347556D01*
X0200201Y0348555D02*
X0136327Y0348555D01*
X0135750Y0349553D02*
X0200983Y0349553D01*
X0201821Y0350552D02*
X0134838Y0350552D01*
X0135490Y0350005D02*
X0135490Y0350005D01*
X0133648Y0351550D02*
X0203011Y0351550D01*
X0202328Y0351156D02*
X0202328Y0351156D01*
X0235004Y0352090D02*
X0235004Y0352090D01*
X0235648Y0351550D02*
X0305011Y0351550D01*
X0303821Y0350552D02*
X0236838Y0350552D01*
X0237490Y0350005D02*
X0237490Y0350005D01*
X0237750Y0349553D02*
X0302983Y0349553D01*
X0302201Y0348555D02*
X0238327Y0348555D01*
X0238903Y0347556D02*
X0301837Y0347556D01*
X0301474Y0346558D02*
X0239224Y0346558D01*
X0239112Y0347195D02*
X0239112Y0347195D01*
X0239400Y0345559D02*
X0301133Y0345559D01*
X0301133Y0344561D02*
X0239576Y0344561D01*
X0239675Y0344000D02*
X0239675Y0344000D01*
X0239598Y0343562D02*
X0301133Y0343562D01*
X0301133Y0342564D02*
X0239422Y0342564D01*
X0239246Y0341565D02*
X0301429Y0341565D01*
X0301792Y0340567D02*
X0238974Y0340567D01*
X0239112Y0340805D02*
X0239112Y0340805D01*
X0238398Y0339568D02*
X0302156Y0339568D01*
X0302243Y0339329D02*
X0302243Y0339329D01*
X0302880Y0338570D02*
X0237821Y0338570D01*
X0236984Y0337571D02*
X0303718Y0337571D01*
X0304798Y0336573D02*
X0235795Y0336573D01*
X0234083Y0335574D02*
X0306527Y0335574D01*
X0314139Y0335574D02*
X0318433Y0335574D01*
X0318433Y0336573D02*
X0315869Y0336573D01*
X0316338Y0336844D02*
X0316338Y0336844D01*
X0316949Y0337571D02*
X0318433Y0337571D01*
X0318433Y0338570D02*
X0317787Y0338570D01*
X0318424Y0339329D02*
X0318424Y0339329D01*
X0293875Y0304620D02*
X0282833Y0304620D01*
X0279332Y0300626D02*
X0277233Y0300626D01*
X0277233Y0299628D02*
X0280330Y0299628D01*
X0277233Y0298629D02*
X0287383Y0298629D01*
X0287707Y0297631D02*
X0277233Y0297631D01*
X0274463Y0307616D02*
X0249404Y0307616D01*
X0246654Y0308614D02*
X0273465Y0308614D01*
X0271516Y0323592D02*
X0269150Y0323592D01*
X0269283Y0324591D02*
X0271383Y0324591D01*
X0271591Y0325589D02*
X0269075Y0325589D01*
X0268418Y0326588D02*
X0272249Y0326588D01*
X0255433Y0302623D02*
X0244675Y0302623D01*
X0243677Y0301625D02*
X0255433Y0301625D01*
X0248024Y0303622D02*
X0247159Y0303622D01*
X0231956Y0334800D02*
X0231956Y0334800D01*
X0191875Y0304620D02*
X0180833Y0304620D01*
X0177332Y0300626D02*
X0175233Y0300626D01*
X0175233Y0299628D02*
X0178330Y0299628D01*
X0172463Y0307616D02*
X0147404Y0307616D01*
X0144654Y0308614D02*
X0171465Y0308614D01*
X0169516Y0323592D02*
X0167150Y0323592D01*
X0167283Y0324591D02*
X0169383Y0324591D01*
X0169591Y0325589D02*
X0167075Y0325589D01*
X0166418Y0326588D02*
X0170249Y0326588D01*
X0146024Y0303622D02*
X0145159Y0303622D01*
X0191266Y0299628D02*
X0191565Y0299628D01*
X0133004Y0352090D02*
X0133004Y0352090D01*
X0145310Y0201774D02*
X0145873Y0201774D01*
M02*
