G75*
%MOIN*%
%OFA0B0*%
%FSLAX25Y25*%
%IPPOS*%
%LPD*%
%AMOC8*
5,1,8,0,0,1.08239X$1,22.5*
%
%ADD10R,0.03543X0.01378*%
%ADD11R,0.03937X0.01378*%
%ADD12R,0.04331X0.03937*%
%ADD13C,0.01181*%
%ADD14R,0.03937X0.04331*%
%ADD15R,0.07874X0.04724*%
%ADD16R,0.05315X0.02362*%
D10*
X0164593Y0098622D03*
X0164593Y0101378D03*
X0172073Y0101378D03*
X0266593Y0101378D03*
X0266593Y0098622D03*
X0274073Y0101378D03*
X0368593Y0101378D03*
X0368593Y0098622D03*
X0376073Y0101378D03*
X0368593Y0200622D03*
X0368593Y0203378D03*
X0376073Y0203378D03*
X0274073Y0203378D03*
X0266593Y0203378D03*
X0266593Y0200622D03*
X0172073Y0203378D03*
X0164593Y0203378D03*
X0164593Y0200622D03*
X0164593Y0302622D03*
X0164593Y0305378D03*
X0172073Y0305378D03*
X0266593Y0305378D03*
X0266593Y0302622D03*
X0274073Y0305378D03*
X0368593Y0305378D03*
X0368593Y0302622D03*
X0376073Y0305378D03*
D11*
X0375877Y0302622D03*
X0273877Y0302622D03*
X0171877Y0302622D03*
X0171877Y0200622D03*
X0273877Y0200622D03*
X0375877Y0200622D03*
X0375877Y0098622D03*
X0273877Y0098622D03*
X0171877Y0098622D03*
D12*
X0124987Y0060000D03*
X0131680Y0060000D03*
X0164987Y0107500D03*
X0171680Y0107500D03*
X0226987Y0060000D03*
X0233680Y0060000D03*
X0266987Y0107500D03*
X0273680Y0107500D03*
X0328987Y0060000D03*
X0335680Y0060000D03*
X0368987Y0107500D03*
X0375680Y0107500D03*
X0335680Y0162000D03*
X0328987Y0162000D03*
X0368987Y0209500D03*
X0375680Y0209500D03*
X0335680Y0264000D03*
X0328987Y0264000D03*
X0368987Y0311500D03*
X0375680Y0311500D03*
X0273680Y0311500D03*
X0266987Y0311500D03*
X0233680Y0264000D03*
X0226987Y0264000D03*
X0171680Y0311500D03*
X0164987Y0311500D03*
X0131680Y0264000D03*
X0124987Y0264000D03*
X0164987Y0209500D03*
X0171680Y0209500D03*
X0131680Y0162000D03*
X0124987Y0162000D03*
X0226987Y0162000D03*
X0233680Y0162000D03*
X0266987Y0209500D03*
X0273680Y0209500D03*
D13*
X0232408Y0168378D02*
X0232408Y0165622D01*
X0232408Y0168378D02*
X0235164Y0168378D01*
X0235164Y0165622D01*
X0232408Y0165622D01*
X0232408Y0166802D02*
X0235164Y0166802D01*
X0235164Y0167982D02*
X0232408Y0167982D01*
X0225503Y0168378D02*
X0225503Y0165622D01*
X0225503Y0168378D02*
X0228259Y0168378D01*
X0228259Y0165622D01*
X0225503Y0165622D01*
X0225503Y0166802D02*
X0228259Y0166802D01*
X0228259Y0167982D02*
X0225503Y0167982D01*
X0130408Y0168378D02*
X0130408Y0165622D01*
X0130408Y0168378D02*
X0133164Y0168378D01*
X0133164Y0165622D01*
X0130408Y0165622D01*
X0130408Y0166802D02*
X0133164Y0166802D01*
X0133164Y0167982D02*
X0130408Y0167982D01*
X0123503Y0168378D02*
X0123503Y0165622D01*
X0123503Y0168378D02*
X0126259Y0168378D01*
X0126259Y0165622D01*
X0123503Y0165622D01*
X0123503Y0166802D02*
X0126259Y0166802D01*
X0126259Y0167982D02*
X0123503Y0167982D01*
X0123503Y0267622D02*
X0123503Y0270378D01*
X0126259Y0270378D01*
X0126259Y0267622D01*
X0123503Y0267622D01*
X0123503Y0268802D02*
X0126259Y0268802D01*
X0126259Y0269982D02*
X0123503Y0269982D01*
X0130408Y0270378D02*
X0130408Y0267622D01*
X0130408Y0270378D02*
X0133164Y0270378D01*
X0133164Y0267622D01*
X0130408Y0267622D01*
X0130408Y0268802D02*
X0133164Y0268802D01*
X0133164Y0269982D02*
X0130408Y0269982D01*
X0225503Y0270378D02*
X0225503Y0267622D01*
X0225503Y0270378D02*
X0228259Y0270378D01*
X0228259Y0267622D01*
X0225503Y0267622D01*
X0225503Y0268802D02*
X0228259Y0268802D01*
X0228259Y0269982D02*
X0225503Y0269982D01*
X0232408Y0270378D02*
X0232408Y0267622D01*
X0232408Y0270378D02*
X0235164Y0270378D01*
X0235164Y0267622D01*
X0232408Y0267622D01*
X0232408Y0268802D02*
X0235164Y0268802D01*
X0235164Y0269982D02*
X0232408Y0269982D01*
X0327503Y0270378D02*
X0327503Y0267622D01*
X0327503Y0270378D02*
X0330259Y0270378D01*
X0330259Y0267622D01*
X0327503Y0267622D01*
X0327503Y0268802D02*
X0330259Y0268802D01*
X0330259Y0269982D02*
X0327503Y0269982D01*
X0334408Y0270378D02*
X0334408Y0267622D01*
X0334408Y0270378D02*
X0337164Y0270378D01*
X0337164Y0267622D01*
X0334408Y0267622D01*
X0334408Y0268802D02*
X0337164Y0268802D01*
X0337164Y0269982D02*
X0334408Y0269982D01*
X0334408Y0168378D02*
X0334408Y0165622D01*
X0334408Y0168378D02*
X0337164Y0168378D01*
X0337164Y0165622D01*
X0334408Y0165622D01*
X0334408Y0166802D02*
X0337164Y0166802D01*
X0337164Y0167982D02*
X0334408Y0167982D01*
X0327503Y0168378D02*
X0327503Y0165622D01*
X0327503Y0168378D02*
X0330259Y0168378D01*
X0330259Y0165622D01*
X0327503Y0165622D01*
X0327503Y0166802D02*
X0330259Y0166802D01*
X0330259Y0167982D02*
X0327503Y0167982D01*
X0327503Y0066378D02*
X0327503Y0063622D01*
X0327503Y0066378D02*
X0330259Y0066378D01*
X0330259Y0063622D01*
X0327503Y0063622D01*
X0327503Y0064802D02*
X0330259Y0064802D01*
X0330259Y0065982D02*
X0327503Y0065982D01*
X0334408Y0066378D02*
X0334408Y0063622D01*
X0334408Y0066378D02*
X0337164Y0066378D01*
X0337164Y0063622D01*
X0334408Y0063622D01*
X0334408Y0064802D02*
X0337164Y0064802D01*
X0337164Y0065982D02*
X0334408Y0065982D01*
X0232408Y0066378D02*
X0232408Y0063622D01*
X0232408Y0066378D02*
X0235164Y0066378D01*
X0235164Y0063622D01*
X0232408Y0063622D01*
X0232408Y0064802D02*
X0235164Y0064802D01*
X0235164Y0065982D02*
X0232408Y0065982D01*
X0225503Y0066378D02*
X0225503Y0063622D01*
X0225503Y0066378D02*
X0228259Y0066378D01*
X0228259Y0063622D01*
X0225503Y0063622D01*
X0225503Y0064802D02*
X0228259Y0064802D01*
X0228259Y0065982D02*
X0225503Y0065982D01*
X0130408Y0066378D02*
X0130408Y0063622D01*
X0130408Y0066378D02*
X0133164Y0066378D01*
X0133164Y0063622D01*
X0130408Y0063622D01*
X0130408Y0064802D02*
X0133164Y0064802D01*
X0133164Y0065982D02*
X0130408Y0065982D01*
X0123503Y0066378D02*
X0123503Y0063622D01*
X0123503Y0066378D02*
X0126259Y0066378D01*
X0126259Y0063622D01*
X0123503Y0063622D01*
X0123503Y0064802D02*
X0126259Y0064802D01*
X0126259Y0065982D02*
X0123503Y0065982D01*
D14*
X0158333Y0111654D03*
X0158333Y0118346D03*
X0178333Y0118346D03*
X0178333Y0111654D03*
X0260333Y0111654D03*
X0260333Y0118346D03*
X0280333Y0118346D03*
X0280333Y0111654D03*
X0362333Y0111654D03*
X0362333Y0118346D03*
X0382333Y0118346D03*
X0382333Y0111654D03*
X0382333Y0213654D03*
X0382333Y0220346D03*
X0362333Y0220346D03*
X0362333Y0213654D03*
X0280333Y0213654D03*
X0280333Y0220346D03*
X0260333Y0220346D03*
X0260333Y0213654D03*
X0178333Y0213654D03*
X0178333Y0220346D03*
X0158333Y0220346D03*
X0158333Y0213654D03*
X0158333Y0315654D03*
X0158333Y0322346D03*
X0178333Y0322346D03*
X0178333Y0315654D03*
X0260333Y0315654D03*
X0260333Y0322346D03*
X0280333Y0322346D03*
X0280333Y0315654D03*
X0362333Y0315654D03*
X0362333Y0322346D03*
X0382333Y0322346D03*
X0382333Y0315654D03*
D15*
X0416802Y0315024D03*
X0416802Y0292976D03*
X0327865Y0292976D03*
X0314802Y0292976D03*
X0314802Y0315024D03*
X0327865Y0315024D03*
X0225865Y0315024D03*
X0212802Y0315024D03*
X0212802Y0292976D03*
X0225865Y0292976D03*
X0123865Y0292976D03*
X0123865Y0315024D03*
X0123865Y0213024D03*
X0123865Y0190976D03*
X0212802Y0190976D03*
X0225865Y0190976D03*
X0225865Y0213024D03*
X0212802Y0213024D03*
X0314802Y0213024D03*
X0327865Y0213024D03*
X0327865Y0190976D03*
X0314802Y0190976D03*
X0416802Y0190976D03*
X0416802Y0213024D03*
X0416802Y0111024D03*
X0416802Y0088976D03*
X0327865Y0088976D03*
X0314802Y0088976D03*
X0314802Y0111024D03*
X0327865Y0111024D03*
X0225865Y0111024D03*
X0212802Y0111024D03*
X0212802Y0088976D03*
X0225865Y0088976D03*
X0123865Y0088976D03*
X0123865Y0111024D03*
D16*
X0138333Y0105906D03*
X0138333Y0101969D03*
X0138333Y0098031D03*
X0138333Y0094094D03*
X0198333Y0094094D03*
X0198333Y0098031D03*
X0198333Y0101969D03*
X0198333Y0105906D03*
X0240333Y0105906D03*
X0240333Y0101969D03*
X0240333Y0098031D03*
X0240333Y0094094D03*
X0300333Y0094094D03*
X0300333Y0098031D03*
X0300333Y0101969D03*
X0300333Y0105906D03*
X0342333Y0105906D03*
X0342333Y0101969D03*
X0342333Y0098031D03*
X0342333Y0094094D03*
X0402333Y0094094D03*
X0402333Y0098031D03*
X0402333Y0101969D03*
X0402333Y0105906D03*
X0402333Y0196094D03*
X0402333Y0200031D03*
X0402333Y0203969D03*
X0402333Y0207906D03*
X0342333Y0207906D03*
X0342333Y0203969D03*
X0342333Y0200031D03*
X0342333Y0196094D03*
X0300333Y0196094D03*
X0300333Y0200031D03*
X0300333Y0203969D03*
X0300333Y0207906D03*
X0240333Y0207906D03*
X0240333Y0203969D03*
X0240333Y0200031D03*
X0240333Y0196094D03*
X0198333Y0196094D03*
X0198333Y0200031D03*
X0198333Y0203969D03*
X0198333Y0207906D03*
X0138333Y0207906D03*
X0138333Y0203969D03*
X0138333Y0200031D03*
X0138333Y0196094D03*
X0138333Y0298094D03*
X0138333Y0302031D03*
X0138333Y0305969D03*
X0138333Y0309906D03*
X0198333Y0309906D03*
X0198333Y0305969D03*
X0198333Y0302031D03*
X0198333Y0298094D03*
X0240333Y0298094D03*
X0240333Y0302031D03*
X0240333Y0305969D03*
X0240333Y0309906D03*
X0300333Y0309906D03*
X0300333Y0305969D03*
X0300333Y0302031D03*
X0300333Y0298094D03*
X0342333Y0298094D03*
X0342333Y0302031D03*
X0342333Y0305969D03*
X0342333Y0309906D03*
X0402333Y0309906D03*
X0402333Y0305969D03*
X0402333Y0302031D03*
X0402333Y0298094D03*
M02*
